<svg width="36" height="36" viewBox="0 0 36 36" fill="none" xmlns="http://www.w3.org/2000/svg">
<path d="M32.7853 4.82621H26.0353V2.25478C26.0353 2.07799 25.8906 1.93335 25.7138 1.93335H23.4638C23.287 1.93335 23.1424 2.07799 23.1424 2.25478V4.82621H12.8567V2.25478C12.8567 2.07799 12.712 1.93335 12.5353 1.93335H10.2853C10.1085 1.93335 9.96383 2.07799 9.96383 2.25478V4.82621H3.21383C2.50267 4.82621 1.92812 5.40076 1.92812 6.11192V32.7905C1.92812 33.5017 2.50267 34.0762 3.21383 34.0762H32.7853C33.4964 34.0762 34.071 33.5017 34.071 32.7905V6.11192C34.071 5.40076 33.4964 4.82621 32.7853 4.82621ZM31.1781 31.1834H4.82097V7.71906H9.96383V9.64764C9.96383 9.82442 10.1085 9.96906 10.2853 9.96906H12.5353C12.712 9.96906 12.8567 9.82442 12.8567 9.64764V7.71906H23.1424V9.64764C23.1424 9.82442 23.287 9.96906 23.4638 9.96906H25.7138C25.8906 9.96906 26.0353 9.82442 26.0353 9.64764V7.71906H31.1781V31.1834ZM23.1223 14.0673H21.3143C21.1937 14.0673 21.0812 14.1356 21.029 14.2441L18.0799 20.086H17.9674L15.0183 14.2441C14.9916 14.1912 14.9509 14.1467 14.9006 14.1155C14.8502 14.0843 14.7922 14.0676 14.733 14.0673H12.8848C12.8326 14.0673 12.7763 14.0793 12.7321 14.1075C12.5754 14.1918 12.5192 14.3887 12.6036 14.5454L16.1915 21.1347H14.2388C14.062 21.1347 13.9174 21.2793 13.9174 21.4561V22.3119C13.9174 22.4887 14.062 22.6334 14.2388 22.6334H16.8545V23.9874H14.2388C14.062 23.9874 13.9174 24.132 13.9174 24.3088V25.1646C13.9174 25.3414 14.062 25.486 14.2388 25.486H16.8545V27.6476C16.8545 27.8244 16.9991 27.9691 17.1759 27.9691H18.8353C19.012 27.9691 19.1567 27.8244 19.1567 27.6476V25.486H21.7844C21.9612 25.486 22.1058 25.3414 22.1058 25.1646V24.3088C22.1058 24.132 21.9612 23.9874 21.7844 23.9874H19.1567V22.6334H21.7844C21.9612 22.6334 22.1058 22.4887 22.1058 22.3119V21.4561C22.1058 21.2793 21.9612 21.1347 21.7844 21.1347H19.8116L23.3995 14.5414C23.4237 14.4932 23.4397 14.4409 23.4397 14.3887C23.4437 14.2119 23.3031 14.0673 23.1223 14.0673Z" fill="black" fill-opacity="0.45"/>
</svg>
