<svg width="36" height="36" viewBox="0 0 36 36" fill="none" xmlns="http://www.w3.org/2000/svg">
<path d="M5.18268 29.4082C5.18268 30.1194 5.75724 30.6939 6.4684 30.6939H29.5309C30.2421 30.6939 30.8166 30.1194 30.8166 29.4082V20.0466C30.8166 12.9671 25.0791 7.22963 17.9996 7.22963C10.9202 7.22963 5.18268 12.9671 5.18268 20.0466V29.4082ZM8.07554 20.0466C8.07554 14.5662 12.5193 10.1225 17.9996 10.1225C23.48 10.1225 27.9238 14.5662 27.9238 20.0466V27.8011H13.6604V20.9305C13.6604 20.7095 13.4796 20.5287 13.2586 20.5287H11.4907C11.2697 20.5287 11.0889 20.7095 11.0889 20.9305V27.8011H8.07554V20.0466ZM6.14295 9.90151L7.73402 8.31044C7.85858 8.18588 7.85858 7.98097 7.73402 7.85642L5.0059 5.12829C4.94549 5.06847 4.8639 5.03492 4.77889 5.03492C4.69387 5.03492 4.61229 5.06847 4.55188 5.12829L2.96081 6.71936C2.90099 6.77978 2.86743 6.86136 2.86743 6.94637C2.86743 7.03139 2.90099 7.11297 2.96081 7.17338L5.68893 9.90151C5.81349 10.0261 6.01438 10.0261 6.14295 9.90151ZM33.0465 6.71936L31.4555 5.12829C31.395 5.06847 31.3135 5.03492 31.2284 5.03492C31.1434 5.03492 31.0618 5.06847 31.0014 5.12829L28.2733 7.85642C28.2135 7.91683 28.1799 7.99841 28.1799 8.08343C28.1799 8.16844 28.2135 8.25002 28.2733 8.31044L29.8644 9.90151C29.9889 10.0261 30.1938 10.0261 30.3184 9.90151L33.0465 7.17338C33.1711 7.04481 33.1711 6.84392 33.0465 6.71936ZM30.8568 33.2654H5.1425C4.43134 33.2654 3.85679 33.8399 3.85679 34.5511V35.5154C3.85679 35.6921 4.00143 35.8368 4.17822 35.8368H31.8211C31.9979 35.8368 32.1425 35.6921 32.1425 35.5154V34.5511C32.1425 33.8399 31.568 33.2654 30.8568 33.2654ZM16.8746 4.6582H19.1246C19.3014 4.6582 19.4461 4.51356 19.4461 4.33677V0.479632C19.4461 0.302846 19.3014 0.158203 19.1246 0.158203H16.8746C16.6979 0.158203 16.5532 0.302846 16.5532 0.479632V4.33677C16.5532 4.51356 16.6979 4.6582 16.8746 4.6582Z" fill="black" fill-opacity="0.45"/>
</svg>
