<svg width="36" height="36" viewBox="0 0 36 36" fill="none" xmlns="http://www.w3.org/2000/svg">
<path d="M2.25063 6.67215H22.1792C22.356 6.67215 22.5006 6.52751 22.5006 6.35073V4.10073C22.5006 3.92394 22.356 3.7793 22.1792 3.7793H2.25063C2.07384 3.7793 1.9292 3.92394 1.9292 4.10073V6.35073C1.9292 6.52751 2.07384 6.67215 2.25063 6.67215ZM2.25063 23.7079H22.1792C22.356 23.7079 22.5006 23.5632 22.5006 23.3864V21.1364C22.5006 20.9597 22.356 20.815 22.1792 20.815H2.25063C2.07384 20.815 1.9292 20.9597 1.9292 21.1364V23.3864C1.9292 23.5632 2.07384 23.7079 2.25063 23.7079ZM33.7506 29.3329H2.25063C2.07384 29.3329 1.9292 29.4775 1.9292 29.6543V31.9043C1.9292 32.0811 2.07384 32.2257 2.25063 32.2257H33.7506C33.9274 32.2257 34.0721 32.0811 34.0721 31.9043V29.6543C34.0721 29.4775 33.9274 29.3329 33.7506 29.3329ZM33.7506 12.2972H2.25063C2.07384 12.2972 1.9292 12.4418 1.9292 12.6186V14.8686C1.9292 15.0454 2.07384 15.19 2.25063 15.19H33.7506C33.9274 15.19 34.0721 15.0454 34.0721 14.8686V12.6186C34.0721 12.4418 33.9274 12.2972 33.7506 12.2972Z" fill="black" fill-opacity="0.45"/>
</svg>
