<svg width="36" height="36" viewBox="0 0 36 36" fill="none" xmlns="http://www.w3.org/2000/svg">
<path d="M8.03631 6.67215H27.9649C28.1417 6.67215 28.2863 6.52751 28.2863 6.35073V4.10073C28.2863 3.92394 28.1417 3.7793 27.9649 3.7793H8.03631C7.85953 3.7793 7.71488 3.92394 7.71488 4.10073V6.35073C7.71488 6.52751 7.85953 6.67215 8.03631 6.67215ZM27.9649 23.7079C28.1417 23.7079 28.2863 23.5632 28.2863 23.3864V21.1364C28.2863 20.9597 28.1417 20.815 27.9649 20.815H8.03631C7.85953 20.815 7.71488 20.9597 7.71488 21.1364V23.3864C7.71488 23.5632 7.85953 23.7079 8.03631 23.7079H27.9649ZM33.7506 29.3329H2.2506C2.07381 29.3329 1.92917 29.4775 1.92917 29.6543V31.9043C1.92917 32.0811 2.07381 32.2257 2.2506 32.2257H33.7506C33.9274 32.2257 34.072 32.0811 34.072 31.9043V29.6543C34.072 29.4775 33.9274 29.3329 33.7506 29.3329ZM33.7506 12.2972H2.2506C2.07381 12.2972 1.92917 12.4418 1.92917 12.6186V14.8686C1.92917 15.0454 2.07381 15.19 2.2506 15.19H33.7506C33.9274 15.19 34.072 15.0454 34.072 14.8686V12.6186C34.072 12.4418 33.9274 12.2972 33.7506 12.2972Z" fill="black" fill-opacity="0.45"/>
</svg>
