<svg width="36" height="36" viewBox="0 0 36 36" fill="none" xmlns="http://www.w3.org/2000/svg">
<path d="M33.7506 3.7793H13.8221C13.6453 3.7793 13.5006 3.92394 13.5006 4.10073V6.35073C13.5006 6.52751 13.6453 6.67215 13.8221 6.67215H33.7506C33.9274 6.67215 34.0721 6.52751 34.0721 6.35073V4.10073C34.0721 3.92394 33.9274 3.7793 33.7506 3.7793ZM33.7506 20.815H13.8221C13.6453 20.815 13.5006 20.9597 13.5006 21.1364V23.3864C13.5006 23.5632 13.6453 23.7079 13.8221 23.7079H33.7506C33.9274 23.7079 34.0721 23.5632 34.0721 23.3864V21.1364C34.0721 20.9597 33.9274 20.815 33.7506 20.815ZM33.7506 29.3329H2.25063C2.07384 29.3329 1.9292 29.4775 1.9292 29.6543V31.9043C1.9292 32.0811 2.07384 32.2257 2.25063 32.2257H33.7506C33.9274 32.2257 34.0721 32.0811 34.0721 31.9043V29.6543C34.0721 29.4775 33.9274 29.3329 33.7506 29.3329ZM33.7506 12.2972H2.25063C2.07384 12.2972 1.9292 12.4418 1.9292 12.6186V14.8686C1.9292 15.0454 2.07384 15.19 2.25063 15.19H33.7506C33.9274 15.19 34.0721 15.0454 34.0721 14.8686V12.6186C34.0721 12.4418 33.9274 12.2972 33.7506 12.2972Z" fill="black" fill-opacity="0.45"/>
</svg>
