<svg width="36" height="36" viewBox="0 0 36 36" fill="none" xmlns="http://www.w3.org/2000/svg">
<path d="M34.2987 3.41293L32.5951 1.70935C32.5309 1.64507 32.4505 1.61694 32.3661 1.61694C32.2817 1.61694 32.2014 1.64909 32.1371 1.70935L29.0795 4.76694C27.7503 3.86635 26.1811 3.3862 24.5755 3.38882C22.5184 3.38882 20.4612 4.1723 18.8902 5.74328L14.796 9.83748C14.7362 9.89789 14.7027 9.97947 14.7027 10.0645C14.7027 10.1495 14.7362 10.2311 14.796 10.2915L25.7126 21.208C25.7768 21.2723 25.8572 21.3004 25.9416 21.3004C26.0219 21.3004 26.1063 21.2683 26.1706 21.208L30.2648 17.1138C33.0331 14.3415 33.3585 10.0544 31.2411 6.92855L34.2987 3.87096C34.4233 3.74239 34.4233 3.53748 34.2987 3.41293ZM28.3282 15.1812L25.9416 17.5678L18.4362 10.0625L20.8228 7.67587C21.8233 6.67543 23.1572 6.12096 24.5755 6.12096C25.9938 6.12096 27.3237 6.67141 28.3282 7.67587C29.3286 8.67632 29.8831 10.0102 29.8831 11.4286C29.8831 12.8469 29.3286 14.1768 28.3282 15.1812ZM20.6862 19.4C20.6258 19.3402 20.5442 19.3066 20.4592 19.3066C20.3742 19.3066 20.2926 19.3402 20.2322 19.4L17.5563 22.0759L13.9282 18.4477L16.6081 15.7678C16.7326 15.6433 16.7326 15.4384 16.6081 15.3138L15.1456 13.8513C15.0852 13.7915 15.0036 13.7579 14.9186 13.7579C14.8336 13.7579 14.752 13.7915 14.6916 13.8513L12.0117 16.5312L10.284 14.8036C10.254 14.7735 10.2182 14.7499 10.1789 14.734C10.1395 14.7181 10.0974 14.7103 10.055 14.7111C9.9746 14.7111 9.89023 14.7433 9.82594 14.8036L5.73576 18.8977C2.96746 21.6701 2.64201 25.9571 4.75942 29.083L1.70183 32.1406C1.64202 32.201 1.60846 32.2826 1.60846 32.3676C1.60846 32.4526 1.64202 32.5342 1.70183 32.5946L3.40541 34.2982C3.46969 34.3625 3.55005 34.3906 3.63442 34.3906C3.7188 34.3906 3.79916 34.3585 3.86344 34.2982L6.92103 31.2406C8.27505 32.1607 9.85005 32.6187 11.425 32.6187C13.4822 32.6187 15.5393 31.8352 17.1103 30.2643L21.2045 26.1701C21.3291 26.0455 21.3291 25.8406 21.2045 25.7161L19.4768 23.9884L22.1567 21.3085C22.2813 21.1839 22.2813 20.979 22.1567 20.8544L20.6862 19.4ZM15.1737 28.3357C14.682 28.83 14.0971 29.2219 13.453 29.4888C12.8089 29.7557 12.1183 29.8922 11.421 29.8906C10.0027 29.8906 8.67282 29.3402 7.66835 28.3357C7.17408 27.8439 6.78218 27.2591 6.51529 26.615C6.2484 25.9709 6.11182 25.2802 6.11344 24.583C6.11344 23.1647 6.66389 21.8348 7.66835 20.8303L10.055 18.4437L17.5603 25.9491L15.1737 28.3357Z" fill="black" fill-opacity="0.45"/>
</svg>
