<svg width="36" height="36" viewBox="0 0 36 36" fill="none" xmlns="http://www.w3.org/2000/svg">
<path d="M16.0733 3.2168H3.85897C3.50539 3.2168 3.21611 3.50608 3.21611 3.85965V16.0739C3.21611 16.4275 3.50539 16.7168 3.85897 16.7168H16.0733C16.4268 16.7168 16.7161 16.4275 16.7161 16.0739V3.85965C16.7161 3.50608 16.4268 3.2168 16.0733 3.2168ZM13.984 13.9847H5.94825V5.94894H13.984V13.9847ZM32.1447 3.2168H19.9304C19.5768 3.2168 19.2875 3.50608 19.2875 3.85965V16.0739C19.2875 16.4275 19.5768 16.7168 19.9304 16.7168H32.1447C32.4983 16.7168 32.7875 16.4275 32.7875 16.0739V3.85965C32.7875 3.50608 32.4983 3.2168 32.1447 3.2168ZM30.0554 13.9847H22.0197V5.94894H30.0554V13.9847ZM32.1447 19.2882H19.9304C19.5768 19.2882 19.2875 19.5775 19.2875 19.9311V32.1454C19.2875 32.4989 19.5768 32.7882 19.9304 32.7882H32.1447C32.4983 32.7882 32.7875 32.4989 32.7875 32.1454V19.9311C32.7875 19.5775 32.4983 19.2882 32.1447 19.2882ZM30.0554 30.0561H22.0197V22.0204H30.0554V30.0561ZM14.4661 26.0382H9.32325V20.8954C9.32325 20.7186 9.17861 20.5739 9.00182 20.5739H7.07325C6.89647 20.5739 6.75182 20.7186 6.75182 20.8954V26.0382H1.60897C1.43218 26.0382 1.28754 26.1829 1.28754 26.3597V28.2882C1.28754 28.465 1.43218 28.6097 1.60897 28.6097H6.75182V33.7525C6.75182 33.9293 6.89647 34.0739 7.07325 34.0739H9.00182C9.17861 34.0739 9.32325 33.9293 9.32325 33.7525V28.6097H14.4661C14.6429 28.6097 14.7875 28.465 14.7875 28.2882V26.3597C14.7875 26.1829 14.6429 26.0382 14.4661 26.0382Z" fill="black" fill-opacity="0.45"/>
</svg>
