<svg width="36" height="36" viewBox="0 0 36 36" fill="none" xmlns="http://www.w3.org/2000/svg">
<path d="M33.1076 29.2513H5.46474V4.17983C5.46474 4.00304 5.3201 3.8584 5.14331 3.8584H2.89331C2.71653 3.8584 2.57188 4.00304 2.57188 4.17983V31.8227C2.57188 31.9995 2.71653 32.1441 2.89331 32.1441H33.1076C33.2844 32.1441 33.429 31.9995 33.429 31.8227V29.5727C33.429 29.3959 33.2844 29.2513 33.1076 29.2513ZM8.3576 26.6798H29.8933C30.0701 26.6798 30.2147 26.5352 30.2147 26.3584V8.84054C30.2147 8.55126 29.8652 8.41063 29.6643 8.61152L21.2147 17.0611L16.1764 12.0789C16.1159 12.0191 16.0344 11.9856 15.9493 11.9856C15.8643 11.9856 15.7827 12.0191 15.7223 12.0789L8.12858 19.6968C8.09909 19.7263 8.07574 19.7614 8.05988 19.8001C8.04402 19.8387 8.03596 19.88 8.03617 19.9218V26.3584C8.03617 26.5352 8.18081 26.6798 8.3576 26.6798Z" fill="black" fill-opacity="0.45"/>
</svg>
