<svg width="36" height="36" viewBox="0 0 36 36" fill="none" xmlns="http://www.w3.org/2000/svg">
<path d="M31.2595 15.6696C31.2595 15.4929 31.1149 15.3482 30.9381 15.3482H28.5274C28.3506 15.3482 28.206 15.4929 28.206 15.6696C28.206 21.3067 23.6377 25.875 18.0006 25.875C12.3635 25.875 7.79524 21.3067 7.79524 15.6696C7.79524 15.4929 7.6506 15.3482 7.47381 15.3482H5.0631C4.88631 15.3482 4.74167 15.4929 4.74167 15.6696C4.74167 22.4478 9.82828 28.0406 16.3935 28.8321V32.9464H10.5555C10.0051 32.9464 9.5631 33.521 9.5631 34.2321V35.6786C9.5631 35.8554 9.6756 36 9.81221 36H26.189C26.3256 36 26.4381 35.8554 26.4381 35.6786V34.2321C26.4381 33.521 25.9961 32.9464 25.4457 32.9464H19.447V28.8522C26.0885 28.129 31.2595 22.504 31.2595 15.6696ZM18.0006 22.5C21.7734 22.5 24.831 19.4786 24.831 15.75V6.75C24.831 3.02143 21.7734 0 18.0006 0C14.2278 0 11.1702 3.02143 11.1702 6.75V15.75C11.1702 19.4786 14.2278 22.5 18.0006 22.5ZM14.2238 6.75C14.2238 4.71696 15.9073 3.05357 18.0006 3.05357C20.0939 3.05357 21.7774 4.71696 21.7774 6.75V15.75C21.7774 17.783 20.0939 19.4464 18.0006 19.4464C15.9073 19.4464 14.2238 17.783 14.2238 15.75V6.75Z" fill="black" fill-opacity="0.45"/>
</svg>
