<svg width="36" height="36" viewBox="0 0 36 36" fill="none" xmlns="http://www.w3.org/2000/svg">
<path d="M9.32237 7.46593C9.14559 7.46593 9.00094 7.61057 9.00094 7.78735V9.71593C9.00094 9.89271 9.14559 10.0374 9.32237 10.0374H24.7509C24.9277 10.0374 25.0724 9.89271 25.0724 9.71593V7.78735C25.0724 7.61057 24.9277 7.46593 24.7509 7.46593H9.32237ZM16.7152 13.2516H9.32237C9.14559 13.2516 9.00094 13.3963 9.00094 13.5731V15.5016C9.00094 15.6784 9.14559 15.8231 9.32237 15.8231H16.7152C16.892 15.8231 17.0367 15.6784 17.0367 15.5016V13.5731C17.0367 13.3963 16.892 13.2516 16.7152 13.2516ZM14.7867 31.6534H5.78666V3.36771H28.2867V16.2249C28.2867 16.4016 28.4313 16.5463 28.6081 16.5463H30.8581C31.0349 16.5463 31.1795 16.4016 31.1795 16.2249V1.76057C31.1795 1.04941 30.605 0.474854 29.8938 0.474854H4.17951C3.46835 0.474854 2.8938 1.04941 2.8938 1.76057V33.2606C2.8938 33.9717 3.46835 34.5463 4.17951 34.5463H14.7867C14.9634 34.5463 15.1081 34.4016 15.1081 34.2249V31.9749C15.1081 31.7981 14.9634 31.6534 14.7867 31.6534ZM32.4652 28.1177H26.6795V26.6472C28.5398 26.0927 29.8938 24.3731 29.8938 22.332C29.8938 19.8449 27.8809 17.832 25.3938 17.832C22.9067 17.832 20.8938 19.8449 20.8938 22.332C20.8938 24.3691 22.2478 26.0927 24.1081 26.6472V28.1177H18.3224C17.9688 28.1177 17.6795 28.407 17.6795 28.7606V34.8677C17.6795 35.2213 17.9688 35.5106 18.3224 35.5106H32.4652C32.8188 35.5106 33.1081 35.2213 33.1081 34.8677V28.7606C33.1081 28.407 32.8188 28.1177 32.4652 28.1177ZM23.3849 22.332C23.3849 21.2231 24.2849 20.3231 25.3938 20.3231C26.5027 20.3231 27.4027 21.2231 27.4027 22.332C27.4027 23.4409 26.5027 24.3409 25.3938 24.3409C24.2849 24.3409 23.3849 23.4409 23.3849 22.332ZM30.617 33.0195H20.1706V30.6088H30.617V33.0195Z" fill="black" fill-opacity="0.45"/>
</svg>
