<svg width="36" height="36" viewBox="0 0 36 36" fill="none" xmlns="http://www.w3.org/2000/svg">
<g clip-path="url(#clip0_636_5838)">
<path d="M24.831 15.7172V9.93146L21.7774 12.985V15.7172C21.7734 17.7542 20.0899 19.4176 18.0006 19.4136C17.2607 19.4177 16.5354 19.2084 15.9113 18.8109L13.7417 21.0207C14.9109 21.9207 16.3895 22.4672 18.0006 22.4672C21.7694 22.4672 24.831 19.4498 24.831 15.7172Z" fill="black" fill-opacity="0.45"/>
<path d="M30.8978 15.3492H28.4871C28.3103 15.3492 28.1657 15.4939 28.1657 15.6706C28.1657 21.3077 23.5974 25.876 17.9603 25.876C15.4291 25.876 13.1108 24.9519 11.3309 23.4251L9.16124 25.5947C11.1781 27.3761 13.6838 28.51 16.3532 28.8492V32.9474H10.5273C9.96883 32.9474 9.52686 33.522 9.52285 34.2331V35.6796C9.52686 35.8564 9.63936 36.001 9.76392 36.001H26.1568C26.2853 36.001 26.3978 35.8564 26.3978 35.6796V34.2331C26.3978 33.522 25.9559 32.9474 25.3934 32.9474H19.4068V28.8492C26.0483 28.13 31.2193 22.505 31.2193 15.6706C31.2193 15.4939 31.0746 15.3492 30.8978 15.3492ZM31.4242 0.173764L29.6764 -1.50972C29.6158 -1.56808 29.5347 -1.60035 29.4506 -1.5996C29.3665 -1.59885 29.286 -1.56513 29.2264 -1.5057L24.0434 3.67734C22.9144 1.49564 20.6121 0.00099659 17.9603 0.00099659C14.1876 0.00099659 11.13 3.02644 11.13 6.751V15.751C11.13 16.0202 11.1461 16.2854 11.1782 16.5465L8.44606 19.2787C8.01163 18.1255 7.79106 16.9029 7.79517 15.6706C7.78713 15.4939 7.64249 15.3492 7.47374 15.3492H5.06302C4.88624 15.3492 4.7416 15.4939 4.7416 15.6706C4.7416 17.8001 5.24383 19.809 6.13177 21.593L0.627311 27.0974C0.567492 27.1578 0.533936 27.2394 0.533936 27.3244C0.533936 27.4094 0.567492 27.491 0.627311 27.5514L2.34294 29.2671C2.46749 29.3916 2.6724 29.3916 2.79695 29.2671L31.4322 0.6318C31.5568 0.503229 31.5528 0.298318 31.4242 0.173764ZM14.1836 13.5412V6.751C14.1836 4.71796 15.867 3.05457 17.9603 3.05457C19.8086 3.05457 21.3394 4.35234 21.6688 6.05591L14.1836 13.5412Z" fill="black" fill-opacity="0.45"/>
</g>
<defs>
<clipPath id="clip0_636_5838">
<rect width="36" height="36" fill="white"/>
</clipPath>
</defs>
</svg>
