<svg width="36" height="36" viewBox="0 0 36 36" fill="none" xmlns="http://www.w3.org/2000/svg">
<path d="M17.0727 8.78558L6.96882 17.5078C6.67702 17.7575 6.67702 18.2391 6.96882 18.4887L17.0727 27.2145C17.4489 27.5379 18.0008 27.2461 18.0008 26.7223V9.27425C18.0008 8.75394 17.4489 8.45863 17.0727 8.78558ZM28.3227 8.78558L18.2188 17.5078C18.1496 17.5697 18.0944 17.6456 18.0568 17.7305C18.0193 17.8153 18.0002 17.9072 18.0008 18C18.0008 18.1828 18.0747 18.3657 18.2188 18.4922L28.3227 27.218C28.6989 27.5414 29.2508 27.2496 29.2508 26.7258V9.27425C29.2508 8.75394 28.6989 8.45863 28.3227 8.78558Z" fill="black" fill-opacity="0.45"/>
</svg>
