<svg width="36" height="36" viewBox="0 0 36 36" fill="none" xmlns="http://www.w3.org/2000/svg">
<g clip-path="url(#clip0_636_5835)">
<path d="M2.25 3.84985H0.321429C0.144643 3.84985 0 3.9945 0 4.17128V31.8141C0 31.9909 0.144643 32.1356 0.321429 32.1356H2.25C2.42679 32.1356 2.57143 31.9909 2.57143 31.8141V4.17128C2.57143 3.9945 2.42679 3.84985 2.25 3.84985ZM35.7188 3.84985H33.7902C33.6134 3.84985 33.4688 3.9945 33.4688 4.17128V31.8141C33.4688 31.9909 33.6134 32.1356 33.7902 32.1356H35.7188C35.8955 32.1356 36.0402 31.9909 36.0402 31.8141V4.17128C36.0402 3.9945 35.8955 3.84985 35.7188 3.84985ZM5.46429 26.9927H9.96429C10.1411 26.9927 10.2857 26.8481 10.2857 26.6713V4.17128C10.2857 3.9945 10.1411 3.84985 9.96429 3.84985H5.46429C5.2875 3.84985 5.14286 3.9945 5.14286 4.17128V26.6713C5.14286 26.8481 5.2875 26.9927 5.46429 26.9927ZM18.3616 26.9927H20.2902C20.467 26.9927 20.6116 26.8481 20.6116 26.6713V4.17128C20.6116 3.9945 20.467 3.84985 20.2902 3.84985H18.3616C18.1848 3.84985 18.0402 3.9945 18.0402 4.17128V26.6713C18.0402 26.8481 18.1848 26.9927 18.3616 26.9927ZM23.4241 26.9927H30.5759C30.7527 26.9927 30.8973 26.8481 30.8973 26.6713V4.17128C30.8973 3.9945 30.7527 3.84985 30.5759 3.84985H23.4241C23.2473 3.84985 23.1027 3.9945 23.1027 4.17128V26.6713C23.1027 26.8481 23.2473 26.9927 23.4241 26.9927ZM13.1786 26.9927H15.1071C15.2839 26.9927 15.4286 26.8481 15.4286 26.6713V4.17128C15.4286 3.9945 15.2839 3.84985 15.1071 3.84985H13.1786C13.0018 3.84985 12.8571 3.9945 12.8571 4.17128V26.6713C12.8571 26.8481 13.0018 26.9927 13.1786 26.9927ZM10.0045 29.5641H5.50446C5.32768 29.5641 5.18304 29.7088 5.18304 29.8856V31.8141C5.18304 31.9909 5.32768 32.1356 5.50446 32.1356H10.0045C10.1813 32.1356 10.3259 31.9909 10.3259 31.8141V29.8856C10.3259 29.7088 10.1813 29.5641 10.0045 29.5641ZM20.3304 29.5641H18.4018C18.225 29.5641 18.0804 29.7088 18.0804 29.8856V31.8141C18.0804 31.9909 18.225 32.1356 18.4018 32.1356H20.3304C20.5071 32.1356 20.6518 31.9909 20.6518 31.8141V29.8856C20.6518 29.7088 20.5071 29.5641 20.3304 29.5641ZM30.6161 29.5641H23.4643C23.2875 29.5641 23.1429 29.7088 23.1429 29.8856V31.8141C23.1429 31.9909 23.2875 32.1356 23.4643 32.1356H30.6161C30.7929 32.1356 30.9375 31.9909 30.9375 31.8141V29.8856C30.9375 29.7088 30.7929 29.5641 30.6161 29.5641ZM15.1473 29.5641H13.2188C13.042 29.5641 12.8973 29.7088 12.8973 29.8856V31.8141C12.8973 31.9909 13.042 32.1356 13.2188 32.1356H15.1473C15.3241 32.1356 15.4688 31.9909 15.4688 31.8141V29.8856C15.4688 29.7088 15.3241 29.5641 15.1473 29.5641Z" fill="black" fill-opacity="0.45"/>
</g>
<defs>
<clipPath id="clip0_636_5835">
<rect width="36" height="36" fill="white"/>
</clipPath>
</defs>
</svg>
