<svg width="36" height="36" viewBox="0 0 36 36" fill="none" xmlns="http://www.w3.org/2000/svg">
<path d="M33.1066 29.2513H5.46369V4.17983C5.46369 4.00304 5.31905 3.8584 5.14226 3.8584H2.89226C2.71547 3.8584 2.57083 4.00304 2.57083 4.17983V31.8227C2.57083 31.9995 2.71547 32.1441 2.89226 32.1441H33.1066C33.2833 32.1441 33.428 31.9995 33.428 31.8227V29.5727C33.428 29.3959 33.2833 29.2513 33.1066 29.2513ZM8.9994 26.037H11.2494C11.4262 26.037 11.5708 25.8923 11.5708 25.7155V19.9298C11.5708 19.753 11.4262 19.6084 11.2494 19.6084H8.9994C8.82262 19.6084 8.67798 19.753 8.67798 19.9298V25.7155C8.67798 25.8923 8.82262 26.037 8.9994 26.037ZM15.1065 26.037H17.3565C17.5333 26.037 17.678 25.8923 17.678 25.7155V12.8584C17.678 12.6816 17.5333 12.537 17.3565 12.537H15.1065C14.9298 12.537 14.7851 12.6816 14.7851 12.8584V25.7155C14.7851 25.8923 14.9298 26.037 15.1065 26.037ZM21.2137 26.037H23.4637C23.6405 26.037 23.7851 25.8923 23.7851 25.7155V15.9923C23.7851 15.8155 23.6405 15.6709 23.4637 15.6709H21.2137C21.0369 15.6709 20.8923 15.8155 20.8923 15.9923V25.7155C20.8923 25.8923 21.0369 26.037 21.2137 26.037ZM27.3208 26.037H29.5708C29.7476 26.037 29.8923 25.8923 29.8923 25.7155V9.64411C29.8923 9.46733 29.7476 9.32268 29.5708 9.32268H27.3208C27.1441 9.32268 26.9994 9.46733 26.9994 9.64411V25.7155C26.9994 25.8923 27.1441 26.037 27.3208 26.037Z" fill="black" fill-opacity="0.45"/>
</svg>
