<svg width="36" height="36" viewBox="0 0 36 36" fill="none" xmlns="http://www.w3.org/2000/svg">
<path d="M30.2143 28.2809H29.25V14.6202C29.25 8.95103 25.0594 4.2662 19.6071 3.48674V1.92379C19.6071 1.03585 18.8879 0.31665 18 0.31665C17.1121 0.31665 16.3929 1.03585 16.3929 1.92379V3.48674C10.9406 4.2662 6.75 8.95103 6.75 14.6202V28.2809H5.78571C5.07455 28.2809 4.5 28.8555 4.5 29.5667V30.8524C4.5 31.0292 4.64464 31.1738 4.82143 31.1738H13.5C13.5 33.6568 15.517 35.6738 18 35.6738C20.483 35.6738 22.5 33.6568 22.5 31.1738H31.1786C31.3554 31.1738 31.5 31.0292 31.5 30.8524V29.5667C31.5 28.8555 30.9254 28.2809 30.2143 28.2809ZM18 33.1024C16.9353 33.1024 16.0714 32.2385 16.0714 31.1738H19.9286C19.9286 32.2385 19.0647 33.1024 18 33.1024ZM9.64286 28.2809V14.6202C9.64286 12.3863 10.5107 10.289 12.0897 8.70995C13.6688 7.13094 15.7661 6.26308 18 6.26308C20.2339 6.26308 22.3313 7.13094 23.9103 8.70995C25.4893 10.289 26.3571 12.3863 26.3571 14.6202V28.2809H9.64286Z" fill="black" fill-opacity="0.45"/>
</svg>
