<svg width="36" height="36" viewBox="0 0 36 36" fill="none" xmlns="http://www.w3.org/2000/svg">
<path d="M28.2221 27.3293C29.9779 27.3293 31.4122 25.8748 31.4122 24.0949C31.4122 21.9454 28.2221 18.4378 28.2221 18.4378C28.2221 18.4378 25.0319 21.9454 25.0319 24.0949C25.0319 25.8748 26.4663 27.3293 28.2221 27.3293ZM13.0707 25.5574C13.356 25.8427 13.818 25.8427 14.0993 25.5574L24.389 15.2717C24.6743 14.9864 24.6743 14.5244 24.389 14.2431L14.1033 3.95741C14.0792 3.9333 14.0511 3.9092 14.023 3.88911L10.881 0.747142C10.8125 0.679519 10.7201 0.641602 10.6238 0.641602C10.5276 0.641602 10.4352 0.679519 10.3667 0.747142L8.43813 2.67571C8.37051 2.74422 8.33259 2.8366 8.33259 2.93286C8.33259 3.02911 8.37051 3.1215 8.43813 3.19L11.1381 5.89L2.78902 14.2431C2.50375 14.5284 2.50375 14.9904 2.78902 15.2717L13.0707 25.5574ZM13.589 7.5333L20.777 14.7213H6.40509L13.589 7.5333ZM33.7506 30.2101H2.25063C2.07384 30.2101 1.9292 30.3547 1.9292 30.5315V33.7458C1.9292 33.9226 2.07384 34.0672 2.25063 34.0672H33.7506C33.9274 34.0672 34.0721 33.9226 34.0721 33.7458V30.5315C34.0721 30.3547 33.9274 30.2101 33.7506 30.2101Z" fill="black" fill-opacity="0.45"/>
</svg>
