<svg width="36" height="36" viewBox="0 0 36 36" fill="none" xmlns="http://www.w3.org/2000/svg">
<path d="M31.8211 12.5332H23.464V4.17606C23.464 3.82249 23.1747 3.5332 22.8211 3.5332H4.17826C3.82469 3.5332 3.5354 3.82249 3.5354 4.17606V22.8189C3.5354 23.1725 3.82469 23.4618 4.17826 23.4618H12.5354V31.8189C12.5354 32.1725 12.8247 32.4618 13.1783 32.4618H31.8211C32.1747 32.4618 32.464 32.1725 32.464 31.8189V13.1761C32.464 12.8225 32.1747 12.5332 31.8211 12.5332ZM12.5354 13.1761V20.7296H6.26754V6.26535H20.7318V12.5332H13.1783C12.8247 12.5332 12.5354 12.8225 12.5354 13.1761ZM20.7318 15.2653V20.7296H15.2675V15.2653H20.7318ZM29.7318 29.7296H15.2675V23.4618H22.8211C23.1747 23.4618 23.464 23.1725 23.464 22.8189V15.2653H29.7318V29.7296Z" fill="black" fill-opacity="0.45"/>
</svg>
