<svg width="36" height="36" viewBox="0 0 36 36" fill="none" xmlns="http://www.w3.org/2000/svg">
<path d="M25.4652 16.7743C26.8152 15.3681 27.6429 13.4676 27.6429 11.3783V10.9685C27.6429 6.64528 24.1031 3.1377 19.7397 3.1377H7.85089C7.2442 3.1377 6.75 3.63189 6.75 4.23859V31.5239C6.75 32.1788 7.28036 32.7091 7.93527 32.7091H20.7402C25.4411 32.7091 29.25 28.9243 29.25 24.2515V23.8096C29.25 20.8765 27.7473 18.2931 25.4652 16.7743ZM10.6071 6.99484H19.6353C21.9295 6.99484 23.7857 8.77877 23.7857 10.9846V11.3663C23.7857 13.5681 21.9254 15.356 19.6353 15.356H10.6071V6.99484ZM25.3366 24.2475C25.3366 26.7748 23.2594 28.8239 20.696 28.8239H10.6071V19.2373H20.696C23.2594 19.2373 25.3366 21.2864 25.3366 23.8136V24.2475Z" fill="black" fill-opacity="0.45"/>
</svg>
