<svg width="36" height="36" viewBox="0 0 36 36" fill="none" xmlns="http://www.w3.org/2000/svg">
<path d="M32.4625 3.2124H3.53389C3.35711 3.2124 3.21246 3.35705 3.21246 3.53383V5.78383C3.21246 5.96062 3.35711 6.10526 3.53389 6.10526H32.4625C32.6393 6.10526 32.7839 5.96062 32.7839 5.78383V3.53383C32.7839 3.35705 32.6393 3.2124 32.4625 3.2124ZM5.78389 9.88205H3.53389C3.35711 9.88205 3.21246 10.0267 3.21246 10.2035V12.4535C3.21246 12.6303 3.35711 12.7749 3.53389 12.7749H5.78389C5.96068 12.7749 6.10532 12.6303 6.10532 12.4535V10.2035C6.10532 10.0267 5.96068 9.88205 5.78389 9.88205ZM5.78389 29.891H3.53389C3.35711 29.891 3.21246 30.0356 3.21246 30.2124V32.4624C3.21246 32.6392 3.35711 32.7838 3.53389 32.7838H5.78389C5.96068 32.7838 6.10532 32.6392 6.10532 32.4624V30.2124C6.10532 30.0356 5.96068 29.891 5.78389 29.891ZM5.78389 16.5517H3.53389C3.35711 16.5517 3.21246 16.6963 3.21246 16.8731V19.1231C3.21246 19.2999 3.35711 19.4445 3.53389 19.4445H5.78389C5.96068 19.4445 6.10532 19.2999 6.10532 19.1231V16.8731C6.10532 16.6963 5.96068 16.5517 5.78389 16.5517ZM5.78389 23.2213H3.53389C3.35711 23.2213 3.21246 23.366 3.21246 23.5428V25.7928C3.21246 25.9695 3.35711 26.1142 3.53389 26.1142H5.78389C5.96068 26.1142 6.10532 25.9695 6.10532 25.7928V23.5428C6.10532 23.366 5.96068 23.2213 5.78389 23.2213ZM12.4535 16.5517H10.2035C10.0267 16.5517 9.88211 16.6963 9.88211 16.8731V19.1231C9.88211 19.2999 10.0267 19.4445 10.2035 19.4445H12.4535C12.6303 19.4445 12.775 19.2999 12.775 19.1231V16.8731C12.775 16.6963 12.6303 16.5517 12.4535 16.5517ZM12.4535 29.891H10.2035C10.0267 29.891 9.88211 30.0356 9.88211 30.2124V32.4624C9.88211 32.6392 10.0267 32.7838 10.2035 32.7838H12.4535C12.6303 32.7838 12.775 32.6392 12.775 32.4624V30.2124C12.775 30.0356 12.6303 29.891 12.4535 29.891ZM25.7928 29.891H23.5428C23.366 29.891 23.2214 30.0356 23.2214 30.2124V32.4624C23.2214 32.6392 23.366 32.7838 23.5428 32.7838H25.7928C25.9696 32.7838 26.1143 32.6392 26.1143 32.4624V30.2124C26.1143 30.0356 25.9696 29.891 25.7928 29.891ZM25.7928 16.5517H23.5428C23.366 16.5517 23.2214 16.6963 23.2214 16.8731V19.1231C23.2214 19.2999 23.366 19.4445 23.5428 19.4445H25.7928C25.9696 19.4445 26.1143 19.2999 26.1143 19.1231V16.8731C26.1143 16.6963 25.9696 16.5517 25.7928 16.5517ZM32.4625 16.5517H30.2125C30.0357 16.5517 29.891 16.6963 29.891 16.8731V19.1231C29.891 19.2999 30.0357 19.4445 30.2125 19.4445H32.4625C32.6393 19.4445 32.7839 19.2999 32.7839 19.1231V16.8731C32.7839 16.6963 32.6393 16.5517 32.4625 16.5517ZM19.1232 16.5517H16.8732C16.6964 16.5517 16.5518 16.6963 16.5518 16.8731V19.1231C16.5518 19.2999 16.6964 19.4445 16.8732 19.4445H19.1232C19.3 19.4445 19.4446 19.2999 19.4446 19.1231V16.8731C19.4446 16.6963 19.3 16.5517 19.1232 16.5517ZM32.4625 29.891H30.2125C30.0357 29.891 29.891 30.0356 29.891 30.2124V32.4624C29.891 32.6392 30.0357 32.7838 30.2125 32.7838H32.4625C32.6393 32.7838 32.7839 32.6392 32.7839 32.4624V30.2124C32.7839 30.0356 32.6393 29.891 32.4625 29.891ZM19.1232 29.891H16.8732C16.6964 29.891 16.5518 30.0356 16.5518 30.2124V32.4624C16.5518 32.6392 16.6964 32.7838 16.8732 32.7838H19.1232C19.3 32.7838 19.4446 32.6392 19.4446 32.4624V30.2124C19.4446 30.0356 19.3 29.891 19.1232 29.891ZM32.4625 9.88205H30.2125C30.0357 9.88205 29.891 10.0267 29.891 10.2035V12.4535C29.891 12.6303 30.0357 12.7749 30.2125 12.7749H32.4625C32.6393 12.7749 32.7839 12.6303 32.7839 12.4535V10.2035C32.7839 10.0267 32.6393 9.88205 32.4625 9.88205ZM19.1232 9.88205H16.8732C16.6964 9.88205 16.5518 10.0267 16.5518 10.2035V12.4535C16.5518 12.6303 16.6964 12.7749 16.8732 12.7749H19.1232C19.3 12.7749 19.4446 12.6303 19.4446 12.4535V10.2035C19.4446 10.0267 19.3 9.88205 19.1232 9.88205ZM32.4625 23.2213H30.2125C30.0357 23.2213 29.891 23.366 29.891 23.5428V25.7928C29.891 25.9695 30.0357 26.1142 30.2125 26.1142H32.4625C32.6393 26.1142 32.7839 25.9695 32.7839 25.7928V23.5428C32.7839 23.366 32.6393 23.2213 32.4625 23.2213ZM19.1232 23.2213H16.8732C16.6964 23.2213 16.5518 23.366 16.5518 23.5428V25.7928C16.5518 25.9695 16.6964 26.1142 16.8732 26.1142H19.1232C19.3 26.1142 19.4446 25.9695 19.4446 25.7928V23.5428C19.4446 23.366 19.3 23.2213 19.1232 23.2213Z" fill="black" fill-opacity="0.45"/>
</svg>
