<svg width="36" height="36" viewBox="0 0 36 36" fill="none" xmlns="http://www.w3.org/2000/svg">
<path d="M32.4646 3.2124H30.2146C30.0378 3.2124 29.8932 3.35705 29.8932 3.53383V32.4624C29.8932 32.6392 30.0378 32.7838 30.2146 32.7838H32.4646C32.6414 32.7838 32.786 32.6392 32.786 32.4624V3.53383C32.786 3.35705 32.6414 3.2124 32.4646 3.2124ZM25.795 3.2124H23.545C23.3682 3.2124 23.2235 3.35705 23.2235 3.53383V5.78383C23.2235 5.96062 23.3682 6.10526 23.545 6.10526H25.795C25.9717 6.10526 26.1164 5.96062 26.1164 5.78383V3.53383C26.1164 3.35705 25.9717 3.2124 25.795 3.2124ZM5.78603 3.2124H3.53603C3.35924 3.2124 3.2146 3.35705 3.2146 3.53383V5.78383C3.2146 5.96062 3.35924 6.10526 3.53603 6.10526H5.78603C5.96281 6.10526 6.10746 5.96062 6.10746 5.78383V3.53383C6.10746 3.35705 5.96281 3.2124 5.78603 3.2124ZM19.1253 3.2124H16.8753C16.6985 3.2124 16.5539 3.35705 16.5539 3.53383V5.78383C16.5539 5.96062 16.6985 6.10526 16.8753 6.10526H19.1253C19.3021 6.10526 19.4467 5.96062 19.4467 5.78383V3.53383C19.4467 3.35705 19.3021 3.2124 19.1253 3.2124ZM12.4557 3.2124H10.2057C10.0289 3.2124 9.88424 3.35705 9.88424 3.53383V5.78383C9.88424 5.96062 10.0289 6.10526 10.2057 6.10526H12.4557C12.6325 6.10526 12.7771 5.96062 12.7771 5.78383V3.53383C12.7771 3.35705 12.6325 3.2124 12.4557 3.2124ZM19.1253 9.88205H16.8753C16.6985 9.88205 16.5539 10.0267 16.5539 10.2035V12.4535C16.5539 12.6303 16.6985 12.7749 16.8753 12.7749H19.1253C19.3021 12.7749 19.4467 12.6303 19.4467 12.4535V10.2035C19.4467 10.0267 19.3021 9.88205 19.1253 9.88205ZM5.78603 9.88205H3.53603C3.35924 9.88205 3.2146 10.0267 3.2146 10.2035V12.4535C3.2146 12.6303 3.35924 12.7749 3.53603 12.7749H5.78603C5.96281 12.7749 6.10746 12.6303 6.10746 12.4535V10.2035C6.10746 10.0267 5.96281 9.88205 5.78603 9.88205ZM5.78603 23.2213H3.53603C3.35924 23.2213 3.2146 23.366 3.2146 23.5428V25.7928C3.2146 25.9695 3.35924 26.1142 3.53603 26.1142H5.78603C5.96281 26.1142 6.10746 25.9695 6.10746 25.7928V23.5428C6.10746 23.366 5.96281 23.2213 5.78603 23.2213ZM19.1253 23.2213H16.8753C16.6985 23.2213 16.5539 23.366 16.5539 23.5428V25.7928C16.5539 25.9695 16.6985 26.1142 16.8753 26.1142H19.1253C19.3021 26.1142 19.4467 25.9695 19.4467 25.7928V23.5428C19.4467 23.366 19.3021 23.2213 19.1253 23.2213ZM19.1253 29.891H16.8753C16.6985 29.891 16.5539 30.0356 16.5539 30.2124V32.4624C16.5539 32.6392 16.6985 32.7838 16.8753 32.7838H19.1253C19.3021 32.7838 19.4467 32.6392 19.4467 32.4624V30.2124C19.4467 30.0356 19.3021 29.891 19.1253 29.891ZM19.1253 16.5517H16.8753C16.6985 16.5517 16.5539 16.6963 16.5539 16.8731V19.1231C16.5539 19.2999 16.6985 19.4445 16.8753 19.4445H19.1253C19.3021 19.4445 19.4467 19.2999 19.4467 19.1231V16.8731C19.4467 16.6963 19.3021 16.5517 19.1253 16.5517ZM5.78603 29.891H3.53603C3.35924 29.891 3.2146 30.0356 3.2146 30.2124V32.4624C3.2146 32.6392 3.35924 32.7838 3.53603 32.7838H5.78603C5.96281 32.7838 6.10746 32.6392 6.10746 32.4624V30.2124C6.10746 30.0356 5.96281 29.891 5.78603 29.891ZM5.78603 16.5517H3.53603C3.35924 16.5517 3.2146 16.6963 3.2146 16.8731V19.1231C3.2146 19.2999 3.35924 19.4445 3.53603 19.4445H5.78603C5.96281 19.4445 6.10746 19.2999 6.10746 19.1231V16.8731C6.10746 16.6963 5.96281 16.5517 5.78603 16.5517ZM25.795 29.891H23.545C23.3682 29.891 23.2235 30.0356 23.2235 30.2124V32.4624C23.2235 32.6392 23.3682 32.7838 23.545 32.7838H25.795C25.9717 32.7838 26.1164 32.6392 26.1164 32.4624V30.2124C26.1164 30.0356 25.9717 29.891 25.795 29.891ZM25.795 16.5517H23.545C23.3682 16.5517 23.2235 16.6963 23.2235 16.8731V19.1231C23.2235 19.2999 23.3682 19.4445 23.545 19.4445H25.795C25.9717 19.4445 26.1164 19.2999 26.1164 19.1231V16.8731C26.1164 16.6963 25.9717 16.5517 25.795 16.5517ZM12.4557 29.891H10.2057C10.0289 29.891 9.88424 30.0356 9.88424 30.2124V32.4624C9.88424 32.6392 10.0289 32.7838 10.2057 32.7838H12.4557C12.6325 32.7838 12.7771 32.6392 12.7771 32.4624V30.2124C12.7771 30.0356 12.6325 29.891 12.4557 29.891ZM12.4557 16.5517H10.2057C10.0289 16.5517 9.88424 16.6963 9.88424 16.8731V19.1231C9.88424 19.2999 10.0289 19.4445 10.2057 19.4445H12.4557C12.6325 19.4445 12.7771 19.2999 12.7771 19.1231V16.8731C12.7771 16.6963 12.6325 16.5517 12.4557 16.5517Z" fill="black" fill-opacity="0.45"/>
</svg>
