<svg width="36" height="36" viewBox="0 0 36 36" fill="none" xmlns="http://www.w3.org/2000/svg">
<path d="M32.4646 16.5517H19.4467V3.2124H16.5539V16.5517H3.53601C3.35923 16.5517 3.21458 16.6963 3.21458 16.8731V19.1231C3.21458 19.2999 3.35923 19.4445 3.53601 19.4445H16.5539V32.7838H19.4467V19.4445H32.4646C32.6414 19.4445 32.786 19.2999 32.786 19.1231V16.8731C32.786 16.6963 32.6414 16.5517 32.4646 16.5517ZM32.4646 9.88205H30.2146C30.0378 9.88205 29.8932 10.0267 29.8932 10.2035V12.4535C29.8932 12.6303 30.0378 12.7749 30.2146 12.7749H32.4646C32.6414 12.7749 32.786 12.6303 32.786 12.4535V10.2035C32.786 10.0267 32.6414 9.88205 32.4646 9.88205ZM32.4646 29.891H30.2146C30.0378 29.891 29.8932 30.0356 29.8932 30.2124V32.4624C29.8932 32.6392 30.0378 32.7838 30.2146 32.7838H32.4646C32.6414 32.7838 32.786 32.6392 32.786 32.4624V30.2124C32.786 30.0356 32.6414 29.891 32.4646 29.891ZM32.4646 3.2124H30.2146C30.0378 3.2124 29.8932 3.35705 29.8932 3.53383V5.78383C29.8932 5.96062 30.0378 6.10526 30.2146 6.10526H32.4646C32.6414 6.10526 32.786 5.96062 32.786 5.78383V3.53383C32.786 3.35705 32.6414 3.2124 32.4646 3.2124ZM32.4646 23.2213H30.2146C30.0378 23.2213 29.8932 23.366 29.8932 23.5428V25.7928C29.8932 25.9695 30.0378 26.1142 30.2146 26.1142H32.4646C32.6414 26.1142 32.786 25.9695 32.786 25.7928V23.5428C32.786 23.366 32.6414 23.2213 32.4646 23.2213ZM23.5449 6.10526H25.7949C25.9717 6.10526 26.1164 5.96062 26.1164 5.78383V3.53383C26.1164 3.35705 25.9717 3.2124 25.7949 3.2124H23.5449C23.3682 3.2124 23.2235 3.35705 23.2235 3.53383V5.78383C23.2235 5.96062 23.3682 6.10526 23.5449 6.10526ZM25.7949 29.891H23.5449C23.3682 29.891 23.2235 30.0356 23.2235 30.2124V32.4624C23.2235 32.6392 23.3682 32.7838 23.5449 32.7838H25.7949C25.9717 32.7838 26.1164 32.6392 26.1164 32.4624V30.2124C26.1164 30.0356 25.9717 29.891 25.7949 29.891ZM12.4557 29.891H10.2057C10.0289 29.891 9.88423 30.0356 9.88423 30.2124V32.4624C9.88423 32.6392 10.0289 32.7838 10.2057 32.7838H12.4557C12.6324 32.7838 12.7771 32.6392 12.7771 32.4624V30.2124C12.7771 30.0356 12.6324 29.891 12.4557 29.891ZM10.2057 6.10526H12.4557C12.6324 6.10526 12.7771 5.96062 12.7771 5.78383V3.53383C12.7771 3.35705 12.6324 3.2124 12.4557 3.2124H10.2057C10.0289 3.2124 9.88423 3.35705 9.88423 3.53383V5.78383C9.88423 5.96062 10.0289 6.10526 10.2057 6.10526ZM3.53601 6.10526H5.78601C5.9628 6.10526 6.10744 5.96062 6.10744 5.78383V3.53383C6.10744 3.35705 5.9628 3.2124 5.78601 3.2124H3.53601C3.35923 3.2124 3.21458 3.35705 3.21458 3.53383V5.78383C3.21458 5.96062 3.35923 6.10526 3.53601 6.10526ZM5.78601 29.891H3.53601C3.35923 29.891 3.21458 30.0356 3.21458 30.2124V32.4624C3.21458 32.6392 3.35923 32.7838 3.53601 32.7838H5.78601C5.9628 32.7838 6.10744 32.6392 6.10744 32.4624V30.2124C6.10744 30.0356 5.9628 29.891 5.78601 29.891ZM3.53601 12.7749H5.78601C5.9628 12.7749 6.10744 12.6303 6.10744 12.4535V10.2035C6.10744 10.0267 5.9628 9.88205 5.78601 9.88205H3.53601C3.35923 9.88205 3.21458 10.0267 3.21458 10.2035V12.4535C3.21458 12.6303 3.35923 12.7749 3.53601 12.7749ZM5.78601 23.2213H3.53601C3.35923 23.2213 3.21458 23.366 3.21458 23.5428V25.7928C3.21458 25.9695 3.35923 26.1142 3.53601 26.1142H5.78601C5.9628 26.1142 6.10744 25.9695 6.10744 25.7928V23.5428C6.10744 23.366 5.9628 23.2213 5.78601 23.2213Z" fill="black" fill-opacity="0.45"/>
</svg>
