<svg width="36" height="36" viewBox="0 0 36 36" fill="none" xmlns="http://www.w3.org/2000/svg">
<path d="M35.6786 6.4248H33.5893C33.4125 6.4248 33.2679 6.56945 33.2679 6.74623V16.7105H29.5714V9.63909C29.5714 9.4623 29.4268 9.31766 29.25 9.31766H6.75C6.57321 9.31766 6.42857 9.4623 6.42857 9.63909V16.7105H2.73214V6.74623C2.73214 6.56945 2.5875 6.4248 2.41071 6.4248H0.321429C0.144643 6.4248 0 6.56945 0 6.74623V29.2462C0 29.423 0.144643 29.5677 0.321429 29.5677H2.41071C2.5875 29.5677 2.73214 29.423 2.73214 29.2462V19.4427H6.42857V26.3534C6.42857 26.5302 6.57321 26.6748 6.75 26.6748H29.25C29.4268 26.6748 29.5714 26.5302 29.5714 26.3534V19.4427H33.2679V29.2462C33.2679 29.423 33.4125 29.5677 33.5893 29.5677H35.6786C35.8554 29.5677 36 29.423 36 29.2462V6.74623C36 6.56945 35.8554 6.4248 35.6786 6.4248ZM9.32143 12.2105H12.8571V23.7819H9.32143V12.2105ZM26.6786 23.7819H15.4286V12.2105H26.6786V23.7819Z" fill="black" fill-opacity="0.45"/>
</svg>
