<svg width="36" height="36" viewBox="0 0 36 36" fill="none" xmlns="http://www.w3.org/2000/svg">
<g clip-path="url(#clip0_636_5827)">
<path d="M9.64225 8.67857H11.8923C12.069 8.67857 12.2137 8.53393 12.2137 8.35714C12.2137 7.22009 12.4507 6.21964 12.9007 5.40402C13.3266 4.62455 13.9454 4.0058 14.7248 3.57991C15.5445 3.13393 16.5409 2.89286 17.678 2.89286H18.3208C19.4579 2.89286 20.4583 3.12991 21.2739 3.57991C22.0534 4.0058 22.6722 4.62455 23.0981 5.40402C23.544 6.22366 23.7851 7.22009 23.7851 8.35714C23.7851 8.53393 23.9298 8.67857 24.1065 8.67857H26.3565C26.5333 8.67857 26.678 8.53393 26.678 8.35714C26.678 6.75 26.3244 5.27545 25.6373 4.01384C24.9544 2.75631 23.9217 1.7236 22.6641 1.04063C21.4025 0.353571 19.928 0 18.3208 0H17.678C16.0708 0 14.5963 0.353571 13.3347 1.04063C12.0771 1.7236 11.0444 2.75631 10.3614 4.01384C9.67439 5.27545 9.32082 6.75 9.32082 8.35714C9.32082 8.53393 9.46547 8.67857 9.64225 8.67857Z" fill="black" fill-opacity="0.45"/>
<path d="M35.1955 17.9927H29.2491V13.9748C32.3348 13.9748 34.8339 11.4757 34.8339 8.39C34.8339 8.21321 34.6893 8.06857 34.5125 8.06857H32.1018C31.925 8.06857 31.7803 8.21321 31.7803 8.39C31.7803 9.06133 31.5137 9.70516 31.039 10.1799C30.5643 10.6546 29.9204 10.9212 29.2491 10.9212H6.74909C6.07776 10.9212 5.43393 10.6546 4.95923 10.1799C4.48452 9.70516 4.21784 9.06133 4.21784 8.39C4.21784 8.21321 4.0732 8.06857 3.89641 8.06857H1.4857C1.30891 8.06857 1.16427 8.21321 1.16427 8.39C1.16427 11.4757 3.66337 13.9748 6.74909 13.9748V17.9927H0.80266C0.625875 17.9927 0.481232 18.1373 0.481232 18.3141V20.5641C0.481232 20.7409 0.625875 20.8855 0.80266 20.8855H6.74909V24.7427C6.74909 25.0038 6.75712 25.265 6.77721 25.5181C4.02096 26.6954 2.08837 29.4315 2.08837 32.6177C2.08837 32.7945 2.23302 32.9391 2.4098 32.9391H4.6598C4.83659 32.9391 4.98123 32.7945 4.98123 32.6177C4.98123 30.8418 5.9415 29.2869 7.37588 28.4512C7.61408 29.1359 7.91959 29.7954 8.28793 30.4199C9.26427 32.0873 10.6585 33.4815 12.3259 34.4579C13.9933 35.4342 15.9299 35.9927 17.9991 35.9927C20.0683 35.9927 22.0089 35.4342 23.6763 34.4579C25.9853 33.1046 27.7393 30.9762 28.6263 28.4512C29.3542 28.8761 29.958 29.4844 30.3775 30.2155C30.7969 30.9466 31.0174 31.7748 31.0169 32.6177C31.0169 32.7945 31.1616 32.9391 31.3384 32.9391H33.5884C33.7652 32.9391 33.9098 32.7945 33.9098 32.6177C33.9098 29.4315 31.9772 26.6954 29.221 25.5181C29.237 25.261 29.2491 25.0038 29.2491 24.7427V20.8855H35.1955C35.3723 20.8855 35.5169 20.7409 35.5169 20.5641V18.3141C35.5169 18.1373 35.3723 17.9927 35.1955 17.9927ZM26.1955 24.7427C26.1955 26.2212 25.8058 27.6355 25.0786 28.8771C24.3674 30.0945 23.3509 31.111 22.1335 31.8221C20.8919 32.5494 19.4777 32.9391 17.9991 32.9391C16.5205 32.9391 15.1062 32.5494 13.8647 31.8221C12.6473 31.111 11.6308 30.0945 10.9196 28.8771C10.1852 27.6232 9.79958 26.1958 9.80266 24.7427V13.9748H26.1955V24.7427Z" fill="black" fill-opacity="0.45"/>
</g>
<defs>
<clipPath id="clip0_636_5827">
<rect width="36" height="36" fill="white"/>
</clipPath>
</defs>
</svg>
