<svg width="36" height="36" viewBox="0 0 36 36" fill="none" xmlns="http://www.w3.org/2000/svg">
<path d="M34.2312 5.87085H12.5348C11.8236 5.87085 11.2491 6.4454 11.2491 7.15656V16.6387H1.76695C1.05579 16.6387 0.481232 17.2133 0.481232 17.9244V28.853C0.481232 29.5642 1.05579 30.1387 1.76695 30.1387H23.4634C24.1745 30.1387 24.7491 29.5642 24.7491 28.853V19.3709H34.2312C34.9424 19.3709 35.5169 18.7963 35.5169 18.0851V7.15656C35.5169 6.4454 34.9424 5.87085 34.2312 5.87085ZM13.9812 8.60299H22.0169V16.6387H13.9812V8.60299ZM11.2491 27.4066H3.21337V19.3709H11.2491V27.4066ZM22.0169 27.4066H13.9812V19.3709H22.0169V27.4066ZM32.7848 16.6387H24.7491V8.60299H32.7848V16.6387Z" fill="black" fill-opacity="0.45"/>
</svg>
