<svg width="36" height="36" viewBox="0 0 36 36" fill="none" xmlns="http://www.w3.org/2000/svg">
<path d="M7.52206 12.9825H10.2863V15.7467C10.2863 15.8191 10.3587 15.8753 10.4471 15.8753H12.3756C12.464 15.8753 12.5363 15.8191 12.5363 15.7427V12.9825H15.3006C15.3729 12.9825 15.4292 12.9101 15.4292 12.8217V10.8932C15.4292 10.8048 15.373 10.7325 15.2966 10.7325H12.5363V7.96817C12.5363 7.89585 12.464 7.8396 12.3756 7.8396H10.4471C10.3587 7.8396 10.2863 7.89585 10.2863 7.96817V10.7325H7.52206C7.44974 10.7325 7.39349 10.8048 7.39349 10.8932V12.8217C7.39349 12.9101 7.44974 12.9825 7.52206 12.9825ZM20.7006 12.9825H28.4792C28.5515 12.9825 28.6078 12.9101 28.6078 12.8217V10.8932C28.6078 10.8048 28.5515 10.7325 28.4752 10.7325H20.7006C20.6283 10.7325 20.5721 10.8048 20.5721 10.8932V12.8217C20.5721 12.9101 20.6283 12.9825 20.7006 12.9825ZM20.7006 23.6298H28.4792C28.5515 23.6298 28.6078 23.5575 28.6078 23.4691V21.5405C28.6078 21.4521 28.5515 21.3798 28.4752 21.3798H20.7006C20.6283 21.3798 20.5721 21.4521 20.5721 21.5405V23.4691C20.5721 23.5575 20.6283 23.6298 20.7006 23.6298ZM20.7006 27.8084H28.4792C28.5515 27.8084 28.6078 27.736 28.6078 27.6476V25.7191C28.6078 25.6307 28.5515 25.5584 28.4752 25.5584H20.7006C20.6283 25.5584 20.5721 25.6307 20.5721 25.7191V27.6476C20.5721 27.736 20.6283 27.8084 20.7006 27.8084ZM12.8377 24.5539L15.2966 21.5445C15.4694 21.3356 15.3247 21.0182 15.0596 21.0182H13.0185C12.9261 21.0182 12.8377 21.0584 12.7814 21.1347L11.4154 22.8061L10.0493 21.1347C10.0205 21.0993 9.98447 21.0705 9.94355 21.0504C9.90262 21.0303 9.85782 21.0193 9.81224 21.0182H7.76715C7.50197 21.0182 7.35732 21.3356 7.53009 21.5445L9.98902 24.5539L7.46982 27.6396C7.29304 27.8485 7.43768 28.1659 7.70286 28.1659H9.74393C9.83634 28.1659 9.92474 28.1258 9.98099 28.0494L11.4073 26.3017L12.8337 28.0494C12.8939 28.1217 12.9823 28.1659 13.0707 28.1659H15.1118C15.377 28.1659 15.5216 27.8485 15.3488 27.6396L12.8377 24.5539ZM32.7863 1.93335H3.21491C2.50375 1.93335 1.9292 2.5079 1.9292 3.21906V32.7905C1.9292 33.5017 2.50375 34.0762 3.21491 34.0762H32.7863C33.4975 34.0762 34.0721 33.5017 34.0721 32.7905V3.21906C34.0721 2.5079 33.4975 1.93335 32.7863 1.93335ZM31.3399 31.3441H4.66134V4.66549H31.3399V31.3441Z" fill="black" fill-opacity="0.45"/>
</svg>
