<svg width="36" height="36" viewBox="0 0 36 36" fill="none" xmlns="http://www.w3.org/2000/svg">
<g clip-path="url(#clip0_636_5822)">
<path d="M12.697 25.708H23.3042C23.481 25.708 23.6256 25.5634 23.6256 25.3866V22.0116C23.6256 21.8348 23.481 21.6901 23.3042 21.6901H21.697C21.5202 21.6901 21.3756 21.8348 21.3756 22.0116V23.458H14.6256V22.0116C14.6256 21.8348 14.481 21.6901 14.3042 21.6901H12.697C12.5202 21.6901 12.3756 21.8348 12.3756 22.0116V25.3866C12.3756 25.5634 12.5202 25.708 12.697 25.708ZM26.3577 20.766C26.3577 21.1923 26.5271 21.6011 26.8285 21.9025C27.1299 22.2039 27.5387 22.3732 27.9649 22.3732C28.3911 22.3732 28.7999 22.2039 29.1013 21.9025C29.4027 21.6011 29.572 21.1923 29.572 20.766C29.572 20.3398 29.4027 19.931 29.1013 19.6296C28.7999 19.3282 28.3911 19.1589 27.9649 19.1589C27.5387 19.1589 27.1299 19.3282 26.8285 19.6296C26.5271 19.931 26.3577 20.3398 26.3577 20.766ZM35.9604 14.0321L35.0082 12.3687C34.9654 12.2954 34.8953 12.242 34.8133 12.2201C34.7312 12.1983 34.6438 12.2098 34.5703 12.2522L32.5332 13.4415L29.3872 4.75488C29.2211 4.23655 28.8946 3.78442 28.4548 3.46377C28.015 3.14312 27.4846 2.97054 26.9403 2.97095H9.53096C8.13677 2.97095 6.89927 3.87095 6.46935 5.20086L3.47203 13.4455L1.43096 12.2562C1.35737 12.2139 1.27002 12.2023 1.18796 12.2242C1.10591 12.246 1.03582 12.2994 0.993015 12.3727L0.0407829 14.0321C-0.04761 14.1848 0.00462221 14.3776 0.157301 14.466L2.58409 15.8803L2.0015 17.4875C1.95328 17.616 1.92918 17.7526 1.92918 17.8893V31.8794C1.92918 32.5102 2.40328 33.0205 2.98587 33.0205H5.70194C6.19614 33.0205 6.62605 32.6468 6.73052 32.1245L7.03989 30.6098H28.9613L29.2707 32.1245C29.3792 32.6468 29.8051 33.0205 30.2993 33.0205H33.0153C33.5979 33.0205 34.072 32.5102 34.072 31.8794V17.8893C34.072 17.7526 34.0479 17.616 33.9997 17.4875L33.4171 15.8803L35.8399 14.466C35.9128 14.4239 35.9663 14.3549 35.9889 14.2737C36.0114 14.1926 36.0012 14.1058 35.9604 14.0321ZM31.1792 18.1946V27.7169H4.82203V18.1946L5.44882 16.4669H30.5524L31.1792 18.1946ZM9.18944 6.18523L9.20953 6.133L9.22561 6.08077C9.2698 5.94818 9.39034 5.85979 9.53096 5.85979H26.7113L29.7408 14.2169H6.26846L9.18944 6.18523ZM6.42918 20.766C6.42918 21.1923 6.5985 21.6011 6.8999 21.9025C7.20129 22.2039 7.61008 22.3732 8.03632 22.3732C8.46256 22.3732 8.87134 22.2039 9.17274 21.9025C9.47414 21.6011 9.64346 21.1923 9.64346 20.766C9.64346 20.3398 9.47414 19.931 9.17274 19.6296C8.87134 19.3282 8.46256 19.1589 8.03632 19.1589C7.61008 19.1589 7.20129 19.3282 6.8999 19.6296C6.5985 19.931 6.42918 20.3398 6.42918 20.766Z" fill="black" fill-opacity="0.45"/>
</g>
<defs>
<clipPath id="clip0_636_5822">
<rect width="36" height="36" fill="white"/>
</clipPath>
</defs>
</svg>
