<svg width="36" height="36" viewBox="0 0 36 36" fill="none" xmlns="http://www.w3.org/2000/svg">
<g clip-path="url(#clip0_636_5820)">
<path d="M18 0C8.05982 0 0 8.05982 0 18C0 27.9402 8.05982 36 18 36C27.9402 36 36 27.9402 36 18C36 8.05982 27.9402 0 18 0ZM18 32.9464C9.74732 32.9464 3.05357 26.2527 3.05357 18C3.05357 9.74732 9.74732 3.05357 18 3.05357C26.2527 3.05357 32.9464 9.74732 32.9464 18C32.9464 26.2527 26.2527 32.9464 18 32.9464ZM26.7589 9.96027H24.7339C24.5571 9.96027 24.4125 10.1049 24.4125 10.2817V25.7183C24.4125 25.8951 24.5571 26.0397 24.7339 26.0397H26.7589C26.9357 26.0397 27.0804 25.8951 27.0804 25.7183V10.2817C27.0804 10.1049 26.9357 9.96027 26.7589 9.96027ZM15.4527 11.9531C17.4415 11.9531 18.7915 13.2188 18.9482 15.071C18.9643 15.2397 19.1009 15.3683 19.2696 15.3683H21.383C21.4795 15.3683 21.5598 15.2879 21.5598 15.1915C21.5598 11.929 18.9884 9.64286 15.4406 9.64286C11.3062 9.64286 8.91964 12.4353 8.91964 17.0518V19.0205C8.91964 23.6009 11.3062 26.3571 15.4406 26.3571C18.9763 26.3571 21.5598 24.1433 21.5598 21.0335C21.5598 20.9371 21.4795 20.8567 21.383 20.8567H19.2656C19.0969 20.8567 18.9603 20.9853 18.9442 21.15C18.7754 22.8777 17.4295 24.0589 15.4487 24.0589C12.9937 24.0589 11.6076 22.2549 11.6076 19.0286V17.0478C11.6116 13.7772 12.9978 11.9531 15.4527 11.9531Z" fill="black" fill-opacity="0.45"/>
</g>
<defs>
<clipPath id="clip0_636_5820">
<rect width="36" height="36" fill="white"/>
</clipPath>
</defs>
</svg>
