<svg width="36" height="36" viewBox="0 0 36 36" fill="none" xmlns="http://www.w3.org/2000/svg">
<path d="M33.5519 32.3726L31.4225 20.0941H32.1417C32.7202 20.0941 33.1863 19.628 33.1863 19.0494V11.3351C33.1863 10.7566 32.7202 10.2905 32.1417 10.2905H22.2577V2.97799C22.2577 2.39942 21.7917 1.93335 21.2131 1.93335H14.7845C14.206 1.93335 13.7399 2.39942 13.7399 2.97799V10.2905H3.85595C3.27738 10.2905 2.81131 10.7566 2.81131 11.3351V19.0494C2.81131 19.628 3.27738 20.0941 3.85595 20.0941H4.57515L2.44568 32.3726C2.41959 32.5226 2.42662 32.6764 2.4663 32.8233C2.50598 32.9702 2.57733 33.1066 2.67535 33.223C2.77337 33.3394 2.89568 33.433 3.03369 33.4971C3.17171 33.5612 3.32208 33.5943 3.47425 33.5941H32.5234C32.5836 33.5941 32.6439 33.59 32.7001 33.578C32.8354 33.5553 32.9649 33.506 33.0811 33.433C33.1972 33.36 33.2978 33.2647 33.377 33.1526C33.4562 33.0406 33.5124 32.914 33.5424 32.7801C33.5724 32.6463 33.5757 32.5078 33.5519 32.3726ZM5.62381 13.103H16.5524V4.74585H19.4452V13.103H30.3738V17.2816H5.62381V13.103ZM24.4274 30.7816V24.5137C24.4274 24.3369 24.2827 24.1923 24.1059 24.1923H22.1774C22.0006 24.1923 21.856 24.3369 21.856 24.5137V30.7816H14.1417V24.5137C14.1417 24.3369 13.997 24.1923 13.8202 24.1923H11.8917C11.7149 24.1923 11.5702 24.3369 11.5702 24.5137V30.7816H5.57559L7.38765 20.3351H28.606L30.418 30.7816H24.4274Z" fill="black" fill-opacity="0.45"/>
</svg>
