<svg width="36" height="36" viewBox="0 0 36 36" fill="none" xmlns="http://www.w3.org/2000/svg">
<path fill-rule="evenodd" clip-rule="evenodd" d="M29.5658 4.11068C29.5666 4.11068 29.5674 4.11149 29.569 4.11309L31.8869 6.4314C31.8885 6.4326 31.8889 6.43341 31.8893 6.43461C31.8895 6.4354 31.8895 6.43623 31.8893 6.43702C31.8893 6.43823 31.8885 6.43903 31.8869 6.44064L20.3276 18L31.8869 29.5594C31.8885 29.561 31.8889 29.5618 31.8893 29.563C31.8896 29.5639 31.8896 29.5649 31.8893 29.5658C31.8893 29.5666 31.8885 29.5674 31.8869 29.569L29.5686 31.8869C29.5674 31.8885 29.5666 31.8889 29.5658 31.8893C29.5649 31.8896 29.5639 31.8896 29.563 31.8893C29.5618 31.8893 29.561 31.8885 29.5594 31.8869L18 20.3276L6.44064 31.8869C6.43903 31.8885 6.43823 31.8889 6.43702 31.8893C6.43611 31.8896 6.43513 31.8896 6.43421 31.8893C6.43341 31.8893 6.4326 31.8885 6.431 31.8869L4.11309 29.5686C4.11149 29.5674 4.11109 29.5666 4.11068 29.5658C4.1104 29.5649 4.1104 29.5639 4.11068 29.563C4.11068 29.5618 4.11149 29.561 4.11309 29.5594L15.6725 18L4.11309 6.44064C4.11149 6.43903 4.11109 6.43823 4.11068 6.43702C4.1104 6.43611 4.1104 6.43513 4.11068 6.43421C4.11068 6.43341 4.11149 6.4326 4.11309 6.431L6.4314 4.11309C6.4326 4.11149 6.43341 4.11109 6.43421 4.11068C6.43513 4.1104 6.43611 4.1104 6.43702 4.11068C6.43823 4.11068 6.43903 4.11149 6.44064 4.11309L18 15.6725L29.5594 4.11309C29.561 4.11149 29.5618 4.11109 29.563 4.11068C29.5639 4.1104 29.5649 4.1104 29.5658 4.11068Z" fill="black" fill-opacity="0.45"/>
</svg>
