<svg width="36" height="36" viewBox="0 0 36 36" fill="none" xmlns="http://www.w3.org/2000/svg">
<g clip-path="url(#clip0_636_5814)">
<path d="M30.0296 12.2504C28.1894 7.39286 23.5006 3.9375 18.0082 3.9375C12.5157 3.9375 7.8269 7.38884 5.98672 12.2464C2.52735 13.1585 -0.0199713 16.3205 0.000117994 20.0732C0.0242251 24.2679 3.27869 27.679 7.3769 28.0446C7.56574 28.0607 7.72646 27.9121 7.72646 27.7232V25.2964C7.72646 25.1357 7.60592 24.9991 7.44521 24.979C6.36039 24.8424 5.33583 24.3683 4.54833 23.5929C3.58405 22.6487 3.05369 21.379 3.05369 20.033C3.05369 18.908 3.41931 17.8473 4.10637 16.9634C4.77735 16.1036 5.72155 15.4808 6.76217 15.2076L8.28494 14.8058L8.84342 13.3313C9.18896 12.4152 9.6711 11.5554 10.2778 10.7799C10.8765 10.0085 11.5876 9.33348 12.3832 8.77098C14.0345 7.60982 15.9791 6.99509 18.0082 6.99509C20.0372 6.99509 21.9818 7.60982 23.6332 8.775C24.4327 9.3375 25.1398 10.0125 25.7385 10.7839C26.3452 11.5594 26.8273 12.4192 27.1729 13.3353L27.7273 14.8058L29.2461 15.2076C31.4238 15.7862 32.9465 17.767 32.9465 20.029C32.9465 21.379 32.4162 22.6446 31.4519 23.5888C30.6684 24.3603 29.6479 24.8384 28.5631 24.975C28.4024 24.9951 28.2858 25.1317 28.2858 25.2924V27.7232C28.2858 27.9121 28.4506 28.0607 28.6394 28.0446C32.7256 27.675 35.972 24.2679 36.0001 20.0813C36.0242 16.3286 33.4809 13.1665 30.0296 12.2504Z" fill="black" fill-opacity="0.45"/>
<path d="M12.5722 23.8101C12.6446 22.4641 13.2031 21.2105 14.1593 20.2503C15.1798 19.2257 16.57 18.6512 18.0164 18.6512C19.4709 18.6512 20.841 19.2177 21.8736 20.2503C21.9298 20.3065 21.9821 20.3628 22.0383 20.423L21.0339 21.2105C20.986 21.2476 20.9496 21.2973 20.9287 21.3541C20.9079 21.4109 20.9035 21.4725 20.9161 21.5317C20.9287 21.5908 20.9578 21.6453 20.9999 21.6887C21.0421 21.7321 21.0956 21.7627 21.1544 21.7771L25.0999 22.7413C25.3008 22.7896 25.4977 22.6369 25.4977 22.432L25.5178 18.3619C25.5178 18.0927 25.2124 17.94 24.9995 18.1087L24.0673 18.84C22.5968 17.1525 20.4352 16.0837 18.0205 16.0837C13.7053 16.0837 10.1856 19.5029 10.0089 23.786C10.0008 23.9668 10.1455 24.1195 10.3303 24.1195H12.2548C12.4236 24.1154 12.5642 23.9829 12.5722 23.8101ZM25.6745 24.1154H23.7499C23.5812 24.1154 23.4406 24.248 23.4285 24.4208C23.3562 25.7668 22.7977 27.0204 21.8414 27.9806C20.8209 29.0052 19.4307 29.5797 17.9843 29.5797C16.5298 29.5797 15.1597 29.0132 14.1272 27.9806C14.0709 27.9244 14.0187 27.8681 13.9624 27.8079L14.9669 27.0204C15.0147 26.9833 15.0512 26.9336 15.072 26.8767C15.0928 26.8199 15.0972 26.7584 15.0846 26.6992C15.072 26.64 15.043 26.5856 15.0008 26.5422C14.9587 26.4988 14.9051 26.4682 14.8464 26.4538L10.9008 25.4896C10.6999 25.4413 10.5031 25.594 10.5031 25.7989L10.487 29.873C10.487 30.1422 10.7923 30.2949 11.0053 30.1262L11.9374 29.3949C13.408 31.0824 15.5696 32.1512 17.9843 32.1512C22.2995 32.1512 25.8191 28.732 25.9959 24.4489C26.0039 24.2681 25.8593 24.1154 25.6745 24.1154Z" fill="black" fill-opacity="0.45"/>
</g>
<defs>
<clipPath id="clip0_636_5814">
<rect width="36" height="36" fill="white"/>
</clipPath>
</defs>
</svg>
