<svg width="36" height="36" viewBox="0 0 36 36" fill="none" xmlns="http://www.w3.org/2000/svg">
<g clip-path="url(#clip0_636_5815)">
<path d="M25.7146 15.3458H10.286C10.1092 15.3458 9.96459 15.4904 9.96459 15.6672V31.819C9.96459 31.9958 10.1092 32.1404 10.286 32.1404H25.7146C25.8914 32.1404 26.036 31.9958 26.036 31.819V15.6672C26.036 15.4904 25.8914 15.3458 25.7146 15.3458ZM12.536 17.9172H23.4646V22.6181H12.536V17.9172ZM23.4646 29.569H12.536V24.8681H23.4646V29.569Z" fill="black" fill-opacity="0.45"/>
<path d="M14.4646 27.4748C14.4646 27.8158 14.6001 28.1428 14.8412 28.384C15.0823 28.6251 15.4093 28.7605 15.7503 28.7605C16.0913 28.7605 16.4183 28.6251 16.6594 28.384C16.9006 28.1428 17.036 27.8158 17.036 27.4748C17.036 27.1338 16.9006 26.8068 16.6594 26.5657C16.4183 26.3246 16.0913 26.1891 15.7503 26.1891C15.4093 26.1891 15.0823 26.3246 14.8412 26.5657C14.6001 26.8068 14.4646 27.1338 14.4646 27.4748ZM14.4646 20.323C14.4646 20.664 14.6001 20.9911 14.8412 21.2322C15.0823 21.4733 15.4093 21.6087 15.7503 21.6087C16.0913 21.6087 16.4183 21.4733 16.6594 21.2322C16.9006 20.9911 17.036 20.664 17.036 20.323C17.036 19.982 16.9006 19.655 16.6594 19.4139C16.4183 19.1728 16.0913 19.0373 15.7503 19.0373C15.4093 19.0373 15.0823 19.1728 14.8412 19.4139C14.6001 19.655 14.4646 19.982 14.4646 20.323Z" fill="black" fill-opacity="0.45"/>
<path d="M30.0296 12.2504C28.1894 7.39286 23.5006 3.9375 18.0082 3.9375C12.5157 3.9375 7.8269 7.38884 5.98672 12.2464C2.52735 13.1585 -0.0199713 16.3205 0.000117994 20.0732C0.0242251 24.2679 3.27869 27.679 7.3769 28.0446C7.56574 28.0607 7.72646 27.9121 7.72646 27.7232V25.2964C7.72646 25.1357 7.60592 24.9991 7.44521 24.979C6.36039 24.8424 5.33583 24.3683 4.54833 23.5929C3.58405 22.6487 3.05369 21.379 3.05369 20.033C3.05369 18.908 3.41931 17.8473 4.10637 16.9634C4.77735 16.1036 5.72155 15.4808 6.76217 15.2076L8.28494 14.8058L8.84342 13.3313C9.18896 12.4152 9.6711 11.5554 10.2778 10.7799C10.8765 10.0085 11.5876 9.33348 12.3832 8.77098C14.0345 7.60982 15.9791 6.99509 18.0082 6.99509C20.0372 6.99509 21.9818 7.60982 23.6332 8.775C24.4327 9.3375 25.1398 10.0125 25.7385 10.7839C26.3452 11.5594 26.8273 12.4192 27.1729 13.3353L27.7273 14.8058L29.2461 15.2076C31.4238 15.7862 32.9465 17.767 32.9465 20.029C32.9465 21.379 32.4162 22.6446 31.4519 23.5888C30.6684 24.3603 29.6479 24.8384 28.5631 24.975C28.4024 24.9951 28.2858 25.1317 28.2858 25.2924V27.7232C28.2858 27.9121 28.4506 28.0607 28.6394 28.0446C32.7256 27.675 35.972 24.2679 36.0001 20.0813C36.0242 16.3286 33.4809 13.1665 30.0296 12.2504Z" fill="black" fill-opacity="0.45"/>
</g>
<defs>
<clipPath id="clip0_636_5815">
<rect width="36" height="36" fill="white"/>
</clipPath>
</defs>
</svg>
