<svg width="36" height="36" viewBox="0 0 36 36" fill="none" xmlns="http://www.w3.org/2000/svg">
<path d="M33.1065 24.7475H30.9369V19.1225H19.3654V15.4261H28.9279C29.2815 15.4261 29.5708 15.1368 29.5708 14.7832V4.17606C29.5708 3.82249 29.2815 3.5332 28.9279 3.5332H7.0708C6.71723 3.5332 6.42794 3.82249 6.42794 4.17606V14.7832C6.42794 15.1368 6.71723 15.4261 7.0708 15.4261H16.6333V19.1225H5.06187V24.7475H2.89223C2.71544 24.7475 2.5708 24.8921 2.5708 25.0689V32.1403C2.5708 32.3171 2.71544 32.4618 2.89223 32.4618H9.96366C10.1404 32.4618 10.2851 32.3171 10.2851 32.1403V25.0689C10.2851 24.8921 10.1404 24.7475 9.96366 24.7475H7.79402V21.8546H16.6333V24.7475H14.4637C14.2869 24.7475 14.1422 24.8921 14.1422 25.0689V32.1403C14.1422 32.3171 14.2869 32.4618 14.4637 32.4618H21.5351C21.7119 32.4618 21.8565 32.3171 21.8565 32.1403V25.0689C21.8565 24.8921 21.7119 24.7475 21.5351 24.7475H19.3654V21.8546H28.2047V24.7475H26.0351C25.8583 24.7475 25.7137 24.8921 25.7137 25.0689V32.1403C25.7137 32.3171 25.8583 32.4618 26.0351 32.4618H33.1065C33.2833 32.4618 33.4279 32.3171 33.4279 32.1403V25.0689C33.4279 24.8921 33.2833 24.7475 33.1065 24.7475ZM7.71366 29.7819C7.71366 29.8421 7.66544 29.8903 7.60518 29.8903H5.24669C5.18643 29.8903 5.13821 29.8421 5.13821 29.7819V27.4234C5.13821 27.3631 5.18643 27.3149 5.24669 27.3149H7.60518C7.66544 27.3149 7.71366 27.3631 7.71366 27.4234V29.7819ZM19.2851 29.7819C19.2851 29.8421 19.2369 29.8903 19.1766 29.8903H16.8181C16.7579 29.8903 16.7096 29.8421 16.7096 29.7819V27.4234C16.7096 27.3631 16.7579 27.3149 16.8181 27.3149H19.1766C19.2369 27.3149 19.2851 27.3631 19.2851 27.4234V29.7819ZM8.99937 12.8546V6.10463H26.9994V12.8546H8.99937ZM30.8565 29.7819C30.8565 29.8421 30.8083 29.8903 30.748 29.8903H28.3896C28.3293 29.8903 28.2811 29.8421 28.2811 29.7819V27.4234C28.2811 27.3631 28.3293 27.3149 28.3896 27.3149H30.748C30.8083 27.3149 30.8565 27.3631 30.8565 27.4234V29.7819ZM11.8922 9.47963C11.8922 9.90587 12.0616 10.3147 12.363 10.6161C12.6644 10.9175 13.0731 11.0868 13.4994 11.0868C13.9256 11.0868 14.3344 10.9175 14.6358 10.6161C14.9372 10.3147 15.1065 9.90587 15.1065 9.47963C15.1065 9.05339 14.9372 8.64461 14.6358 8.34321C14.3344 8.04181 13.9256 7.87249 13.4994 7.87249C13.0731 7.87249 12.6644 8.04181 12.363 8.34321C12.0616 8.64461 11.8922 9.05339 11.8922 9.47963Z" fill="black" fill-opacity="0.45"/>
</svg>
