<svg width="36" height="36" viewBox="0 0 36 36" fill="none" xmlns="http://www.w3.org/2000/svg">
<path d="M18.1603 24.4735C18.1603 24.6503 18.2969 24.795 18.4616 24.795H25.8946C26.0594 24.795 26.196 24.6503 26.196 24.4735V22.545C26.196 22.3682 26.0594 22.2235 25.8946 22.2235H18.4616C18.2969 22.2235 18.1603 22.3682 18.1603 22.545V24.4735ZM10.3295 24.7186L18.0437 18.2499C18.1964 18.1213 18.1964 17.8842 18.0437 17.7557L10.3295 11.2909C10.2829 11.2513 10.2259 11.2259 10.1654 11.2177C10.1048 11.2095 10.0431 11.2189 9.9877 11.2447C9.93228 11.2705 9.88543 11.3117 9.85271 11.3633C9.81999 11.415 9.80278 11.4749 9.80312 11.536V14.0552C9.80312 14.1517 9.84329 14.24 9.91963 14.3003L14.3312 18.0048L9.91963 21.7092C9.88372 21.7393 9.85472 21.7768 9.83461 21.8191C9.8145 21.8614 9.80376 21.9075 9.80312 21.9543V24.4735C9.80312 24.7467 10.1205 24.8954 10.3295 24.7186ZM32.7853 1.93335H3.21383C2.50267 1.93335 1.92812 2.5079 1.92812 3.21906V32.7905C1.92812 33.5017 2.50267 34.0762 3.21383 34.0762H32.7853C33.4964 34.0762 34.071 33.5017 34.071 32.7905V3.21906C34.071 2.5079 33.4964 1.93335 32.7853 1.93335ZM31.1781 31.1834H4.82097V4.82621H31.1781V31.1834Z" fill="black" fill-opacity="0.45"/>
</svg>
