<svg width="36" height="36" viewBox="0 0 36 36" fill="none" xmlns="http://www.w3.org/2000/svg">
<path d="M9.66797 9.87891C10.3676 9.87891 10.9336 9.31289 10.9336 8.61328V1.26562C10.9336 0.566016 10.3676 0 9.66797 0C8.96836 0 8.40234 0.566016 8.40234 1.26562V8.61328C8.40234 9.31289 8.96836 9.87891 9.66797 9.87891ZM31.2188 14.9414H27C27 13.5422 25.868 12.4102 24.4688 12.4102H7.03125C5.63203 12.4102 4.5 13.5422 4.5 14.9414V23.6602C4.5 23.7797 4.50703 23.8957 4.52461 24.0082C4.50703 24.2543 4.5 24.5004 4.5 24.75C4.5 30.9621 9.53789 36 15.75 36C21.3785 36 26.0402 31.8691 26.8699 26.4727H31.2188C32.618 26.4727 33.75 25.3406 33.75 23.9414V17.4727C33.75 16.0734 32.618 14.9414 31.2188 14.9414ZM24.4688 23.9414H24.4301C24.4547 24.2086 24.4688 24.4758 24.4688 24.75C24.4688 29.5664 20.5664 33.4688 15.75 33.4688C10.9336 33.4688 7.03125 29.5664 7.03125 24.75C7.03125 24.4758 7.04531 24.2086 7.06992 23.9414H7.03125V14.9414H24.4688V23.9414ZM31.2188 23.6602H27.2812V17.4727H31.2188V23.6602ZM21.5508 9.87891C22.2504 9.87891 22.8164 9.31289 22.8164 8.61328V1.26562C22.8164 0.566016 22.2504 0 21.5508 0C20.8512 0 20.2852 0.566016 20.2852 1.26562V8.61328C20.2852 9.31289 20.8512 9.87891 21.5508 9.87891ZM15.5742 9.87891C16.2738 9.87891 16.8398 9.31289 16.8398 8.61328V1.26562C16.8398 0.566016 16.2738 0 15.5742 0C14.8746 0 14.3086 0.566016 14.3086 1.26562V8.61328C14.3086 9.31289 14.8746 9.87891 15.5742 9.87891Z" fill="black" fill-opacity="0.45"/>
</svg>
