<svg width="36" height="36" viewBox="0 0 36 36" fill="none" xmlns="http://www.w3.org/2000/svg">
<path d="M9.53376 17.3827C8.57751 17.3827 7.91859 16.9608 7.86234 16.3019H5.66457C5.70073 18.0457 7.14716 19.1265 9.43734 19.1265C11.8119 19.1265 13.2543 17.9854 13.2543 16.093C13.2543 14.6546 12.4507 13.847 10.6628 13.5015L9.49359 13.2765C8.53734 13.0876 8.13555 12.7983 8.13555 12.3041C8.13555 11.7015 8.66992 11.3198 9.47751 11.3198C10.2851 11.3198 10.8958 11.7658 10.9481 12.4046H13.0775C13.0414 10.7291 11.5708 9.58004 9.44939 9.58004C7.26368 9.58004 5.84537 10.7412 5.84537 12.5131C5.84537 13.9394 6.69716 14.8434 8.35653 15.1568L9.54984 15.3939C10.5864 15.6028 10.9802 15.872 10.9802 16.3742C10.9842 16.9649 10.3976 17.3827 9.53376 17.3827Z" fill="black" fill-opacity="0.45"/>
<path d="M34.7143 3.05835H1.28571C0.574554 3.05835 0 3.6329 0 4.34406V24.2726C0 24.9838 0.574554 25.5584 1.28571 25.5584H16.5536V30.0584H9.64286C9.28929 30.0584 9 30.3476 9 30.7012V32.6298C9 32.8066 9.14464 32.9512 9.32143 32.9512H26.6786C26.8554 32.9512 27 32.8066 27 32.6298V30.7012C27 30.3476 26.7107 30.0584 26.3571 30.0584H19.4464V25.5584H34.7143C35.4254 25.5584 36 24.9838 36 24.2726V4.34406C36 3.6329 35.4254 3.05835 34.7143 3.05835ZM33.1071 22.6655H2.89286V5.95121H33.1071V22.6655Z" fill="black" fill-opacity="0.45"/>
<path d="M30.717 16.9848H26.8679V9.82502H24.5617V18.8853H30.717V16.9848ZM18.7197 19.1304C19.2862 19.1304 19.8125 19.05 20.2907 18.8973L20.825 19.713H22.9666L21.8536 17.9612C22.7014 17.1576 23.1795 15.9081 23.1795 14.3531C23.1795 11.4081 21.4398 9.57993 18.7237 9.57993C16.0076 9.57993 14.2559 11.4 14.2559 14.3531C14.2518 17.3143 15.9835 19.1304 18.7197 19.1304ZM18.7197 11.4965C19.9893 11.4965 20.8371 12.6094 20.8371 14.3531C20.8371 15.0241 20.6925 15.5826 20.4353 15.9804L20.2264 15.7031H18.2657L19.2059 17.1576C19.0492 17.1938 18.8844 17.2139 18.7157 17.2139C17.442 17.2139 16.5942 16.109 16.5942 14.3531C16.5983 12.6014 17.446 11.4965 18.7197 11.4965Z" fill="black" fill-opacity="0.45"/>
</svg>
