<svg width="36" height="36" viewBox="0 0 36 36" fill="none" xmlns="http://www.w3.org/2000/svg">
<path d="M30.8562 0H5.14195C4.43079 0 3.85623 0.574554 3.85623 1.28571V34.7143C3.85623 35.4254 4.43079 36 5.14195 36H30.8562C31.5674 36 32.1419 35.4254 32.1419 34.7143V1.28571C32.1419 0.574554 31.5674 0 30.8562 0ZM29.2491 33.1071H6.74909V25.0312H10.6826C11.1486 26.3491 11.9683 27.5344 13.0571 28.4344C14.4433 29.5795 16.1991 30.2143 17.9991 30.2143C19.7991 30.2143 21.5549 29.5835 22.9411 28.4344C24.0299 27.5344 24.8495 26.3491 25.3156 25.0312H29.2491V22.5H23.2866L23.0777 23.4924C22.5955 25.8951 20.458 27.6429 17.9991 27.6429C15.5402 27.6429 13.4027 25.8951 12.9165 23.4924L12.7076 22.5H6.74909V2.89286H29.2491V33.1071ZM10.2848 11.1295H25.7134C25.8902 11.1295 26.0348 10.9848 26.0348 10.808V8.87946C26.0348 8.70268 25.8902 8.55804 25.7134 8.55804H10.2848C10.108 8.55804 9.96338 8.70268 9.96338 8.87946V10.808C9.96338 10.9848 10.108 11.1295 10.2848 11.1295ZM10.2848 17.558H25.7134C25.8902 17.558 26.0348 17.4134 26.0348 17.2366V15.308C26.0348 15.1312 25.8902 14.9866 25.7134 14.9866H10.2848C10.108 14.9866 9.96338 15.1312 9.96338 15.308V17.2366C9.96338 17.4134 10.108 17.558 10.2848 17.558Z" fill="black" fill-opacity="0.45"/>
</svg>
