<svg width="36" height="36" viewBox="0 0 36 36" fill="none" xmlns="http://www.w3.org/2000/svg">
<path d="M34.7143 3.84985H1.28571C0.574554 3.84985 0 4.42441 0 5.13557V30.8499C0 31.561 0.574554 32.1356 1.28571 32.1356H34.7143C35.4254 32.1356 36 31.561 36 30.8499V5.13557C36 4.42441 35.4254 3.84985 34.7143 3.84985ZM2.89286 6.74271H33.1071V11.5641H2.89286V6.74271ZM33.1071 29.2427H2.89286V15.0999H33.1071V29.2427ZM23.5848 26.6713H30.2143C30.3911 26.6713 30.5357 26.5266 30.5357 26.3499V23.457C30.5357 23.2802 30.3911 23.1356 30.2143 23.1356H23.5848C23.408 23.1356 23.2634 23.2802 23.2634 23.457V26.3499C23.2634 26.5266 23.408 26.6713 23.5848 26.6713Z" fill="black" fill-opacity="0.45"/>
</svg>
