<svg width="36" height="36" viewBox="0 0 36 36" fill="none" xmlns="http://www.w3.org/2000/svg">
<path d="M33.5728 8.52972L25.7541 13.3471L18.2568 3.34668C18.2266 3.30643 18.1875 3.27376 18.1425 3.25126C18.0975 3.22876 18.0479 3.21704 17.9976 3.21704C17.9473 3.21704 17.8977 3.22876 17.8527 3.25126C17.8078 3.27376 17.7686 3.30643 17.7385 3.34668L10.2452 13.3471L2.4224 8.52972C2.19338 8.3891 1.89606 8.57793 1.93222 8.84713L5.00187 32.1748C5.04606 32.4922 5.31928 32.7373 5.64472 32.7373H30.3586C30.68 32.7373 30.9572 32.4962 30.9974 32.1748L34.067 8.84713C34.0992 8.57793 33.8059 8.3891 33.5728 8.52972ZM28.5103 29.9891H7.4849L5.32329 13.54L10.9403 16.9994L17.9996 7.58151L25.059 16.9994L30.676 13.54L28.5103 29.9891ZM17.9996 17.8712C15.5045 17.8712 13.4755 19.9003 13.4755 22.3953C13.4755 24.8904 15.5045 26.9195 17.9996 26.9195C20.4947 26.9195 22.5237 24.8904 22.5237 22.3953C22.5237 19.9003 20.4947 17.8712 17.9996 17.8712ZM17.9996 24.336C16.9309 24.336 16.063 23.4681 16.063 22.3953C16.063 21.3266 16.9309 20.4547 17.9996 20.4547C19.0684 20.4547 19.9362 21.3226 19.9362 22.3953C19.9362 23.4641 19.0684 24.336 17.9996 24.336Z" fill="black" fill-opacity="0.45"/>
</svg>
