<svg width="36" height="36" viewBox="0 0 36 36" fill="none" xmlns="http://www.w3.org/2000/svg">
<path d="M17.9994 2.56665C9.47753 2.56665 2.57083 9.47335 2.57083 17.9952V32.4595C2.57083 32.9939 3.00074 33.4238 3.53512 33.4238H10.928C12.3463 33.4238 13.4994 32.2707 13.4994 30.8524V22.4952C13.4994 21.0769 12.3463 19.9238 10.928 19.9238H5.46369V17.9952C5.46369 11.0725 11.0766 5.45951 17.9994 5.45951C24.9222 5.45951 30.5351 11.0725 30.5351 17.9952V19.9238H25.0708C23.6525 19.9238 22.4994 21.0769 22.4994 22.4952V30.8524C22.4994 32.2707 23.6525 33.4238 25.0708 33.4238H32.4637C32.9981 33.4238 33.428 32.9939 33.428 32.4595V17.9952C33.428 9.47335 26.5213 2.56665 17.9994 2.56665ZM10.6065 22.8167V30.5309H5.46369V22.8167H10.6065ZM30.5351 30.5309H25.3923V22.8167H30.5351V30.5309Z" fill="black" fill-opacity="0.45"/>
</svg>
