<svg width="36" height="36" viewBox="0 0 36 36" fill="none" xmlns="http://www.w3.org/2000/svg">
<path d="M34.5857 12.9262C33.6822 10.7875 32.3722 8.84449 30.7286 7.20478C29.0889 5.56111 27.1458 4.25119 25.0071 3.34764C22.7853 2.40746 20.4308 1.93335 18 1.93335C15.5692 1.93335 13.2147 2.40746 10.9929 3.34764C8.85419 4.25119 6.91114 5.56111 5.27143 7.20478C3.62776 8.84449 2.31784 10.7875 1.41429 12.9262C0.474107 15.1481 0 17.5025 0 19.9334C0 25.265 2.34241 30.2874 6.42455 33.7186L6.49286 33.7749C6.72589 33.9677 7.0192 34.0762 7.32054 34.0762H28.6835C28.9848 34.0762 29.2781 33.9677 29.5112 33.7749L29.5795 33.7186C33.6576 30.2874 36 25.265 36 19.9334C36 17.5025 35.5219 15.1481 34.5857 12.9262ZM28.0205 31.0226H7.97946C6.42695 29.6228 5.18612 27.9121 4.3375 26.0017C3.48889 24.0913 3.05145 22.0238 3.05357 19.9334C3.05357 15.9396 4.60848 12.1869 7.43304 9.36639C10.2576 6.54183 14.0103 4.98692 18 4.98692C21.9937 4.98692 25.7464 6.54183 28.567 9.36639C31.3915 12.1909 32.9464 15.9436 32.9464 19.9334C32.9464 24.1762 31.1585 28.19 28.0205 31.0226ZM22.4799 14.3686C22.4195 14.3088 22.3379 14.2752 22.2529 14.2752C22.1679 14.2752 22.0863 14.3088 22.0259 14.3686L18.6308 17.7637C17.8795 17.5628 17.0478 17.7557 16.4571 18.3463C16.2479 18.5551 16.082 18.8031 15.9687 19.0761C15.8555 19.3491 15.7972 19.6418 15.7972 19.9374C15.7972 20.2329 15.8555 20.5256 15.9687 20.7986C16.082 21.0716 16.2479 21.3196 16.4571 21.5284C16.6659 21.7376 16.9139 21.9036 17.187 22.0168C17.46 22.1301 17.7526 22.1884 18.0482 22.1884C18.3438 22.1884 18.6364 22.1301 18.9095 22.0168C19.1825 21.9036 19.4305 21.7376 19.6393 21.5284C19.9191 21.2495 20.1203 20.9016 20.2226 20.5199C20.3249 20.1382 20.3247 19.7363 20.2219 19.3548L23.617 15.9597C23.7415 15.8351 23.7415 15.6302 23.617 15.5057L22.4799 14.3686ZM17.1161 10.2905H18.8839C19.0607 10.2905 19.2054 10.1459 19.2054 9.96906V6.75478C19.2054 6.57799 19.0607 6.43335 18.8839 6.43335H17.1161C16.9393 6.43335 16.7946 6.57799 16.7946 6.75478V9.96906C16.7946 10.1459 16.9393 10.2905 17.1161 10.2905ZM27.5625 19.0494V20.8173C27.5625 20.9941 27.7071 21.1387 27.8839 21.1387H31.0982C31.275 21.1387 31.4196 20.9941 31.4196 20.8173V19.0494C31.4196 18.8726 31.275 18.728 31.0982 18.728H27.8839C27.7071 18.728 27.5625 18.8726 27.5625 19.0494ZM28.0728 11.1262L26.8232 9.87665C26.7628 9.81684 26.6812 9.78328 26.5962 9.78328C26.5112 9.78328 26.4296 9.81684 26.3692 9.87665L24.0951 12.1508C24.0353 12.2112 24.0017 12.2928 24.0017 12.3778C24.0017 12.4628 24.0353 12.5444 24.0951 12.6048L25.3446 13.8543C25.4692 13.9789 25.6741 13.9789 25.7987 13.8543L28.0728 11.5802C28.1973 11.4557 28.1973 11.2508 28.0728 11.1262ZM9.64688 9.87665C9.58646 9.81684 9.50488 9.78328 9.41987 9.78328C9.33485 9.78328 9.25327 9.81684 9.19286 9.87665L7.9433 11.1262C7.88349 11.1866 7.84993 11.2682 7.84993 11.3532C7.84993 11.4382 7.88349 11.5198 7.9433 11.5802L10.2174 13.8543C10.342 13.9789 10.5469 13.9789 10.6714 13.8543L11.921 12.6048C12.0455 12.4802 12.0455 12.2753 11.921 12.1508L9.64688 9.87665ZM7.95536 18.728H4.74107C4.56429 18.728 4.41964 18.8726 4.41964 19.0494V20.8173C4.41964 20.9941 4.56429 21.1387 4.74107 21.1387H7.95536C8.13214 21.1387 8.27679 20.9941 8.27679 20.8173V19.0494C8.27679 18.8726 8.13214 18.728 7.95536 18.728Z" fill="black" fill-opacity="0.45"/>
</svg>
