<svg width="36" height="36" viewBox="0 0 36 36" fill="none" xmlns="http://www.w3.org/2000/svg">
<path d="M30.3676 18.0048L34.4819 13.0668C34.5209 13.0198 34.5457 12.9627 34.5536 12.9021C34.5615 12.8415 34.5521 12.7799 34.5264 12.7244C34.5008 12.669 34.46 12.6219 34.4088 12.5886C34.3575 12.5554 34.2979 12.5373 34.2368 12.5365H32.039C31.9426 12.5365 31.8542 12.5807 31.7939 12.653L28.8488 16.1847L25.9118 12.657C25.8817 12.6211 25.8443 12.5921 25.802 12.572C25.7597 12.5519 25.7135 12.5411 25.6667 12.5405H23.4649C23.3886 12.5405 23.3163 12.5686 23.26 12.6168C23.2273 12.6438 23.2003 12.6771 23.1806 12.7146C23.1608 12.7521 23.1488 12.7932 23.145 12.8354C23.1413 12.8777 23.146 12.9202 23.1588 12.9607C23.1717 13.0011 23.1924 13.0385 23.2198 13.0709L27.3301 18.0048L23.2158 22.9427C23.1768 22.9898 23.152 23.0469 23.1441 23.1075C23.1362 23.1681 23.1456 23.2297 23.1713 23.2851C23.1969 23.3406 23.2377 23.3877 23.2889 23.4209C23.3402 23.4542 23.3998 23.4723 23.4609 23.4731H25.6587C25.7551 23.4731 25.8435 23.4289 25.9038 23.3566L28.8408 19.8289L31.7779 23.3566C31.8079 23.3925 31.8454 23.4215 31.8877 23.4416C31.93 23.4617 31.9761 23.4724 32.023 23.4731H34.2328C34.3091 23.4731 34.3814 23.445 34.4377 23.3967C34.5743 23.2842 34.5944 23.0793 34.4779 22.9427L30.3676 18.0048ZM18.9649 16.0762H2.25063C2.07384 16.0762 1.9292 16.2209 1.9292 16.3976V19.6119C1.9292 19.7887 2.07384 19.9334 2.25063 19.9334H18.9649C19.1417 19.9334 19.2863 19.7887 19.2863 19.6119V16.3976C19.2863 16.2209 19.1417 16.0762 18.9649 16.0762ZM15.5899 24.2726H13.1792C13.0466 24.2726 12.9381 24.3811 12.9381 24.5137V31.1834H2.89349C2.7609 31.1834 2.65241 31.2918 2.65241 31.4244V33.8351C2.65241 33.9677 2.7609 34.0762 2.89349 34.0762H14.6256C15.2926 34.0762 15.831 33.5378 15.831 32.8709V24.5137C15.831 24.3811 15.7225 24.2726 15.5899 24.2726ZM2.89349 4.82621H12.9381V11.4959C12.9381 11.6284 13.0466 11.7369 13.1792 11.7369H15.5899C15.7225 11.7369 15.831 11.6284 15.831 11.4959V3.13871C15.831 2.47174 15.2926 1.93335 14.6256 1.93335H2.89349C2.7609 1.93335 2.65241 2.04183 2.65241 2.17442V4.58514C2.65241 4.71772 2.7609 4.82621 2.89349 4.82621Z" fill="black" fill-opacity="0.45"/>
</svg>
