<svg width="36" height="36" viewBox="0 0 36 36" fill="none" xmlns="http://www.w3.org/2000/svg">
<path d="M23.5895 23.224C23.5325 23.1749 23.4598 23.1478 23.3846 23.1476H21.1868C21.0904 23.1476 21.002 23.1918 20.9417 23.2642L18.0006 26.7918L15.0636 23.2642C15.0335 23.2282 14.9961 23.1992 14.9538 23.1791C14.9115 23.159 14.8653 23.1483 14.8185 23.1476H12.6167C12.5404 23.1476 12.468 23.1758 12.4118 23.224C12.3791 23.251 12.3521 23.2842 12.3324 23.3217C12.3126 23.3593 12.3005 23.4004 12.2968 23.4426C12.2931 23.4848 12.2978 23.5274 12.3106 23.5678C12.3234 23.6082 12.3442 23.6457 12.3716 23.678L16.4819 28.6119L12.3676 33.5499C12.3286 33.5969 12.3038 33.654 12.2959 33.7146C12.288 33.7752 12.2974 33.8368 12.323 33.8923C12.3487 33.9477 12.3895 33.9948 12.4407 34.0281C12.492 34.0613 12.5516 34.0794 12.6127 34.0802H14.8105C14.9069 34.0802 14.9953 34.036 15.0555 33.9637L17.9926 30.436L20.9296 33.9637C20.9597 33.9996 20.9972 34.0286 21.0395 34.0487C21.0818 34.0688 21.1279 34.0796 21.1747 34.0802H23.3846C23.4609 34.0802 23.5332 34.0521 23.5895 34.0039C23.7261 33.8914 23.7462 33.6865 23.6296 33.5499L19.5194 28.6119L23.6337 23.674C23.7462 23.5374 23.7261 23.3365 23.5895 23.224ZM16.3935 19.2905H19.6078C19.7846 19.2905 19.9292 19.1459 19.9292 18.9691V2.25478C19.9292 2.07799 19.7846 1.93335 19.6078 1.93335H16.3935C16.2167 1.93335 16.0721 2.07799 16.0721 2.25478V18.9691C16.0721 19.1459 16.2167 19.2905 16.3935 19.2905ZM11.4917 12.9423H4.82206V2.89764C4.82206 2.76505 4.71357 2.65656 4.58099 2.65656H2.17027C2.03768 2.65656 1.9292 2.76505 1.9292 2.89764V14.6298C1.9292 15.2967 2.46759 15.8351 3.13456 15.8351H11.4917C11.6243 15.8351 11.7328 15.7267 11.7328 15.5941V13.1834C11.7328 13.0508 11.6243 12.9423 11.4917 12.9423ZM33.831 2.65656H31.4203C31.2877 2.65656 31.1792 2.76505 31.1792 2.89764V12.9423H24.5096C24.377 12.9423 24.2685 13.0508 24.2685 13.1834V15.5941C24.2685 15.7267 24.377 15.8351 24.5096 15.8351H32.8667C33.5337 15.8351 34.0721 15.2967 34.0721 14.6298V2.89764C34.0721 2.76505 33.9636 2.65656 33.831 2.65656Z" fill="black" fill-opacity="0.45"/>
</svg>
