<svg width="36" height="36" viewBox="0 0 36 36" fill="none" xmlns="http://www.w3.org/2000/svg">
<path d="M22.821 25.49L28.5223 20.99C28.5607 20.96 28.5918 20.9216 28.6132 20.8777C28.6345 20.8339 28.6456 20.7857 28.6456 20.7369C28.6456 20.6881 28.6345 20.64 28.6132 20.5961C28.5918 20.5523 28.5607 20.5139 28.5223 20.4838L22.821 15.9838C22.608 15.815 22.2987 15.9677 22.2987 16.2369V19.2905H9.2808C9.10401 19.2905 8.95937 19.4351 8.95937 19.6119V21.8619C8.95937 22.0387 9.10401 22.1834 9.2808 22.1834H22.2987V25.2369C22.2987 25.5061 22.612 25.6548 22.821 25.49ZM33.3196 9.21772L26.7866 2.68469C26.4853 2.38335 26.1156 2.16237 25.7138 2.04183V1.93335H3.21383C2.50267 1.93335 1.92812 2.5079 1.92812 3.21906V14.3887C1.92812 14.5655 2.07276 14.7101 2.24954 14.7101H4.49954C4.67633 14.7101 4.82097 14.5655 4.82097 14.3887V4.82621H10.2853V10.2905C10.2853 11.0017 10.8598 11.5762 11.571 11.5762H24.4281C25.1393 11.5762 25.7138 11.0017 25.7138 10.2905V5.7021L31.1781 11.1664V14.3887C31.1781 14.5655 31.3228 14.7101 31.4995 14.7101H33.7495C33.9263 14.7101 34.071 14.5655 34.071 14.3887V11.0338C34.071 10.3508 33.8018 9.69987 33.3196 9.21772ZM23.1424 9.00478H12.8567V4.82621H23.1424V9.00478ZM33.7495 26.5226H31.4995C31.3228 26.5226 31.1781 26.6673 31.1781 26.8441V31.1834H4.82097V26.8441C4.82097 26.6673 4.67633 26.5226 4.49954 26.5226H2.24954C2.07276 26.5226 1.92812 26.6673 1.92812 26.8441V32.7905C1.92812 33.5017 2.50267 34.0762 3.21383 34.0762H32.7853C33.4964 34.0762 34.071 33.5017 34.071 32.7905V26.8441C34.071 26.6673 33.9263 26.5226 33.7495 26.5226Z" fill="black" fill-opacity="0.45"/>
</svg>
