<svg width="36" height="36" viewBox="0 0 36 36" fill="none" xmlns="http://www.w3.org/2000/svg">
<path d="M34.7143 3.05835H1.28571C0.574554 3.05835 0 3.6329 0 4.34406V24.2726C0 24.9838 0.574554 25.5584 1.28571 25.5584H16.5536V30.0584H9.64286C9.28929 30.0584 9 30.3476 9 30.7012V32.6298C9 32.8066 9.14464 32.9512 9.32143 32.9512H26.6786C26.8554 32.9512 27 32.8066 27 32.6298V30.7012C27 30.3476 26.7107 30.0584 26.3571 30.0584H19.4464V25.5584H34.7143C35.4254 25.5584 36 24.9838 36 24.2726V4.34406C36 3.6329 35.4254 3.05835 34.7143 3.05835ZM33.1071 22.6655H2.89286V5.95121H33.1071V22.6655Z" fill="black" fill-opacity="0.45"/>
</svg>
