<svg width="36" height="36" viewBox="0 0 36 36" fill="none" xmlns="http://www.w3.org/2000/svg">
<path d="M20.4785 7.57123C14.4035 5.35739 5.51603 1.31141 5.51603 1.31141C4.88523 1.14667 4.79683 1.75739 4.79683 1.75739C4.59594 4.2123 6.14683 8.20605 6.95041 9.10203C7.74996 9.99801 19.7714 13.6703 19.7714 13.6703C19.7714 13.6703 10.5263 11.806 8.29639 11.1632C6.06246 10.5203 6.77362 11.8784 6.77362 11.8784C7.23166 14.3574 9.38121 17.1739 11.0808 17.4391C12.7763 17.7043 19.9241 17.5998 19.9241 17.5998C19.9241 17.5998 18.4977 17.7645 16.1794 18.0779C14.4638 18.311 12.2821 18.5802 11.7156 18.7931C10.3857 19.2953 12.6799 21.3083 12.6799 21.3083C16.083 24.394 17.891 23.3373 17.891 23.3373C19.229 22.9074 20.358 22.594 21.3142 22.365L20.129 27.2828H23.5281L21.6558 34.7119L29.9044 23.7873H25.5852L26.4812 22.2324C26.4933 22.2525 26.4973 22.2645 26.4973 22.2645C26.4973 22.2645 29.5629 17.3587 30.7361 14.8556L30.7602 14.8154H30.7562C30.9571 14.3815 31.1017 14.0239 31.158 13.7788C31.841 10.9141 26.5576 9.78507 20.4785 7.57123Z" fill="black" fill-opacity="0.45"/>
</svg>
