<svg width="36" height="36" viewBox="0 0 36 36" fill="none" xmlns="http://www.w3.org/2000/svg">
<path d="M30.8826 5.11574C27.4835 1.71663 21.983 1.71663 18.5879 5.11574L14.6946 9.00904L16.7437 11.0581L20.637 7.16484C22.7986 5.00324 26.4469 4.77422 28.8335 7.16484C31.2241 9.55547 30.9951 13.1997 28.8335 15.3613L24.9402 19.2546L26.9933 21.3077L30.8866 17.4144C34.2777 14.0153 34.2777 8.51484 30.8826 5.11574ZM15.3696 28.8291C13.208 30.9907 9.5598 31.2198 7.1732 28.8291C4.78257 26.4385 5.01159 22.7943 7.1732 20.6327L11.0665 16.7394L9.01337 14.6863L5.12007 18.5796C1.72096 21.9787 1.72096 27.4791 5.12007 30.8742C8.51918 34.2693 14.0196 34.2733 17.4147 30.8742L21.308 26.9809L19.2589 24.9318L15.3696 28.8291ZM7.88837 5.83895C7.82796 5.77913 7.74638 5.74558 7.66137 5.74558C7.57635 5.74558 7.49477 5.77913 7.43436 5.83895L5.84328 7.43002C5.78347 7.49043 5.74991 7.57201 5.74991 7.65703C5.74991 7.74205 5.78347 7.82363 5.84328 7.88404L28.1183 30.159C28.2428 30.2836 28.4478 30.2836 28.5723 30.159L30.1634 28.568C30.2879 28.4434 30.2879 28.2385 30.1634 28.114L7.88837 5.83895Z" fill="black" fill-opacity="0.45"/>
</svg>
