<svg width="36" height="36" viewBox="0 0 36 36" fill="none" xmlns="http://www.w3.org/2000/svg">
<path d="M33.1065 29.2513H5.46366V4.17983C5.46366 4.00304 5.31902 3.8584 5.14223 3.8584H2.89223C2.71544 3.8584 2.5708 4.00304 2.5708 4.17983V31.8227C2.5708 31.9995 2.71544 32.1441 2.89223 32.1441H33.1065C33.2833 32.1441 33.4279 31.9995 33.4279 31.8227V29.5727C33.4279 29.3959 33.2833 29.2513 33.1065 29.2513ZM8.99937 21.6977C8.99937 22.3797 9.27029 23.0337 9.75253 23.516C10.2348 23.9982 10.8888 24.2691 11.5708 24.2691C12.2528 24.2691 12.9068 23.9982 13.3891 23.516C13.8713 23.0337 14.1422 22.3797 14.1422 21.6977C14.1422 21.0157 13.8713 20.3616 13.3891 19.8794C12.9068 19.3972 12.2528 19.1263 11.5708 19.1263C10.8888 19.1263 10.2348 19.3972 9.75253 19.8794C9.27029 20.3616 8.99937 21.0157 8.99937 21.6977ZM13.7404 12.6977C13.7404 13.2092 13.9436 13.6997 14.3053 14.0614C14.667 14.4231 15.1575 14.6263 15.669 14.6263C16.1805 14.6263 16.671 14.4231 17.0327 14.0614C17.3944 13.6997 17.5976 13.2092 17.5976 12.6977C17.5976 12.1862 17.3944 11.6957 17.0327 11.334C16.671 10.9723 16.1805 10.7691 15.669 10.7691C15.1575 10.7691 14.667 10.9723 14.3053 11.334C13.9436 11.6957 13.7404 12.1862 13.7404 12.6977ZM20.0887 21.8584C20.0887 22.8814 20.495 23.8625 21.2184 24.5858C21.9417 25.3092 22.9228 25.7155 23.9458 25.7155C24.9688 25.7155 25.9499 25.3092 26.6732 24.5858C27.3966 23.8625 27.8029 22.8814 27.8029 21.8584C27.8029 20.8354 27.3966 19.8543 26.6732 19.131C25.9499 18.4076 24.9688 18.0013 23.9458 18.0013C22.9228 18.0013 21.9417 18.4076 21.2184 19.131C20.495 19.8543 20.0887 20.8354 20.0887 21.8584ZM26.0351 9.24233C26.0351 9.83906 26.2721 10.4114 26.6941 10.8333C27.1161 11.2553 27.6884 11.4923 28.2851 11.4923C28.8818 11.4923 29.4541 11.2553 29.8761 10.8333C30.298 10.4114 30.5351 9.83906 30.5351 9.24233C30.5351 8.64559 30.298 8.07329 29.8761 7.65134C29.4541 7.22938 28.8818 6.99233 28.2851 6.99233C27.6884 6.99233 27.1161 7.22938 26.6941 7.65134C26.2721 8.07329 26.0351 8.64559 26.0351 9.24233Z" fill="black" fill-opacity="0.45"/>
</svg>
