<svg width="36" height="36" viewBox="0 0 36 36" fill="none" xmlns="http://www.w3.org/2000/svg">
<path d="M18.8521 17.2075L8.59452 4.10129C8.47398 3.94459 8.28514 3.8562 8.08827 3.8562H4.98246C4.71327 3.8562 4.56461 4.16558 4.72934 4.3745L15.3927 17.9991L4.72934 31.6236C4.69224 31.671 4.66922 31.7278 4.66291 31.7877C4.65661 31.8475 4.66727 31.9079 4.69367 31.962C4.72008 32.0161 4.76116 32.0616 4.81223 32.0934C4.8633 32.1252 4.92229 32.142 4.98246 32.1419H8.08827C8.28514 32.1419 8.47398 32.0495 8.59452 31.8968L18.8521 18.7946C19.2177 18.3245 19.2177 17.6736 18.8521 17.2075ZM31.0664 17.2075L20.8088 4.10129C20.6883 3.94459 20.4994 3.8562 20.3026 3.8562H17.1967C16.9276 3.8562 16.7789 4.16558 16.9436 4.3745L27.607 17.9991L16.9436 31.6236C16.9065 31.671 16.8835 31.7278 16.8772 31.7877C16.8709 31.8475 16.8816 31.9079 16.908 31.962C16.9344 32.0161 16.9754 32.0616 17.0265 32.0934C17.0776 32.1252 17.1366 32.142 17.1967 32.1419H20.3026C20.4994 32.1419 20.6883 32.0495 20.8088 31.8968L31.0664 18.7946C31.432 18.3245 31.432 17.6736 31.0664 17.2075Z" fill="black" fill-opacity="0.45"/>
</svg>
