<svg width="36" height="36" viewBox="0 0 36 36" fill="none" xmlns="http://www.w3.org/2000/svg">
<path d="M8.39395 17.9991L19.0573 4.3745C19.2221 4.16558 19.0734 3.8562 18.8042 3.8562H15.6984C15.5015 3.8562 15.3127 3.94861 15.1922 4.10129L4.93457 17.2075C4.75692 17.4339 4.66037 17.7133 4.66037 18.0011C4.66037 18.2888 4.75692 18.5682 4.93457 18.7946L15.1922 31.8968C15.3127 32.0535 15.5015 32.1419 15.6984 32.1419H18.8042C19.0734 32.1419 19.2221 31.8325 19.0573 31.6236L8.39395 17.9991ZM20.6082 17.9991L31.2716 4.3745C31.4364 4.16558 31.2877 3.8562 31.0185 3.8562H27.9127C27.7158 3.8562 27.527 3.94861 27.4064 4.10129L17.1489 17.2075C16.9712 17.4339 16.8747 17.7133 16.8747 18.0011C16.8747 18.2888 16.9712 18.5682 17.1489 18.7946L27.4064 31.8968C27.527 32.0535 27.7158 32.1419 27.9127 32.1419H31.0185C31.2877 32.1419 31.4364 31.8325 31.2716 31.6236L20.6082 17.9991Z" fill="black" fill-opacity="0.45"/>
</svg>
