<svg width="36" height="36" viewBox="0 0 36 36" fill="none" xmlns="http://www.w3.org/2000/svg">
<path d="M4.5 17.9646C4.5 18.2601 4.5582 18.5527 4.67127 18.8256C4.78434 19.0986 4.95008 19.3467 5.15901 19.5556C5.36794 19.7645 5.61598 19.9303 5.88896 20.0433C6.16195 20.1564 6.45453 20.2146 6.75 20.2146C7.04547 20.2146 7.33806 20.1564 7.61104 20.0433C7.88402 19.9303 8.13206 19.7645 8.34099 19.5556C8.54992 19.3467 8.71566 19.0986 8.82873 18.8256C8.9418 18.5527 9 18.2601 9 17.9646C9 17.6691 8.9418 17.3765 8.82873 17.1036C8.71566 16.8306 8.54992 16.5825 8.34099 16.3736C8.13206 16.1647 7.88402 15.9989 7.61104 15.8859C7.33806 15.7728 7.04547 15.7146 6.75 15.7146C6.45453 15.7146 6.16195 15.7728 5.88896 15.8859C5.61598 15.9989 5.36794 16.1647 5.15901 16.3736C4.95008 16.5825 4.78434 16.8306 4.67127 17.1036C4.5582 17.3765 4.5 17.6691 4.5 17.9646ZM15.75 17.9646C15.75 18.5613 15.9871 19.1336 16.409 19.5556C16.831 19.9775 17.4033 20.2146 18 20.2146C18.5967 20.2146 19.169 19.9775 19.591 19.5556C20.0129 19.1336 20.25 18.5613 20.25 17.9646C20.25 17.3679 20.0129 16.7956 19.591 16.3736C19.169 15.9517 18.5967 15.7146 18 15.7146C17.4033 15.7146 16.831 15.9517 16.409 16.3736C15.9871 16.7956 15.75 17.3679 15.75 17.9646ZM27 17.9646C27 18.5613 27.2371 19.1336 27.659 19.5556C28.081 19.9775 28.6533 20.2146 29.25 20.2146C29.8467 20.2146 30.419 19.9775 30.841 19.5556C31.2629 19.1336 31.5 18.5613 31.5 17.9646C31.5 17.3679 31.2629 16.7956 30.841 16.3736C30.419 15.9517 29.8467 15.7146 29.25 15.7146C28.6533 15.7146 28.081 15.9517 27.659 16.3736C27.2371 16.7956 27 17.3679 27 17.9646Z" fill="black" fill-opacity="0.45"/>
</svg>
