<svg width="36" height="36" viewBox="0 0 36 36" fill="none" xmlns="http://www.w3.org/2000/svg">
<g clip-path="url(#clip0_636_5782)">
<path d="M18 0C8.05982 0 0 8.05982 0 18C0 27.9402 8.05982 36 18 36C27.9402 36 36 27.9402 36 18C36 8.05982 27.9402 0 18 0ZM18 32.9464C9.74732 32.9464 3.05357 26.2527 3.05357 18C3.05357 9.74732 9.74732 3.05357 18 3.05357C26.2527 3.05357 32.9464 9.74732 32.9464 18C32.9464 26.2527 26.2527 32.9464 18 32.9464ZM22.729 9.29732C22.0902 9.1567 21.3469 9.08036 20.5071 9.08036C16.2201 9.08036 13.3192 11.3183 12.5277 15.1031H11.25C11.0732 15.1031 10.9286 15.2478 10.9286 15.4246V16.5174C10.9286 16.6942 11.0732 16.8388 11.25 16.8388H12.3107C12.2987 17.0036 12.2987 17.1763 12.2987 17.3531V18.8357H11.25C11.0732 18.8357 10.9286 18.9804 10.9286 19.1571V20.25C10.9286 20.4268 11.0732 20.5714 11.25 20.5714H12.4634C13.1545 24.5571 16.0955 26.9196 20.5071 26.9196C21.3469 26.9196 22.0902 26.8513 22.729 26.7147C22.8777 26.6826 22.9862 26.554 22.9862 26.4013V24.6817C22.9862 24.4808 22.8013 24.3281 22.6045 24.3683C22.0138 24.4808 21.3228 24.533 20.5232 24.533C17.771 24.533 15.9228 23.0625 15.308 20.5714H20.5554C20.7321 20.5714 20.8768 20.4268 20.8768 20.25V19.1571C20.8768 18.9804 20.7321 18.8357 20.5554 18.8357H15.075V17.3893C15.075 17.2004 15.075 17.0116 15.0871 16.8348H20.5473C20.7241 16.8348 20.8688 16.6902 20.8688 16.5134V15.4205C20.8688 15.2437 20.7241 15.0991 20.5473 15.0991H15.3924C16.0835 12.8129 17.8955 11.467 20.5192 11.467C21.3188 11.467 22.0098 11.5272 22.5964 11.6437C22.643 11.6533 22.6911 11.6523 22.7373 11.641C22.7834 11.6297 22.8265 11.6083 22.8634 11.5783C22.9003 11.5483 22.9301 11.5105 22.9506 11.4677C22.9711 11.4248 22.9819 11.3779 22.9821 11.3304V9.61071C22.9821 9.45804 22.8777 9.32946 22.729 9.29732Z" fill="black" fill-opacity="0.45"/>
</g>
<defs>
<clipPath id="clip0_636_5782">
<rect width="36" height="36" fill="white"/>
</clipPath>
</defs>
</svg>
