<svg width="36" height="36" viewBox="0 0 36 36" fill="none" xmlns="http://www.w3.org/2000/svg">
<path d="M25.0723 9.95675V8.02818C25.0723 7.8514 24.9277 7.70675 24.7509 7.70675H9.32234C9.14555 7.70675 9.00091 7.8514 9.00091 8.02818V9.95675C9.00091 10.1335 9.14555 10.2782 9.32234 10.2782H24.7509C24.9277 10.2782 25.0723 10.1335 25.0723 9.95675ZM9.32234 13.4925C9.14555 13.4925 9.00091 13.6371 9.00091 13.8139V15.7425C9.00091 15.9193 9.14555 16.0639 9.32234 16.0639H16.7152C16.892 16.0639 17.0366 15.9193 17.0366 15.7425V13.8139C17.0366 13.6371 16.892 13.4925 16.7152 13.4925H9.32234ZM24.4295 18.1532C19.6362 18.1532 15.7509 22.0385 15.7509 26.8318C15.7509 31.6251 19.6362 35.5103 24.4295 35.5103C29.2228 35.5103 33.1081 31.6251 33.1081 26.8318C33.1081 22.0385 29.2228 18.1532 24.4295 18.1532ZM28.7487 31.151C27.5956 32.3041 26.0607 32.9389 24.4295 32.9389C22.7982 32.9389 21.2634 32.3041 20.1103 31.151C18.9572 29.9978 18.3223 28.463 18.3223 26.8318C18.3223 25.2005 18.9572 23.6657 20.1103 22.5126C21.2634 21.3594 22.7982 20.7246 24.4295 20.7246C26.0607 20.7246 27.5956 21.3594 28.7487 22.5126C29.9018 23.6657 30.5366 25.2005 30.5366 26.8318C30.5366 28.463 29.9018 29.9978 28.7487 31.151ZM23.1438 30.046C23.1438 30.387 23.2792 30.7141 23.5203 30.9552C23.7615 31.1963 24.0885 31.3318 24.4295 31.3318C24.7705 31.3318 25.0975 31.1963 25.3386 30.9552C25.5797 30.7141 25.7152 30.387 25.7152 30.046C25.7152 29.705 25.5797 29.378 25.3386 29.1369C25.0975 28.8958 24.7705 28.7603 24.4295 28.7603C24.0885 28.7603 23.7615 28.8958 23.5203 29.1369C23.2792 29.378 23.1438 29.705 23.1438 30.046ZM23.6259 27.4746H25.2331C25.4098 27.4746 25.5545 27.33 25.5545 27.1532V22.6532C25.5545 22.4764 25.4098 22.3318 25.2331 22.3318H23.6259C23.4491 22.3318 23.3045 22.4764 23.3045 22.6532V27.1532C23.3045 27.33 23.4491 27.4746 23.6259 27.4746ZM15.1081 31.6532H5.78663V3.36747H28.2866V17.1889C28.2866 17.3657 28.4313 17.5103 28.6081 17.5103H30.8581C31.0348 17.5103 31.1795 17.3657 31.1795 17.1889V1.76032C31.1795 1.04916 30.6049 0.474609 29.8938 0.474609H4.17948C3.46832 0.474609 2.89377 1.04916 2.89377 1.76032V33.2603C2.89377 33.9715 3.46832 34.546 4.17948 34.546H15.1081C15.2848 34.546 15.4295 34.4014 15.4295 34.2246V31.9746C15.4295 31.7978 15.2848 31.6532 15.1081 31.6532Z" fill="black" fill-opacity="0.45"/>
</svg>
