<svg width="36" height="36" viewBox="0 0 36 36" fill="none" xmlns="http://www.w3.org/2000/svg">
<path d="M31.7807 3.85255L24.179 4.79675C23.9138 4.82889 23.8053 5.15032 23.9901 5.33916L26.1879 7.53693L20.0205 13.7043C19.9607 13.7647 19.9271 13.8463 19.9271 13.9313C19.9271 14.0164 19.9607 14.0979 20.0205 14.1584L21.8325 15.9704C21.9571 16.095 22.162 16.095 22.2865 15.9704L28.458 9.79898L30.6557 11.9967C30.6981 12.0391 30.7516 12.0687 30.8101 12.0821C30.8685 12.0955 30.9295 12.0921 30.9862 12.0724C31.0428 12.0527 31.0927 12.0174 31.1302 11.9706C31.1677 11.9239 31.1912 11.8675 31.1982 11.8079L32.1383 4.21014C32.145 4.16162 32.1403 4.11222 32.1247 4.0658C32.1091 4.01938 32.0829 3.97721 32.0483 3.94258C32.0137 3.90795 31.9715 3.8818 31.9251 3.86618C31.8787 3.85056 31.8293 3.8459 31.7807 3.85255ZM14.1665 20.0124C14.106 19.9526 14.0245 19.919 13.9394 19.919C13.8544 19.919 13.7728 19.9526 13.7124 20.0124L7.54503 26.1838L5.34726 23.986C5.30486 23.9437 5.25137 23.9141 5.19293 23.9007C5.13449 23.8873 5.07346 23.8907 5.01684 23.9104C4.96023 23.9301 4.91031 23.9654 4.87281 24.0121C4.83532 24.0589 4.81176 24.1153 4.80485 24.1749L3.86065 31.7726C3.83654 31.9816 4.00931 32.1543 4.21824 32.1302L11.82 31.186C12.0852 31.1539 12.1937 30.8325 12.0089 30.6436L9.8111 28.4459L15.9825 22.2744C16.1071 22.1499 16.1071 21.945 15.9825 21.8204L14.1665 20.0124Z" fill="black" fill-opacity="0.45"/>
</svg>
