<svg width="36" height="36" viewBox="0 0 36 36" fill="none" xmlns="http://www.w3.org/2000/svg">
<path d="M17.9989 16.3903C17.9989 16.8166 18.1683 17.2254 18.4697 17.5268C18.771 17.8282 19.1798 17.9975 19.6061 17.9975C20.0323 17.9975 20.4411 17.8282 20.7425 17.5268C21.0439 17.2254 21.2132 16.8166 21.2132 16.3903C21.2132 15.9641 21.0439 15.5553 20.7425 15.2539C20.4411 14.9525 20.0323 14.7832 19.6061 14.7832C19.1798 14.7832 18.771 14.9525 18.4697 15.2539C18.1683 15.5553 17.9989 15.9641 17.9989 16.3903ZM32.7445 30.5694L25.4038 11.5689V4.57785H28.2846V1.8457H7.71322V4.57785H10.594V11.5689L3.2534 30.5694C3.1409 30.8667 3.08063 31.1801 3.08063 31.4975C3.08063 32.9158 4.23375 34.0689 5.65206 34.0689H30.3458C30.6632 34.0689 30.9766 34.0087 31.2739 33.8962C32.5998 33.3859 33.2588 31.8953 32.7445 30.5694ZM13.3262 12.0792V4.6582H22.6717V12.0792L26.3239 21.5332C25.4922 21.3203 24.6324 21.2118 23.7565 21.2118C21.2976 21.2118 18.9672 22.0756 17.115 23.6225C15.748 24.7645 14.0226 25.3889 12.2413 25.3863C10.9275 25.3863 9.66589 25.0528 8.55295 24.4341L13.3262 12.0792ZM5.88509 31.3368L7.56054 27.0055C8.99491 27.7328 10.59 28.1225 12.2454 28.1225C14.7043 28.1225 17.0346 27.2587 18.8869 25.7118C20.2489 24.5787 21.9525 23.9479 23.7605 23.9479C25.1668 23.9479 26.5088 24.3296 27.682 25.0368L30.1128 31.3368H5.88509Z" fill="black" fill-opacity="0.45"/>
</svg>
