<svg width="36" height="36" viewBox="0 0 36 36" fill="none" xmlns="http://www.w3.org/2000/svg">
<path d="M33.1186 27.8548H30.957C30.7882 27.8548 30.6476 27.9954 30.6476 28.1642V30.6472H5.34714V5.34275H30.6516V7.82578C30.6516 7.99453 30.7922 8.13516 30.961 8.13516H33.1226C33.2913 8.13516 33.432 7.99855 33.432 7.82578V3.79989C33.432 3.11685 32.8815 2.56641 32.1985 2.56641H3.80428C3.12125 2.56641 2.5708 3.11685 2.5708 3.79989V32.1901C2.5708 32.8731 3.12125 33.4236 3.80428 33.4236H32.1945C32.8775 33.4236 33.4279 32.8731 33.4279 32.1901V28.1642C33.4279 27.9914 33.2873 27.8548 33.1186 27.8548ZM33.8659 17.7419L28.1646 13.2419C27.9516 13.0731 27.6422 13.2258 27.6422 13.495V16.5486H15.0262C14.8494 16.5486 14.7047 16.6932 14.7047 16.87V19.12C14.7047 19.2968 14.8494 19.4414 15.0262 19.4414H27.6422V22.495C27.6422 22.7642 27.9556 22.9169 28.1646 22.7481L33.8659 18.2481C33.9043 18.218 33.9354 18.1796 33.9568 18.1358C33.9781 18.0919 33.9892 18.0438 33.9892 17.995C33.9892 17.9462 33.9781 17.8981 33.9568 17.8542C33.9354 17.8103 33.9043 17.7719 33.8659 17.7419Z" fill="black" fill-opacity="0.45"/>
</svg>
