<svg width="36" height="36" viewBox="0 0 36 36" fill="none" xmlns="http://www.w3.org/2000/svg">
<path d="M27 16.23C26.6022 16.23 26.2206 16.388 25.9393 16.6693C25.658 16.9506 25.5 17.3322 25.5 17.73V28.5C25.5 28.8978 25.342 29.2794 25.0607 29.5607C24.7794 29.842 24.3978 30 24 30H7.5C7.10217 30 6.72064 29.842 6.43934 29.5607C6.15804 29.2794 6 28.8978 6 28.5V12C6 11.6022 6.15804 11.2206 6.43934 10.9393C6.72064 10.658 7.10217 10.5 7.5 10.5H18.27C18.6678 10.5 19.0494 10.342 19.3307 10.0607C19.612 9.77935 19.77 9.39782 19.77 9C19.77 8.60217 19.612 8.22064 19.3307 7.93934C19.0494 7.65803 18.6678 7.5 18.27 7.5H7.5C6.30653 7.5 5.16193 7.97411 4.31802 8.81802C3.47411 9.66193 3 10.8065 3 12V28.5C3 29.6935 3.47411 30.8381 4.31802 31.682C5.16193 32.5259 6.30653 33 7.5 33H24C25.1935 33 26.3381 32.5259 27.182 31.682C28.0259 30.8381 28.5 29.6935 28.5 28.5V17.73C28.5 17.3322 28.342 16.9506 28.0607 16.6693C27.7794 16.388 27.3978 16.23 27 16.23ZM32.88 3.93C32.7278 3.56348 32.4365 3.27221 32.07 3.12C31.8897 3.04314 31.696 3.00237 31.5 3H22.5C22.1022 3 21.7206 3.15804 21.4393 3.43934C21.158 3.72064 21 4.10218 21 4.5C21 4.89782 21.158 5.27936 21.4393 5.56066C21.7206 5.84196 22.1022 6 22.5 6H27.885L12.435 21.435C12.2944 21.5744 12.1828 21.7403 12.1067 21.9231C12.0305 22.1059 11.9913 22.302 11.9913 22.5C11.9913 22.698 12.0305 22.8941 12.1067 23.0769C12.1828 23.2597 12.2944 23.4256 12.435 23.565C12.5744 23.7056 12.7403 23.8172 12.9231 23.8933C13.1059 23.9695 13.302 24.0087 13.5 24.0087C13.698 24.0087 13.8941 23.9695 14.0769 23.8933C14.2597 23.8172 14.4256 23.7056 14.565 23.565L30 8.115V13.5C30 13.8978 30.158 14.2794 30.4393 14.5607C30.7206 14.842 31.1022 15 31.5 15C31.8978 15 32.2794 14.842 32.5607 14.5607C32.842 14.2794 33 13.8978 33 13.5V4.5C32.9976 4.30398 32.9569 4.11033 32.88 3.93Z" fill="black" fill-opacity="0.45"/>
</svg>
