<svg width="36" height="36" viewBox="0 0 36 36" fill="none" xmlns="http://www.w3.org/2000/svg">
<path d="M34.6293 29.7331L33.6651 21.7295C33.6329 21.4644 33.3075 21.3519 33.1186 21.5407L30.736 23.9273L19.8356 13.0309C19.5825 12.7818 19.1767 12.7818 18.9275 13.0309L14.8374 17.117L3.71996 5.99963C3.65955 5.93981 3.57797 5.90625 3.49295 5.90625C3.40794 5.90625 3.32636 5.93981 3.26594 5.99963L1.45791 7.8157C1.39809 7.87611 1.36453 7.95769 1.36453 8.04271C1.36453 8.12772 1.39809 8.2093 1.45791 8.26971L14.3834 21.2032C14.6325 21.4563 15.0423 21.4563 15.2914 21.2032L19.3816 17.117L28.4659 26.1974L26.0834 28.58C26.0409 28.6227 26.0112 28.6764 25.9978 28.7352C25.9843 28.7939 25.9876 28.8552 26.0073 28.9121C26.027 28.969 26.0622 29.0193 26.1091 29.0572C26.1559 29.0951 26.2124 29.1191 26.2722 29.1264L34.2758 30.0907C34.4807 30.1188 34.6575 29.942 34.6293 29.7331Z" fill="black" fill-opacity="0.45"/>
</svg>
