<svg width="36" height="36" viewBox="0 0 36 36" fill="none" xmlns="http://www.w3.org/2000/svg">
<path d="M21.5354 13.3202H25.1917V23.5095H28.3658V8.16127C28.3658 7.98449 28.2211 7.83984 28.0443 7.83984H26.1077C25.9591 7.83984 25.8265 7.94431 25.7983 8.09297C25.6939 8.57913 25.5211 8.98895 25.28 9.33449C25.0005 9.73181 24.6405 10.0658 24.2233 10.3148C23.8095 10.564 23.3394 10.7367 22.8171 10.8331C22.3992 10.9095 21.9733 10.9537 21.5314 10.9577C21.4468 10.9588 21.3661 10.9931 21.3067 11.0533C21.2473 11.1134 21.214 11.1946 21.214 11.2791V12.9988C21.214 13.1756 21.3586 13.3202 21.5354 13.3202ZM32.4238 25.639H20.2095C20.0327 25.639 19.8881 25.7836 19.8881 25.9604V27.889C19.8881 28.0657 20.0327 28.2104 20.2095 28.2104H32.4238C32.6006 28.2104 32.7452 28.0657 32.7452 27.889V25.9604C32.7452 25.7836 32.6006 25.639 32.4238 25.639ZM15.2635 9.99743C14.6167 9.23404 13.8814 8.69565 13.0457 8.37422C12.1899 8.04475 11.2738 7.88002 10.2975 7.88002C9.33719 7.88002 8.43317 8.04475 7.57737 8.37422C6.74165 8.69565 6.0104 9.23404 5.37558 9.99342C4.73674 10.7608 4.22245 11.7894 3.83674 13.0872C3.45103 14.393 3.25415 16.0202 3.25415 17.9689C3.25415 19.9738 3.45103 21.6412 3.83674 22.9671C4.22245 24.2849 4.73674 25.3256 5.37558 26.089C6.0104 26.8483 6.74165 27.3867 7.57737 27.7081C8.43317 28.0376 9.33719 28.2023 10.2975 28.2023C11.2778 28.2023 12.1939 28.0376 13.0457 27.7081C13.8814 27.3867 14.6207 26.8483 15.2635 26.0849C15.9104 25.3215 16.4287 24.2809 16.8144 22.9631C17.2001 21.6372 17.397 19.9698 17.397 17.9648C17.397 16.0202 17.2001 14.393 16.8144 13.0831C16.4327 11.7934 15.9144 10.7648 15.2635 9.99743ZM14.0783 20.1104C14.0381 20.9702 13.9095 21.7979 13.6966 22.5974C13.4756 23.4291 13.114 24.1443 12.6117 24.743C12.0653 25.3979 11.2778 25.7193 10.2975 25.7193C9.33317 25.7193 8.56174 25.3939 8.01933 24.739C7.52915 24.1443 7.17156 23.4291 6.95058 22.5974C6.73763 21.7979 6.60906 20.9662 6.56888 20.1104C6.5287 19.2747 6.50862 18.5635 6.50862 17.9729C6.50862 17.6193 6.51263 17.1934 6.52469 16.6952C6.53272 16.1849 6.56888 15.6586 6.62915 15.1202C6.68942 14.5738 6.78987 14.0314 6.93451 13.493C7.08317 12.9385 7.28808 12.4363 7.55326 11.9903C7.83049 11.5242 8.18808 11.1425 8.62603 10.8532C9.08406 10.5479 9.64254 10.3992 10.2934 10.3992C10.9403 10.3992 11.5028 10.5479 11.9689 10.8492C12.4167 11.139 12.793 11.5263 13.0698 11.9823C13.347 12.4323 13.5559 12.9385 13.6966 13.497C13.8292 14.0273 13.9296 14.5657 13.9979 15.1081C14.0702 15.6506 14.1104 16.1769 14.1184 16.6912C14.1265 17.1894 14.1345 17.6153 14.1345 17.9689C14.1385 18.5635 14.1184 19.2747 14.0783 20.1104Z" fill="black" fill-opacity="0.45"/>
</svg>
