<svg width="36" height="36" viewBox="0 0 36 36" fill="none" xmlns="http://www.w3.org/2000/svg">
<path d="M35.3954 13.9844H25.1096C24.9329 13.9844 24.7882 14.129 24.7882 14.3058V16.2344C24.7882 16.4112 24.9329 16.5558 25.1096 16.5558H35.3954C35.5721 16.5558 35.7168 16.4112 35.7168 16.2344V14.3058C35.7168 14.129 35.5721 13.9844 35.3954 13.9844ZM30.0114 19.4487H25.1096C24.9329 19.4487 24.7882 19.5933 24.7882 19.7701V21.6987C24.7882 21.8754 24.9329 22.0201 25.1096 22.0201H30.0114C30.1882 22.0201 30.3329 21.8754 30.3329 21.6987V19.7701C30.3329 19.5933 30.1882 19.4487 30.0114 19.4487ZM16.6038 10.3884H14.8641C14.615 10.3884 14.4141 10.5893 14.4141 10.8384V20.8027C14.4141 20.9473 14.4824 21.0799 14.5989 21.1643L20.5815 25.5277C20.7824 25.6723 21.0637 25.6321 21.2083 25.4312L22.2409 24.021V24.017C22.3855 23.8161 22.3413 23.5348 22.1404 23.3902L17.0498 19.7098V10.8384C17.0538 10.5893 16.8489 10.3884 16.6038 10.3884Z" fill="black" fill-opacity="0.45"/>
<path d="M29.7637 24.4971H27.4414C27.2164 24.4971 27.0034 24.6136 26.8829 24.8065C26.3718 25.6165 25.7722 26.3671 25.0949 27.0444C23.9289 28.2143 22.5466 29.1463 21.0248 29.7886C19.4458 30.4556 17.7704 30.7931 16.0427 30.7931C14.311 30.7931 12.6356 30.4556 11.0606 29.7886C9.53779 29.1458 8.1677 28.2217 6.99047 27.0444C5.81324 25.8672 4.88913 24.4971 4.24627 22.9743C3.57931 21.3993 3.24181 19.7239 3.24181 17.9922C3.24181 16.2605 3.57931 14.5891 4.24627 13.01C4.88913 11.4873 5.81324 10.1172 6.99047 8.93995C8.1677 7.76272 9.53779 6.83861 11.0606 6.19576C12.6356 5.52879 14.315 5.19129 16.0427 5.19129C17.7744 5.19129 19.4498 5.52879 21.0248 6.19576C22.5476 6.83861 23.9177 7.76272 25.0949 8.93995C25.7722 9.61723 26.3718 10.3678 26.8829 11.1779C27.0034 11.3708 27.2164 11.4873 27.4414 11.4873H29.7637C30.0409 11.4873 30.2177 11.198 30.0932 10.9529C27.4735 5.74174 22.1619 2.35469 16.2315 2.28638C7.54895 2.1779 0.3369 9.28549 0.320828 17.96C0.304757 26.6507 7.34806 33.702 16.0387 33.702C22.0454 33.702 27.4454 30.3029 30.0932 25.0315C30.1214 24.9753 30.1348 24.9127 30.132 24.8499C30.1293 24.787 30.1105 24.7259 30.0775 24.6724C30.0445 24.6188 29.9983 24.5746 29.9434 24.5439C29.8885 24.5132 29.8266 24.4971 29.7637 24.4971Z" fill="black" fill-opacity="0.45"/>
</svg>
