<svg width="36" height="36" viewBox="0 0 36 36" fill="none" xmlns="http://www.w3.org/2000/svg">
<path d="M32.6101 18.1617C32.6945 18.1939 32.7869 18.1497 32.8191 18.0653C32.8271 18.0492 32.8271 18.0291 32.8271 18.009V15.6666C32.8271 15.5943 32.7829 15.534 32.7146 15.514C32.4735 15.4416 32.0235 15.3934 31.6217 15.3934C30.2999 15.3934 29.1427 16.0644 28.6686 17.0488V15.8997C28.6686 15.7229 28.524 15.5782 28.3472 15.5782H26.2378C26.061 15.5782 25.9164 15.7229 25.9164 15.8997V26.7238C25.9164 26.9006 26.061 27.0452 26.2378 27.0452H28.4396C28.6164 27.0452 28.761 26.9006 28.761 26.7238V20.4439C28.761 18.9894 29.8097 18.0251 31.3766 18.0251C31.7945 18.0291 32.4454 18.0974 32.6101 18.1617ZM11.0342 16.5345L8.83646 16.0282C6.37753 15.4577 5.3128 14.63 5.3128 13.1876C5.3128 11.3956 6.88378 10.2345 9.20611 10.2345C11.3275 10.2345 12.8784 11.2992 13.2199 13.0028H16.0324C15.7472 9.95324 13.003 7.83984 9.21816 7.83984C5.06771 7.83984 2.34762 10.0698 2.34762 13.4247C2.34762 16.1809 3.89852 17.8242 7.25745 18.5876L9.73245 19.1622C12.2878 19.7608 13.4128 20.6528 13.4128 22.1796C13.4128 23.9515 11.665 25.201 9.2945 25.201C6.85968 25.201 5.09584 24.1081 4.76236 22.3684H1.88959C2.17887 25.5787 4.92709 27.6077 9.08557 27.6077C13.5936 27.6077 16.3539 25.3657 16.3539 21.7537C16.3539 18.9331 14.803 17.3943 11.0342 16.5345ZM31.2199 26.7238C31.2199 27.1074 31.3723 27.4753 31.6436 27.7466C31.9149 28.0178 32.2828 28.1702 32.6664 28.1702C33.05 28.1702 33.4179 28.0178 33.6892 27.7466C33.9604 27.4753 34.1128 27.1074 34.1128 26.7238C34.1128 26.3402 33.9604 25.9723 33.6892 25.701C33.4179 25.4297 33.05 25.2773 32.6664 25.2773C32.2828 25.2773 31.9149 25.4297 31.6436 25.701C31.3723 25.9723 31.2199 26.3402 31.2199 26.7238ZM23.6664 15.8273H21.6012V13.3443C21.6012 13.1675 21.4566 13.0229 21.2798 13.0229H19.082C18.9052 13.0229 18.7606 13.1675 18.7606 13.3443V15.8273H17.3182C17.1414 15.8273 16.9967 15.972 16.9967 16.1488V17.8483C16.9967 18.0251 17.1414 18.1698 17.3182 18.1698H18.7606V24.0961C18.7606 26.3541 19.8615 27.2863 22.5012 27.2863C22.9713 27.2863 23.4494 27.2381 23.8592 27.1617C23.9356 27.1497 23.9878 27.0814 23.9878 27.005V25.0242C23.9878 24.9358 23.9155 24.8635 23.8271 24.8635H23.811C23.6141 24.8836 23.5619 24.8876 23.4775 24.8956C23.3128 24.9077 23.1641 24.9157 22.9713 24.9157C22.003 24.9157 21.6012 24.5019 21.6012 23.4854V18.1698H23.6664C23.8432 18.1698 23.9878 18.0251 23.9878 17.8483V16.1488C23.9878 15.972 23.8432 15.8273 23.6664 15.8273Z" fill="black" fill-opacity="0.45"/>
</svg>
