<svg width="36" height="36" viewBox="0 0 36 36" fill="none" xmlns="http://www.w3.org/2000/svg">
<path d="M17.8393 8.67355H15.296C15.1634 8.67355 15.0549 8.78203 15.0549 8.91462V22.5834H14.8259L5.35982 8.77801C5.31562 8.71373 5.23929 8.67355 5.16295 8.67355H2.49107C2.35848 8.67355 2.25 8.78203 2.25 8.91462V27.5575C2.25 27.6901 2.35848 27.7986 2.49107 27.7986H5.01027C5.14286 27.7986 5.25134 27.6901 5.25134 27.5575V13.6999H5.48036L15.0509 27.6941C15.0951 27.7584 15.1714 27.7986 15.2518 27.7986H17.8393C17.9719 27.7986 18.0804 27.6901 18.0804 27.5575V8.91462C18.0804 8.78203 17.9719 8.67355 17.8393 8.67355ZM33.0268 25.2673H20.8125C20.6357 25.2673 20.4911 25.4119 20.4911 25.5887V27.5173C20.4911 27.6941 20.6357 27.8387 20.8125 27.8387H33.0268C33.2036 27.8387 33.3482 27.6941 33.3482 27.5173V25.5887C33.3482 25.4119 33.2036 25.2673 33.0268 25.2673ZM26.9116 22.7361C29.0371 22.7361 30.7366 22.045 31.9821 20.6588C33.1634 19.3369 33.75 17.6133 33.75 15.4838C33.75 13.3503 33.1634 11.6066 31.9821 10.2887C30.7406 8.89051 29.0411 8.19141 26.9116 8.19141C24.754 8.19141 23.0585 8.89453 21.8371 10.3128C20.6638 11.6427 20.0933 13.3624 20.0933 15.4838C20.0933 17.5892 20.6679 19.3088 21.8411 20.6387C23.0705 22.0329 24.7741 22.7361 26.9116 22.7361ZM24.0388 12.141C24.7179 11.3133 25.658 10.8994 26.9076 10.8994C28.1732 10.8994 29.1094 11.2852 29.7603 12.0686C30.4192 12.8843 30.7607 14.0213 30.7607 15.4798C30.7607 16.9383 30.4232 18.0552 29.7643 18.8508C29.1013 19.6302 28.1571 20.024 26.9076 20.024C25.654 20.024 24.6978 19.6102 24.0388 18.8026C23.3839 17.995 23.0545 16.9021 23.0545 15.4838C23.0585 14.0454 23.3839 12.9526 24.0388 12.141Z" fill="black" fill-opacity="0.45"/>
</svg>
