<svg width="36" height="36" viewBox="0 0 36 36" fill="none" xmlns="http://www.w3.org/2000/svg">
<path d="M25.0723 9.95675V8.02818C25.0723 7.8514 24.9277 7.70675 24.7509 7.70675H9.32234C9.14555 7.70675 9.00091 7.8514 9.00091 8.02818V9.95675C9.00091 10.1335 9.14555 10.2782 9.32234 10.2782H24.7509C24.9277 10.2782 25.0723 10.1335 25.0723 9.95675ZM9.32234 13.4925C9.14555 13.4925 9.00091 13.6371 9.00091 13.8139V15.7425C9.00091 15.9193 9.14555 16.0639 9.32234 16.0639H16.7152C16.892 16.0639 17.0366 15.9193 17.0366 15.7425V13.8139C17.0366 13.6371 16.892 13.4925 16.7152 13.4925H9.32234ZM24.4295 18.1532C19.6362 18.1532 15.7509 22.0385 15.7509 26.8318C15.7509 31.6251 19.6362 35.5103 24.4295 35.5103C29.2228 35.5103 33.1081 31.6251 33.1081 26.8318C33.1081 22.0385 29.2228 18.1532 24.4295 18.1532ZM28.7487 31.151C27.5956 32.3041 26.0607 32.9389 24.4295 32.9389C22.7982 32.9389 21.2634 32.3041 20.1103 31.151C18.9572 29.9978 18.3223 28.463 18.3223 26.8318C18.3223 25.2005 18.9572 23.6657 20.1103 22.5126C21.2634 21.3594 22.7982 20.7246 24.4295 20.7246C26.0607 20.7246 27.5956 21.3594 28.7487 22.5126C29.9018 23.6657 30.5366 25.2005 30.5366 26.8318C30.5366 28.463 29.9018 29.9978 28.7487 31.151ZM28.0054 23.7782H26.2255C26.121 23.7782 26.0246 23.8264 25.9643 23.9108L23.413 27.4384L22.4848 26.1568C22.4551 26.1154 22.4159 26.0817 22.3704 26.0586C22.325 26.0356 22.2746 26.0237 22.2237 26.0242H20.4518C20.1906 26.0242 20.038 26.3215 20.1906 26.5344L23.1558 30.6367C23.2844 30.8135 23.5456 30.8135 23.6741 30.6367L28.2625 24.2885C28.4192 24.0755 28.2665 23.7782 28.0054 23.7782ZM15.1081 31.6532H5.78663V3.36747H28.2866V17.1889C28.2866 17.3657 28.4313 17.5103 28.6081 17.5103H30.8581C31.0348 17.5103 31.1795 17.3657 31.1795 17.1889V1.76032C31.1795 1.04916 30.6049 0.474609 29.8938 0.474609H4.17948C3.46832 0.474609 2.89377 1.04916 2.89377 1.76032V33.2603C2.89377 33.9715 3.46832 34.546 4.17948 34.546H15.1081C15.2848 34.546 15.4295 34.4014 15.4295 34.2246V31.9746C15.4295 31.7978 15.2848 31.6532 15.1081 31.6532Z" fill="black" fill-opacity="0.45"/>
</svg>
