<svg width="36" height="36" viewBox="0 0 36 36" fill="none" xmlns="http://www.w3.org/2000/svg">
<path d="M31.7643 9.02411L23.1178 0.377679C22.8768 0.136607 22.5513 0 22.2098 0H5.14195C4.43079 0 3.85623 0.574554 3.85623 1.28571V34.7143C3.85623 35.4254 4.43079 36 5.14195 36H30.8562C31.5674 36 32.1419 35.4254 32.1419 34.7143V9.93616C32.1419 9.59464 32.0053 9.26518 31.7643 9.02411ZM29.1768 10.5268H21.6152V2.96518L29.1768 10.5268ZM29.2491 33.1071H6.74909V2.89286H18.883V11.5714C18.883 12.019 19.0608 12.4482 19.3773 12.7647C19.6937 13.0811 20.123 13.2589 20.5705 13.2589H29.2491V33.1071ZM14.6643 16.7625C14.5879 16.5857 14.4152 16.4732 14.2223 16.4732H12.8161C12.5509 16.4732 12.3339 16.6902 12.3339 16.9554V27.8839C12.3339 28.1491 12.5509 28.3661 12.8161 28.3661H13.9049C14.1701 28.3661 14.387 28.1491 14.387 27.8839V20.8165L17.071 26.8513C17.1091 26.9366 17.1712 27.0089 17.2496 27.0596C17.3281 27.1102 17.4195 27.137 17.5129 27.1366H18.4812C18.6701 27.1366 18.8428 27.0241 18.9232 26.8513L21.6071 20.8004V27.8839C21.6071 28.1491 21.8241 28.3661 22.0893 28.3661H23.1821C23.4473 28.3661 23.6643 28.1491 23.6643 27.8839V16.9554C23.6643 16.6902 23.4473 16.4732 23.1821 16.4732H21.7879C21.5951 16.4732 21.4223 16.5857 21.346 16.7625L18.0071 24.4366L14.6643 16.7625Z" fill="black" fill-opacity="0.45"/>
</svg>
