<svg width="36" height="36" viewBox="0 0 36 36" fill="none" xmlns="http://www.w3.org/2000/svg">
<path d="M23.3305 24.3085C23.3008 24.2671 23.2615 24.2335 23.2161 24.2104C23.1706 24.1873 23.1203 24.1755 23.0693 24.176H21.2934C21.0323 24.176 20.8796 24.4733 21.0323 24.6862L23.9975 28.7885C24.126 28.9652 24.3872 28.9652 24.5158 28.7885L29.1042 22.4402C29.2568 22.2273 29.1042 21.93 28.843 21.93H27.0631C26.9586 21.93 26.8622 21.9782 26.8019 22.0626L24.2506 25.5902L23.3305 24.3085ZM25.0702 9.71568V7.78711C25.0702 7.61032 24.9256 7.46568 24.7488 7.46568H9.32023C9.14345 7.46568 8.99881 7.61032 8.99881 7.78711V9.71568C8.99881 9.89247 9.14345 10.0371 9.32023 10.0371H24.7488C24.9256 10.0371 25.0702 9.89247 25.0702 9.71568ZM9.32023 13.2514C9.14345 13.2514 8.99881 13.396 8.99881 13.5728V15.5014C8.99881 15.6782 9.14345 15.8228 9.32023 15.8228H16.7131C16.8899 15.8228 17.0345 15.6782 17.0345 15.5014V13.5728C17.0345 13.396 16.8899 13.2514 16.7131 13.2514H9.32023ZM16.7131 31.6532H5.78452V3.36747H28.2845V15.2603C28.2845 15.4371 28.4292 15.5818 28.6059 15.5818H30.856C31.0327 15.5818 31.1774 15.4371 31.1774 15.2603V1.76032C31.1774 1.04916 30.6028 0.474609 29.8917 0.474609H4.17738C3.46622 0.474609 2.89166 1.04916 2.89166 1.76032V33.2603C2.89166 33.9715 3.46622 34.546 4.17738 34.546H16.7131C16.8899 34.546 17.0345 34.4014 17.0345 34.2246V31.9746C17.0345 31.7978 16.8899 31.6532 16.7131 31.6532ZM32.889 18.7639L25.1747 16.084C25.1385 16.0719 25.1064 16.0679 25.0702 16.0679C25.0341 16.0679 24.9979 16.0719 24.9658 16.084L17.2515 18.7639C17.1885 18.7853 17.1337 18.8258 17.0948 18.8799C17.0559 18.9339 17.0348 18.9987 17.0345 19.0652V29.1541C17.0345 29.2545 17.0787 29.3469 17.1591 29.4072L24.8734 35.442C24.9296 35.4862 25.0019 35.5103 25.0702 35.5103C25.1385 35.5103 25.2109 35.4862 25.2671 35.442L32.9814 29.4072C33.0577 29.3469 33.106 29.2545 33.106 29.1541V19.0652C33.106 18.9286 33.0176 18.8081 32.889 18.7639ZM30.6149 28.1054L25.0702 32.4407L19.5256 28.1054V20.6041L25.0702 18.6755L30.6149 20.6041V28.1054Z" fill="black" fill-opacity="0.45"/>
</svg>
