<svg width="36" height="36" viewBox="0 0 36 36" fill="none" xmlns="http://www.w3.org/2000/svg">
<path d="M30.7477 10.6102L20.9812 0.748828C20.823 0.590625 20.6508 0.457031 20.4645 0.344531C20.4152 0.316406 20.366 0.288281 20.3133 0.263672C20.2816 0.246094 20.2465 0.232031 20.2148 0.217969C19.8984 0.0773437 19.5504 0 19.1953 0H7.06641C5.66719 0 4.5 1.13203 4.5 2.53125V33.4688C4.5 34.868 5.66719 36 7.06641 36H28.9688C30.368 36 31.4648 34.868 31.4648 33.4688V12.3926C31.4648 11.7246 31.2188 11.0848 30.7477 10.6102ZM20.4961 3.88125L27.5555 10.9688H20.4961V3.88125ZM28.9336 33.4688H7.03125V2.53125H17.9648V10.9688C17.9648 12.368 19.132 13.5 20.5312 13.5H28.9336V33.4688ZM12.3047 24.4863C12.3047 25.3371 12.041 25.5902 11.5348 25.5902C11.2184 25.5902 10.8879 25.3863 10.6629 24.9398L9.59414 25.7344C10.0652 26.5395 10.7297 26.9367 11.7492 26.9367C13.2117 26.9367 13.8867 25.8855 13.8867 24.6094V20.2852H12.3047V24.4863ZM17.6238 20.2852H15.3633V26.8242H16.9102V24.6445H17.6695C19.0441 24.6445 20.2395 23.9555 20.2395 22.4086C20.2395 20.7984 19.0617 20.2852 17.6238 20.2852ZM17.5957 23.4141H16.9102V21.5508H17.55C18.3059 21.5508 18.7242 21.7688 18.7242 22.4262C18.7242 23.0625 18.3551 23.4141 17.5957 23.4141ZM24.0117 23.0977V24.3633H25.0664V25.4215C24.9258 25.5234 24.6797 25.5867 24.4441 25.5867C23.2383 25.5867 22.6617 24.8344 22.6617 23.5406C22.6617 22.2715 23.3543 21.5227 24.3176 21.5227C24.8555 21.5227 25.1965 21.7406 25.5129 22.0289L26.3461 21.034C25.8996 20.584 25.2176 20.1832 24.2648 20.1832C22.5211 20.1832 21.0621 21.4242 21.0621 23.5934C21.0621 25.7977 22.4684 26.9367 24.2789 26.9367C25.1895 26.9367 26.0086 26.5781 26.441 26.1422V23.0977H24.0117Z" fill="black" fill-opacity="0.45"/>
</svg>
