<svg width="36" height="36" viewBox="0 0 36 36" fill="none" xmlns="http://www.w3.org/2000/svg">
<path d="M31.7642 9.02411L23.1178 0.377679C22.8767 0.136607 22.5513 0 22.2098 0H5.14192C4.43075 0 3.8562 0.574554 3.8562 1.28571V34.7143C3.8562 35.4254 4.43075 36 5.14192 36H30.8562C31.5674 36 32.1419 35.4254 32.1419 34.7143V9.93616C32.1419 9.59464 32.0053 9.26518 31.7642 9.02411ZM29.1767 10.5268H21.6151V2.96518L29.1767 10.5268ZM29.2491 33.1071H6.74906V2.89286H18.883V11.5714C18.883 12.019 19.0608 12.4482 19.3772 12.7647C19.6937 13.0811 20.1229 13.2589 20.5705 13.2589H29.2491V33.1071ZM16.3919 27.3214C16.3919 27.7477 16.5612 28.1565 16.8626 28.4579C17.164 28.7592 17.5728 28.9286 17.9991 28.9286C18.4253 28.9286 18.8341 28.7592 19.1355 28.4579C19.4369 28.1565 19.6062 27.7477 19.6062 27.3214C19.6062 26.8952 19.4369 26.4864 19.1355 26.185C18.8341 25.8836 18.4253 25.7143 17.9991 25.7143C17.5728 25.7143 17.164 25.8836 16.8626 26.185C16.5612 26.4864 16.3919 26.8952 16.3919 27.3214ZM17.0348 23.1429H18.9633C19.1401 23.1429 19.2848 22.9982 19.2848 22.8214V15.4286C19.2848 15.2518 19.1401 15.1071 18.9633 15.1071H17.0348C16.858 15.1071 16.7133 15.2518 16.7133 15.4286V22.8214C16.7133 22.9982 16.858 23.1429 17.0348 23.1429Z" fill="black" fill-opacity="0.45"/>
</svg>
