<svg width="36" height="36" viewBox="0 0 36 36" fill="none" xmlns="http://www.w3.org/2000/svg">
<path d="M31.7653 9.02411L23.1189 0.377679C22.8778 0.136607 22.5524 0 22.2109 0H5.14301C4.43185 0 3.8573 0.574554 3.8573 1.28571V34.7143C3.8573 35.4254 4.43185 36 5.14301 36H30.8573C31.5685 36 32.143 35.4254 32.143 34.7143V9.93616C32.143 9.59464 32.0064 9.26518 31.7653 9.02411ZM29.1778 10.5268H21.6162V2.96518L29.1778 10.5268ZM29.2502 33.1071H6.75016V2.89286H18.8841V11.5714C18.8841 12.019 19.0619 12.4482 19.3783 12.7647C19.6948 13.0811 20.124 13.2589 20.5716 13.2589H29.2502V33.1071ZM19.2859 16.3929C19.2859 16.2161 19.1412 16.0714 18.9644 16.0714H17.0359C16.8591 16.0714 16.7144 16.2161 16.7144 16.3929V20.7321H12.3752C12.1984 20.7321 12.0537 20.8768 12.0537 21.0536V22.9821C12.0537 23.1589 12.1984 23.3036 12.3752 23.3036H16.7144V27.6429C16.7144 27.8196 16.8591 27.9643 17.0359 27.9643H18.9644C19.1412 27.9643 19.2859 27.8196 19.2859 27.6429V23.3036H23.6252C23.8019 23.3036 23.9466 23.1589 23.9466 22.9821V21.0536C23.9466 20.8768 23.8019 20.7321 23.6252 20.7321H19.2859V16.3929Z" fill="black" fill-opacity="0.45"/>
</svg>
