<svg width="36" height="36" viewBox="0 0 36 36" fill="none" xmlns="http://www.w3.org/2000/svg">
<path d="M9.32234 7.70675C9.14555 7.70675 9.00091 7.8514 9.00091 8.02818V9.95675C9.00091 10.1335 9.14555 10.2782 9.32234 10.2782H24.7509C24.9277 10.2782 25.0723 10.1335 25.0723 9.95675V8.02818C25.0723 7.8514 24.9277 7.70675 24.7509 7.70675H9.32234ZM17.0366 15.7425V13.8139C17.0366 13.6371 16.892 13.4925 16.7152 13.4925H9.32234C9.14555 13.4925 9.00091 13.6371 9.00091 13.8139V15.7425C9.00091 15.9193 9.14555 16.0639 9.32234 16.0639H16.7152C16.892 16.0639 17.0366 15.9193 17.0366 15.7425ZM15.1081 31.6532H5.78663V3.36747H28.2866V17.1889C28.2866 17.3657 28.4313 17.5103 28.6081 17.5103H30.8581C31.0348 17.5103 31.1795 17.3657 31.1795 17.1889V1.76032C31.1795 1.04916 30.6049 0.474609 29.8938 0.474609H4.17948C3.46832 0.474609 2.89377 1.04916 2.89377 1.76032V33.2603C2.89377 33.9715 3.46832 34.546 4.17948 34.546H15.1081C15.2848 34.546 15.4295 34.4014 15.4295 34.2246V31.9746C15.4295 31.7978 15.2848 31.6532 15.1081 31.6532ZM19.2906 27.0085C19.363 25.6224 19.9415 24.3246 20.9299 23.3362C21.9826 22.2835 23.421 21.6889 24.9116 21.6889C26.4143 21.6889 27.8286 22.2755 28.8933 23.3362C29.0219 23.4648 29.1464 23.6014 29.263 23.742L28.3348 24.4612C28.287 24.4982 28.2505 24.548 28.2297 24.6048C28.2089 24.6616 28.2045 24.7232 28.2171 24.7823C28.2297 24.8415 28.2588 24.896 28.3009 24.9394C28.343 24.9828 28.3966 25.0134 28.4554 25.0277L32.204 25.9318C32.4049 25.98 32.5978 25.8273 32.6018 25.6224L32.6259 21.7893C32.6265 21.729 32.61 21.6696 32.5785 21.6182C32.5469 21.5667 32.5014 21.5252 32.4474 21.4983C32.3933 21.4715 32.3327 21.4604 32.2726 21.4664C32.2125 21.4724 32.1553 21.4952 32.1076 21.5322L31.292 22.167C29.7893 20.3068 27.4871 19.1175 24.9116 19.1175C20.496 19.1175 16.892 22.609 16.7152 26.9804C16.7072 27.1612 16.8558 27.3139 17.0366 27.3139H18.9692C19.142 27.3139 19.2826 27.1813 19.2906 27.0085ZM32.7866 27.3139H30.854C30.6813 27.3139 30.5406 27.4465 30.5326 27.6193C30.4603 29.0054 29.8817 30.3032 28.8933 31.2916C27.8406 32.3443 26.4023 32.9389 24.9116 32.9389C23.4089 32.9389 21.9947 32.3523 20.9299 31.2916C20.8014 31.163 20.6768 31.0264 20.5603 30.8858L21.4884 30.1666C21.5363 30.1296 21.5727 30.0798 21.5935 30.023C21.6144 29.9662 21.6187 29.9046 21.6061 29.8454C21.5935 29.7863 21.5645 29.7318 21.5224 29.6884C21.4802 29.645 21.4267 29.6144 21.3679 29.6001L17.6192 28.696C17.4183 28.6478 17.2255 28.8005 17.2214 29.0054L17.1973 32.8385C17.1968 32.8988 17.2132 32.9582 17.2448 33.0096C17.2764 33.0611 17.3218 33.1026 17.3759 33.1295C17.43 33.1563 17.4906 33.1674 17.5506 33.1614C17.6107 33.1554 17.6679 33.1326 17.7156 33.0956L18.5313 32.4608C20.0339 34.321 22.3362 35.5103 24.9116 35.5103C29.3272 35.5103 32.9313 32.0188 33.1081 27.6474C33.1161 27.4666 32.9674 27.3139 32.7866 27.3139Z" fill="black" fill-opacity="0.45"/>
</svg>
