<svg width="36" height="36" viewBox="0 0 36 36" fill="none" xmlns="http://www.w3.org/2000/svg">
<path d="M25.0713 9.95675V8.02818C25.0713 7.8514 24.9266 7.70675 24.7498 7.70675H9.32127C9.14449 7.70675 8.99984 7.8514 8.99984 8.02818V9.95675C8.99984 10.1335 9.14449 10.2782 9.32127 10.2782H24.7498C24.9266 10.2782 25.0713 10.1335 25.0713 9.95675ZM9.32127 13.4925C9.14449 13.4925 8.99984 13.6371 8.99984 13.8139V15.7425C8.99984 15.9193 9.14449 16.0639 9.32127 16.0639H16.7141C16.8909 16.0639 17.0356 15.9193 17.0356 15.7425V13.8139C17.0356 13.6371 16.8909 13.4925 16.7141 13.4925H9.32127ZM15.107 31.6532H5.78556V3.36747H28.2856V17.1889C28.2856 17.3657 28.4302 17.5103 28.607 17.5103H30.857C31.0338 17.5103 31.1784 17.3657 31.1784 17.1889V1.76032C31.1784 1.04916 30.6039 0.474609 29.8927 0.474609H4.17841C3.46725 0.474609 2.8927 1.04916 2.8927 1.76032V33.2603C2.8927 33.9715 3.46725 34.546 4.17841 34.546H15.107C15.2838 34.546 15.4284 34.4014 15.4284 34.2246V31.9746C15.4284 31.7978 15.2838 31.6532 15.107 31.6532ZM33.0146 33.7224L29.2659 29.9737C30.1619 28.7885 30.6963 27.3099 30.6963 25.7068C30.6963 21.8014 27.5302 18.6353 23.6248 18.6353C19.7195 18.6353 16.5534 21.8014 16.5534 25.7068C16.5534 29.6121 19.7195 32.7782 23.6248 32.7782C25.0632 32.7782 26.3972 32.3483 27.5141 31.613L31.319 35.4179C31.3833 35.4822 31.4637 35.5103 31.544 35.5103C31.6244 35.5103 31.7088 35.4782 31.769 35.4179L33.0146 34.1724C33.0442 34.1429 33.0677 34.1078 33.0838 34.0692C33.0998 34.0306 33.1081 33.9892 33.1081 33.9474C33.1081 33.9056 33.0998 33.8642 33.0838 33.8256C33.0677 33.7869 33.0442 33.7519 33.0146 33.7224ZM23.6248 30.2068C21.1378 30.2068 19.1248 28.1938 19.1248 25.7068C19.1248 23.2197 21.1378 21.2068 23.6248 21.2068C26.1119 21.2068 28.1248 23.2197 28.1248 25.7068C28.1248 28.1938 26.1119 30.2068 23.6248 30.2068Z" fill="black" fill-opacity="0.45"/>
</svg>
