<svg width="36" height="36" viewBox="0 0 36 36" fill="none" xmlns="http://www.w3.org/2000/svg">
<path d="M30.9406 16.2858C30.1606 14.5303 29.0267 12.9545 27.6098 11.6573L26.4406 10.5845C26.4009 10.5491 26.3531 10.5239 26.3015 10.5113C26.2498 10.4986 26.1958 10.4989 26.1442 10.512C26.0926 10.525 26.0451 10.5506 26.0057 10.5864C25.9663 10.6221 25.9363 10.667 25.9183 10.7171L25.396 12.2157C25.0705 13.1559 24.4719 14.1162 23.6241 15.0604C23.5678 15.1207 23.5036 15.1367 23.4594 15.1407C23.4152 15.1448 23.3469 15.1367 23.2866 15.0805C23.2303 15.0323 23.2022 14.9599 23.2062 14.8876C23.3549 12.4689 22.6317 9.74074 21.0486 6.77155C19.7388 4.30458 17.9187 2.38003 15.6446 1.03807L13.9853 0.0617269C13.7683 -0.0668445 13.4911 0.101905 13.5031 0.35503L13.5915 2.2836C13.6518 3.60146 13.4991 4.76664 13.1375 5.73494C12.6955 6.92021 12.0607 8.0211 11.2491 9.00949C10.6843 9.6964 10.0441 10.3177 9.34061 10.8617C7.6463 12.1642 6.26861 13.8331 5.3107 15.7434C4.35514 17.6704 3.8574 19.7921 3.85623 21.943C3.85623 23.8394 4.22989 25.6756 4.96918 27.4073C5.68302 29.0745 6.71316 30.5877 8.00266 31.8631C9.30445 33.1488 10.8152 34.1613 12.4986 34.8644C14.2424 35.5957 16.0906 35.9653 17.9991 35.9653C19.9076 35.9653 21.7558 35.5957 23.4995 34.8684C25.1789 34.1694 26.706 33.15 27.9955 31.8671C29.2973 30.5814 30.3178 29.0787 31.029 27.4113C31.7672 25.6843 32.1459 23.8251 32.142 21.947C32.142 19.9863 31.7402 18.0818 30.9406 16.2858ZM26.075 29.9184C23.9174 32.0559 21.0527 33.2291 17.9991 33.2291C14.9455 33.2291 12.0808 32.0559 9.9232 29.9184C7.77364 27.7849 6.58838 24.9564 6.58838 21.947C6.58838 20.1992 6.98213 18.5238 7.75757 16.9649C8.51293 15.4421 9.63793 14.08 11.004 13.0314C11.8752 12.3652 12.6654 11.5992 13.3585 10.7492C14.3629 9.52378 15.1504 8.15771 15.6969 6.69119C15.921 6.08625 16.0839 5.46035 16.183 4.82289C17.1513 5.71485 17.9629 6.79164 18.6419 8.05324C19.9839 10.5684 20.6027 12.8064 20.4821 14.7108C20.4533 15.1594 20.5266 15.6086 20.6964 16.0248C20.8662 16.4409 21.1281 16.8132 21.4625 17.1135C21.7522 17.3753 22.0911 17.5768 22.4595 17.7065C22.8278 17.8362 23.2182 17.8914 23.608 17.8689C24.3995 17.8287 25.1268 17.4791 25.6571 16.8885C26.1915 16.2899 26.6536 15.6791 27.0393 15.0564C27.6018 15.7756 28.0719 16.559 28.4455 17.4028C29.0844 18.8412 29.4098 20.372 29.4098 21.947C29.4098 24.9564 28.2245 27.789 26.075 29.9184Z" fill="black" fill-opacity="0.45"/>
</svg>
