<svg width="36" height="36" viewBox="0 0 36 36" fill="none" xmlns="http://www.w3.org/2000/svg">
<path d="M32.7863 9.68806H22.5006V5.14788C22.5006 4.43672 21.926 3.86217 21.2149 3.86217H4.82203V2.25502C4.82203 2.07824 4.67738 1.93359 4.5006 1.93359H2.2506C2.07381 1.93359 1.92917 2.07824 1.92917 2.25502V33.755C1.92917 33.9318 2.07381 34.0765 2.2506 34.0765H4.5006C4.67738 34.0765 4.82203 33.9318 4.82203 33.755V23.1479H14.7863V27.6881C14.7863 28.3992 15.3609 28.9738 16.072 28.9738H32.7863C33.4975 28.9738 34.072 28.3992 34.072 27.6881V10.9738C34.072 10.2626 33.4975 9.68806 32.7863 9.68806ZM4.82203 20.255V6.75502H19.6077V20.255H4.82203ZM31.1792 26.0809H17.6792V23.1479H22.1792C22.356 23.1479 22.5006 23.0032 22.5006 22.8265V12.5809H31.1792V26.0809Z" fill="black" fill-opacity="0.45"/>
</svg>
