<svg width="36" height="36" viewBox="0 0 36 36" fill="none" xmlns="http://www.w3.org/2000/svg">
<path d="M9.84824 19.7043C9.74107 19.9332 9.68552 20.1828 9.68552 20.4355C9.68552 20.6883 9.74107 20.9379 9.84824 21.1668C11.6241 24.9155 14.3683 26.844 18.0206 26.844C21.6728 26.844 24.417 24.9114 26.1929 21.1668C26.4098 20.7047 26.4098 20.1704 26.1969 19.7083L26.1889 19.7003C24.417 15.9556 21.6728 14.0271 18.0206 14.0271C14.3683 14.0271 11.6241 15.9597 9.84824 19.7043ZM18.0206 16.5985C20.5156 16.5985 22.3357 17.8039 23.6898 20.4355C22.3398 23.0672 20.5156 24.2726 18.0206 24.2726C15.5255 24.2726 13.7054 23.0672 12.3514 20.4355C13.7054 17.8039 15.5255 16.5985 18.0206 16.5985Z" fill="black" fill-opacity="0.45"/>
<path d="M15.7906 20.4434C15.7906 21.0402 16.0277 21.6125 16.4496 22.0344C16.8716 22.4564 17.4439 22.6934 18.0406 22.6934C18.6374 22.6934 19.2097 22.4564 19.6316 22.0344C20.0536 21.6125 20.2906 21.0402 20.2906 20.4434C20.2906 19.8467 20.0536 19.2744 19.6316 18.8524C19.2097 18.4305 18.6374 18.1934 18.0406 18.1934C17.4439 18.1934 16.8716 18.4305 16.4496 18.8524C16.0277 19.2744 15.7906 19.8467 15.7906 20.4434Z" fill="black" fill-opacity="0.45"/>
<path d="M32.7852 9.41283H18.3611L13.6482 4.9048C13.5882 4.84866 13.5093 4.81711 13.4272 4.81641H3.21381C2.50265 4.81641 1.9281 5.39096 1.9281 6.10212V29.8878C1.9281 30.599 2.50265 31.1735 3.21381 31.1735H32.7852C33.4964 31.1735 34.071 30.599 34.071 29.8878V10.6985C34.071 9.98739 33.4964 9.41283 32.7852 9.41283ZM31.1781 28.2807H4.82096V7.70926H12.3946L17.2 12.3057H31.1781V28.2807Z" fill="black" fill-opacity="0.45"/>
</svg>
