<svg width="36" height="36" viewBox="0 0 36 36" fill="none" xmlns="http://www.w3.org/2000/svg">
<path d="M34.7143 15.2628H30.375V10.6985C30.375 9.98739 29.8004 9.41283 29.0893 9.41283H16.433L11.7201 4.9048C11.6601 4.84866 11.5812 4.81711 11.4991 4.81641H1.28571C0.574554 4.81641 0 5.39096 0 6.10212V29.8878C0 30.599 0.574554 31.1735 1.28571 31.1735H29.3304C29.8527 31.1735 30.3268 30.8561 30.5237 30.37L35.9076 17.0307C35.9679 16.878 36 16.7133 36 16.5485C36 15.8374 35.4254 15.2628 34.7143 15.2628ZM2.89286 7.70926H10.4665L15.2719 12.3057H27.4821V15.2628H6.99107C6.46875 15.2628 5.99464 15.5802 5.79777 16.0664L2.89286 23.2664V7.70926ZM28.4183 28.2807H3.81696L7.96741 17.995H32.5728L28.4183 28.2807Z" fill="black" fill-opacity="0.45"/>
</svg>
