<svg width="36" height="36" viewBox="0 0 36 36" fill="none" xmlns="http://www.w3.org/2000/svg">
<path d="M16.8756 15.2267V18.6378H13.4805C13.3158 18.6378 13.1792 18.7624 13.1792 18.9191V20.6066C13.1792 20.7593 13.3158 20.8878 13.4805 20.8878H16.8756V24.299C16.8756 24.4557 17.0042 24.5843 17.1569 24.5843H18.8444C19.0011 24.5843 19.1256 24.4557 19.1256 24.299V20.8878H22.5207C22.6855 20.8878 22.8221 20.7593 22.8221 20.6066V18.9191C22.8221 18.7624 22.6855 18.6378 22.5207 18.6378H19.1256V15.2267C19.1256 15.07 19.0011 14.9414 18.8444 14.9414H17.1569C17.0042 14.9414 16.8756 15.07 16.8756 15.2267ZM32.7863 9.41283H18.3622L13.6493 4.9048C13.5893 4.84866 13.5104 4.81711 13.4283 4.81641H3.21491C2.50375 4.81641 1.9292 5.39096 1.9292 6.10212V29.8878C1.9292 30.599 2.50375 31.1735 3.21491 31.1735H32.7863C33.4975 31.1735 34.0721 30.599 34.0721 29.8878V10.6985C34.0721 9.98739 33.4975 9.41283 32.7863 9.41283ZM31.1792 28.2807H4.82206V7.70926H12.3957L17.2011 12.3057H31.1792V28.2807Z" fill="black" fill-opacity="0.45"/>
</svg>
