<svg width="36" height="36" viewBox="0 0 36 36" fill="none" xmlns="http://www.w3.org/2000/svg">
<path d="M33.7506 30.2105H2.2506C2.07381 30.2105 1.92917 30.3552 1.92917 30.5319V33.7462C1.92917 33.923 2.07381 34.0677 2.2506 34.0677H33.7506C33.9274 34.0677 34.072 33.923 34.072 33.7462V30.5319C34.072 30.3552 33.9274 30.2105 33.7506 30.2105ZM7.62247 26.9962H11.0377C11.2064 26.9962 11.3591 26.8878 11.4113 26.723L13.5689 20.0534H22.376L24.5135 26.723C24.5658 26.8837 24.7144 26.9962 24.8872 26.9962H28.4671C28.5113 26.9962 28.5555 26.9882 28.5957 26.9761C28.6444 26.9594 28.6892 26.9333 28.7277 26.8991C28.7662 26.865 28.7976 26.8236 28.82 26.7773C28.8424 26.7309 28.8555 26.6806 28.8583 26.6293C28.8612 26.5779 28.8539 26.5265 28.8368 26.4779L20.4756 2.18998C20.4485 2.11329 20.3985 2.04675 20.3324 1.99933C20.2663 1.95192 20.1873 1.92591 20.106 1.9248H15.9957C15.8269 1.9248 15.6783 2.02927 15.626 2.18998L7.25283 26.4779C7.23676 26.5181 7.23274 26.5623 7.23274 26.6065C7.22872 26.8194 7.40551 26.9962 7.62247 26.9962ZM17.9042 6.26007H18.0689L21.4359 16.8592H14.501L17.9042 6.26007Z" fill="black" fill-opacity="0.45"/>
</svg>
