<svg width="36" height="36" viewBox="0 0 36 36" fill="none" xmlns="http://www.w3.org/2000/svg">
<path d="M27.6419 1.44141C25.1589 1.44141 23.1419 3.45837 23.1419 5.94141C23.1419 7.85793 24.3433 9.49721 26.0348 10.1441V11.253L17.9991 21.5869L9.96338 11.253V10.1441C11.6549 9.49721 12.8562 7.85793 12.8562 5.94141C12.8562 3.45837 10.8393 1.44141 8.35623 1.44141C5.8732 1.44141 3.85623 3.45837 3.85623 5.94141C3.85623 7.97444 5.21427 9.6981 7.07052 10.2526V11.6347C7.07052 12.0244 7.20311 12.4102 7.44418 12.7195L16.5527 24.4356V25.7856C14.7768 26.3883 13.4991 28.0718 13.4991 30.0486C13.4991 32.5316 15.5161 34.5486 17.9991 34.5486C20.4821 34.5486 22.4991 32.5316 22.4991 30.0486C22.4991 28.0718 21.2214 26.3923 19.4455 25.7856V24.4356L28.554 12.7195C28.7951 12.4102 28.9277 12.0244 28.9277 11.6347V10.2526C30.7839 9.6981 32.1419 7.97444 32.1419 5.94141C32.1419 3.45837 30.125 1.44141 27.6419 1.44141ZM6.42766 5.94141C6.43796 5.43673 6.64568 4.95621 7.00623 4.60294C7.36679 4.24967 7.85145 4.0518 8.35623 4.0518C8.86101 4.0518 9.34568 4.24967 9.70623 4.60294C10.0668 4.95621 10.2745 5.43673 10.2848 5.94141C10.2745 6.44608 10.0668 6.92661 9.70623 7.27988C9.34568 7.63315 8.86101 7.83101 8.35623 7.83101C7.85145 7.83101 7.36679 7.63315 7.00623 7.27988C6.64568 6.92661 6.43796 6.44608 6.42766 5.94141ZM19.9277 30.0486C19.9174 30.5532 19.7096 31.0338 19.3491 31.387C18.9885 31.7403 18.5039 31.9382 17.9991 31.9382C17.4943 31.9382 17.0096 31.7403 16.6491 31.387C16.2885 31.0338 16.0808 30.5532 16.0705 30.0486C16.0808 29.5439 16.2885 29.0634 16.6491 28.7101C17.0096 28.3568 17.4943 28.1589 17.9991 28.1589C18.5039 28.1589 18.9885 28.3568 19.3491 28.7101C19.7096 29.0634 19.9174 29.5439 19.9277 30.0486ZM27.6419 7.86998C27.1373 7.85968 26.6567 7.65196 26.3035 7.29141C25.9502 6.93085 25.7523 6.44618 25.7523 5.94141C25.7523 5.43663 25.9502 4.95196 26.3035 4.59141C26.6567 4.23085 27.1373 4.02314 27.6419 4.01284C28.1466 4.02314 28.6271 4.23085 28.9804 4.59141C29.3337 4.95196 29.5316 5.43663 29.5316 5.94141C29.5316 6.44618 29.3337 6.93085 28.9804 7.29141C28.6271 7.65196 28.1466 7.85968 27.6419 7.86998Z" fill="black" fill-opacity="0.45"/>
</svg>
