<svg width="36" height="36" viewBox="0 0 36 36" fill="none" xmlns="http://www.w3.org/2000/svg">
<path d="M31.217 12.3007C31.3375 12.1681 31.3254 11.9672 31.1929 11.8467C31.1342 11.7941 31.0587 11.7642 30.9799 11.7623H28.0629C27.9665 11.7623 27.8781 11.8025 27.8179 11.8748L22.8799 17.7087C22.845 17.7505 22.8 17.7827 22.7492 17.8023C22.6984 17.8218 22.6434 17.8281 22.5895 17.8204C22.5355 17.8128 22.4845 17.7915 22.4411 17.7586C22.3977 17.7257 22.3634 17.6822 22.3415 17.6324L19.7902 11.9551C19.7651 11.8985 19.7239 11.8504 19.6718 11.8168C19.6197 11.7833 19.5589 11.7657 19.4969 11.7663H12.7228L12.7589 11.5775L13.0804 9.8779C13.5022 7.65201 14.6071 6.60737 16.5277 6.60737C17.275 6.60737 17.954 6.67567 18.4884 6.79621L19.0549 4.11228C18.1469 3.92344 17.6406 3.86719 16.8491 3.86719C12.6987 3.86719 10.5652 5.6471 9.78169 9.78549L9.40402 11.7703H5.48259C5.32991 11.7703 5.19732 11.8788 5.16919 12.0275L4.73527 14.1087C4.72561 14.1555 4.72642 14.2039 4.73763 14.2503C4.74885 14.2968 4.77019 14.3402 4.80014 14.3774C4.83008 14.4147 4.86789 14.4448 4.91085 14.4657C4.95382 14.4867 5.00087 14.4978 5.04866 14.4984H8.8375L5.2616 31.7712C5.25195 31.818 5.25276 31.8664 5.26397 31.9128C5.27519 31.9593 5.29653 32.0027 5.32648 32.0399C5.35642 32.0772 5.39423 32.1073 5.43719 32.1282C5.48016 32.1492 5.52721 32.1603 5.575 32.1609H8.23482C8.3875 32.1609 8.52009 32.0525 8.54821 31.9038L12.1522 14.5025H17.6085L20.3487 20.0913C20.4049 20.2078 20.3888 20.3484 20.3004 20.4449L13.0442 28.6011C12.9277 28.7337 12.9397 28.9386 13.0723 29.0551C13.1326 29.1074 13.2089 29.1355 13.2853 29.1355H16.2062C16.3027 29.1355 16.3911 29.0953 16.4513 29.023L21.4214 23.1288C21.5339 22.9922 21.7388 22.9761 21.8754 23.0886C21.9116 23.1208 21.9397 23.1569 21.9598 23.2011L24.6036 28.9346C24.6558 29.0471 24.7683 29.1234 24.8969 29.1234H27.4924C27.5468 29.1233 27.6003 29.1093 27.6479 29.0829C27.6955 29.0564 27.7356 29.0183 27.7645 28.9722C27.7934 28.9261 27.8101 28.8734 27.8131 28.819C27.8161 28.7647 27.8053 28.7104 27.7817 28.6614L23.9567 20.6699C23.9004 20.5533 23.9205 20.4127 24.0089 20.3163L31.217 12.3007Z" fill="black" fill-opacity="0.45"/>
</svg>
