<svg width="36" height="36" viewBox="0 0 36 36" fill="none" xmlns="http://www.w3.org/2000/svg">
<path d="M35.8396 25.0036L35.8316 24.9956C34.0597 21.2469 31.3155 19.3184 27.6633 19.3184C24.011 19.3184 21.2668 21.2509 19.491 24.9956V24.9996C19.3838 25.2285 19.3282 25.4781 19.3282 25.7309C19.3282 25.9836 19.3838 26.2332 19.491 26.4621C21.2668 30.2068 24.011 32.1353 27.6633 32.1353C31.3155 32.1353 34.0597 30.2027 35.8356 26.4581C36.0526 25.996 36.0526 25.4617 35.8396 25.0036ZM27.6633 29.5639C25.1682 29.5639 23.3481 28.3585 21.9941 25.7268C23.3441 23.0951 25.1682 21.8898 27.6633 21.8898C30.1584 21.8898 31.9785 23.0951 33.3325 25.7268C31.9825 28.3585 30.1584 29.5639 27.6633 29.5639Z" fill="black" fill-opacity="0.45"/>
<path d="M25.433 25.7469C25.433 26.3437 25.6701 26.916 26.092 27.3379C26.514 27.7599 27.0863 27.9969 27.683 27.9969C28.2798 27.9969 28.8521 27.7599 29.274 27.3379C29.696 26.916 29.933 26.3437 29.933 25.7469C29.933 25.1502 29.696 24.5779 29.274 24.1559C28.8521 23.734 28.2798 23.4969 27.683 23.4969C27.0863 23.4969 26.514 23.734 26.092 24.1559C25.6701 24.5779 25.433 25.1502 25.433 25.7469ZM2.89286 6.74247H31.1786V16.9076H34.0714V5.13532C34.0714 4.42416 33.4969 3.84961 32.7857 3.84961H1.28571C0.574554 3.84961 0 4.42416 0 5.13532V26.0282C0 26.7393 0.574554 27.3139 1.28571 27.3139H15.4286V24.421H2.89286V6.74247Z" fill="black" fill-opacity="0.45"/>
<path d="M26.5542 11.0112L25.0756 9.53266C25.0152 9.47284 24.9336 9.43929 24.8486 9.43929C24.7636 9.43929 24.682 9.47284 24.6216 9.53266L17.2368 16.9255L13.7774 13.4621C13.717 13.4023 13.6354 13.3688 13.5504 13.3688C13.4654 13.3688 13.3838 13.4023 13.3234 13.4621L7.52562 19.2599C7.4658 19.3203 7.43225 19.4019 7.43225 19.4869C7.43225 19.5719 7.4658 19.6535 7.52562 19.7139L9.00419 21.1925C9.12875 21.317 9.33366 21.317 9.45821 21.1925L13.5484 17.1023L17.0078 20.5657C17.1323 20.6903 17.3372 20.6903 17.4618 20.5657L26.5542 11.4653C26.6828 11.3407 26.6828 11.1358 26.5542 11.0112Z" fill="black" fill-opacity="0.45"/>
</svg>
