<svg width="36" height="36" viewBox="0 0 36 36" fill="none" xmlns="http://www.w3.org/2000/svg">
<g clip-path="url(#clip0_636_5497)">
<path d="M34.6351 4.0166H1.20655C0.495391 4.0166 -0.0791626 4.59116 -0.0791626 5.30232V31.0166C-0.0791626 31.7278 0.495391 32.3023 1.20655 32.3023H34.6351C35.3463 32.3023 35.9208 31.7278 35.9208 31.0166V5.30232C35.9208 4.59116 35.3463 4.0166 34.6351 4.0166ZM33.028 29.4095H2.81369V6.90946H33.028V29.4095ZM6.55432 26.1028C6.67887 26.2273 6.88378 26.2273 7.00834 26.1028L13.9391 19.172L18.5356 23.7724C18.6601 23.897 18.865 23.897 18.9896 23.7724L30.9226 11.8313C31.0472 11.7068 31.0472 11.5019 30.9226 11.3773L29.4441 9.89874C29.3836 9.83893 29.3021 9.80537 29.217 9.80537C29.132 9.80537 29.0504 9.83893 28.99 9.89874L18.7646 20.1282L14.1682 15.5278C14.1077 15.4679 14.0262 15.4344 13.9412 15.4344C13.8561 15.4344 13.7746 15.4679 13.7141 15.5278L5.07977 24.1662C5.01995 24.2266 4.98639 24.3081 4.98639 24.3932C4.98639 24.4782 5.01995 24.5598 5.07977 24.6202L6.55432 26.1028Z" fill="black" fill-opacity="0.45"/>
</g>
<defs>
<clipPath id="clip0_636_5497">
<rect width="36" height="36" fill="white"/>
</clipPath>
</defs>
</svg>
