<svg width="36" height="36" viewBox="0 0 36 36" fill="none" xmlns="http://www.w3.org/2000/svg">
<g clip-path="url(#clip0_636_5740)">
<path d="M9.96986 21.1928C10.0944 21.3173 10.2993 21.3173 10.4239 21.1928L14.5141 17.1026L17.9734 20.566C18.098 20.6905 18.3029 20.6905 18.4275 20.566L27.5199 11.4655C27.6444 11.341 27.6444 11.1361 27.5199 11.0115L26.0413 9.53294C25.9809 9.47312 25.8993 9.43957 25.8143 9.43957C25.7293 9.43957 25.6477 9.47312 25.5873 9.53294L18.2025 16.9258L14.7431 13.4624C14.6827 13.4026 14.6011 13.369 14.5161 13.369C14.4311 13.369 14.3495 13.4026 14.2891 13.4624L8.49129 19.2602C8.43147 19.3206 8.39791 19.4022 8.39791 19.4872C8.39791 19.5722 8.43147 19.6538 8.49129 19.7142L9.96986 21.1928Z" fill="black" fill-opacity="0.45"/>
<path d="M33.7482 3.85965H19.4446V1.28823C19.4446 1.11144 19.3 0.966797 19.1232 0.966797H16.8732C16.6964 0.966797 16.5518 1.11144 16.5518 1.28823V3.85965H2.24818C1.53702 3.85965 0.962463 4.43421 0.962463 5.14537V26.0382C0.962463 26.7494 1.53702 27.3239 2.24818 27.3239H16.5678V28.6097L9.94639 32.953C9.9112 32.9758 9.88087 33.0054 9.85715 33.04C9.83344 33.0747 9.81681 33.1136 9.80822 33.1547C9.79963 33.1958 9.79925 33.2382 9.80711 33.2794C9.81496 33.3206 9.83089 33.3599 9.85398 33.3949L11.0714 35.2914V35.2954C11.1678 35.444 11.3687 35.4842 11.5174 35.3878L17.9982 31.1369L24.479 35.3878C24.6276 35.4842 24.8285 35.444 24.925 35.2954V35.2914L26.1424 33.3949C26.1882 33.3239 26.2041 33.2377 26.1868 33.155C26.1695 33.0723 26.1204 32.9997 26.05 32.953L19.4446 28.6217V27.3239H33.7482C34.4593 27.3239 35.0339 26.7494 35.0339 26.0382V5.14537C35.0339 4.43421 34.4593 3.85965 33.7482 3.85965ZM32.141 24.4311H3.85532V6.75251H32.141V24.4311Z" fill="black" fill-opacity="0.45"/>
</g>
<defs>
<clipPath id="clip0_636_5740">
<rect width="36" height="36" fill="white"/>
</clipPath>
</defs>
</svg>
