<svg width="36" height="36" viewBox="0 0 36 36" fill="none" xmlns="http://www.w3.org/2000/svg">
<path d="M32.7902 3.62109H3.21074C2.22637 3.62109 1.61163 4.69386 2.10583 5.54967L11.4514 21.8381V31.1032C11.4514 31.8144 12.0219 32.389 12.729 32.389H23.2719C23.979 32.389 24.5496 31.8144 24.5496 31.1032V21.8381L33.8991 5.54967C34.3893 4.69386 33.7746 3.62109 32.7902 3.62109ZM21.6728 29.4961H14.3282V23.5497H21.6768V29.4961H21.6728ZM22.0585 20.3916L21.721 20.9782H14.2759L13.9384 20.3916L10.8648 15.0318H25.1362L22.0585 20.3916ZM26.6107 12.4604H9.39021L5.97503 6.51395H30.0259L26.6107 12.4604Z" fill="black" fill-opacity="0.45"/>
</svg>
