<svg width="36" height="36" viewBox="0 0 36 36" fill="none" xmlns="http://www.w3.org/2000/svg">
<path d="M34.7152 13.1786C35.0688 13.1786 35.3581 12.8893 35.3581 12.5357V5.14286C35.3581 4.78929 35.0688 4.5 34.7152 4.5H27.3223C26.9688 4.5 26.6795 4.78929 26.6795 5.14286V7.39286H9.32234V5.14286C9.32234 4.78929 9.03305 4.5 8.67948 4.5H1.28663C0.933054 4.5 0.643768 4.78929 0.643768 5.14286V12.5357C0.643768 12.8893 0.933054 13.1786 1.28663 13.1786H3.53663V22.8214H1.28663C0.933054 22.8214 0.643768 23.1107 0.643768 23.4643V30.8571C0.643768 31.2107 0.933054 31.5 1.28663 31.5H8.67948C9.03305 31.5 9.32234 31.2107 9.32234 30.8571V28.6071H26.6795V30.8571C26.6795 31.2107 26.9688 31.5 27.3223 31.5H34.7152C35.0688 31.5 35.3581 31.2107 35.3581 30.8571V23.4643C35.3581 23.1107 35.0688 22.8214 34.7152 22.8214H32.4652V13.1786H34.7152ZM29.2509 7.07143H32.7866V10.6071H29.2509V7.07143ZM3.2152 10.6071V7.07143H6.75091V10.6071H3.2152ZM6.75091 28.9286H3.2152V25.3929H6.75091V28.9286ZM32.7866 25.3929V28.9286H29.2509V25.3929H32.7866ZM29.5723 22.8214H27.3223C26.9688 22.8214 26.6795 23.1107 26.6795 23.4643V25.7143H9.32234V23.4643C9.32234 23.1107 9.03305 22.8214 8.67948 22.8214H6.42948V13.1786H8.67948C9.03305 13.1786 9.32234 12.8893 9.32234 12.5357V10.2857H26.6795V12.5357C26.6795 12.8893 26.9688 13.1786 27.3223 13.1786H29.5723V22.8214Z" fill="black" fill-opacity="0.45"/>
</svg>
