<svg width="36" height="36" viewBox="0 0 36 36" fill="none" xmlns="http://www.w3.org/2000/svg">
<path d="M35.3565 9.43795H25.2315C25.0547 9.43795 24.9101 9.58259 24.9101 9.75938V26.0719C24.9101 26.2487 25.0547 26.3933 25.2315 26.3933H27.6101C27.7869 26.3933 27.9315 26.2487 27.9315 26.0719V19.5188H34.6896C34.8663 19.5188 35.011 19.3741 35.011 19.1973V17.313C35.011 17.1362 34.8663 16.9915 34.6896 16.9915H27.9315V12.0576H35.3565C35.5333 12.0576 35.6779 11.913 35.6779 11.7362V9.75938C35.6779 9.58259 35.5333 9.43795 35.3565 9.43795ZM21.0529 9.47813H18.8029C18.6262 9.47813 18.4815 9.62277 18.4815 9.79956V26.1121C18.4815 26.2888 18.6262 26.4335 18.8029 26.4335H21.0529C21.2297 26.4335 21.3744 26.2888 21.3744 26.1121V9.79956C21.3744 9.62277 21.2297 9.47813 21.0529 9.47813ZM15.5887 17.55H9.09982C8.92303 17.55 8.77839 17.6946 8.77839 17.8714V19.6272C8.77839 19.804 8.92303 19.9487 9.09982 19.9487H12.9128L12.9007 20.3063C12.8525 22.6688 11.0686 24.2638 8.44491 24.2638C5.3833 24.2638 3.46678 21.8652 3.46678 17.9679C3.46678 14.1188 5.34714 11.7321 8.34848 11.7321C10.5503 11.7321 12.0891 12.813 12.7079 14.7616H15.7695C15.223 11.258 12.3141 9 8.34848 9C3.45473 8.99599 0.320801 12.4996 0.320801 17.992C0.320801 23.5487 3.41857 26.996 8.39669 26.996C12.9811 26.996 15.9101 24.1554 15.9101 19.6996V17.8714C15.9101 17.6946 15.7654 17.55 15.5887 17.55Z" fill="black" fill-opacity="0.45"/>
</svg>
