<svg width="36" height="36" viewBox="0 0 36 36" fill="none" xmlns="http://www.w3.org/2000/svg">
<path d="M32.7863 9.88895H26.856C27.4024 9.02913 27.7238 8.00859 27.7238 6.91574C27.7238 3.85815 25.2368 1.37109 22.1792 1.37109C20.5158 1.37109 19.0171 2.11038 18.0006 3.27556C16.9841 2.11038 15.4855 1.37109 13.8221 1.37109C10.7645 1.37109 8.27741 3.85815 8.27741 6.91574C8.27741 8.00859 8.59482 9.02913 9.14527 9.88895H3.21491C2.50375 9.88895 1.9292 10.4635 1.9292 11.1747V19.2104C1.9292 19.3872 2.07384 19.5318 2.25063 19.5318H3.85777V33.3532C3.85777 34.0644 4.43232 34.639 5.14349 34.639H30.8578C31.5689 34.639 32.1435 34.0644 32.1435 33.3532V19.5318H33.7506C33.9274 19.5318 34.0721 19.3872 34.0721 19.2104V11.1747C34.0721 10.4635 33.4975 9.88895 32.7863 9.88895ZM19.3667 6.91574C19.3667 5.36484 20.6283 4.10324 22.1792 4.10324C23.7301 4.10324 24.9917 5.36484 24.9917 6.91574C24.9917 8.46663 23.7301 9.72824 22.1792 9.72824H19.3667V6.91574ZM13.8221 4.10324C15.373 4.10324 16.6346 5.36484 16.6346 6.91574V9.72824H13.8221C12.2712 9.72824 11.0096 8.46663 11.0096 6.91574C11.0096 5.36484 12.2712 4.10324 13.8221 4.10324ZM4.66134 16.7997V12.6211H16.6346V16.7997H4.66134ZM6.58991 19.5318H16.6346V31.9068H6.58991V19.5318ZM29.4113 31.9068H19.3667V19.5318H29.4113V31.9068ZM31.3399 16.7997H19.3667V12.6211H31.3399V16.7997Z" fill="black" fill-opacity="0.45"/>
</svg>
