<svg width="36" height="36" viewBox="0 0 36 36" fill="none" xmlns="http://www.w3.org/2000/svg">
<path d="M11.1698 16.3903H24.9109C24.9269 16.3903 24.947 16.3903 24.9631 16.3863C25.1399 16.3582 25.2564 16.1935 25.2283 16.0167L23.6131 6.0524C23.589 5.8957 23.4524 5.7832 23.2957 5.7832H12.785C12.6283 5.7832 12.4917 5.8957 12.4676 6.0524L10.8524 16.0167C10.8484 16.0328 10.8484 16.0528 10.8484 16.0689C10.8484 16.2457 10.993 16.3903 11.1698 16.3903ZM14.8341 8.51535H21.2426L22.0743 13.6582H13.9984L14.8341 8.51535ZM14.9345 19.8738C14.9104 19.7171 14.7738 19.6046 14.6171 19.6046H4.10641C3.94971 19.6046 3.8131 19.7171 3.789 19.8738L2.17382 29.8381C2.1698 29.8542 2.1698 29.8743 2.1698 29.8903C2.1698 30.0671 2.31444 30.2118 2.49123 30.2118H16.2323C16.2484 30.2118 16.2685 30.2118 16.2845 30.2078C16.4613 30.1796 16.5778 30.0149 16.5497 29.8381L14.9345 19.8738ZM5.32382 27.4796L6.15551 22.3368H12.564L13.3957 27.4796H5.32382ZM33.8265 29.8381L32.2113 19.8738C32.1872 19.7171 32.0506 19.6046 31.8939 19.6046H21.3832C21.2265 19.6046 21.0899 19.7171 21.0658 19.8738L19.4506 29.8381C19.4466 29.8542 19.4466 29.8743 19.4466 29.8903C19.4466 30.0671 19.5912 30.2118 19.768 30.2118H33.5091C33.5252 30.2118 33.5452 30.2118 33.5613 30.2078C33.7341 30.1796 33.8546 30.0149 33.8265 29.8381ZM22.6006 27.4796L23.4323 22.3368H29.8408L30.6725 27.4796H22.6006Z" fill="black" fill-opacity="0.45"/>
</svg>
