<svg width="36" height="36" viewBox="0 0 36 36" fill="none" xmlns="http://www.w3.org/2000/svg">
<path d="M30.8562 0H5.14195C4.43079 0 3.85623 0.574554 3.85623 1.28571V34.7143C3.85623 35.4254 4.43079 36 5.14195 36H30.8562C31.5674 36 32.1419 35.4254 32.1419 34.7143V1.28571C32.1419 0.574554 31.5674 0 30.8562 0ZM6.74909 2.89286H29.2491V11.25H6.74909V2.89286ZM29.2491 22.1786H6.74909V13.8214H29.2491V22.1786ZM29.2491 33.1071H6.74909V24.75H29.2491V33.1071ZM17.3562 5.78571H9.96338C9.78659 5.78571 9.64195 5.93036 9.64195 6.10714V8.03571C9.64195 8.2125 9.78659 8.35714 9.96338 8.35714H17.3562C17.533 8.35714 17.6777 8.2125 17.6777 8.03571V6.10714C17.6777 5.93036 17.533 5.78571 17.3562 5.78571ZM9.96338 19.2857H17.3562C17.533 19.2857 17.6777 19.1411 17.6777 18.9643V17.0357C17.6777 16.8589 17.533 16.7143 17.3562 16.7143H9.96338C9.78659 16.7143 9.64195 16.8589 9.64195 17.0357V18.9643C9.64195 19.1411 9.78659 19.2857 9.96338 19.2857ZM23.1419 29.0893C23.1419 29.5155 23.3113 29.9243 23.6127 30.2257C23.9141 30.5271 24.3228 30.6964 24.7491 30.6964C25.1753 30.6964 25.5841 30.5271 25.8855 30.2257C26.1869 29.9243 26.3562 29.5155 26.3562 29.0893C26.3562 28.663 26.1869 28.2543 25.8855 27.9529C25.5841 27.6515 25.1753 27.4821 24.7491 27.4821C24.3228 27.4821 23.9141 27.6515 23.6127 27.9529C23.3113 28.2543 23.1419 28.663 23.1419 29.0893Z" fill="black" fill-opacity="0.45"/>
</svg>
