<svg width="36" height="36" viewBox="0 0 36 36" fill="none" xmlns="http://www.w3.org/2000/svg">
<g clip-path="url(#clip0_636_5502)">
<path d="M35.8272 31.8214L19.1129 2.89286C18.8638 2.46295 18.4338 2.25 17.9999 2.25C17.566 2.25 17.1321 2.46295 16.887 2.89286L0.172687 31.8214C-0.321509 32.6813 0.297241 33.75 1.28563 33.75H34.7142C35.7026 33.75 36.3214 32.6813 35.8272 31.8214ZM4.07001 30.8612L17.9999 6.74598L31.9298 30.8571H4.07001V30.8612ZM16.887 11.8125L7.72626 27.6429C7.23206 28.4987 7.85081 29.5714 8.83921 29.5714H27.1526C28.145 29.5714 28.7638 28.4987 28.2655 27.6429L19.1129 11.8125C18.8638 11.3826 18.4298 11.1696 17.9999 11.1696C17.566 11.1696 17.1321 11.3826 16.887 11.8125ZM25.4852 27.3214H10.5147L17.9999 14.3839L25.4852 27.3214ZM16.887 19.5228L14.5968 23.4763C14.1026 24.3281 14.7213 25.3929 15.7097 25.3929H20.2901C21.2785 25.3929 21.8932 24.3281 21.403 23.4763L19.1129 19.5228C18.8678 19.0969 18.4338 18.8839 17.9999 18.8839C17.566 18.8839 17.1361 19.0969 16.887 19.5228ZM19.1812 23.4763H16.8227L18.0039 21.4393L19.1812 23.4763Z" fill="black" fill-opacity="0.45"/>
</g>
<defs>
<clipPath id="clip0_636_5502">
<rect width="36" height="36" fill="white"/>
</clipPath>
</defs>
</svg>
