<svg width="36" height="36" viewBox="0 0 36 36" fill="none" xmlns="http://www.w3.org/2000/svg">
<path d="M18.9673 8.39481H17.0347C16.8579 8.39481 16.7133 8.53946 16.7133 8.71624V19.7774C16.7133 19.8819 16.7615 19.9783 16.8459 20.0386L23.4874 24.8881C23.632 24.9926 23.8329 24.9645 23.9374 24.8198L25.0865 23.2528C25.195 23.1042 25.1629 22.9033 25.0182 22.8028L19.2887 18.6604V8.71624C19.2887 8.53946 19.1441 8.39481 18.9673 8.39481ZM27.7986 11.4162L34.0986 12.9551C34.2995 13.0033 34.4963 12.8506 34.4963 12.6457L34.5285 6.15687C34.5285 5.88767 34.2191 5.73499 34.0102 5.90374L27.678 10.8497C27.6302 10.8867 27.5937 10.9365 27.5729 10.9933C27.5521 11.0501 27.5477 11.1117 27.5603 11.1709C27.5729 11.23 27.6019 11.2845 27.6441 11.3279C27.6862 11.3713 27.7398 11.4019 27.7986 11.4162ZM34.5365 23.514L32.2584 22.7305C32.179 22.7033 32.092 22.7082 32.0162 22.7443C31.9404 22.7803 31.8816 22.8446 31.8526 22.9234C31.7762 23.1283 31.6959 23.3292 31.6115 23.5301C30.8963 25.2216 29.8718 26.7444 28.562 28.0502C27.2667 29.3495 25.7316 30.3851 24.0419 31.0997C22.2914 31.8398 20.4098 32.2197 18.5093 32.2167C16.5887 32.2167 14.7285 31.843 12.9767 31.0997C11.2869 30.3851 9.75188 29.3495 8.4566 28.0502C7.1508 26.7444 6.12624 25.2216 5.40705 23.5301C4.67104 21.7786 4.29396 19.8973 4.29812 17.9975C4.29812 16.077 4.67178 14.2127 5.41508 12.4609C6.13026 10.7694 7.15481 9.2466 8.46464 7.9408C9.75991 6.6415 11.295 5.60585 12.9847 4.89124C14.7285 4.14794 16.5928 3.77428 18.5133 3.77428C20.4338 3.77428 22.2941 4.14794 24.0459 4.89124C25.7356 5.60585 27.2707 6.6415 28.566 7.9408C28.9758 8.35464 29.3615 8.78455 29.7151 9.23857L32.1178 7.35821C28.9557 3.31624 24.0338 0.71669 18.5053 0.720708C8.87847 0.724726 1.14812 8.54348 1.24454 18.1743C1.34097 27.6363 9.03517 35.2743 18.5133 35.2743C25.9664 35.2743 32.3146 30.5493 34.7334 23.9319C34.7937 23.7631 34.7053 23.5743 34.5365 23.514Z" fill="black" fill-opacity="0.45"/>
</svg>
