<svg width="36" height="36" viewBox="0 0 36 36" fill="none" xmlns="http://www.w3.org/2000/svg">
<path d="M27.2412 10.2104V4.82645H30.6966C30.8734 4.82645 31.018 4.68181 31.018 4.50502V2.25502C31.018 2.07824 30.8734 1.93359 30.6966 1.93359H5.30373C5.12694 1.93359 4.9823 2.07824 4.9823 2.25502V4.50502C4.9823 4.68181 5.12694 4.82645 5.30373 4.82645H8.75909V10.2104C8.75909 13.4849 10.4627 16.3657 13.0341 18.005C10.4627 19.6443 8.75909 22.5251 8.75909 25.7997V31.1836H5.30373C5.12694 31.1836 4.9823 31.3282 4.9823 31.505V33.755C4.9823 33.9318 5.12694 34.0765 5.30373 34.0765H30.6966C30.8734 34.0765 31.018 33.9318 31.018 33.755V31.505C31.018 31.3282 30.8734 31.1836 30.6966 31.1836H27.2412V25.7997C27.2412 22.5251 25.5377 19.6443 22.9662 18.005C25.5377 16.3657 27.2412 13.4849 27.2412 10.2104ZM24.3484 25.7997V31.1836H11.6519V25.7997C11.6519 24.1041 12.3109 22.509 13.5122 21.3117C14.7095 20.1104 16.3046 19.4515 18.0002 19.4515C19.6957 19.4515 21.2908 20.1104 22.4881 21.3117C23.6894 22.509 24.3484 24.1041 24.3484 25.7997ZM24.3484 10.2104C24.3484 11.9059 23.6894 13.501 22.4881 14.6983C21.2908 15.8997 19.6957 16.5586 18.0002 16.5586C16.3046 16.5586 14.7095 15.8997 13.5122 14.6983C12.9202 14.1108 12.4509 13.4116 12.1315 12.6411C11.8122 11.8706 11.6492 11.0444 11.6519 10.2104V4.82645H24.3484V10.2104Z" fill="black" fill-opacity="0.45"/>
</svg>
