<svg width="36" height="36" viewBox="0 0 36 36" fill="none" xmlns="http://www.w3.org/2000/svg">
<path d="M34.7143 3.84961H1.28571C0.574554 3.84961 0 4.42416 0 5.13532V30.8496C0 31.5608 0.574554 32.1353 1.28571 32.1353H34.7143C35.4254 32.1353 36 31.5608 36 30.8496V5.13532C36 4.42416 35.4254 3.84961 34.7143 3.84961ZM33.1071 29.2425H2.89286V6.74247H33.1071V29.2425ZM21.9496 16.546H26.9076C26.9598 16.546 27 16.4014 27 16.2246V14.296C27 14.1193 26.9598 13.9746 26.9076 13.9746H21.9496C21.8973 13.9746 21.8571 14.1193 21.8571 14.296V16.2246C21.8571 16.4014 21.8973 16.546 21.9496 16.546ZM22.1424 22.3318H29.6036C29.7603 22.3318 29.8888 22.1871 29.8888 22.0103V20.0818C29.8888 19.905 29.7603 19.7603 29.6036 19.7603H22.1424C21.9857 19.7603 21.8571 19.905 21.8571 20.0818V22.0103C21.8571 22.1871 21.9857 22.3318 22.1424 22.3318ZM6.42857 24.4612H8.19241C8.36116 24.4612 8.49777 24.3286 8.50982 24.1599C8.6625 22.1309 10.358 20.5237 12.4152 20.5237C14.4723 20.5237 16.1679 22.1309 16.3205 24.1599C16.3326 24.3286 16.4692 24.4612 16.6379 24.4612H18.4018C18.4454 24.4613 18.4885 24.4525 18.5286 24.4353C18.5687 24.4182 18.6049 24.393 18.6349 24.3615C18.665 24.3299 18.6883 24.2925 18.7035 24.2517C18.7187 24.2108 18.7254 24.1673 18.7232 24.1237C18.6107 21.9822 17.4375 20.1179 15.7259 19.0572C16.4807 18.2275 16.8978 17.1454 16.8951 16.0237C16.8951 13.5367 14.8902 11.5237 12.4192 11.5237C9.94821 11.5237 7.9433 13.5367 7.9433 16.0237C7.9433 17.1929 8.38527 18.2536 9.1125 19.0572C8.24114 19.5972 7.51342 20.34 6.99147 21.2223C6.46953 22.1045 6.16887 23.1 6.11518 24.1237C6.09911 24.3085 6.24375 24.4612 6.42857 24.4612ZM12.4152 13.9344C13.5603 13.9344 14.4924 14.8706 14.4924 16.0237C14.4924 17.1768 13.5603 18.113 12.4152 18.113C11.2701 18.113 10.3379 17.1768 10.3379 16.0237C10.3379 14.8706 11.2701 13.9344 12.4152 13.9344Z" fill="black" fill-opacity="0.45"/>
</svg>
