<svg width="36" height="36" viewBox="0 0 36 36" fill="none" xmlns="http://www.w3.org/2000/svg">
<path d="M31.8205 1.93359H28.6062C28.4294 1.93359 28.2848 2.07824 28.2848 2.25502V33.755C28.2848 33.9318 28.4294 34.0765 28.6062 34.0765H31.8205C31.9973 34.0765 32.1419 33.9318 32.1419 33.755V2.25502C32.1419 2.07824 31.9973 1.93359 31.8205 1.93359ZM23.7848 1.93359H5.14195C4.43079 1.93359 3.85623 2.53225 3.85623 3.27154V32.7345C3.85623 33.4738 4.43079 34.0724 5.14195 34.0724H23.7848C24.496 34.0724 25.0705 33.4738 25.0705 32.7345V3.27154C25.0705 2.53225 24.496 1.93359 23.7848 1.93359ZM13.1777 31.1836H6.74909V24.1122H13.1777V31.1836ZM13.1777 21.5407H6.74909V14.4693H13.1777V21.5407ZM13.1777 11.8979H6.74909V4.82645H13.1777V11.8979ZM22.1777 31.1836H15.7491V24.1122H22.1777V31.1836ZM22.1777 21.5407H15.7491V14.4693H22.1777V21.5407ZM22.1777 11.8979H15.7491V4.82645H22.1777V11.8979Z" fill="black" fill-opacity="0.45"/>
</svg>
