<svg width="36" height="36" viewBox="0 0 36 36" fill="none" xmlns="http://www.w3.org/2000/svg">
<path d="M33.7506 28.2782H2.25063C2.07384 28.2782 1.9292 28.4228 1.9292 28.5996V31.8139C1.9292 31.9907 2.07384 32.1353 2.25063 32.1353H33.7506C33.9274 32.1353 34.0721 31.9907 34.0721 31.8139V28.5996C34.0721 28.4228 33.9274 28.2782 33.7506 28.2782ZM32.7341 3.84961H3.26715C2.52786 3.84961 1.9292 4.42416 1.9292 5.13532V23.7782C1.9292 24.4893 2.52786 25.0639 3.26715 25.0639H32.7301C33.4694 25.0639 34.068 24.4893 34.068 23.7782V5.13532C34.0721 4.42416 33.4734 3.84961 32.7341 3.84961ZM11.8935 22.171H4.82206V15.7425H11.8935V22.171ZM11.8935 13.171H4.82206V6.74247H11.8935V13.171ZM21.5363 22.171H14.4649V15.7425H21.5363V22.171ZM21.5363 13.171H14.4649V6.74247H21.5363V13.171ZM31.1792 22.171H24.1078V15.7425H31.1792V22.171ZM31.1792 13.171H24.1078V6.74247H31.1792V13.171Z" fill="black" fill-opacity="0.45"/>
</svg>
