<svg width="36" height="36" viewBox="0 0 36 36" fill="none" xmlns="http://www.w3.org/2000/svg">
<path d="M7.39301 1.93359H4.17873C4.00194 1.93359 3.8573 2.07824 3.8573 2.25502V33.755C3.8573 33.9318 4.00194 34.0765 4.17873 34.0765H7.39301C7.5698 34.0765 7.71444 33.9318 7.71444 33.755V2.25502C7.71444 2.07824 7.5698 1.93359 7.39301 1.93359ZM30.8573 1.93359H12.2144C11.5033 1.93359 10.9287 2.53225 10.9287 3.27154V32.7345C10.9287 33.4738 11.5033 34.0724 12.2144 34.0724H30.8573C31.5685 34.0724 32.143 33.4738 32.143 32.7345V3.27154C32.143 2.53225 31.5685 1.93359 30.8573 1.93359ZM20.2502 31.1836H13.8216V24.1122H20.2502V31.1836ZM20.2502 21.5407H13.8216V14.4693H20.2502V21.5407ZM20.2502 11.8979H13.8216V4.82645H20.2502V11.8979ZM29.2502 31.1836H22.8216V24.1122H29.2502V31.1836ZM29.2502 21.5407H22.8216V14.4693H29.2502V21.5407ZM29.2502 11.8979H22.8216V4.82645H29.2502V11.8979Z" fill="black" fill-opacity="0.45"/>
</svg>
