<svg width="36" height="36" viewBox="0 0 36 36" fill="none" xmlns="http://www.w3.org/2000/svg">
<path d="M32.7341 10.921H3.26715C2.52786 10.921 1.9292 11.4956 1.9292 12.2068V30.8496C1.9292 31.5608 2.52786 32.1353 3.26715 32.1353H32.7301C33.4694 32.1353 34.068 31.5608 34.068 30.8496V12.2068C34.0721 11.4956 33.4734 10.921 32.7341 10.921ZM11.8935 29.2425H4.82206V22.8139H11.8935V29.2425ZM11.8935 20.2425H4.82206V13.8139H11.8935V20.2425ZM21.5363 29.2425H14.4649V22.8139H21.5363V29.2425ZM21.5363 20.2425H14.4649V13.8139H21.5363V20.2425ZM31.1792 29.2425H24.1078V22.8139H31.1792V29.2425ZM31.1792 20.2425H24.1078V13.8139H31.1792V20.2425ZM33.7506 3.84961H2.25063C2.07384 3.84961 1.9292 3.99425 1.9292 4.17104V7.38532C1.9292 7.56211 2.07384 7.70675 2.25063 7.70675H33.7506C33.9274 7.70675 34.0721 7.56211 34.0721 7.38532V4.17104C34.0721 3.99425 33.9274 3.84961 33.7506 3.84961Z" fill="black" fill-opacity="0.45"/>
</svg>
