<svg width="36" height="36" viewBox="0 0 36 36" fill="none" xmlns="http://www.w3.org/2000/svg">
<g clip-path="url(#clip0_636_5719)">
<path d="M15.1708 9.76289L13.6199 9.03164C13.5883 9.01687 13.5539 9.00903 13.5189 9.00865C13.484 9.00827 13.4494 9.01536 13.4175 9.02943C13.3855 9.04351 13.3569 9.06425 13.3336 9.09027C13.3104 9.11629 13.2929 9.14699 13.2824 9.1803C12.5793 11.5307 11.4664 13.604 9.97976 15.3517C9.95377 15.3823 9.93576 15.4189 9.92734 15.4582C9.91893 15.4974 9.92037 15.5382 9.93155 15.5767L10.4619 17.3245C10.5141 17.5013 10.7432 17.5535 10.8717 17.4209C11.1811 17.0955 11.4905 16.7419 11.7999 16.3763V23.7932C11.7999 23.97 11.9445 24.1147 12.1213 24.1147H13.6199C13.7967 24.1147 13.9414 23.97 13.9414 23.7932V13.2303C14.4963 12.22 14.9486 11.1567 15.2914 10.0562C15.3315 9.93968 15.2793 9.81512 15.1708 9.76289ZM16.2476 10.1325V15.2432C16.2476 15.42 16.3923 15.5647 16.569 15.5647H19.2168V16.312H15.4039C15.2271 16.312 15.0824 16.4566 15.0824 16.6334V18.0638C15.0824 18.2406 15.2271 18.3852 15.4039 18.3852H17.6177C16.8503 19.6227 15.9141 20.6232 14.765 21.4388C14.7147 21.4745 14.68 21.5281 14.668 21.5887C14.656 21.6492 14.6678 21.7121 14.7007 21.7642L15.6168 23.2307C15.6932 23.3553 15.8659 23.3834 15.9744 23.287C17.244 22.2102 18.3329 20.7598 19.2128 18.9638V23.7852C19.2128 23.962 19.3574 24.1066 19.5342 24.1066H20.9887C21.1655 24.1066 21.3101 23.962 21.3101 23.7852V18.9718C22.1659 20.6473 23.2186 22.0857 24.4481 23.2669C24.5525 23.3674 24.7213 23.3513 24.8057 23.2388L25.8624 21.8205C25.9427 21.712 25.9186 21.5593 25.8141 21.483C24.5887 20.5749 23.6365 19.5624 22.9092 18.3932H25.2798C25.4565 18.3932 25.6012 18.2486 25.6012 18.0718V16.6415C25.6012 16.4647 25.4565 16.32 25.2798 16.32H21.3101V15.5727H23.99C24.1668 15.5727 24.3115 15.4281 24.3115 15.2513V10.1325C24.3115 9.95575 24.1668 9.8111 23.99 9.8111H16.569C16.3923 9.8111 16.2476 9.95575 16.2476 10.1325ZM18.3168 11.8522H22.2503V13.5236H18.3168V11.8522ZM32.2588 4.26244L18.6061 -0.390234C18.4414 -0.446484 18.2204 -0.474609 17.9994 -0.474609C17.7784 -0.474609 17.5574 -0.446484 17.3927 -0.390234L3.74003 4.26244C3.40655 4.37494 3.13333 4.76066 3.13333 5.11423V24.4964C3.13333 24.8499 3.36235 25.316 3.63958 25.537L17.4891 36.329C17.6298 36.4374 17.8106 36.4937 17.9954 36.4937C18.1802 36.4937 18.365 36.4374 18.5016 36.329L32.3512 25.537C32.6284 25.32 32.8574 24.854 32.8574 24.4964V5.11423C32.8655 4.76066 32.5923 4.37896 32.2588 4.26244ZM29.9726 23.7249L17.9994 33.0544L6.02619 23.7249V6.54459L17.9994 2.46244L29.9726 6.54459V23.7249Z" fill="black" fill-opacity="0.45"/>
</g>
<defs>
<clipPath id="clip0_636_5719">
<rect width="36" height="36" fill="white"/>
</clipPath>
</defs>
</svg>
