<svg width="36" height="36" viewBox="0 0 36 36" fill="none" xmlns="http://www.w3.org/2000/svg">
<path d="M32.7863 1.93359H3.21491C2.50375 1.93359 1.9292 2.50815 1.9292 3.21931V32.7907C1.9292 33.5019 2.50375 34.0765 3.21491 34.0765H32.7863C33.4975 34.0765 34.0721 33.5019 34.0721 32.7907V3.21931C34.0721 2.50815 33.4975 1.93359 32.7863 1.93359ZM31.1792 31.1836H4.82206V4.82645H31.1792V31.1836ZM9.67563 18.4872H11.7127C11.8613 18.4872 11.9859 18.3666 11.9859 18.214V15.0439C11.9859 14.2523 12.6247 13.6135 13.4122 13.6135H21.677V15.759C21.677 15.9881 21.9381 16.1126 22.1149 15.972L26.4984 12.5287C26.639 12.4202 26.639 12.2073 26.4984 12.0988L22.1149 8.65547C21.9381 8.51484 21.677 8.64342 21.677 8.86842V11.014H13.4082C11.1944 11.014 9.40241 12.814 9.40241 15.0358V18.2059C9.40241 18.3666 9.52295 18.4872 9.67563 18.4872ZM9.50688 23.9073L13.8904 27.3506C14.0671 27.4912 14.3283 27.3626 14.3283 27.1376V24.9921H22.593C24.8069 24.9921 26.5988 23.1921 26.5988 20.9702V17.8001C26.5988 17.6515 26.4783 17.5269 26.3256 17.5269H24.2886C24.1399 17.5269 24.0154 17.6474 24.0154 17.8001V20.9702C24.0154 21.7617 23.3765 22.4006 22.589 22.4006H14.3283V20.255C14.3283 20.026 14.0671 19.9015 13.8904 20.0421L9.50688 23.4854C9.36625 23.5858 9.36625 23.7988 9.50688 23.9073Z" fill="black" fill-opacity="0.45"/>
</svg>
