<svg width="36" height="36" viewBox="0 0 36 36" fill="none" xmlns="http://www.w3.org/2000/svg">
<path d="M21.8583 1.93359C15.1123 1.93359 9.64401 7.4019 9.64401 14.1479C9.64401 16.9724 10.6043 19.572 12.2114 21.6412L10.5601 23.2925L8.05696 20.7894C7.99577 20.7295 7.91355 20.696 7.82794 20.696C7.74232 20.696 7.66012 20.7295 7.59892 20.7894L5.99982 22.3885C5.93994 22.4497 5.90641 22.5319 5.90641 22.6175C5.90641 22.7031 5.93994 22.7853 5.99982 22.8465L8.50294 25.3497L6.69892 27.1537L4.1958 24.6506C4.1346 24.5907 4.05239 24.5571 3.96678 24.5571C3.88116 24.5571 3.79895 24.5907 3.73776 24.6506L2.13865 26.2497C2.07878 26.3109 2.04525 26.3931 2.04525 26.4787C2.04525 26.5643 2.07878 26.6465 2.13865 26.7077L4.64178 29.2108L2.01812 31.8345C1.9583 31.8949 1.92474 31.9765 1.92474 32.0615C1.92474 32.1465 1.9583 32.2281 2.01812 32.2885L3.71767 33.9881C3.84223 34.1126 4.04714 34.1126 4.17169 33.9881L14.361 23.7988C16.5059 25.4624 19.1438 26.3644 21.8583 26.3622C28.6043 26.3622 34.0726 20.8939 34.0726 14.1479C34.0726 7.4019 28.6043 1.93359 21.8583 1.93359ZM28.3351 20.6247C26.6074 22.3564 24.3052 23.3086 21.8583 23.3086C19.4114 23.3086 17.1092 22.3564 15.3815 20.6247C13.6498 18.897 12.6976 16.5948 12.6976 14.1479C12.6976 11.701 13.6498 9.39877 15.3815 7.67109C17.1092 5.9394 19.4114 4.98717 21.8583 4.98717C24.3052 4.98717 26.6074 5.9394 28.3351 7.67109C30.0668 9.39877 31.019 11.701 31.019 14.1479C31.019 16.5948 30.0668 18.897 28.3351 20.6247Z" fill="black" fill-opacity="0.45"/>
</svg>
