<svg width="36" height="36" viewBox="0 0 36 36" fill="none" xmlns="http://www.w3.org/2000/svg">
<path d="M33.1065 29.2513H5.46366V4.17983C5.46366 4.00304 5.31902 3.8584 5.14223 3.8584H2.89223C2.71544 3.8584 2.5708 4.00304 2.5708 4.17983V31.8227C2.5708 31.9995 2.71544 32.1441 2.89223 32.1441H33.1065C33.2833 32.1441 33.4279 31.9995 33.4279 31.8227V29.5727C33.4279 29.3959 33.2833 29.2513 33.1065 29.2513ZM9.71455 23.0517C9.83911 23.1763 10.04 23.1763 10.1686 23.0517L15.7253 17.5231L20.8521 22.6821C20.9766 22.8066 21.1815 22.8066 21.3061 22.6821L32.3713 11.6209C32.4958 11.4963 32.4958 11.2914 32.3713 11.1669L30.7802 9.57581C30.7198 9.51599 30.6382 9.48243 30.5532 9.48243C30.4682 9.48243 30.3866 9.51599 30.3262 9.57581L21.0851 18.8129L15.9663 13.662C15.9059 13.6022 15.8243 13.5686 15.7393 13.5686C15.6543 13.5686 15.5727 13.6022 15.5123 13.662L8.1275 21.0026C8.06768 21.063 8.03412 21.1446 8.03412 21.2296C8.03412 21.3146 8.06768 21.3962 8.1275 21.4566L9.71455 23.0517Z" fill="black" fill-opacity="0.45"/>
</svg>
