<svg width="36" height="37" viewBox="0 0 36 37" fill="none" xmlns="http://www.w3.org/2000/svg">
<g clip-path="url(#clip0_636_5710)">
<path d="M34.7344 19.4929C34.0348 19.4929 33.4688 18.9202 33.4688 18.2123C33.4688 16.0994 33.0609 14.0505 32.2523 12.119C31.4745 10.2596 30.3488 8.56979 28.9371 7.14264C27.5282 5.7124 25.8577 4.57312 24.0188 3.7883C22.1133 2.97373 20.0883 2.56111 18 2.56111C17.3004 2.56111 16.7344 1.98842 16.7344 1.28055C16.7344 0.572692 17.3004 0 18 0C20.4293 0 22.7883 0.480208 25.0066 1.43351C27.1512 2.34768 29.0742 3.66381 30.7266 5.33564C32.3789 7.00747 33.6762 8.95676 34.5832 11.123C35.5219 13.3676 35.9965 15.7544 35.9965 18.2123C36 18.9202 35.434 19.4929 34.7344 19.4929Z" fill="black" fill-opacity="0.45"/>
</g>
<defs>
<clipPath id="clip0_636_5710">
<rect width="36" height="36.4246" fill="white"/>
</clipPath>
</defs>
</svg>
