<svg width="36" height="36" viewBox="0 0 36 36" fill="none" xmlns="http://www.w3.org/2000/svg">
<g clip-path="url(#clip0_636_5584)">
<path d="M32.3041 26.8412H29.4796C29.2867 26.8412 29.1059 26.9256 28.9854 27.0743C28.7041 27.4158 28.4028 27.7453 28.0854 28.0586C26.7872 29.3581 25.2495 30.3937 23.5572 31.1082C21.8041 31.8487 19.9198 32.2286 18.0166 32.2252C16.0921 32.2252 14.2278 31.8475 12.476 31.1082C10.7838 30.3937 9.24607 29.3581 7.94787 28.0586C6.64735 26.7635 5.61035 25.2285 4.8943 23.5386C4.151 21.7868 3.77734 19.9265 3.77734 18.0019C3.77734 16.0774 4.15501 14.2171 4.8943 12.4653C5.60948 10.7738 6.63805 9.25105 7.94787 7.94525C9.25769 6.63944 10.7805 5.61087 12.476 4.89569C14.2278 4.15641 16.0921 3.77873 18.0166 3.77873C19.9412 3.77873 21.8055 4.15239 23.5572 4.89569C25.2528 5.61087 26.7756 6.63944 28.0854 7.94525C28.4028 8.26266 28.7001 8.59212 28.9854 8.92962C29.1059 9.07828 29.2907 9.16266 29.4796 9.16266H32.3041C32.5572 9.16266 32.7139 8.88141 32.5733 8.66846C29.4916 3.87918 24.0997 0.709087 17.9724 0.725158C8.34564 0.749266 0.627335 8.564 0.723764 18.1787C0.820192 27.6408 8.52644 35.2787 18.0166 35.2787C24.1278 35.2787 29.4956 32.1127 32.5733 27.3354C32.7099 27.1225 32.5572 26.8412 32.3041 26.8412ZM35.876 17.7488L30.1747 13.2488C29.9617 13.0801 29.6523 13.2327 29.6523 13.5019V16.5555H17.0363C16.8595 16.5555 16.7148 16.7002 16.7148 16.8769V19.1269C16.7148 19.3037 16.8595 19.4484 17.0363 19.4484H29.6523V22.5019C29.6523 22.7711 29.9657 22.9238 30.1747 22.7551L35.876 18.2551C35.9144 18.225 35.9455 18.1866 35.9669 18.1427C35.9882 18.0989 35.9993 18.0507 35.9993 18.0019C35.9993 17.9532 35.9882 17.905 35.9669 17.8612C35.9455 17.8173 35.9144 17.7789 35.876 17.7488Z" fill="black" fill-opacity="0.45"/>
</g>
<defs>
<clipPath id="clip0_636_5584">
<rect width="36" height="36" fill="white"/>
</clipPath>
</defs>
</svg>
