<svg width="36" height="36" viewBox="0 0 36 36" fill="none" xmlns="http://www.w3.org/2000/svg">
<path d="M32.7863 1.93359H3.21488C2.50372 1.93359 1.92917 2.50815 1.92917 3.21931V32.7907C1.92917 33.5019 2.50372 34.0765 3.21488 34.0765H32.7863C33.4975 34.0765 34.072 33.5019 34.072 32.7907V3.21931C34.072 2.50815 33.4975 1.93359 32.7863 1.93359ZM31.1792 31.1836H4.82203V4.82645H31.1792V31.1836Z" fill="black" fill-opacity="0.45"/>
<path d="M12.3259 19.7096C10.1321 19.7096 8.35621 21.4855 8.35621 23.6792C8.35621 25.873 10.1321 27.6489 12.3259 27.6489C14.5196 27.6489 16.2955 25.873 16.2955 23.6792V21.9756H19.6986V23.6792C19.6986 25.873 21.4745 27.6489 23.6683 27.6489C25.862 27.6489 27.6379 25.873 27.6379 23.6792C27.6379 21.4855 25.862 19.7096 23.6683 19.7096H21.9647V16.3064H23.6683C25.862 16.3064 27.6379 14.5306 27.6379 12.3368C27.6379 10.1431 25.862 8.36716 23.6683 8.36716C21.4745 8.36716 19.6986 10.1431 19.6986 12.3368V14.0404H16.2955V12.3368C16.2955 10.1431 14.5196 8.36716 12.3259 8.36716C10.1321 8.36716 8.35621 10.139 8.35621 12.3328C8.35621 14.5265 10.1321 16.3024 12.3259 16.3024H14.0294V19.7056H12.3259V19.7096ZM14.0294 23.6792C14.0294 24.6194 13.266 25.3828 12.3259 25.3828C11.3857 25.3828 10.6223 24.6194 10.6223 23.6792C10.6223 22.739 11.3857 21.9756 12.3259 21.9756H14.0294V23.6792ZM21.9687 12.3328C21.9687 11.3926 22.7321 10.6292 23.6723 10.6292C24.6125 10.6292 25.3759 11.3926 25.3759 12.3328C25.3759 13.273 24.6125 14.0364 23.6723 14.0364H21.9687V12.3328ZM21.9687 21.9756H23.6723C24.6125 21.9756 25.3759 22.739 25.3759 23.6792C25.3759 24.6194 24.6125 25.3828 23.6723 25.3828C22.7321 25.3828 21.9687 24.6194 21.9687 23.6792V21.9756ZM16.2955 16.3024H19.6986V19.7056H16.2955V16.3024ZM12.3259 14.0364C11.3857 14.0364 10.6223 13.273 10.6223 12.3328C10.6223 11.3926 11.3857 10.6292 12.3259 10.6292C13.266 10.6292 14.0294 11.3926 14.0294 12.3328V14.0364H12.3259Z" fill="black" fill-opacity="0.45"/>
</svg>
