<svg width="36" height="36" viewBox="0 0 36 36" fill="none" xmlns="http://www.w3.org/2000/svg">
<path d="M32.5446 2.25H22.4196C22.2871 2.25 22.1786 2.35848 22.1786 2.49107V4.74107C22.1786 4.87366 22.2871 4.98214 22.4196 4.98214H28.8643L20.8567 12.9897C18.8478 11.4429 16.3969 10.6071 13.8214 10.6071C10.7317 10.6071 7.82277 11.8125 5.64107 13.9982C3.45937 16.1839 2.25 19.0888 2.25 22.1786C2.25 25.2683 3.45536 28.1772 5.64107 30.3589C7.82277 32.5446 10.7317 33.75 13.8214 33.75C16.9112 33.75 19.8201 32.5446 22.0018 30.3589C24.1875 28.1772 25.3929 25.2683 25.3929 22.1786C25.3929 19.6031 24.5571 17.1603 23.0143 15.1513L31.0179 7.14777V13.5804C31.0179 13.7129 31.1263 13.8214 31.2589 13.8214H33.5089C33.6415 13.8214 33.75 13.7129 33.75 13.5804V3.45536C33.75 2.79241 33.2076 2.25 32.5446 2.25ZM13.8214 30.6964C9.12455 30.6964 5.30357 26.8754 5.30357 22.1786C5.30357 17.4817 9.12455 13.6607 13.8214 13.6607C18.5183 13.6607 22.3393 17.4817 22.3393 22.1786C22.3393 26.8754 18.5183 30.6964 13.8214 30.6964Z" fill="black" fill-opacity="0.45"/>
</svg>
