<svg width="36" height="36" viewBox="0 0 36 36" fill="none" xmlns="http://www.w3.org/2000/svg">
<path d="M13.822 15.1888H33.1077C33.2845 15.1888 33.4292 15.0441 33.4292 14.8673V12.6173C33.4292 12.4405 33.2845 12.2959 33.1077 12.2959H13.822C13.6452 12.2959 13.5006 12.4405 13.5006 12.6173V14.8673C13.5006 15.0441 13.6452 15.1888 13.822 15.1888ZM13.5006 23.3852C13.5006 23.562 13.6452 23.7066 13.822 23.7066H33.1077C33.2845 23.7066 33.4292 23.562 33.4292 23.3852V21.1352C33.4292 20.9584 33.2845 20.8138 33.1077 20.8138H13.822C13.6452 20.8138 13.5006 20.9584 13.5006 21.1352V23.3852ZM33.7506 3.8584H2.2506C2.07381 3.8584 1.92917 4.00304 1.92917 4.17983V6.42983C1.92917 6.60661 2.07381 6.75126 2.2506 6.75126H33.7506C33.9274 6.75126 34.072 6.60661 34.072 6.42983V4.17983C34.072 4.00304 33.9274 3.8584 33.7506 3.8584ZM33.7506 29.2513H2.2506C2.07381 29.2513 1.92917 29.3959 1.92917 29.5727V31.8227C1.92917 31.9995 2.07381 32.1441 2.2506 32.1441H33.7506C33.9274 32.1441 34.072 31.9995 34.072 31.8227V29.5727C34.072 29.3959 33.9274 29.2513 33.7506 29.2513ZM2.06578 18.2785L8.34569 23.2245C8.57872 23.4093 8.92426 23.2446 8.92426 22.9472V13.0553C8.92426 12.758 8.58274 12.5932 8.34569 12.778L2.06578 17.724C2.02355 17.7569 1.98938 17.7989 1.96588 17.8469C1.94237 17.895 1.93015 17.9478 1.93015 18.0013C1.93015 18.0547 1.94237 18.1075 1.96588 18.1556C1.98938 18.2036 2.02355 18.2457 2.06578 18.2785Z" fill="black" fill-opacity="0.45"/>
</svg>
