<svg width="36" height="36" viewBox="0 0 36 36" fill="none" xmlns="http://www.w3.org/2000/svg">
<path d="M16.803 17.8579L10.74 13.0605C10.6195 12.9641 10.4467 13.0525 10.4467 13.2052V16.6364H4.82174V4.82394H13.0182V9.9668C13.0182 10.0552 13.0905 10.1275 13.1789 10.1275H15.5896C15.678 10.1275 15.7503 10.0552 15.7503 9.9668V3.2168C15.7503 2.59403 15.2481 2.0918 14.6253 2.0918H3.2146C2.59183 2.0918 2.0896 2.59403 2.0896 3.2168V32.7882C2.0896 33.411 2.59183 33.9132 3.2146 33.9132H14.6253C15.2481 33.9132 15.7503 33.411 15.7503 32.7882V26.0382C15.7503 25.9498 15.678 25.8775 15.5896 25.8775H13.1789C13.0905 25.8775 13.0182 25.9498 13.0182 26.0382V31.1811H4.82174V19.3686H10.4467V22.7998C10.4467 22.9525 10.6235 23.0409 10.74 22.9445L16.803 18.1472C16.8254 18.1303 16.8437 18.1085 16.8562 18.0834C16.8688 18.0583 16.8753 18.0306 16.8753 18.0025C16.8753 17.9744 16.8688 17.9468 16.8562 17.9217C16.8437 17.8965 16.8254 17.8747 16.803 17.8579ZM32.786 2.0918H21.3753C20.7525 2.0918 20.2503 2.59403 20.2503 3.2168V9.9668C20.2503 10.0552 20.3226 10.1275 20.411 10.1275H22.8217C22.9101 10.1275 22.9825 10.0552 22.9825 9.9668V4.82394H31.1789V16.6364H25.5539V13.2052C25.5539 13.0525 25.3811 12.9641 25.2606 13.0605L19.1936 17.8579C19.1721 17.8749 19.1546 17.8965 19.1426 17.9212C19.1307 17.9459 19.1244 17.973 19.1244 18.0005C19.1244 18.028 19.1307 18.0551 19.1426 18.0798C19.1546 18.1045 19.1721 18.1261 19.1936 18.1431L25.2606 22.9445C25.3771 23.0369 25.5539 22.9525 25.5539 22.7998V19.3686H31.1789V31.1811H22.9825V26.0382C22.9825 25.9498 22.9101 25.8775 22.8217 25.8775H20.411C20.3226 25.8775 20.2503 25.9498 20.2503 26.0382V32.7882C20.2503 33.411 20.7525 33.9132 21.3753 33.9132H32.786C33.4088 33.9132 33.911 33.411 33.911 32.7882V3.2168C33.911 2.59403 33.4088 2.0918 32.786 2.0918Z" fill="black" fill-opacity="0.45"/>
</svg>
