<svg width="36" height="36" viewBox="0 0 36 36" fill="none" xmlns="http://www.w3.org/2000/svg">
<g clip-path="url(#clip0_636_5700)">
<path d="M27.3205 -0.0878906H8.67763C7.25933 -0.0878906 6.1062 1.06523 6.1062 2.48354V33.3407C6.1062 34.759 7.25933 35.9121 8.67763 35.9121H27.3205C28.7388 35.9121 29.8919 34.759 29.8919 33.3407V2.48354C29.8919 1.06523 28.7388 -0.0878906 27.3205 -0.0878906ZM26.9991 33.0193H8.99906V2.80497H26.9991V33.0193ZM16.3919 28.921C16.3919 29.3473 16.5612 29.7561 16.8626 30.0575C17.164 30.3589 17.5728 30.5282 17.9991 30.5282C18.4253 30.5282 18.8341 30.3589 19.1355 30.0575C19.4369 29.7561 19.6062 29.3473 19.6062 28.921C19.6062 28.4948 19.4369 28.086 19.1355 27.7846C18.8341 27.4832 18.4253 27.3139 17.9991 27.3139C17.5728 27.3139 17.164 27.4832 16.8626 27.7846C16.5612 28.086 16.3919 28.4948 16.3919 28.921Z" fill="black" fill-opacity="0.45"/>
</g>
<defs>
<clipPath id="clip0_636_5700">
<rect width="36" height="36" fill="white"/>
</clipPath>
</defs>
</svg>
