<svg width="36" height="36" viewBox="0 0 36 36" fill="none" xmlns="http://www.w3.org/2000/svg">
<path d="M34.052 25.5867C34.0376 25.5468 34.0155 25.5101 33.9869 25.4787C33.9583 25.4474 33.9237 25.422 33.8852 25.404C33.8468 25.3861 33.8051 25.376 33.7627 25.3742C33.7203 25.3725 33.678 25.3792 33.6381 25.3939L31.1792 26.2898V4.66574C31.1792 3.15502 29.9578 1.93359 28.4471 1.93359H7.5542C6.04349 1.93359 4.82206 3.15502 4.82206 4.66574V26.2898L2.35911 25.3939C2.32295 25.3818 2.28679 25.3738 2.25063 25.3738C2.07384 25.3738 1.9292 25.5184 1.9292 25.6952V28.0898C1.9292 28.2224 2.01357 28.343 2.14215 28.3912L17.5587 34.0001C17.8439 34.1046 18.1533 34.1046 18.4386 34.0001L33.8591 28.3952C33.9877 28.347 34.0721 28.2265 34.0721 28.0939V25.6992C34.0721 25.659 34.064 25.6229 34.052 25.5867ZM18.0006 31.0831L7.71491 27.3425V4.82645H28.2863V27.3425L18.0006 31.0831ZM23.9712 9.96931H21.7814C21.6609 9.96931 21.5484 10.0376 21.4962 10.1461L18.093 16.9282H17.9605L14.5573 10.1461C14.5307 10.0932 14.4899 10.0487 14.4396 10.0175C14.3893 9.98632 14.3313 9.96964 14.2721 9.96931H12.0341C11.9819 9.96931 11.9296 9.98136 11.8814 10.0095C11.7247 10.0939 11.6685 10.2907 11.7529 10.4434L15.9274 18.1416H13.6372C13.4605 18.1416 13.3158 18.2863 13.3158 18.4631V19.5519C13.3158 19.7287 13.4605 19.8733 13.6372 19.8733H16.6908V21.4403H13.6372C13.4605 21.4403 13.3158 21.5849 13.3158 21.7617V22.8506C13.3158 23.0273 13.4605 23.172 13.6372 23.172H16.6908V25.7193C16.6908 25.8961 16.8355 26.0407 17.0122 26.0407H19.0171C19.1939 26.0407 19.3386 25.8961 19.3386 25.7193V23.168H22.4042C22.581 23.168 22.7256 23.0233 22.7256 22.8465V21.7577C22.7256 21.5809 22.581 21.4363 22.4042 21.4363H19.3386V19.8693H22.4042C22.581 19.8693 22.7256 19.7247 22.7256 19.5479V18.459C22.7256 18.2823 22.581 18.1376 22.4042 18.1376H20.0899L24.2564 10.4394C24.2805 10.3912 24.2966 10.339 24.2966 10.2867C24.2926 10.114 24.1479 9.96931 23.9712 9.96931Z" fill="black" fill-opacity="0.45"/>
</svg>
