<svg width="36" height="36" viewBox="0 0 36 36" fill="none" xmlns="http://www.w3.org/2000/svg">
<path d="M25.2658 14.0153L25.2739 14.0073L23.8837 12.2273C23.8579 12.1941 23.8257 12.1662 23.7891 12.1453C23.7525 12.1245 23.7121 12.1111 23.6703 12.1058C23.6285 12.1006 23.5861 12.1037 23.5455 12.1149C23.5049 12.1261 23.4669 12.1452 23.4337 12.1711L21.4087 13.7501L18.5761 10.13C18.5503 10.0967 18.5181 10.0689 18.4815 10.048C18.4449 10.0272 18.4046 10.0137 18.3628 10.0085C18.321 10.0033 18.2785 10.0064 18.2379 10.0176C18.1973 10.0288 18.1593 10.0479 18.1261 10.0738L16.6033 11.2671C16.57 11.2929 16.5422 11.325 16.5213 11.3616C16.5005 11.3982 16.487 11.4386 16.4818 11.4804C16.4766 11.5222 16.4797 11.5646 16.4909 11.6052C16.5021 11.6459 16.5212 11.6839 16.5471 11.7171L19.3797 15.3412L19.3716 15.3452L20.7618 17.1251C20.8703 17.2657 21.0712 17.2898 21.2118 17.1814L23.2368 15.6023L25.8122 18.897C25.9207 19.0376 26.1216 19.0617 26.2622 18.9532L27.785 17.764C27.9256 17.6555 27.9497 17.4546 27.8413 17.314L25.2658 14.0153ZM21.8587 1.93359C15.1127 1.93359 9.64439 7.4019 9.64439 14.1479C9.64439 16.9724 10.6047 19.572 12.2118 21.6412L2.02251 31.8305C1.96269 31.8909 1.92914 31.9725 1.92914 32.0575C1.92914 32.1425 1.96269 32.2241 2.02251 32.2845L3.72207 33.984C3.84662 34.1086 4.05153 34.1086 4.17608 33.984L14.3654 23.7948C16.4346 25.4019 19.0341 26.3622 21.8587 26.3622C28.6047 26.3622 34.073 20.8939 34.073 14.1479C34.073 7.4019 28.6047 1.93359 21.8587 1.93359ZM28.3355 20.6247C26.6078 22.3564 24.3055 23.3086 21.8587 23.3086C19.4118 23.3086 17.1096 22.3564 15.3819 20.6247C13.6502 18.897 12.698 16.5948 12.698 14.1479C12.698 11.701 13.6502 9.39877 15.3819 7.67109C17.1096 5.9394 19.4118 4.98717 21.8587 4.98717C24.3055 4.98717 26.6078 5.9394 28.3355 7.67109C30.0672 9.39877 31.0194 11.701 31.0194 14.1479C31.0194 16.5948 30.0672 18.897 28.3355 20.6247Z" fill="black" fill-opacity="0.45"/>
</svg>
