<svg width="36" height="36" viewBox="0 0 36 36" fill="none" xmlns="http://www.w3.org/2000/svg">
<path d="M35.6786 22.0112C35.8554 22.0112 36 21.8665 36 21.6897V19.4397C36 19.2629 35.8554 19.1183 35.6786 19.1183H9.40179C9.11401 18.4058 8.61979 17.7955 7.9826 17.3659C7.34542 16.9364 6.59436 16.7071 5.82589 16.7076C3.69643 16.7076 1.96875 18.4353 1.96875 20.5647C1.96875 22.6942 3.69643 24.4219 5.82589 24.4219C7.44509 24.4219 8.83125 23.4254 9.40179 22.0112H15.4406V28.1183C15.4406 30.3362 17.2406 32.1362 19.4585 32.1362H35.6786C35.8554 32.1362 36 31.9915 36 31.8147V29.5647C36 29.3879 35.8554 29.2433 35.6786 29.2433H19.4585C18.8357 29.2433 18.3335 28.7411 18.3335 28.1183V22.0112H35.6786ZM15.5772 10.0259L22.508 15.4982C22.7612 15.7031 23.1429 15.5183 23.1429 15.1888V11.2433H33.75C33.9268 11.2433 34.0714 11.0987 34.0714 10.9219V8.51116C34.0714 8.33437 33.9268 8.18973 33.75 8.18973H23.1429V4.24419C23.1429 3.91875 22.7652 3.72991 22.508 3.93482L15.5772 9.40714C15.5311 9.44442 15.4939 9.49156 15.4683 9.54509C15.4427 9.59862 15.4295 9.65719 15.4295 9.71651C15.4295 9.77584 15.4427 9.83441 15.4683 9.88794C15.4939 9.94147 15.5311 9.9886 15.5772 10.0259Z" fill="black" fill-opacity="0.45"/>
</svg>
