<svg width="36" height="36" viewBox="0 0 36 36" fill="none" xmlns="http://www.w3.org/2000/svg">
<path d="M35.6786 22.0119C35.8554 22.0119 36 21.8672 36 21.6904V19.4404C36 19.2637 35.8554 19.119 35.6786 19.119H9.40179C9.11401 18.4065 8.61979 17.7962 7.9826 17.3667C7.34542 16.9371 6.59436 16.7078 5.82589 16.7083C3.69643 16.7083 1.96875 18.436 1.96875 20.5654C1.96875 22.6949 3.69643 24.4226 5.82589 24.4226C7.44509 24.4226 8.83125 23.4262 9.40179 22.0119H15.4406V28.119C15.4406 30.3369 17.2406 32.1369 19.4585 32.1369H35.6786C35.8554 32.1369 36 31.9922 36 31.8154V29.5654C36 29.3887 35.8554 29.244 35.6786 29.244H19.4585C18.8357 29.244 18.3335 28.7418 18.3335 28.119V22.0119H35.6786ZM15.75 11.244H26.3571V15.1896C26.3571 15.515 26.7388 15.7038 26.992 15.4989L33.9228 10.0266C34.1237 9.86991 34.1237 9.56857 33.9228 9.41187L26.992 3.93553C26.7348 3.73062 26.3571 3.91544 26.3571 4.24491V8.19044H15.75C15.5732 8.19044 15.4286 8.33508 15.4286 8.51187V10.9226C15.4286 11.0994 15.5732 11.244 15.75 11.244Z" fill="black" fill-opacity="0.45"/>
</svg>
