<svg width="36" height="36" viewBox="0 0 36 36" fill="none" xmlns="http://www.w3.org/2000/svg">
<path d="M31.319 27.0479C30.8208 24.0265 28.1368 21.8608 25.0792 22.0095C22.0217 22.1582 19.5627 24.5809 19.3659 27.6345C13.1984 27.4417 11.0087 25.9992 11.3663 23.0662C11.4989 21.9693 12.1618 21.3827 13.3792 21.0975C14.1185 20.9247 14.9382 20.9006 15.6815 20.9689C15.7498 20.9769 15.8221 20.9809 15.8904 20.989C16.3444 21.0975 16.8065 21.1899 17.2685 21.2622C18.6386 21.4872 20.0328 21.5997 21.3587 21.5274C25.0873 21.3265 27.6266 19.6832 27.7551 16.1957C27.8797 12.8167 25.5574 10.422 21.8127 8.81888C20.6114 8.3046 19.3377 7.90683 18.0641 7.60549C17.4895 7.46888 17.0074 7.37647 16.6498 7.31621C16.3324 4.26665 13.777 1.94031 10.7114 1.91621C7.64576 1.8921 5.05023 4.17022 4.68058 7.21576C4.31094 10.2613 6.28773 13.0939 9.26898 13.801C12.2502 14.5082 15.2917 12.8649 16.3284 9.98004C16.706 10.0483 17.0797 10.1247 17.4534 10.2131C18.5864 10.4783 19.7194 10.8318 20.7641 11.2818C23.6047 12.4952 25.1556 14.0983 25.0833 16.0992C25.019 17.8912 23.7333 18.7189 21.2181 18.8555C20.1132 18.9158 18.9038 18.8193 17.7105 18.6225C17.377 18.5662 17.0717 18.51 16.8025 18.4497C16.6458 18.4175 16.5373 18.3894 16.4891 18.3774L16.3645 18.3533C16.2761 18.3412 16.1275 18.3211 15.9346 18.301C14.9301 18.2086 13.8413 18.2408 12.7806 18.4858C10.5627 19.0042 9.00782 20.3823 8.71853 22.7367C8.08773 27.8073 11.8766 30.1577 19.8078 30.3265C20.977 33.155 24.0828 34.6617 27.0239 33.822C29.969 32.9823 31.8172 30.0693 31.319 27.0479ZM10.6511 11.2899C10.2116 11.2898 9.77634 11.2032 9.37026 11.035C8.96419 10.8668 8.59522 10.6202 8.28444 10.3094C7.97365 9.99856 7.72713 9.62957 7.55895 9.22348C7.39077 8.81738 7.30422 8.38213 7.30424 7.94259C7.30427 7.50305 7.39087 7.06781 7.5591 6.66173C7.72733 6.25566 7.9739 5.88669 8.28472 5.57591C8.59555 5.26512 8.96454 5.0186 9.37063 4.85042C9.77673 4.68224 10.212 4.59569 10.6515 4.59571C11.5392 4.59577 12.3905 4.94846 13.0182 5.57619C13.6459 6.20393 13.9984 7.05529 13.9984 7.94299C13.9983 8.83069 13.6457 9.68201 13.0179 10.3097C12.3902 10.9373 11.5388 11.2899 10.6511 11.2899ZM25.3766 31.3711C24.937 31.3711 24.5018 31.2845 24.0957 31.1163C23.6896 30.948 23.3207 30.7015 23.0099 30.3906C22.6991 30.0798 22.4526 29.7108 22.2844 29.3047C22.1162 28.8986 22.0297 28.4634 22.0297 28.0238C22.0297 27.5843 22.1163 27.1491 22.2845 26.743C22.4528 26.3369 22.6993 25.9679 23.0102 25.6572C23.321 25.3464 23.69 25.0999 24.0961 24.9317C24.5022 24.7635 24.9374 24.6769 25.377 24.677C26.2647 24.677 27.116 25.0297 27.7436 25.6574C28.3713 26.2852 28.7239 27.1365 28.7238 28.0242C28.7238 28.9119 28.3711 29.7633 27.7434 30.3909C27.1156 31.0186 26.2643 31.3712 25.3766 31.3711Z" fill="black" fill-opacity="0.45"/>
</svg>
