<svg width="24" height="24" viewBox="0 0 24 24" fill="none" xmlns="http://www.w3.org/2000/svg">
<path d="M12 4V2M12 4C16 4 19.5 6 20 8C20.242 8.97 20.703 9.964 22 11C20.683 11.157 20.032 10.916 19 10C18.68 11.033 18.209 11.452 17 12C15.662 11.423 15.129 10.977 14.5 10C13.862 10.942 13.31 11.379 12 12C10.651 11.427 10.095 10.995 9.5 10C8.954 10.902 8.452 11.353 7 12C5.982 11.356 5.54 10.92 5 10C3.972 10.71 3.31 10.918 2 11C3.081 9.952 3.757 8.97 4 8C4.5 6 8 4 12 4ZM5 10V14C5.00017 15.5569 5.51905 17.0693 6.47468 18.2984C7.4303 19.5275 8.7682 20.4031 10.277 20.787C10.689 20.891 11.079 21.079 11.379 21.379L12 22L12.621 21.379C12.921 21.079 13.311 20.891 13.723 20.787C15.2319 20.4033 16.5699 19.5277 17.5255 18.2986C18.4812 17.0694 19 15.5569 19 14V10" stroke="black" stroke-width="2" stroke-linecap="round" stroke-linejoin="round"/>
</svg>
