<svg width="36" height="36" viewBox="0 0 36 36" fill="none" xmlns="http://www.w3.org/2000/svg">
<path d="M10.1245 24.4238H12.5353C12.712 24.4238 12.8567 24.2792 12.8567 24.1024V11.8881C12.8567 11.7113 12.712 11.5667 12.5353 11.5667H10.1245C9.94776 11.5667 9.80312 11.7113 9.80312 11.8881V24.1024C9.80312 24.2792 9.94776 24.4238 10.1245 24.4238ZM17.9995 22.4149C18.8875 22.4149 19.6067 21.6957 19.6067 20.8479C19.6067 19.9198 18.8875 19.2006 17.9995 19.2006C17.1116 19.2006 16.3924 19.9198 16.3924 20.8479C16.3924 21.6957 17.1116 22.4149 17.9995 22.4149ZM17.9995 16.7899C18.8875 16.7899 19.6067 16.0707 19.6067 15.2229C19.6067 14.2948 18.8875 13.5756 17.9995 13.5756C17.1116 13.5756 16.3924 14.2948 16.3924 15.2229C16.3924 16.0707 17.1116 16.7899 17.9995 16.7899Z" fill="black" fill-opacity="0.45"/>
<path d="M32.7853 1.93359H3.21383C2.50267 1.93359 1.92812 2.50815 1.92812 3.21931V32.7907C1.92812 33.5019 2.50267 34.0765 3.21383 34.0765H32.7853C33.4964 34.0765 34.071 33.5019 34.071 32.7907V3.21931C34.071 2.50815 33.4964 1.93359 32.7853 1.93359ZM31.1781 31.1836H4.82097V4.82645H31.1781V31.1836Z" fill="black" fill-opacity="0.45"/>
<path d="M23.4641 24.4238H25.8749C26.0516 24.4238 26.1963 24.2792 26.1963 24.1024V11.8881C26.1963 11.7113 26.0516 11.5667 25.8749 11.5667H23.4641C23.2873 11.5667 23.1427 11.7113 23.1427 11.8881V24.1024C23.1427 24.2792 23.2873 24.4238 23.4641 24.4238Z" fill="black" fill-opacity="0.45"/>
</svg>
