<svg width="36" height="36" viewBox="0 0 36 36" fill="none" xmlns="http://www.w3.org/2000/svg">
<path d="M28.7389 5.33471C24.954 1.54989 18.7906 1.54989 15.0098 5.33471L4.52323 15.8133C4.45493 15.8816 4.41877 15.974 4.41877 16.0704C4.41877 16.1669 4.45493 16.2593 4.52323 16.3276L6.00582 17.8102C6.07359 17.8776 6.16533 17.9155 6.26096 17.9155C6.35659 17.9155 6.44832 17.8776 6.51609 17.8102L17.0027 7.33158C18.3045 6.0298 20.0362 5.31462 21.8764 5.31462C23.7165 5.31462 25.4482 6.0298 26.746 7.33158C28.0478 8.63337 28.763 10.3651 28.763 12.2012C28.763 14.0414 28.0478 15.7691 26.746 17.0709L16.0585 27.7544L14.3268 29.4861C12.7076 31.1052 10.0759 31.1052 8.45672 29.4861C7.67323 28.7026 7.24332 27.6619 7.24332 26.553C7.24332 25.4441 7.67323 24.4035 8.45672 23.62L19.0598 13.0209C19.329 12.7557 19.6826 12.607 20.0603 12.607H20.0643C20.442 12.607 20.7915 12.7557 21.0567 13.0209C21.3259 13.2901 21.4706 13.6436 21.4706 14.0213C21.4706 14.395 21.3219 14.7485 21.0567 15.0137L12.3902 23.6722C12.3219 23.7405 12.2857 23.8329 12.2857 23.9294C12.2857 24.0258 12.3219 24.1182 12.3902 24.1865L13.8728 25.6691C13.9406 25.7366 14.0323 25.7744 14.1279 25.7744C14.2236 25.7744 14.3153 25.7366 14.3831 25.6691L23.0456 17.0066C23.8451 16.207 24.2831 15.1463 24.2831 14.0173C24.2831 12.8883 23.8411 11.8235 23.0456 11.028C21.3942 9.37667 18.7103 9.38069 17.0589 11.028L16.0304 12.0606L6.45984 21.6271C5.81028 22.2729 5.29538 23.0412 4.94501 23.8874C4.59464 24.7337 4.41577 25.6411 4.41877 26.557C4.41877 28.4173 5.146 30.1651 6.45984 31.4789C7.82189 32.8369 9.60582 33.516 11.3898 33.516C13.1737 33.516 14.9576 32.8369 16.3156 31.4789L28.7389 19.0637C30.567 17.2316 31.5795 14.7927 31.5795 12.2012C31.5835 9.60569 30.571 7.16685 28.7389 5.33471Z" fill="black" fill-opacity="0.45"/>
</svg>
