<svg width="36" height="36" viewBox="0 0 36 36" fill="none" xmlns="http://www.w3.org/2000/svg">
<path d="M23.1676 14.6998H33.4975C33.8149 14.6998 34.072 14.4427 34.072 14.1253V3.79135C34.072 3.47394 33.8149 3.2168 33.4975 3.2168H23.1676C22.8502 3.2168 22.593 3.47394 22.593 3.79135V7.52394H17.1408C16.9841 7.52394 16.8555 7.65251 16.8555 7.80921V16.7088H13.4122V12.8315C13.4122 12.5141 13.1551 12.257 12.8377 12.257H2.50372C2.18631 12.257 1.92917 12.5141 1.92917 12.8315V23.1655C1.92917 23.4829 2.18631 23.74 2.50372 23.74H12.8336C13.151 23.74 13.4082 23.4829 13.4082 23.1655V19.2882H16.8515V28.1878C16.8515 28.3445 16.9801 28.473 17.1368 28.473H22.589V32.2056C22.589 32.523 22.8461 32.7802 23.1635 32.7802H33.4935C33.8109 32.7802 34.068 32.523 34.068 32.2056V21.8797C34.068 21.5623 33.8109 21.3052 33.4935 21.3052H23.1676C22.8502 21.3052 22.593 21.5623 22.593 21.8797V25.8976H19.435V10.1074H22.593V14.1253C22.593 14.4427 22.8502 14.6998 23.1676 14.6998ZM25.3171 5.94492H31.3439V11.9757H25.3171V5.94492ZM10.6841 21.0159H4.65729V14.9891H10.6841V21.0159ZM25.3171 24.0333H31.3439V30.0641H25.3171V24.0333Z" fill="black" fill-opacity="0.45"/>
</svg>
