<svg width="36" height="36" viewBox="0 0 36 36" fill="none" xmlns="http://www.w3.org/2000/svg">
<g clip-path="url(#clip0_636_5688)">
<path d="M18 0C8.05982 0 0 8.05982 0 18C0 27.9402 8.05982 36 18 36C27.9402 36 36 27.9402 36 18C36 8.05982 27.9402 0 18 0ZM18 32.9464C9.74732 32.9464 3.05357 26.2527 3.05357 18C3.05357 9.74732 9.74732 3.05357 18 3.05357C26.2527 3.05357 32.9464 9.74732 32.9464 18C32.9464 26.2527 26.2527 32.9464 18 32.9464ZM24.4125 9.44196H22.0219C21.9013 9.44196 21.7888 9.51027 21.7366 9.61875L18.0964 16.8509H17.9598L14.3196 9.61875C14.293 9.56586 14.2523 9.52137 14.2019 9.49017C14.1516 9.45897 14.0936 9.44229 14.0344 9.44196H11.5955C11.5433 9.44196 11.4911 9.45402 11.4429 9.48214C11.2862 9.56652 11.2299 9.76339 11.3143 9.92009L15.7902 18.1487H13.3232C13.1464 18.1487 13.0018 18.2933 13.0018 18.4701V19.6714C13.0018 19.8482 13.1464 19.9929 13.3232 19.9929H16.6058V21.6562H13.3232C13.1464 21.6562 13.0018 21.8009 13.0018 21.9777V23.179C13.0018 23.3558 13.1464 23.5004 13.3232 23.5004H16.6058V26.2366C16.6058 26.4134 16.7504 26.558 16.9272 26.558H19.1089C19.2857 26.558 19.4304 26.4134 19.4304 26.2366V23.5004H22.725C22.9018 23.5004 23.0464 23.3558 23.0464 23.179V21.9777C23.0464 21.8009 22.9018 21.6562 22.725 21.6562H19.4304V19.9888H22.725C22.9018 19.9888 23.0464 19.8442 23.0464 19.6674V18.4661C23.0464 18.2893 22.9018 18.1446 22.725 18.1446H20.2339L24.6978 9.91607C24.7219 9.86786 24.7379 9.81563 24.7379 9.76339C24.7339 9.58661 24.5893 9.44196 24.4125 9.44196Z" fill="black" fill-opacity="0.45"/>
</g>
<defs>
<clipPath id="clip0_636_5688">
<rect width="36" height="36" fill="white"/>
</clipPath>
</defs>
</svg>
