<svg width="36" height="36" viewBox="0 0 36 36" fill="none" xmlns="http://www.w3.org/2000/svg">
<path d="M31.8106 5.89068L30.107 4.18711C30.0466 4.12729 29.965 4.09373 29.88 4.09373C29.795 4.09373 29.7134 4.12729 29.653 4.18711L4.19182 29.6402C4.132 29.7006 4.09844 29.7822 4.09844 29.8672C4.09844 29.9523 4.132 30.0338 4.19182 30.0943L5.89539 31.7978C6.01994 31.9224 6.22486 31.9224 6.34941 31.7978L31.8066 6.34068C31.9351 6.22015 31.9351 6.01523 31.8106 5.89068ZM9.64405 15.421C12.8342 15.421 15.4298 12.8255 15.4298 9.63532C15.4298 6.44515 12.8342 3.84961 9.64405 3.84961C6.45387 3.84961 3.85834 6.44515 3.85834 9.63532C3.85834 12.8255 6.45387 15.421 9.64405 15.421ZM9.64405 6.74247C11.2391 6.74247 12.5369 8.04023 12.5369 9.63532C12.5369 11.2304 11.2391 12.5282 9.64405 12.5282C8.04896 12.5282 6.75119 11.2304 6.75119 9.63532C6.75119 8.04023 8.04896 6.74247 9.64405 6.74247ZM26.3583 20.5639C23.1682 20.5639 20.5726 23.1594 20.5726 26.3496C20.5726 29.5398 23.1682 32.1353 26.3583 32.1353C29.5485 32.1353 32.1441 29.5398 32.1441 26.3496C32.1441 23.1594 29.5485 20.5639 26.3583 20.5639ZM26.3583 29.2425C24.7633 29.2425 23.4655 27.9447 23.4655 26.3496C23.4655 24.7545 24.7633 23.4568 26.3583 23.4568C27.9534 23.4568 29.2512 24.7545 29.2512 26.3496C29.2512 27.9447 27.9534 29.2425 26.3583 29.2425Z" fill="black" fill-opacity="0.45"/>
</svg>
