<svg width="36" height="36" viewBox="0 0 36 36" fill="none" xmlns="http://www.w3.org/2000/svg">
<path d="M35.6786 29.2513H0.321429C0.144643 29.2513 0 29.3959 0 29.5727V31.8227C0 31.9995 0.144643 32.1441 0.321429 32.1441H35.6786C35.8554 32.1441 36 31.9995 36 31.8227V29.5727C36 29.3959 35.8554 29.2513 35.6786 29.2513ZM35.6786 3.8584H0.321429C0.144643 3.8584 0 4.00304 0 4.17983V6.42983C0 6.60661 0.144643 6.75126 0.321429 6.75126H35.6786C35.8554 6.75126 36 6.60661 36 6.42983V4.17983C36 4.00304 35.8554 3.8584 35.6786 3.8584ZM31.5 23.9477C31.8536 23.9477 32.1429 23.6584 32.1429 23.3048V12.6977C32.1429 12.3441 31.8536 12.0548 31.5 12.0548H4.5C4.14643 12.0548 3.85714 12.3441 3.85714 12.6977V23.3048C3.85714 23.6584 4.14643 23.9477 4.5 23.9477H31.5ZM6.75 14.9477H29.25V21.0548H6.75V14.9477Z" fill="black" fill-opacity="0.45"/>
</svg>
