<svg width="36" height="36" viewBox="0 0 36 36" fill="none" xmlns="http://www.w3.org/2000/svg">
<path d="M35.6786 29.2513H0.321429C0.144643 29.2513 0 29.3959 0 29.5727V31.8227C0 31.9995 0.144643 32.1441 0.321429 32.1441H35.6786C35.8554 32.1441 36 31.9995 36 31.8227V29.5727C36 29.3959 35.8554 29.2513 35.6786 29.2513ZM35.6786 3.8584H0.321429C0.144643 3.8584 0 4.00304 0 4.17983V6.42983C0 6.60661 0.144643 6.75126 0.321429 6.75126H35.6786C35.8554 6.75126 36 6.60661 36 6.42983V4.17983C36 4.00304 35.8554 3.8584 35.6786 3.8584ZM21.8571 23.9477C22.2107 23.9477 22.5 23.6584 22.5 23.3048V12.6977C22.5 12.3441 22.2107 12.0548 21.8571 12.0548H1.28571C0.932143 12.0548 0.642857 12.3441 0.642857 12.6977V23.3048C0.642857 23.6584 0.932143 23.9477 1.28571 23.9477H21.8571ZM3.53571 14.9477H19.6071V21.0548H3.53571V14.9477ZM25.7143 23.3852C25.7143 23.562 25.8589 23.7066 26.0357 23.7066H35.0357C35.2125 23.7066 35.3571 23.562 35.3571 23.3852V21.1352C35.3571 20.9584 35.2125 20.8138 35.0357 20.8138H26.0357C25.8589 20.8138 25.7143 20.9584 25.7143 21.1352V23.3852ZM26.0357 15.1888H35.0357C35.2125 15.1888 35.3571 15.0441 35.3571 14.8673V12.6173C35.3571 12.4405 35.2125 12.2959 35.0357 12.2959H26.0357C25.8589 12.2959 25.7143 12.4405 25.7143 12.6173V14.8673C25.7143 15.0441 25.8589 15.1888 26.0357 15.1888Z" fill="black" fill-opacity="0.45"/>
</svg>
