<svg width="36" height="36" viewBox="0 0 36 36" fill="none" xmlns="http://www.w3.org/2000/svg">
<path d="M35.6786 29.2513H0.321429C0.144643 29.2513 0 29.3959 0 29.5727V31.8227C0 31.9995 0.144643 32.1441 0.321429 32.1441H35.6786C35.8554 32.1441 36 31.9995 36 31.8227V29.5727C36 29.3959 35.8554 29.2513 35.6786 29.2513ZM35.6786 3.8584H0.321429C0.144643 3.8584 0 4.00304 0 4.17983V6.42983C0 6.60661 0.144643 6.75126 0.321429 6.75126H35.6786C35.8554 6.75126 36 6.60661 36 6.42983V4.17983C36 4.00304 35.8554 3.8584 35.6786 3.8584ZM34.7143 23.9477C35.0679 23.9477 35.3571 23.6584 35.3571 23.3048V12.6977C35.3571 12.3441 35.0679 12.0548 34.7143 12.0548H14.1429C13.7893 12.0548 13.5 12.3441 13.5 12.6977V23.3048C13.5 23.6584 13.7893 23.9477 14.1429 23.9477H34.7143ZM16.3929 14.9477H32.4643V21.0548H16.3929V14.9477ZM0.642857 23.3852C0.642857 23.562 0.7875 23.7066 0.964286 23.7066H9.96429C10.1411 23.7066 10.2857 23.562 10.2857 23.3852V21.1352C10.2857 20.9584 10.1411 20.8138 9.96429 20.8138H0.964286C0.7875 20.8138 0.642857 20.9584 0.642857 21.1352V23.3852ZM0.964286 15.1888H9.96429C10.1411 15.1888 10.2857 15.0441 10.2857 14.8673V12.6173C10.2857 12.4405 10.1411 12.2959 9.96429 12.2959H0.964286C0.7875 12.2959 0.642857 12.4405 0.642857 12.6173V14.8673C0.642857 15.0441 0.7875 15.1888 0.964286 15.1888Z" fill="black" fill-opacity="0.45"/>
</svg>
