<svg width="36" height="36" viewBox="0 0 36 36" fill="none" xmlns="http://www.w3.org/2000/svg">
<path d="M34.7143 3.84961H1.28571C0.574554 3.84961 0 4.42416 0 5.13532V30.8496C0 31.5608 0.574554 32.1353 1.28571 32.1353H34.7143C35.4254 32.1353 36 31.5608 36 30.8496V5.13532C36 4.42416 35.4254 3.84961 34.7143 3.84961ZM33.1071 29.2425H2.89286V27.6393L8.45759 21.038L14.4884 28.1898L23.8701 17.0684L33.1071 28.021V29.2425ZM33.1071 24.0273L24.1152 13.3639C23.9866 13.2112 23.7536 13.2112 23.625 13.3639L14.4884 24.196L8.70268 17.3376C8.57411 17.1849 8.34107 17.1849 8.2125 17.3376L2.89286 23.6456V6.74247H33.1071V24.0273ZM9.64286 15.7425C10.1072 15.7425 10.5669 15.651 10.9959 15.4733C11.4249 15.2956 11.8147 15.0352 12.143 14.7069C12.4713 14.3786 12.7317 13.9888 12.9094 13.5598C13.0871 13.1308 13.1786 12.6711 13.1786 12.2068C13.1786 11.7424 13.0871 11.2827 12.9094 10.8537C12.7317 10.4247 12.4713 10.0349 12.143 9.70662C11.8147 9.3783 11.4249 9.11787 10.9959 8.94018C10.5669 8.76249 10.1072 8.67104 9.64286 8.67104C8.70513 8.67104 7.8058 9.04355 7.14273 9.70662C6.47965 10.3697 6.10714 11.269 6.10714 12.2068C6.10714 13.1445 6.47965 14.0438 7.14273 14.7069C7.8058 15.37 8.70513 15.7425 9.64286 15.7425ZM9.64286 11.0818C10.2656 11.0818 10.7679 11.584 10.7679 12.2068C10.7679 12.8295 10.2656 13.3318 9.64286 13.3318C9.02009 13.3318 8.51786 12.8295 8.51786 12.2068C8.51786 11.584 9.02009 11.0818 9.64286 11.0818Z" fill="black" fill-opacity="0.45"/>
</svg>
