<svg width="36" height="36" viewBox="0 0 36 36" fill="none" xmlns="http://www.w3.org/2000/svg">
<g clip-path="url(#clip0_636_5507)">
<path d="M32.1423 18.2373H17.7584V3.85334C17.7584 3.67656 17.6137 3.53191 17.4369 3.53191H16.3923C14.2817 3.52846 12.1913 3.94236 10.2412 4.74981C8.29122 5.55727 6.5201 6.74233 5.02978 8.23682C3.5621 9.69997 2.39266 11.4343 1.58648 13.3435C0.747573 15.3237 0.317098 17.4528 0.320856 19.6033C0.3174 21.7139 0.731304 23.8044 1.53876 25.7544C2.34621 27.7044 3.53127 29.4755 5.02577 30.9658C6.50032 32.4404 8.21996 33.6016 10.1325 34.4091C12.1126 35.2481 14.2418 35.6785 16.3923 35.6748C18.5029 35.6782 20.5933 35.2643 22.5433 34.4569C24.4933 33.6494 26.2645 32.4644 27.7548 30.9699C29.2293 29.4953 30.3905 27.7757 31.1981 25.8632C32.037 23.883 32.4675 21.7539 32.4637 19.6033V18.5587C32.4637 18.3819 32.3191 18.2373 32.1423 18.2373ZM25.782 29.0774C24.5379 30.3119 23.0624 31.2887 21.4401 31.952C19.8178 32.6152 18.0806 32.9519 16.328 32.9426C12.7883 32.9266 9.46148 31.5404 6.95836 29.0373C4.43916 26.5181 3.053 23.1672 3.053 19.6033C3.053 16.0395 4.43916 12.6886 6.95836 10.1694C9.15211 7.97566 11.9767 6.63772 15.0262 6.33236V20.9694H29.6633C29.3539 24.035 28.0039 26.8757 25.782 29.0774ZM35.678 16.0033L35.5735 14.8703C35.232 11.1699 33.5887 7.67834 30.945 5.04263C28.2994 2.40208 24.815 0.767889 21.0932 0.422091L19.9561 0.317627C19.7673 0.301555 19.6066 0.446198 19.6066 0.635037V16.0676C19.6066 16.2444 19.7512 16.3891 19.928 16.3891L35.3566 16.3489C35.5454 16.3489 35.6941 16.1882 35.678 16.0033ZM22.3307 13.6649V3.35513C24.8617 3.88487 27.1843 5.13832 29.0164 6.96316C30.8526 8.79531 32.1101 11.1257 32.6325 13.6368L22.3307 13.6649Z" fill="black" fill-opacity="0.45"/>
</g>
<defs>
<clipPath id="clip0_636_5507">
<rect width="36" height="36" fill="white"/>
</clipPath>
</defs>
</svg>
