<svg width="36" height="36" viewBox="0 0 36 36" fill="none" xmlns="http://www.w3.org/2000/svg">
<path d="M15.1998 24.6551L23.2115 18.3592C23.265 18.3166 23.3083 18.2626 23.338 18.201C23.3677 18.1394 23.3832 18.072 23.3832 18.0036C23.3832 17.9352 23.3677 17.8677 23.338 17.8061C23.3083 17.7446 23.265 17.6905 23.2115 17.648L15.1998 11.348C14.9025 11.115 14.4646 11.3239 14.4646 11.7016V24.2976C14.4646 24.6752 14.9025 24.8882 15.1998 24.6551Z" fill="black" fill-opacity="0.45"/>
<path d="M32.7863 1.93359H3.21488C2.50372 1.93359 1.92917 2.50815 1.92917 3.21931V32.7907C1.92917 33.5019 2.50372 34.0765 3.21488 34.0765H32.7863C33.4975 34.0765 34.072 33.5019 34.072 32.7907V3.21931C34.072 2.50815 33.4975 1.93359 32.7863 1.93359ZM31.1792 31.1836H4.82203V4.82645H31.1792V31.1836Z" fill="black" fill-opacity="0.45"/>
</svg>
