<svg width="36" height="36" viewBox="0 0 36 36" fill="none" xmlns="http://www.w3.org/2000/svg">
<g clip-path="url(#clip0_636_5683)">
<path d="M18 0C8.05982 0 0 8.05982 0 18C0 27.9402 8.05982 36 18 36C27.9402 36 36 27.9402 36 18C36 8.05982 27.9402 0 18 0ZM18 32.9464C9.74732 32.9464 3.05357 26.2527 3.05357 18C3.05357 9.74732 9.74732 3.05357 18 3.05357C26.2527 3.05357 32.9464 9.74732 32.9464 18C32.9464 26.2527 26.2527 32.9464 18 32.9464ZM23.5446 24.517H16.3045V24.3281C17.4054 23.6371 18.0683 22.3031 18.0683 20.6679C18.0683 20.1013 17.9799 19.5469 17.8554 19.0205H21.817C21.9937 19.0205 22.1384 18.8759 22.1384 18.6991V17.4937C22.1384 17.317 21.9937 17.1723 21.817 17.1723H17.317C17.0277 16.2643 16.7786 15.3362 16.7786 14.3397C16.7786 12.592 18.1446 11.5192 20.2862 11.5192C21.15 11.5192 21.9937 11.6839 22.7129 11.9411C22.9219 12.0174 23.1388 11.8607 23.1388 11.6357V10.0487C23.1388 9.91607 23.0545 9.79554 22.9299 9.74732C22.1746 9.45804 21.1701 9.23705 20.1054 9.23705C16.3728 9.23705 14.0183 11.025 14.0183 14.0705C14.0183 15.1272 14.2955 16.1598 14.6049 17.1683H12.4554C12.2786 17.1683 12.1339 17.3129 12.1339 17.4897V18.6951C12.1339 18.8719 12.2786 19.0165 12.4554 19.0165H15.1513C15.2879 19.6071 15.3884 20.1978 15.3884 20.7924C15.3884 22.6085 14.2313 24.1393 12.4634 24.5772C12.3188 24.6134 12.2183 24.742 12.2183 24.8906V26.4375C12.2183 26.6143 12.3629 26.7589 12.5397 26.7589H23.5446C23.7214 26.7589 23.8661 26.6143 23.8661 26.4375V24.8384C23.8661 24.6616 23.7214 24.517 23.5446 24.517Z" fill="black" fill-opacity="0.45"/>
</g>
<defs>
<clipPath id="clip0_636_5683">
<rect width="36" height="36" fill="white"/>
</clipPath>
</defs>
</svg>
