<svg width="36" height="36" viewBox="0 0 36 36" fill="none" xmlns="http://www.w3.org/2000/svg">
<g clip-path="url(#clip0_636_5681)">
<path d="M25.7785 2.45441C25.7293 2.42963 25.6746 2.4179 25.6196 2.42034C25.5646 2.42278 25.5111 2.43931 25.4643 2.46835C25.4176 2.49739 25.379 2.53796 25.3524 2.58618C25.3258 2.63439 25.3121 2.68863 25.3124 2.74369V5.32316C25.3124 5.54414 25.429 5.74905 25.6138 5.86959C26.5198 6.43987 27.3582 7.11113 28.1129 7.87048C29.4267 9.18834 30.4593 10.7191 31.1785 12.4227C31.9223 14.1863 32.3035 16.0815 32.2995 17.9955C32.2995 19.9281 31.9218 21.8044 31.1785 23.5683C30.4601 25.2694 29.4191 26.8152 28.1129 28.1205C26.811 29.43 25.2661 30.4727 23.5647 31.1901C21.8048 31.9374 19.9285 32.3151 17.9999 32.3151C16.0714 32.3151 14.195 31.9374 12.4352 31.1901C10.7338 30.4727 9.18883 29.43 7.88699 28.1205C6.58079 26.8152 5.53975 25.2694 4.82137 23.5683C4.07759 21.8047 3.69636 19.9095 3.70039 17.9955C3.70039 16.0629 4.07806 14.1866 4.82137 12.4227C5.54056 10.7191 6.57315 9.18834 7.88699 7.87048C8.65038 7.10709 9.4861 6.44012 10.3861 5.86959C10.5749 5.75307 10.6874 5.54414 10.6874 5.32316V2.73968C10.6874 2.49861 10.4343 2.34593 10.2214 2.45039C4.60039 5.27896 0.723153 11.0687 0.642796 17.7785C0.530296 27.3732 8.37717 35.3446 17.9678 35.3647C27.5705 35.3848 35.3571 27.5982 35.3571 17.9915C35.3571 11.1932 31.4598 5.30709 25.7785 2.45441ZM16.7142 19.9361H19.2857C19.4624 19.9361 19.6071 19.7915 19.6071 19.6147V0.971819C19.6071 0.795033 19.4624 0.650391 19.2857 0.650391H16.7142C16.5374 0.650391 16.3928 0.795033 16.3928 0.971819V19.6147C16.3928 19.7915 16.5374 19.9361 16.7142 19.9361Z" fill="black" fill-opacity="0.45"/>
</g>
<defs>
<clipPath id="clip0_636_5681">
<rect width="36" height="36" fill="white"/>
</clipPath>
</defs>
</svg>
