<svg width="36" height="36" viewBox="0 0 36 36" fill="none" xmlns="http://www.w3.org/2000/svg">
<path d="M30.375 14.9515H28.7679C28.5911 14.9515 28.4464 15.0961 28.4464 15.2729V16.88C28.4464 17.0568 28.5911 17.2015 28.7679 17.2015H30.375C30.5518 17.2015 30.6964 17.0568 30.6964 16.88V15.2729C30.6964 15.0961 30.5518 14.9515 30.375 14.9515ZM31.6607 10.7729H26.8393V2.25502C26.8393 2.07824 26.6946 1.93359 26.5179 1.93359H9.48214C9.30536 1.93359 9.16072 2.07824 9.16072 2.25502V10.7729H4.33929C2.56339 10.7729 1.125 12.2113 1.125 13.9872V27.1657C1.125 27.8769 1.69955 28.4515 2.41071 28.4515H9.16072V33.755C9.16072 33.9318 9.30536 34.0765 9.48214 34.0765H26.5179C26.6946 34.0765 26.8393 33.9318 26.8393 33.755V28.4515H33.5893C34.3004 28.4515 34.875 27.8769 34.875 27.1657V13.9872C34.875 12.2113 33.4366 10.7729 31.6607 10.7729ZM11.8929 4.66574H24.1071V10.7729H11.8929V4.66574ZM24.1071 31.3443H11.8929V20.255H24.1071V31.3443ZM32.1429 25.7193H26.8393V17.5229H9.16072V25.7193H3.85714V13.9872C3.85714 13.722 4.07411 13.505 4.33929 13.505H31.6607C31.9259 13.505 32.1429 13.722 32.1429 13.9872V25.7193Z" fill="black" fill-opacity="0.45"/>
</svg>
