<svg width="36" height="36" viewBox="0 0 36 36" fill="none" xmlns="http://www.w3.org/2000/svg">
<path d="M8.67917 27.6479H11.8935C12.0702 27.6479 12.2149 27.5032 12.2149 27.3265V8.68359C12.2149 8.50681 12.0702 8.36217 11.8935 8.36217H8.67917C8.50238 8.36217 8.35774 8.50681 8.35774 8.68359V27.3265C8.35774 27.5032 8.50238 27.6479 8.67917 27.6479ZM16.3935 16.3979H19.6077C19.7845 16.3979 19.9292 16.2532 19.9292 16.0765V8.68359C19.9292 8.50681 19.7845 8.36217 19.6077 8.36217H16.3935C16.2167 8.36217 16.072 8.50681 16.072 8.68359V16.0765C16.072 16.2532 16.2167 16.3979 16.3935 16.3979ZM24.1077 19.2907H27.322C27.4988 19.2907 27.6435 19.1461 27.6435 18.9693V8.68359C27.6435 8.50681 27.4988 8.36217 27.322 8.36217H24.1077C23.931 8.36217 23.7863 8.50681 23.7863 8.68359V18.9693C23.7863 19.1461 23.931 19.2907 24.1077 19.2907ZM32.7863 1.93359H3.21488C2.50372 1.93359 1.92917 2.50815 1.92917 3.21931V32.7907C1.92917 33.5019 2.50372 34.0765 3.21488 34.0765H32.7863C33.4975 34.0765 34.072 33.5019 34.072 32.7907V3.21931C34.072 2.50815 33.4975 1.93359 32.7863 1.93359ZM31.1792 31.1836H4.82203V4.82645H31.1792V31.1836Z" fill="black" fill-opacity="0.45"/>
</svg>
