<svg width="36" height="36" viewBox="0 0 36 36" fill="none" xmlns="http://www.w3.org/2000/svg">
<g clip-path="url(#clip0_636_5677)">
<path d="M32.2588 4.26244L18.6061 -0.390234C18.4414 -0.446484 18.2204 -0.474609 17.9994 -0.474609C17.7784 -0.474609 17.5574 -0.446484 17.3927 -0.390234L3.74003 4.26244C3.40655 4.37494 3.13333 4.76066 3.13333 5.11423V24.4964C3.13333 24.8499 3.36235 25.316 3.63958 25.537L17.4891 36.329C17.6298 36.4374 17.8106 36.4937 17.9954 36.4937C18.1802 36.4937 18.365 36.4374 18.5016 36.329L32.3512 25.537C32.6284 25.32 32.8574 24.854 32.8574 24.4964V5.11423C32.8655 4.76066 32.5923 4.37896 32.2588 4.26244ZM29.9726 23.7249L17.9994 33.0544L6.02619 23.7249V6.54459L17.9994 2.46244L29.9726 6.54459V23.7249ZM14.7248 10.2129H12.8766C12.8083 10.2129 12.744 10.229 12.6838 10.2611C12.5906 10.3128 12.5215 10.3991 12.4915 10.5014C12.4614 10.6036 12.4727 10.7136 12.5231 10.8075L16.0588 17.2803H14.2427C14.0217 17.2803 13.8409 17.4611 13.8409 17.6821V18.5379C13.8409 18.7589 14.0217 18.9397 14.2427 18.9397H16.778V20.133H14.2427C14.0217 20.133 13.8409 20.3138 13.8409 20.5348V21.3906C13.8409 21.6116 14.0217 21.7924 14.2427 21.7924H16.778V23.8736C16.778 24.0946 16.9588 24.2754 17.1798 24.2754H18.8391C19.0601 24.2754 19.2409 24.0946 19.2409 23.8736V21.7924H21.7882C22.0092 21.7924 22.19 21.6116 22.19 21.3906V20.5348C22.19 20.3138 22.0092 20.133 21.7882 20.133H19.2409V18.9397H21.7882C22.0092 18.9397 22.19 18.7589 22.19 18.5379V17.6821C22.19 17.4611 22.0092 17.2803 21.7882 17.2803H19.9521L23.4757 10.8075C23.5086 10.7462 23.5251 10.6774 23.5236 10.6078C23.5221 10.5382 23.5026 10.4701 23.467 10.4103C23.4314 10.3505 23.3809 10.3008 23.3205 10.2663C23.2601 10.2317 23.1918 10.2133 23.1222 10.2129H21.3141C21.1615 10.2129 21.0248 10.2973 20.9565 10.4339L18.0155 16.2316L15.0865 10.4339C15.0182 10.2973 14.8775 10.2129 14.7248 10.2129Z" fill="black" fill-opacity="0.45"/>
</g>
<defs>
<clipPath id="clip0_636_5677">
<rect width="36" height="36" fill="white"/>
</clipPath>
</defs>
</svg>
