<svg width="36" height="36" viewBox="0 0 36 36" fill="none" xmlns="http://www.w3.org/2000/svg">
<path d="M29.0883 25.7871V5.13935C29.0883 4.78577 28.7991 4.49649 28.4455 4.49649H21.6151V1.7322C21.6151 1.49113 21.3339 1.35453 21.145 1.50319L16.0183 5.55319C15.9836 5.57999 15.9555 5.61439 15.9362 5.65374C15.9168 5.69309 15.9068 5.73635 15.9068 5.78019C15.9068 5.82404 15.9168 5.86729 15.9362 5.90665C15.9555 5.946 15.9836 5.9804 16.0183 6.0072L21.141 10.0572C21.3299 10.2059 21.6111 10.0733 21.6111 9.82819V7.06792H26.1915V25.7871C24.4156 26.3898 23.1379 28.0733 23.1379 30.0501C23.1379 32.5331 25.1549 34.5501 27.6379 34.5501C30.1209 34.5501 32.1379 32.5331 32.1379 30.0501C32.1419 28.0733 30.8642 26.3938 29.0883 25.7871ZM27.6419 31.9786C27.1372 31.9683 26.6567 31.7606 26.3034 31.4001C25.9502 31.0395 25.7523 30.5548 25.7523 30.0501C25.7523 29.5453 25.9502 29.0606 26.3034 28.7001C26.6567 28.3395 27.1372 28.1318 27.6419 28.1215C28.1466 28.1318 28.6271 28.3395 28.9804 28.7001C29.3337 29.0606 29.5315 29.5453 29.5315 30.0501C29.5315 30.5548 29.3337 31.0395 28.9804 31.4001C28.6271 31.7606 28.1466 31.9683 27.6419 31.9786ZM12.8562 5.94292C12.8562 3.45988 10.8392 1.44292 8.3562 1.44292C5.87317 1.44292 3.8562 3.45988 3.8562 5.94292C3.8562 7.9197 5.13388 9.59917 6.90977 10.2059V25.7911C5.13388 26.3938 3.8562 28.0773 3.8562 30.0541C3.8562 32.5371 5.87317 34.5541 8.3562 34.5541C10.8392 34.5541 12.8562 32.5371 12.8562 30.0541C12.8562 28.0773 11.5785 26.3978 9.80263 25.7911V10.2059C11.5785 9.59917 12.8562 7.9197 12.8562 5.94292ZM6.42763 5.94292C6.43793 5.43825 6.64565 4.95772 7.0062 4.60445C7.36676 4.25118 7.85142 4.05331 8.3562 4.05331C8.86098 4.05331 9.34564 4.25118 9.7062 4.60445C10.0668 4.95772 10.2745 5.43825 10.2848 5.94292C10.2745 6.44759 10.0668 6.92812 9.7062 7.28139C9.34564 7.63466 8.86098 7.83252 8.3562 7.83252C7.85142 7.83252 7.36676 7.63466 7.0062 7.28139C6.64565 6.92812 6.43793 6.44759 6.42763 5.94292ZM10.2848 30.0501C10.2745 30.5547 10.0668 31.0353 9.7062 31.3885C9.34564 31.7418 8.86098 31.9397 8.3562 31.9397C7.85142 31.9397 7.36676 31.7418 7.0062 31.3885C6.64565 31.0353 6.43793 30.5547 6.42763 30.0501C6.43793 29.5454 6.64565 29.0649 7.0062 28.7116C7.36676 28.3583 7.85142 28.1605 8.3562 28.1605C8.86098 28.1605 9.34564 28.3583 9.7062 28.7116C10.0668 29.0649 10.2745 29.5454 10.2848 30.0501Z" fill="black" fill-opacity="0.45"/>
</svg>
