<svg width="36" height="36" viewBox="0 0 36 36" fill="none" xmlns="http://www.w3.org/2000/svg">
<path d="M32.7194 13.1901L22.8194 3.29012C22.5583 3.02896 22.2167 2.90039 21.8752 2.90039C21.5337 2.90039 21.1922 3.02896 20.931 3.29012L14.4583 9.76691C13.9681 9.71066 13.4739 9.68655 12.9797 9.68655C10.0386 9.68655 7.09754 10.6549 4.68281 12.5915C4.53658 12.7089 4.41673 12.8558 4.33106 13.0226C4.24539 13.1894 4.19583 13.3724 4.18559 13.5597C4.17536 13.7469 4.20468 13.9342 4.27166 14.1094C4.33864 14.2845 4.44177 14.4436 4.57433 14.5763L11.8748 21.8767L3.22031 30.5232C3.11426 30.6286 3.04881 30.768 3.03549 30.9169L2.89888 32.4116C2.86272 32.7892 3.16406 33.1107 3.53772 33.1107C3.55781 33.1107 3.5779 33.1107 3.59799 33.1066L5.09263 32.97C5.24129 32.958 5.38192 32.8897 5.48638 32.7852L14.1408 24.1308L21.4413 31.4312C21.7025 31.6924 22.044 31.8209 22.3855 31.8209C22.7752 31.8209 23.1609 31.6522 23.4261 31.3227C25.6882 28.4982 26.6283 24.9624 26.2467 21.5432L32.7194 15.0705C33.2377 14.5562 33.2377 13.7124 32.7194 13.1901ZM24.1975 19.5062L23.2132 20.4906L23.3658 21.8727C23.6053 24.0105 23.1787 26.17 22.1444 28.0562L7.95737 13.8611C8.47567 13.5758 9.01406 13.3348 9.57656 13.1419C10.6694 12.7642 11.8145 12.5754 12.9797 12.5754C13.3654 12.5754 13.7551 12.5955 14.1408 12.6397L15.523 12.7924L16.5074 11.808L21.8792 6.43611L29.5734 14.1303L24.1975 19.5062Z" fill="black" fill-opacity="0.45"/>
</svg>
