<svg width="36" height="36" viewBox="0 0 36 36" fill="none" xmlns="http://www.w3.org/2000/svg">
<path d="M16.2315 2.56641H3.85652C3.14535 2.56641 2.5708 3.14096 2.5708 3.85212V16.2271C2.5708 16.4039 2.71544 16.5486 2.89223 16.5486H16.2315C16.4083 16.5486 16.5529 16.4039 16.5529 16.2271V2.88783C16.5529 2.71105 16.4083 2.56641 16.2315 2.56641ZM13.9815 13.9771H5.14223V5.13784H13.9815V13.9771ZM8.43687 11.0039H10.6869C10.8637 11.0039 11.0083 10.8593 11.0083 10.6825V8.43248C11.0083 8.25569 10.8637 8.11105 10.6869 8.11105H8.43687C8.26009 8.11105 8.11544 8.25569 8.11544 8.43248V10.6825C8.11544 10.8593 8.26009 11.0039 8.43687 11.0039ZM16.2315 19.4414H2.89223C2.71544 19.4414 2.5708 19.5861 2.5708 19.7628V32.1378C2.5708 32.849 3.14535 33.4236 3.85652 33.4236H16.2315C16.4083 33.4236 16.5529 33.2789 16.5529 33.1021V19.7628C16.5529 19.5861 16.4083 19.4414 16.2315 19.4414ZM13.9815 30.8521H5.14223V22.0128H13.9815V30.8521ZM8.43687 27.8789H10.6869C10.8637 27.8789 11.0083 27.7343 11.0083 27.5575V25.3075C11.0083 25.1307 10.8637 24.9861 10.6869 24.9861H8.43687C8.26009 24.9861 8.11544 25.1307 8.11544 25.3075V27.5575C8.11544 27.7343 8.26009 27.8789 8.43687 27.8789ZM32.1422 2.56641H19.7672C19.5904 2.56641 19.4458 2.71105 19.4458 2.88783V16.2271C19.4458 16.4039 19.5904 16.5486 19.7672 16.5486H33.1065C33.2833 16.5486 33.4279 16.4039 33.4279 16.2271V3.85212C33.4279 3.14096 32.8534 2.56641 32.1422 2.56641ZM30.8565 13.9771H22.0172V5.13784H30.8565V13.9771ZM25.3119 11.0039H27.5619C27.7387 11.0039 27.8833 10.8593 27.8833 10.6825V8.43248C27.8833 8.25569 27.7387 8.11105 27.5619 8.11105H25.3119C25.1351 8.11105 24.9904 8.25569 24.9904 8.43248V10.6825C24.9904 10.8593 25.1351 11.0039 25.3119 11.0039ZM33.1065 19.4414H31.1779C31.0012 19.4414 30.8565 19.5861 30.8565 19.7628V25.1468H27.7226V19.7628C27.7226 19.5861 27.5779 19.4414 27.4012 19.4414H19.7672C19.5904 19.4414 19.4458 19.5861 19.4458 19.7628V33.1021C19.4458 33.2789 19.5904 33.4236 19.7672 33.4236H21.6958C21.8726 33.4236 22.0172 33.2789 22.0172 33.1021V23.2986H25.1512V27.3968C25.1512 27.5736 25.2958 27.7182 25.4726 27.7182H33.1065C33.2833 27.7182 33.4279 27.5736 33.4279 27.3968V19.7628C33.4279 19.5861 33.2833 19.4414 33.1065 19.4414ZM27.4012 30.8521H25.4726C25.2958 30.8521 25.1512 30.9968 25.1512 31.1736V33.1021C25.1512 33.2789 25.2958 33.4236 25.4726 33.4236H27.4012C27.5779 33.4236 27.7226 33.2789 27.7226 33.1021V31.1736C27.7226 30.9968 27.5779 30.8521 27.4012 30.8521ZM33.1065 30.8521H31.1779C31.0012 30.8521 30.8565 30.9968 30.8565 31.1736V33.1021C30.8565 33.2789 31.0012 33.4236 31.1779 33.4236H33.1065C33.2833 33.4236 33.4279 33.2789 33.4279 33.1021V31.1736C33.4279 30.9968 33.2833 30.8521 33.1065 30.8521Z" fill="black" fill-opacity="0.45"/>
</svg>
