<svg width="36" height="36" viewBox="0 0 36 36" fill="none" xmlns="http://www.w3.org/2000/svg">
<path d="M34.6658 13.383L18.7551 1.81155C18.536 1.651 18.2714 1.56445 17.9998 1.56445C17.7281 1.56445 17.4635 1.651 17.2444 1.81155L1.3337 13.383C1.11398 13.5427 0.95052 13.768 0.866785 14.0264C0.78305 14.2848 0.783345 14.5631 0.867629 14.8214L6.94665 33.5446C7.03056 33.8025 7.19389 34.0273 7.41327 34.1868C7.63265 34.3463 7.89685 34.4323 8.16808 34.4325H27.8355C28.394 34.4325 28.8841 34.0749 29.0569 33.5446L35.1359 14.8214C35.3047 14.291 35.1158 13.7124 34.6658 13.383ZM31.1221 14.1825L27.1645 15.4682L19.1288 9.65441V5.45976L31.1221 14.1825ZM16.1516 20.2174L12.5716 25.1312L10.3538 18.333L16.1516 20.2174ZM11.4788 16.3281L16.8748 12.4267V18.0839L11.4788 16.3281ZM17.9998 21.5031L21.7725 26.6821H14.227L17.9998 21.5031ZM19.1288 12.4267L24.5208 16.3281L19.1288 18.0799V12.4267ZM19.848 20.2174L25.6458 18.333L23.4279 25.1312L19.848 20.2174ZM16.8748 5.45976V9.65441L8.83504 15.4682L4.87745 14.1825L16.8748 5.45976ZM4.23058 16.3441L7.70602 17.4732L10.9364 27.3732L8.77477 30.3424L4.23058 16.3441ZM10.5708 31.7004L12.5917 28.9281H23.4118L25.4328 31.7004H10.5708ZM27.2248 30.3424L25.0632 27.3732L28.2935 17.4732L31.769 16.3441L27.2248 30.3424Z" fill="black" fill-opacity="0.45"/>
</svg>
