<svg width="36" height="36" viewBox="0 0 36 36" fill="none" xmlns="http://www.w3.org/2000/svg">
<path d="M24.5899 20.1345C22.5488 20.1345 20.8935 21.7898 20.8935 23.8309C20.8935 25.872 22.5488 27.5273 24.5899 27.5273C26.631 27.5273 28.2863 25.872 28.2863 23.8309C28.2863 21.7898 26.631 20.1345 24.5899 20.1345ZM24.5899 25.197C23.8345 25.197 23.2238 24.5863 23.2238 23.8309C23.2238 23.0756 23.8345 22.4648 24.5899 22.4648C25.3452 22.4648 25.956 23.0756 25.956 23.8309C25.956 24.5863 25.3452 25.197 24.5899 25.197ZM32.7863 4.18359H24.2685C24.2685 2.94208 23.26 1.93359 22.0185 1.93359H18.8042C17.5627 1.93359 16.5542 2.94208 16.5542 4.18359H8.03631C7.32515 4.18359 6.7506 4.75815 6.7506 5.46931V13.505H3.21488C2.50372 13.505 1.92917 14.0796 1.92917 14.7907V32.7907C1.92917 33.5019 2.50372 34.0765 3.21488 34.0765H16.7149C17.426 34.0765 18.0006 33.5019 18.0006 32.7907V32.1479H32.7863C33.4975 32.1479 34.072 31.5733 34.072 30.8622V5.46931C34.072 4.75815 33.4975 4.18359 32.7863 4.18359ZM16.2327 6.75502H19.1256V4.50502H21.697V6.75502H24.5899V8.68359H16.2327V6.75502ZM15.4292 31.505H4.5006V22.1836H15.4292V31.505ZM15.4292 19.6122H4.5006V16.0765H15.4292V19.6122ZM31.1792 29.255H18.0006V14.7907C18.0006 14.0796 17.426 13.505 16.7149 13.505H9.64346V7.07645H13.6613V11.255H27.1613V7.07645H31.1792V29.255ZM25.7149 13.8265V17.6836C25.7149 17.8604 25.8595 18.005 26.0363 18.005H27.9649C28.1417 18.005 28.2863 17.8604 28.2863 17.6836V13.8265C28.2863 13.6497 28.1417 13.505 27.9649 13.505H26.0363C25.8595 13.505 25.7149 13.6497 25.7149 13.8265ZM21.2149 18.005H23.1435C23.3202 18.005 23.4649 17.8604 23.4649 17.6836V15.4336C23.4649 15.2568 23.3202 15.1122 23.1435 15.1122H21.2149C21.0381 15.1122 20.8935 15.2568 20.8935 15.4336V17.6836C20.8935 17.8604 21.0381 18.005 21.2149 18.005Z" fill="black" fill-opacity="0.45"/>
</svg>
