<svg width="36" height="36" viewBox="0 0 36 36" fill="none" xmlns="http://www.w3.org/2000/svg">
<path d="M15.1303 16.0152C15.1022 15.9595 15.0591 15.9127 15.0059 15.88C14.9527 15.8474 14.8914 15.8302 14.829 15.8304H12.8683C12.8161 15.8304 12.7638 15.8464 12.7116 15.8705C12.6725 15.8916 12.6379 15.9202 12.6099 15.9546C12.5819 15.989 12.5609 16.0287 12.5482 16.0712C12.5355 16.1138 12.5314 16.1584 12.536 16.2026C12.5406 16.2467 12.5538 16.2895 12.575 16.3286L16.0866 22.8013H14.2625C14.0777 22.8013 13.925 22.954 13.925 23.1388V24.1473C13.925 24.3321 14.0777 24.4848 14.2625 24.4848H16.7937V25.6339H14.2625C14.0777 25.6339 13.925 25.7866 13.925 25.9714V26.9799C13.925 27.1647 14.0777 27.3174 14.2625 27.3174H16.7937V29.3223C16.7937 29.5071 16.9464 29.6598 17.1312 29.6598H18.887C19.0719 29.6598 19.2245 29.5071 19.2245 29.3223V27.3174H21.7678C21.9567 27.3174 22.1053 27.1647 22.0973 26.9759V25.9714C22.0973 25.7866 21.9446 25.6339 21.7598 25.6339H19.2165V24.4848H21.7598C21.9446 24.4848 22.0973 24.3321 22.0973 24.1473V23.1388C22.0973 22.954 21.9446 22.8013 21.7598 22.8013H19.9156L23.4192 16.3326C23.4464 16.2811 23.46 16.2234 23.4585 16.1651C23.4569 16.1068 23.4405 16.0499 23.4106 15.9999C23.3807 15.9498 23.3385 15.9083 23.2879 15.8793C23.2373 15.8503 23.1801 15.8349 23.1219 15.8344H21.2013C21.0768 15.8344 20.9603 15.9067 20.9 16.0192L18.0111 21.7205L15.1303 16.0152ZM30.8562 0H5.14195C4.43079 0 3.85623 0.574554 3.85623 1.28571V34.7143C3.85623 35.4254 4.43079 36 5.14195 36H30.8562C31.5674 36 32.1419 35.4254 32.1419 34.7143V1.28571C32.1419 0.574554 31.5674 0 30.8562 0ZM29.2491 33.1071H6.74909V5.18705L17.2076 13.3875C17.6736 13.7531 18.3286 13.7531 18.7946 13.3875L29.2491 5.18705V33.1071ZM29.2491 2.92098H27.9754L17.9991 10.7397L8.02275 2.92098H6.74909V2.89286H29.2491V2.92098Z" fill="black" fill-opacity="0.45"/>
</svg>
