<svg width="36" height="36" viewBox="0 0 36 36" fill="none" xmlns="http://www.w3.org/2000/svg">
<path d="M27.8926 31.1399C31.6533 28.1988 34.0721 23.6185 34.0721 18.4756C34.0721 9.60018 26.9002 2.42027 18.0247 2.40822C9.13723 2.39616 1.9292 9.59215 1.9292 18.4756C1.9292 23.506 4.23947 27.9939 7.85956 30.939C8.00018 31.0515 8.20509 31.0274 8.31759 30.8868L9.90063 28.8578C10.0091 28.7212 9.985 28.5243 9.85241 28.4118C9.52697 28.1466 9.21357 27.8613 8.91223 27.56C7.73749 26.3893 6.8014 25.0016 6.15599 23.4738C5.48099 21.8948 5.14349 20.2113 5.14349 18.4756C5.14349 16.7399 5.48099 15.0564 6.15197 13.4734C6.79884 11.9426 7.72697 10.5685 8.90822 9.38724C10.0895 8.20599 11.4636 7.27786 12.9944 6.63099C14.5814 5.96 16.2649 5.6225 18.0006 5.6225C19.7363 5.6225 21.4198 5.96 23.0029 6.63099C24.5337 7.27786 25.9078 8.20599 27.089 9.38724C28.2703 10.5685 29.1984 11.9426 29.8453 13.4734C30.5163 15.0564 30.8538 16.7399 30.8538 18.4756C30.8538 20.2113 30.5163 21.8948 29.8453 23.4779C29.1999 25.0056 28.2638 26.3934 27.089 27.564C26.7154 27.9377 26.3216 28.2872 25.9118 28.6087L24.2765 26.5154C24.2395 26.4675 24.1897 26.4311 24.1329 26.4102C24.0761 26.3894 24.0146 26.3851 23.9554 26.3976C23.8962 26.4102 23.8418 26.4393 23.7984 26.4814C23.755 26.5236 23.7243 26.5771 23.71 26.6359L22.1189 33.1529C22.0707 33.3538 22.2234 33.5506 22.4283 33.5506L29.1381 33.5828C29.4073 33.5828 29.56 33.2734 29.3913 33.0645L27.8926 31.1399Z" fill="black" fill-opacity="0.45"/>
</svg>
