<svg width="36" height="36" viewBox="0 0 36 36" fill="none" xmlns="http://www.w3.org/2000/svg">
<path d="M17.8399 25.7218C21.0341 25.7218 23.6256 23.1302 23.6256 19.936C23.6256 16.7418 21.0341 14.1503 17.8399 14.1503C14.6457 14.1503 12.0542 16.7418 12.0542 19.936C12.0542 23.1302 14.6457 25.7218 17.8399 25.7218ZM17.8399 16.7218C19.6158 16.7218 21.0542 18.1601 21.0542 19.936C21.0542 21.7119 19.6158 23.1503 17.8399 23.1503C16.064 23.1503 14.6256 21.7119 14.6256 19.936C14.6256 18.1601 16.064 16.7218 17.8399 16.7218Z" fill="black" fill-opacity="0.45"/>
<path d="M30.8583 7.71931H29.7293L28.2949 2.86172C28.1342 2.31127 27.632 1.93359 27.0615 1.93359H8.94093C8.36637 1.93359 7.86414 2.31127 7.70744 2.86172L6.27307 7.71931H5.14405C4.43289 7.71931 3.85834 8.29386 3.85834 9.00502V10.13C3.85834 10.3068 4.00298 10.4515 4.17977 10.4515H6.01994L7.93646 32.8992C7.96366 33.2204 8.11049 33.5196 8.34786 33.7376C8.58524 33.9557 8.89585 34.0766 9.21816 34.0765H26.4628C26.7851 34.0766 27.0957 33.9557 27.3331 33.7376C27.5705 33.5196 27.7173 33.2204 27.7445 32.8992L29.661 10.4515H31.8226C31.9994 10.4515 32.1441 10.3068 32.1441 10.13V9.00502C32.1441 8.29386 31.5695 7.71931 30.8583 7.71931ZM10.0217 4.66574H25.9807L26.8807 7.71931H9.12173L10.0217 4.66574ZM25.1369 31.3443H10.5441L8.76012 10.4515H26.9168L25.1369 31.3443Z" fill="black" fill-opacity="0.45"/>
</svg>
