<svg width="36" height="36" viewBox="0 0 36 36" fill="none" xmlns="http://www.w3.org/2000/svg">
<path d="M32.143 27.005C32.143 22.5211 29.5153 18.6479 25.7144 16.8439V10.1823C25.7144 9.57556 25.5015 8.98895 25.1077 8.5269L18.9845 1.26663C18.7274 0.961272 18.3618 0.808594 18.0002 0.808594C17.6386 0.808594 17.2729 0.961272 17.0158 1.26663L10.8926 8.5269C10.5015 8.9899 10.2866 9.5762 10.2859 10.1823V16.8439C6.48498 18.6479 3.8573 22.5211 3.8573 27.005H10.1452C10.0528 27.2943 10.0046 27.6077 10.0046 27.9613C10.0046 28.8492 10.31 29.7171 10.8644 30.4041C11.317 30.966 11.9164 31.3916 12.5961 31.6336C13.5243 33.8032 15.6336 35.2015 18.0002 35.2015C19.1694 35.2015 20.3024 34.8559 21.2707 34.205C22.2189 33.5702 22.9542 32.6823 23.4002 31.6336C24.0796 31.3931 24.679 30.9689 25.1319 30.4081C25.6871 29.7149 25.9902 28.8535 25.9917 27.9653C25.9917 27.6278 25.9475 27.3064 25.8671 27.009H32.143V27.005ZM28.0569 22.4006C28.4345 22.9872 28.7399 23.618 28.9609 24.2729H25.5537V19.8814C26.5561 20.5355 27.4091 21.394 28.0569 22.4006ZM13.018 16.8439V10.2425L18.0002 4.33627L22.9823 10.2425V24.2729H13.018V16.8439ZM7.03944 24.2729C7.26042 23.618 7.56578 22.9872 7.94346 22.4006C8.59837 21.3881 9.45016 20.5323 10.4466 19.8814V24.2729H7.03944ZM22.6649 28.9416C22.456 29.0622 22.2149 29.1104 21.9778 29.0782L21.1944 28.9818L21.0819 29.7613C20.8649 31.284 19.539 32.4331 18.0002 32.4331C16.4613 32.4331 15.1354 31.284 14.9185 29.7613L14.806 28.9778L14.0225 29.0782C13.7843 29.1066 13.5433 29.0573 13.3354 28.9376C12.9859 28.7367 12.7689 28.3631 12.7689 27.9573C12.7689 27.5314 13.006 27.1778 13.3555 27.001H22.6488C23.0024 27.1818 23.2354 27.5354 23.2354 27.9573C23.2314 28.3671 23.0144 28.7448 22.6649 28.9416ZM16.0716 13.505C16.0716 14.0165 16.2748 14.5071 16.6365 14.8687C16.9981 15.2304 17.4887 15.4336 18.0002 15.4336C18.5116 15.4336 19.0022 15.2304 19.3639 14.8687C19.7255 14.5071 19.9287 14.0165 19.9287 13.505C19.9287 12.9935 19.7255 12.503 19.3639 12.1413C19.0022 11.7796 18.5116 11.5765 18.0002 11.5765C17.4887 11.5765 16.9981 11.7796 16.6365 12.1413C16.2748 12.503 16.0716 12.9935 16.0716 13.505Z" fill="black" fill-opacity="0.45"/>
</svg>
