<svg width="36" height="36" viewBox="0 0 36 36" fill="none" xmlns="http://www.w3.org/2000/svg">
<path d="M16.7341 7.51649C17.2564 7.45221 17.7747 7.42006 18.293 7.41605V9.98346C18.293 10.2446 18.5944 10.3893 18.7993 10.2285L23.9462 6.16649C24.1069 6.03792 24.1069 5.79685 23.9462 5.6723L18.8033 1.61426C18.5984 1.45355 18.2971 1.59819 18.2971 1.85935L18.289 4.43078C13.5238 4.45087 8.81491 6.57631 5.64884 10.6263C4.31608 12.3281 3.34053 14.2813 2.78063 16.369C2.22072 18.4568 2.08798 20.6361 2.39035 22.7763H5.39973C5.36357 22.5634 5.33143 22.3464 5.3033 22.1294C5.09839 20.4379 5.21892 18.7504 5.66089 17.1152C6.11892 15.4196 6.90643 13.8567 7.99526 12.4625C9.08812 11.0683 10.418 9.92319 11.9488 9.07542C13.4354 8.24774 15.0386 7.72542 16.7341 7.51649Z" fill="black" fill-opacity="0.45"/>
<path d="M32.7854 14.2206H11.5711C10.86 14.2206 10.2854 14.7952 10.2854 15.5064V32.1403C10.2854 32.8514 10.86 33.426 11.5711 33.426H32.7854C33.4966 33.426 34.0711 32.8514 34.0711 32.1403V15.5064C34.0711 14.7952 33.4966 14.2206 32.7854 14.2206ZM31.0175 30.3724H13.339V17.2742H31.0175V30.3724Z" fill="black" fill-opacity="0.45"/>
</svg>
