<svg width="36" height="36" viewBox="0 0 36 36" fill="none" xmlns="http://www.w3.org/2000/svg">
<path d="M24.4292 14.2207H3.21488C2.50372 14.2207 1.92917 14.7953 1.92917 15.5065V32.1404C1.92917 32.8516 2.50372 33.4261 3.21488 33.4261H24.4292C25.1403 33.4261 25.7149 32.8516 25.7149 32.1404V15.5065C25.7149 14.7953 25.1403 14.2207 24.4292 14.2207ZM22.6613 30.3725H4.98274V17.2743H22.6613V30.3725Z" fill="black" fill-opacity="0.45"/>
<path d="M30.3475 10.6263C27.1814 6.58033 22.4725 4.45489 17.7073 4.43078L17.6993 1.85935C17.6993 1.59819 17.3939 1.45355 17.193 1.61426L12.0502 5.6723C11.8894 5.79685 11.8935 6.03792 12.0502 6.16649L17.197 10.2285C17.4019 10.3893 17.7073 10.2446 17.7033 9.98346V7.41605C18.2216 7.42006 18.7439 7.45221 19.2622 7.51649C20.9537 7.72542 22.5609 8.24774 24.0435 9.0714C25.5743 9.92319 26.9042 11.0683 27.997 12.4585C29.0859 13.8527 29.8734 15.4196 30.3314 17.1111C30.8306 18.9565 30.9197 20.8888 30.5926 22.7723H33.6019C34.1966 18.6098 33.1479 14.2143 30.3475 10.6263Z" fill="black" fill-opacity="0.45"/>
</svg>
