<svg width="36" height="36" viewBox="0 0 36 36" fill="none" xmlns="http://www.w3.org/2000/svg">
<g clip-path="url(#clip0_636_5664)">
<path d="M32.2588 4.26244L18.6061 -0.390234C18.4413 -0.446484 18.2204 -0.474609 17.9994 -0.474609C17.7784 -0.474609 17.5574 -0.446484 17.3927 -0.390234L3.74 4.26244C3.40652 4.37494 3.1333 4.76066 3.1333 5.11423V24.4964C3.1333 24.8499 3.36232 25.316 3.63955 25.537L17.4891 36.329C17.6297 36.4374 17.8105 36.4937 17.9954 36.4937C18.1802 36.4937 18.365 36.4374 18.5016 36.329L32.3512 25.537C32.6284 25.32 32.8574 24.854 32.8574 24.4964V5.11423C32.8654 4.76066 32.5922 4.37896 32.2588 4.26244ZM29.9726 23.7249L17.9994 33.0544L6.02616 23.7249V6.54459L17.9994 2.46244L29.9726 6.54459V23.7249ZM13.6681 15.649C13.5476 15.4843 13.3547 15.3839 13.1458 15.3839H10.9279C10.6668 15.3839 10.5141 15.6812 10.6668 15.8941L15.7454 22.8852C15.8054 22.9674 15.884 23.0343 15.9748 23.0804C16.0655 23.1265 16.1659 23.1505 16.2677 23.1505C16.3695 23.1505 16.4698 23.1265 16.5606 23.0804C16.6513 23.0343 16.7299 22.9674 16.79 22.8852L25.332 11.1249C25.4846 10.912 25.332 10.6147 25.0708 10.6147H22.8529C22.648 10.6147 22.4512 10.7151 22.3306 10.8799L16.2677 19.229L13.6681 15.649Z" fill="black" fill-opacity="0.45"/>
</g>
<defs>
<clipPath id="clip0_636_5664">
<rect width="36" height="36" fill="white"/>
</clipPath>
</defs>
</svg>
