<svg width="36" height="36" viewBox="0 0 36 36" fill="none" xmlns="http://www.w3.org/2000/svg">
<path d="M2.8924 12.8521H5.1424C5.31919 12.8521 5.46383 12.7075 5.46383 12.5307V5.45926H12.5353C12.712 5.45926 12.8567 5.31462 12.8567 5.13784V2.88783C12.8567 2.71105 12.712 2.56641 12.5353 2.56641H5.30312C3.7924 2.56641 2.57097 3.78784 2.57097 5.29855V12.5307C2.57097 12.7075 2.71562 12.8521 2.8924 12.8521ZM23.4638 5.45926H30.5353V12.5307C30.5353 12.7075 30.6799 12.8521 30.8567 12.8521H33.1067C33.2835 12.8521 33.4281 12.7075 33.4281 12.5307V5.29855C33.4281 3.78784 32.2067 2.56641 30.696 2.56641H23.4638C23.287 2.56641 23.1424 2.71105 23.1424 2.88783V5.13784C23.1424 5.31462 23.287 5.45926 23.4638 5.45926ZM12.5353 30.5307H5.46383V23.4593C5.46383 23.2825 5.31919 23.1378 5.1424 23.1378H2.8924C2.71562 23.1378 2.57097 23.2825 2.57097 23.4593V30.6914C2.57097 32.2021 3.7924 33.4236 5.30312 33.4236H12.5353C12.712 33.4236 12.8567 33.2789 12.8567 33.1021V30.8521C12.8567 30.6753 12.712 30.5307 12.5353 30.5307ZM33.1067 23.1378H30.8567C30.6799 23.1378 30.5353 23.2825 30.5353 23.4593V30.5307H23.4638C23.287 30.5307 23.1424 30.6753 23.1424 30.8521V33.1021C23.1424 33.2789 23.287 33.4236 23.4638 33.4236H30.696C32.2067 33.4236 33.4281 32.2021 33.4281 30.6914V23.4593C33.4281 23.2825 33.2835 23.1378 33.1067 23.1378ZM33.7495 16.5486H2.24954C2.07276 16.5486 1.92812 16.6932 1.92812 16.87V19.12C1.92812 19.2968 2.07276 19.4414 2.24954 19.4414H33.7495C33.9263 19.4414 34.071 19.2968 34.071 19.12V16.87C34.071 16.6932 33.9263 16.5486 33.7495 16.5486Z" fill="black" fill-opacity="0.45"/>
</svg>
