<svg width="36" height="36" viewBox="0 0 36 36" fill="none" xmlns="http://www.w3.org/2000/svg">
<path d="M34.7143 6.42104H28.2857V4.17104C28.2857 3.99425 28.1411 3.84961 27.9643 3.84961H25.7143C25.5375 3.84961 25.3929 3.99425 25.3929 4.17104V6.42104H19.4464V4.17104C19.4464 3.99425 19.3018 3.84961 19.125 3.84961H16.875C16.6982 3.84961 16.5536 3.99425 16.5536 4.17104V6.42104H10.6071V4.17104C10.6071 3.99425 10.4625 3.84961 10.2857 3.84961H8.03571C7.85893 3.84961 7.71429 3.99425 7.71429 4.17104V6.42104H1.28571C0.574554 6.42104 0 6.99559 0 7.70675V30.8496C0 31.5608 0.574554 32.1353 1.28571 32.1353H34.7143C35.4254 32.1353 36 31.5608 36 30.8496V7.70675C36 6.99559 35.4254 6.42104 34.7143 6.42104ZM33.1071 29.2425H2.89286V9.3139H7.71429V11.5639C7.71429 11.7407 7.85893 11.8853 8.03571 11.8853H10.2857C10.4625 11.8853 10.6071 11.7407 10.6071 11.5639V9.3139H16.5536V11.5639C16.5536 11.7407 16.6982 11.8853 16.875 11.8853H19.125C19.3018 11.8853 19.4464 11.7407 19.4464 11.5639V9.3139H25.3929V11.5639C25.3929 11.7407 25.5375 11.8853 25.7143 11.8853H27.9643C28.1411 11.8853 28.2857 11.7407 28.2857 11.5639V9.3139H33.1071V29.2425ZM14.1429 17.3496H6.75C6.57321 17.3496 6.42857 17.4943 6.42857 17.671V19.5996C6.42857 19.7764 6.57321 19.921 6.75 19.921H14.1429C14.3196 19.921 14.4643 19.7764 14.4643 19.5996V17.671C14.4643 17.4943 14.3196 17.3496 14.1429 17.3496ZM14.1429 22.8139H6.75C6.57321 22.8139 6.42857 22.9585 6.42857 23.1353V25.0639C6.42857 25.2407 6.57321 25.3853 6.75 25.3853H14.1429C14.3196 25.3853 14.4643 25.2407 14.4643 25.0639V23.1353C14.4643 22.9585 14.3196 22.8139 14.1429 22.8139ZM26.5259 15.6862L22.3634 21.4599L20.242 18.5228C20.1214 18.3541 19.9286 18.2576 19.7237 18.2576H17.5179C17.2567 18.2576 17.104 18.555 17.2567 18.7679L21.8411 25.1242C21.9003 25.2063 21.9781 25.2732 22.0682 25.3193C22.1583 25.3655 22.2581 25.3895 22.3594 25.3895C22.4606 25.3895 22.5604 25.3655 22.6505 25.3193C22.7406 25.2732 22.8185 25.2063 22.8777 25.1242L29.5071 15.9353C29.6598 15.7224 29.5071 15.4251 29.246 15.4251H27.0402C26.8393 15.421 26.6464 15.5215 26.5259 15.6862Z" fill="black" fill-opacity="0.45"/>
</svg>
