<svg width="36" height="36" viewBox="0 0 36 36" fill="none" xmlns="http://www.w3.org/2000/svg">
<path d="M33.975 31.7612L23.5406 21.3268C25.1598 19.2335 26.0357 16.6741 26.0357 13.9822C26.0357 10.7598 24.7781 7.73841 22.504 5.46028C20.2299 3.18216 17.2005 1.92859 13.9822 1.92859C10.7639 1.92859 7.73439 3.18618 5.46028 5.46028C3.18216 7.73439 1.92859 10.7598 1.92859 13.9822C1.92859 17.2005 3.18618 20.2299 5.46028 22.504C7.73439 24.7822 10.7598 26.0357 13.9822 26.0357C16.6741 26.0357 19.2295 25.1598 21.3228 23.5447L31.7572 33.975C31.7878 34.0056 31.8241 34.0299 31.8641 34.0465C31.9041 34.0631 31.9469 34.0716 31.9902 34.0716C32.0335 34.0716 32.0763 34.0631 32.1163 34.0465C32.1563 34.0299 32.1926 34.0056 32.2232 33.975L33.975 32.2272C34.0056 32.1967 34.0299 32.1603 34.0465 32.1203C34.0631 32.0804 34.0716 32.0375 34.0716 31.9942C34.0716 31.9509 34.0631 31.9081 34.0465 31.8681C34.0299 31.8281 34.0056 31.7918 33.975 31.7612ZM20.3464 20.3464C18.6429 22.046 16.3848 22.9822 13.9822 22.9822C11.5795 22.9822 9.32145 22.046 7.61787 20.3464C5.91832 18.6429 4.98216 16.3848 4.98216 13.9822C4.98216 11.5795 5.91832 9.31743 7.61787 7.61787C9.32145 5.91832 11.5795 4.98216 13.9822 4.98216C16.3848 4.98216 18.6469 5.9143 20.3464 7.61787C22.046 9.32145 22.9822 11.5795 22.9822 13.9822C22.9822 16.3848 22.046 18.6469 20.3464 20.3464Z" fill="black" fill-opacity="0.45"/>
</svg>
