<svg width="24" height="24" viewBox="0 0 24 24" fill="none" xmlns="http://www.w3.org/2000/svg">
<path d="M8 12C8 12.7956 8.42143 13.5587 9.17157 14.1213C9.92172 14.6839 10.9391 15 12 15C13.0609 15 14.0783 14.6839 14.8284 14.1213C15.5786 13.5587 16 12.7956 16 12C16 8 8 9 8 5C8 4.20435 8.42143 3.44129 9.17157 2.87868C9.92172 2.31607 10.9391 2 12 2C13.0609 2 14.0783 2.31607 14.8284 2.87868C15.5786 3.44129 16 4.20435 16 5M16 12C16 11.2044 15.5786 10.4413 14.8284 9.87868C14.0783 9.31607 13.0609 9 12 9C10.9391 9 9.92172 9.31607 9.17157 9.87868C8.42143 10.4413 8 11.2044 8 12M8 12C8 16 16 15 16 19C16 19.7956 15.5786 20.5587 14.8284 21.1213C14.0783 21.6839 13.0609 22 12 22C10.9391 22 9.92172 21.6839 9.17157 21.1213C8.42143 20.5587 8 19.7956 8 19" stroke="black" stroke-width="2" stroke-linecap="round" stroke-linejoin="round"/>
</svg>
