<svg width="36" height="36" viewBox="0 0 36 36" fill="none" xmlns="http://www.w3.org/2000/svg">
<g clip-path="url(#clip0_636_5658)">
<path d="M32.2588 4.26244L18.6061 -0.390234C18.4413 -0.446484 18.2204 -0.474609 17.9994 -0.474609C17.7784 -0.474609 17.5574 -0.446484 17.3927 -0.390234L3.74 4.26244C3.40652 4.37494 3.1333 4.76066 3.1333 5.11423V24.4964C3.1333 24.8499 3.36232 25.316 3.63955 25.537L17.4891 36.329C17.6297 36.4374 17.8105 36.4937 17.9954 36.4937C18.1802 36.4937 18.365 36.4374 18.5016 36.329L32.3512 25.537C32.6284 25.32 32.8574 24.854 32.8574 24.4964V5.11423C32.8654 4.76066 32.5922 4.37896 32.2588 4.26244ZM29.9726 23.7249L17.9994 33.0544L6.02616 23.7249V6.54459L17.9994 2.46244L29.9726 6.54459V23.7249ZM13.6159 18.6825L10.5021 21.7964C10.4422 21.8568 10.4087 21.9384 10.4087 22.0234C10.4087 22.1084 10.4422 22.19 10.5021 22.2504L11.8681 23.6165C11.9927 23.741 12.1976 23.741 12.3221 23.6165L15.436 20.5026C17.6739 21.9129 20.6632 21.6437 22.6119 19.695C24.8739 17.433 24.8739 13.7687 22.6119 11.5066C20.3498 9.24459 16.6855 9.24459 14.4235 11.5066C12.4748 13.4553 12.2056 16.4486 13.6159 18.6825ZM16.2436 13.3267C17.5012 12.0691 19.5382 12.0691 20.7918 13.3267C22.0494 14.5843 22.0494 16.6214 20.7918 17.8749C19.5342 19.1325 17.4971 19.1325 16.2436 17.8749C14.99 16.6174 14.986 14.5843 16.2436 13.3267Z" fill="black" fill-opacity="0.45"/>
</g>
<defs>
<clipPath id="clip0_636_5658">
<rect width="36" height="36" fill="white"/>
</clipPath>
</defs>
</svg>
