<svg width="36" height="36" viewBox="0 0 36 36" fill="none" xmlns="http://www.w3.org/2000/svg">
<path d="M32.7863 1.93359H3.21491C2.50375 1.93359 1.9292 2.50815 1.9292 3.21931V32.7907C1.9292 33.5019 2.50375 34.0765 3.21491 34.0765H17.6792C17.856 34.0765 18.0006 33.9318 18.0006 33.755V31.505C18.0006 31.3282 17.856 31.1836 17.6792 31.1836H4.82206V4.82645H31.1792V17.6836C31.1792 17.8604 31.3238 18.005 31.5006 18.005H33.7506C33.9274 18.005 34.0721 17.8604 34.0721 17.6836V3.21931C34.0721 2.50815 33.4975 1.93359 32.7863 1.93359ZM23.6779 21.5166L25.7752 19.4193C25.8177 19.3766 25.8473 19.3228 25.8608 19.2641C25.8742 19.2054 25.8709 19.1441 25.8512 19.0872C25.8316 19.0303 25.7963 18.98 25.7495 18.9421C25.7026 18.9042 25.6461 18.8802 25.5863 18.8729L18.3783 18.0291C18.1734 18.005 17.9966 18.1778 18.0207 18.3867L18.8645 25.5948C18.8966 25.8599 19.2221 25.9724 19.4109 25.7836L21.5163 23.6782L31.81 33.972C31.9346 34.0965 32.1395 34.0965 32.264 33.972L33.9676 32.2684C34.0921 32.1439 34.0921 31.939 33.9676 31.8144L23.6779 21.5166Z" fill="black" fill-opacity="0.45"/>
</svg>
