<svg width="36" height="36" viewBox="0 0 36 36" fill="none" xmlns="http://www.w3.org/2000/svg">
<g clip-path="url(#clip0_636_5656)">
<path d="M34.8522 17.4804L1.24278 0.62949C1.10617 0.561186 0.949477 0.545115 0.800816 0.581276C0.635824 0.622064 0.493717 0.726569 0.405611 0.871907C0.317504 1.01724 0.290577 1.19157 0.330726 1.35672L3.79412 15.5076C3.84635 15.7206 4.00305 15.8933 4.21198 15.9616L10.1464 17.9987L4.21599 20.0357C4.00707 20.1081 3.85037 20.2768 3.80216 20.4898L0.330726 34.6607C0.294566 34.8094 0.310637 34.9661 0.378941 35.0987C0.535637 35.4161 0.921352 35.5447 1.24278 35.388L34.8522 18.6335C34.9767 18.5732 35.0772 18.4688 35.1414 18.3482C35.2981 18.0268 35.1696 17.6411 34.8522 17.4804ZM4.29233 30.6348L6.31332 22.3741L18.174 18.304C18.2664 18.2719 18.3428 18.1996 18.3749 18.1032C18.4312 17.9344 18.3428 17.7536 18.174 17.6933L6.31332 13.6273L4.30037 5.39869L29.5325 18.0509L4.29233 30.6348Z" fill="black" fill-opacity="0.45"/>
</g>
<defs>
<clipPath id="clip0_636_5656">
<rect width="36" height="36" fill="white"/>
</clipPath>
</defs>
</svg>
