<svg width="36" height="36" viewBox="0 0 36 36" fill="none" xmlns="http://www.w3.org/2000/svg">
<g clip-path="url(#clip0_636_5654)">
<path d="M10.4454 24.1875C10.4454 24.699 10.6486 25.1895 11.0103 25.5512C11.372 25.9129 11.8625 26.1161 12.374 26.1161C12.8855 26.1161 13.376 25.9129 13.7377 25.5512C14.0994 25.1895 14.3026 24.699 14.3026 24.1875C14.3026 23.676 14.0994 23.1855 13.7377 22.8238C13.376 22.4621 12.8855 22.2589 12.374 22.2589C11.8625 22.2589 11.372 22.4621 11.0103 22.8238C10.6486 23.1855 10.4454 23.676 10.4454 24.1875ZM35.2235 11.7482L24.2508 0.771428C23.7526 0.277232 23.0896 0 22.3825 0C21.6753 0 21.0124 0.273214 20.5142 0.771428L0.774434 20.5112C0.278577 21.0073 3.05176e-05 21.68 3.05176e-05 22.3815C3.05176e-05 23.0829 0.278577 23.7557 0.774434 24.2518L11.7512 35.2286C12.2454 35.7228 12.9124 36 13.6195 36C14.3267 36 14.9896 35.7268 15.4878 35.2286L35.2276 15.4888C36.2561 14.4563 36.2561 12.7768 35.2235 11.7482ZM13.6195 32.7897L3.20926 22.3795L22.3825 3.20625L32.7887 13.6205L13.6195 32.7897ZM3.56684 12.4433C3.59634 12.4729 3.6314 12.4965 3.67001 12.5125C3.70863 12.5286 3.75003 12.5368 3.79184 12.5368C3.83366 12.5368 3.87506 12.5286 3.91368 12.5125C3.95229 12.4965 3.98735 12.4729 4.01684 12.4433L12.4423 4.01786C12.4719 3.98836 12.4955 3.9533 12.5115 3.91469C12.5276 3.87608 12.5358 3.83467 12.5358 3.79286C12.5358 3.75104 12.5276 3.70964 12.5115 3.67103C12.4955 3.63241 12.4719 3.59735 12.4423 3.56786L10.8994 2.025C10.8699 1.99536 10.8349 1.97184 10.7963 1.95579C10.7577 1.93974 10.7163 1.93147 10.6744 1.93147C10.6326 1.93147 10.5912 1.93974 10.5526 1.95579C10.514 1.97184 10.4789 1.99536 10.4494 2.025L2.01997 10.4424C1.99033 10.4719 1.96681 10.507 1.95076 10.5456C1.93471 10.5842 1.92644 10.6256 1.92644 10.6674C1.92644 10.7092 1.93471 10.7506 1.95076 10.7892C1.96681 10.8279 1.99033 10.8629 2.01997 10.8924L3.56684 12.4433ZM32.4392 23.5567C32.4097 23.5271 32.3746 23.5035 32.336 23.4875C32.2974 23.4714 32.256 23.4632 32.2142 23.4632C32.1724 23.4632 32.131 23.4714 32.0923 23.4875C32.0537 23.5035 32.0187 23.5271 31.9892 23.5567L23.5557 31.9862C23.526 32.0157 23.5025 32.0507 23.4865 32.0893C23.4704 32.1279 23.4622 32.1693 23.4622 32.2112C23.4622 32.253 23.4704 32.2944 23.4865 32.333C23.5025 32.3716 23.526 32.4067 23.5557 32.4362L25.0985 33.979C25.128 34.0087 25.1631 34.0322 25.2017 34.0482C25.2403 34.0643 25.2817 34.0725 25.3235 34.0725C25.3654 34.0725 25.4068 34.0643 25.4454 34.0482C25.484 34.0322 25.5191 34.0087 25.5485 33.979L33.978 25.5536C34.0077 25.5241 34.0312 25.489 34.0472 25.4504C34.0633 25.4118 34.0715 25.3704 34.0715 25.3286C34.0715 25.2868 34.0633 25.2454 34.0472 25.2067C34.0312 25.1681 34.0077 25.1331 33.978 25.1036L32.4392 23.5567Z" fill="black" fill-opacity="0.45"/>
</g>
<defs>
<clipPath id="clip0_636_5654">
<rect width="36" height="36" fill="white"/>
</clipPath>
</defs>
</svg>
