<svg width="36" height="36" viewBox="0 0 36 36" fill="none" xmlns="http://www.w3.org/2000/svg">
<path d="M30.8583 9.96931H25.3941V9.32645C25.3941 5.24431 22.0833 1.93359 18.0012 1.93359C13.9191 1.93359 10.6083 5.24431 10.6083 9.32645V9.96931H5.14405C4.43289 9.96931 3.85834 10.5439 3.85834 11.255V32.7907C3.85834 33.5019 4.43289 34.0765 5.14405 34.0765H30.8583C31.5695 34.0765 32.1441 33.5019 32.1441 32.7907V11.255C32.1441 10.5439 31.5695 9.96931 30.8583 9.96931ZM13.5012 9.32645C13.5012 6.8394 15.5141 4.82645 18.0012 4.82645C20.4882 4.82645 22.5012 6.8394 22.5012 9.32645V9.96931H13.5012V9.32645ZM29.2512 31.1836H6.75119V12.8622H10.6083V16.3979C10.6083 16.5747 10.753 16.7193 10.9298 16.7193H13.1798C13.3566 16.7193 13.5012 16.5747 13.5012 16.3979V12.8622H22.5012V16.3979C22.5012 16.5747 22.6458 16.7193 22.8226 16.7193H25.0726C25.2494 16.7193 25.3941 16.5747 25.3941 16.3979V12.8622H29.2512V31.1836Z" fill="black" fill-opacity="0.45"/>
</svg>
