<svg width="36" height="36" viewBox="0 0 36 36" fill="none" xmlns="http://www.w3.org/2000/svg">
<path d="M32.8667 8.36618V3.21931C32.8667 2.50815 32.2922 1.93359 31.581 1.93359H4.4203C3.70913 1.93359 3.13458 2.50815 3.13458 3.21931V8.36618C2.4636 8.40636 1.92922 8.96484 1.92922 9.64788V14.9394C1.92665 15.9119 2.12357 16.8746 2.5078 17.768C2.68056 18.1778 2.89351 18.5635 3.13458 18.9291V32.7907C3.13458 33.4979 3.70913 34.0765 4.4203 34.0765H31.581C32.2922 34.0765 32.8667 33.5019 32.8667 32.7907V18.9291C33.1116 18.5626 33.3214 18.1738 33.4935 17.768C33.8752 16.872 34.0721 15.9198 34.0721 14.9394V9.64788C34.0721 8.96484 33.5377 8.40636 32.8667 8.36618ZM6.02744 4.82645H29.9739V8.36217H6.02744V4.82645ZM20.5721 31.1876H15.4292V27.005H20.5721V31.1876ZM29.9739 31.1876H23.1435V25.7193C23.1435 25.0081 22.569 24.4336 21.8578 24.4336H14.1435C13.4323 24.4336 12.8578 25.0081 12.8578 25.7193V31.1876H6.02744V21.4564C6.14396 21.5126 6.26449 21.5689 6.38905 21.6171C7.28503 21.9948 8.23726 22.1836 9.21762 22.1836C10.198 22.1836 11.1462 21.9948 12.0462 21.6171C12.6007 21.384 13.123 21.0867 13.6011 20.7291C13.6091 20.7251 13.6172 20.7251 13.6252 20.7291C14.1048 21.0882 14.6271 21.3865 15.1801 21.6171C16.0761 21.9948 17.0283 22.1836 18.0087 22.1836C18.989 22.1836 19.9373 21.9948 20.8373 21.6171C21.3917 21.384 21.914 21.0867 22.3922 20.7291C22.4002 20.7251 22.4082 20.7251 22.4163 20.7291C22.8959 21.0882 23.4182 21.3865 23.9712 21.6171C24.8672 21.9948 25.8194 22.1836 26.7998 22.1836C27.7801 22.1836 28.7283 21.9948 29.6283 21.6171C29.7489 21.5648 29.8694 21.5126 29.9899 21.4564V31.1876H29.9739ZM31.1792 14.9394C31.1792 17.3421 29.2105 19.2907 26.7877 19.2907C25.1484 19.2907 23.7181 18.4028 22.9627 17.0849C22.8462 16.884 22.6373 16.7595 22.4042 16.7595H22.3801C22.1511 16.7595 21.9382 16.884 21.8216 17.0849C21.4362 17.7572 20.8796 18.3154 20.2084 18.7028C19.5373 19.0903 18.7756 19.2931 18.0007 19.2907C16.3654 19.2907 14.939 18.4068 14.1837 17.093C14.0632 16.8881 13.8462 16.7595 13.6091 16.7595C13.3721 16.7595 13.1511 16.8881 13.0346 17.093C12.6469 17.7627 12.0896 18.3184 11.4188 18.7042C10.748 19.09 9.98742 19.2923 9.2136 19.2907C6.79083 19.2907 4.82208 17.3421 4.82208 14.9394V11.2751C4.82208 11.2631 4.83012 11.255 4.84217 11.255H31.1591C31.1712 11.255 31.1792 11.2631 31.1792 11.2751V14.9394Z" fill="black" fill-opacity="0.45"/>
</svg>
