<svg width="36" height="36" viewBox="0 0 36 36" fill="none" xmlns="http://www.w3.org/2000/svg">
<path d="M24.4281 14.7907C19.5946 14.7907 15.5928 18.3465 14.8937 22.9872H10.2853C9.66249 22.9872 9.16026 22.4849 9.16026 21.8622V7.23717H20.8522C21.4228 8.65145 22.8089 9.64788 24.4281 9.64788C26.5576 9.64788 28.2853 7.9202 28.2853 5.79074C28.2853 3.66127 26.5576 1.93359 24.4281 1.93359C22.8089 1.93359 21.4228 2.93002 20.8522 4.34431H1.92812V7.23717H6.2674V21.8622C6.2674 24.08 8.0674 25.88 10.2853 25.88H14.8937C15.5928 30.5206 19.5946 34.0765 24.4281 34.0765C29.7518 34.0765 34.071 29.7573 34.071 24.4336C34.071 19.1099 29.7518 14.7907 24.4281 14.7907ZM29.571 25.4782C29.571 25.655 29.4263 25.7997 29.2495 25.7997H25.7942V29.255C25.7942 29.4318 25.6495 29.5765 25.4728 29.5765H23.3835C23.2067 29.5765 23.062 29.4318 23.062 29.255V25.7997H19.6067C19.4299 25.7997 19.2853 25.655 19.2853 25.4782V23.389C19.2853 23.2122 19.4299 23.0675 19.6067 23.0675H23.062V19.6122C23.062 19.4354 23.2067 19.2907 23.3835 19.2907H25.4728C25.6495 19.2907 25.7942 19.4354 25.7942 19.6122V23.0675H29.2495C29.4263 23.0675 29.571 23.2122 29.571 23.389V25.4782Z" fill="black" fill-opacity="0.45"/>
</svg>
