<svg width="36" height="36" viewBox="0 0 36 36" fill="none" xmlns="http://www.w3.org/2000/svg">
<path d="M32.3836 2.4961H24.0988C23.3997 2.4961 22.7769 2.97422 22.6122 3.67333C22.11 5.79476 20.2095 7.31752 17.9997 7.31752C15.7899 7.31752 13.8894 5.79476 13.3872 3.67333C13.3088 3.33801 13.1192 3.03911 12.8493 2.82533C12.5793 2.61156 12.2449 2.49551 11.9006 2.4961H3.61576C3.14689 2.4961 2.69723 2.68235 2.36569 3.01389C2.03416 3.34543 1.8479 3.79509 1.8479 4.26395V14.389C1.8479 14.8578 2.03416 15.3075 2.36569 15.639C2.69723 15.9706 3.14689 16.1568 3.61576 16.1568H6.62915V31.7461C6.62915 32.215 6.81541 32.6646 7.14694 32.9962C7.47848 33.3277 7.92814 33.514 8.39701 33.514H27.6024C28.0712 33.514 28.5209 33.3277 28.8524 32.9962C29.184 32.6646 29.3702 32.215 29.3702 31.7461V16.1568H32.3836C32.8525 16.1568 33.3021 15.9706 33.6337 15.639C33.9652 15.3075 34.1515 14.8578 34.1515 14.389V4.26395C34.1515 3.79509 33.9652 3.34543 33.6337 3.01389C33.3021 2.68235 32.8525 2.4961 32.3836 2.4961ZM31.2586 13.264H26.4774V30.6211H9.52201V13.264H4.74076V5.38895H10.9001C12.0332 8.24967 14.8175 10.2104 17.9997 10.2104C21.1818 10.2104 23.9662 8.24967 25.0992 5.38895H31.2586V13.264Z" fill="black" fill-opacity="0.45"/>
</svg>
