<svg width="36" height="36" viewBox="0 0 36 36" fill="none" xmlns="http://www.w3.org/2000/svg">
<path d="M10.2853 6.42983H7.63347V4.17983C7.63347 4.00304 7.48883 3.8584 7.31204 3.8584H5.22276C5.04597 3.8584 4.90133 4.00304 4.90133 4.17983V6.42983H2.24954C2.07276 6.42983 1.92812 6.57447 1.92812 6.75126V29.2513C1.92812 29.428 2.07276 29.5727 2.24954 29.5727H4.90133V31.8227C4.90133 31.9995 5.04597 32.1441 5.22276 32.1441H7.31204C7.48883 32.1441 7.63347 31.9995 7.63347 31.8227V29.5727H10.2853C10.462 29.5727 10.6067 29.428 10.6067 29.2513V6.75126C10.6067 6.57447 10.462 6.42983 10.2853 6.42983ZM7.87455 26.8405H4.66026V9.16197H7.87455V26.8405ZM33.7495 9.32268H31.0978V5.46554C31.0978 5.28876 30.9531 5.14411 30.7763 5.14411H28.687C28.5103 5.14411 28.3656 5.28876 28.3656 5.46554V9.32268H25.7138C25.537 9.32268 25.3924 9.46733 25.3924 9.64411V26.3584C25.3924 26.5352 25.537 26.6798 25.7138 26.6798H28.3656V30.537C28.3656 30.7138 28.5103 30.8584 28.687 30.8584H30.7763C30.9531 30.8584 31.0978 30.7138 31.0978 30.537V26.6798H33.7495C33.9263 26.6798 34.071 26.5352 34.071 26.3584V9.64411C34.071 9.46733 33.9263 9.32268 33.7495 9.32268ZM31.3388 23.9477H28.1245V12.0548H31.3388V23.9477ZM22.0174 13.662H19.3656V6.75126C19.3656 6.57447 19.221 6.42983 19.0442 6.42983H16.9549C16.7781 6.42983 16.6335 6.57447 16.6335 6.75126V13.662H13.9817C13.8049 13.662 13.6603 13.8066 13.6603 13.9834V22.0191C13.6603 22.1959 13.8049 22.3405 13.9817 22.3405H16.6335V29.2513C16.6335 29.428 16.7781 29.5727 16.9549 29.5727H19.0442C19.221 29.5727 19.3656 29.428 19.3656 29.2513V22.3405H22.0174C22.1942 22.3405 22.3388 22.1959 22.3388 22.0191V13.9834C22.3388 13.8066 22.1942 13.662 22.0174 13.662ZM19.6067 19.4879C19.6067 19.5198 19.594 19.5505 19.5714 19.5731C19.5488 19.5957 19.5181 19.6084 19.4862 19.6084H16.5129C16.481 19.6084 16.4503 19.5957 16.4277 19.5731C16.4051 19.5505 16.3924 19.5198 16.3924 19.4879V16.5146C16.3924 16.4827 16.4051 16.452 16.4277 16.4294C16.4503 16.4068 16.481 16.3941 16.5129 16.3941H19.4862C19.5181 16.3941 19.5488 16.4068 19.5714 16.4294C19.594 16.452 19.6067 16.4827 19.6067 16.5146V19.4879Z" fill="black" fill-opacity="0.45"/>
</svg>
