<svg width="36" height="36" viewBox="0 0 36 36" fill="none" xmlns="http://www.w3.org/2000/svg">
<path d="M22.5745 2.05664C22.3375 2.05664 22.0964 2.12093 21.8754 2.26959L7.63211 11.579H1.04282C0.689249 11.579 0.399963 11.8682 0.399963 12.2218V23.7932C0.399963 24.1468 0.689249 24.4361 1.04282 24.4361H7.63211L21.8754 33.7455C22.0964 33.8901 22.3415 33.9584 22.5745 33.9584C23.2455 33.9584 23.8643 33.4241 23.8643 32.6687V3.34637C23.8643 2.59102 23.2455 2.05664 22.5745 2.05664ZM20.9714 29.6995L9.21514 22.0133L8.49193 21.5432H3.29282V14.4718H8.49193L9.21112 14.0017L20.9714 6.31557V29.6995ZM34.9535 16.5611H29.8107C29.4571 16.5611 29.1678 16.8504 29.1678 17.204V18.8111C29.1678 19.1647 29.4571 19.454 29.8107 19.454H34.9535C35.3071 19.454 35.5964 19.1647 35.5964 18.8111V17.204C35.5964 16.8504 35.3071 16.5611 34.9535 16.5611ZM33.2701 27.0799L28.8384 24.5205C28.7655 24.4788 28.6852 24.4519 28.602 24.4412C28.5188 24.4306 28.4343 24.4364 28.3533 24.4584C28.2724 24.4804 28.1965 24.5182 28.1301 24.5695C28.0638 24.6208 28.0082 24.6847 27.9665 24.7575L27.1669 26.1437C26.9901 26.4491 27.0946 26.8428 27.4 27.0196L31.8317 29.579C31.9045 29.6207 31.9848 29.6476 32.068 29.6582C32.1512 29.6689 32.2357 29.663 32.3167 29.641C32.3977 29.619 32.4735 29.5813 32.5399 29.5299C32.6062 29.4786 32.6619 29.4147 32.7035 29.3419L33.5031 27.9557C33.6799 27.6504 33.5714 27.2566 33.2701 27.0799ZM27.9625 11.2575C28.0041 11.3304 28.0598 11.3942 28.1261 11.4456C28.1925 11.4969 28.2683 11.5346 28.3493 11.5567C28.4303 11.5787 28.5148 11.5845 28.598 11.5739C28.6812 11.5632 28.7615 11.5363 28.8343 11.4946L33.266 8.93521C33.5714 8.75843 33.6759 8.36468 33.4991 8.05932L32.7035 6.67718C32.6619 6.60436 32.6062 6.54046 32.5399 6.48914C32.4735 6.43782 32.3977 6.40007 32.3167 6.37806C32.2357 6.35605 32.1512 6.3502 32.068 6.36085C31.9848 6.37149 31.9045 6.39843 31.8317 6.44012L27.4 8.9995C27.2532 9.08504 27.1463 9.22521 27.1027 9.38935C27.059 9.55349 27.0821 9.72824 27.1669 9.87539L27.9625 11.2575Z" fill="black" fill-opacity="0.45"/>
</svg>
