<svg width="36" height="36" viewBox="0 0 36 36" fill="none" xmlns="http://www.w3.org/2000/svg">
<path d="M35.1256 17.8579L29.0626 13.0605C28.9421 12.9641 28.7693 13.0525 28.7693 13.2052V16.6364H22.9836V4.82394H31.18V9.9668C31.18 10.0552 31.2524 10.1275 31.3407 10.1275H33.7515C33.8399 10.1275 33.9122 10.0552 33.9122 9.9668V3.2168C33.9122 2.59403 33.4099 2.0918 32.7872 2.0918H21.3765C20.7537 2.0918 20.2515 2.59403 20.2515 3.2168V32.7882C20.2515 33.411 20.7537 33.9132 21.3765 33.9132H32.7872C33.4099 33.9132 33.9122 33.411 33.9122 32.7882V26.0382C33.9122 25.9498 33.8399 25.8775 33.7515 25.8775H31.3407C31.2524 25.8775 31.18 25.9498 31.18 26.0382V31.1811H22.9836V19.3686H28.7693V22.7998C28.7693 22.9525 28.9461 23.0409 29.0626 22.9445L35.1256 18.1472C35.148 18.1303 35.1662 18.1085 35.1788 18.0834C35.1914 18.0583 35.1979 18.0306 35.1979 18.0025C35.1979 17.9744 35.1914 17.9468 35.1788 17.9217C35.1662 17.8965 35.148 17.8747 35.1256 17.8579ZM14.6265 2.0918H3.21574C2.59298 2.0918 2.09074 2.59403 2.09074 3.2168V9.9668C2.09074 10.0552 2.16306 10.1275 2.25146 10.1275H4.66217C4.75056 10.1275 4.82289 10.0552 4.82289 9.9668V4.82394H13.0193V16.6364H7.2336V13.2052C7.2336 13.0525 7.06083 12.9641 6.9403 13.0605L0.873332 17.8579C0.851766 17.8749 0.834335 17.8965 0.82235 17.9212C0.810365 17.9459 0.804138 17.973 0.804138 18.0005C0.804138 18.028 0.810365 18.0551 0.82235 18.0798C0.834335 18.1045 0.851766 18.1261 0.873332 18.1431L6.9403 22.9445C7.05682 23.0369 7.2336 22.9525 7.2336 22.7998V19.3686H13.0193V31.1811H4.82289V26.0382C4.82289 25.9498 4.75056 25.8775 4.66217 25.8775H2.25146C2.16306 25.8775 2.09074 25.9498 2.09074 26.0382V32.7882C2.09074 33.411 2.59298 33.9132 3.21574 33.9132H14.6265C15.2492 33.9132 15.7515 33.411 15.7515 32.7882V3.2168C15.7515 2.59403 15.2492 2.0918 14.6265 2.0918Z" fill="black" fill-opacity="0.45"/>
</svg>
