<svg width="36" height="36" viewBox="0 0 36 36" fill="none" xmlns="http://www.w3.org/2000/svg">
<path d="M33.7506 27.4459H2.25063C2.07384 27.4459 1.9292 27.5906 1.9292 27.7674V30.0174C1.9292 30.1942 2.07384 30.3388 2.25063 30.3388H33.7506C33.9274 30.3388 34.0721 30.1942 34.0721 30.0174V27.7674C34.0721 27.5906 33.9274 27.4459 33.7506 27.4459ZM4.08679 22.4156L5.68188 24.0026C5.80643 24.1272 6.01134 24.1272 6.1359 24.0026L15.5658 14.6049L19.4872 18.5142C19.7288 18.7536 20.0552 18.8879 20.3953 18.8879C20.7354 18.8879 21.0617 18.7536 21.3033 18.5142L31.9185 7.93925C32.043 7.81469 32.043 7.60978 31.9185 7.48523L30.3234 5.89416C30.263 5.83434 30.1814 5.80078 30.0964 5.80078C30.0114 5.80078 29.9298 5.83434 29.8694 5.89416L20.3993 15.3361L16.4738 11.4267C16.2322 11.1874 15.9059 11.0531 15.5658 11.0531C15.2257 11.0531 14.8994 11.1874 14.6578 11.4267L4.08679 21.9616C4.05673 21.9912 4.03287 22.0266 4.01659 22.0656C4.0003 22.1045 3.99191 22.1463 3.99191 22.1886C3.99191 22.2308 4.0003 22.2726 4.01659 22.3116C4.03287 22.3506 4.05673 22.3859 4.08679 22.4156Z" fill="black" fill-opacity="0.45"/>
</svg>
