<svg width="36" height="36" viewBox="0 0 36 36" fill="none" xmlns="http://www.w3.org/2000/svg">
<path d="M35.6786 16.4757H20.3263C19.9246 16.3954 19.5027 16.315 19.0567 16.2347C18.4179 16.1181 18.1647 16.0699 17.8192 16.0016C15.758 15.5998 14.5165 15.198 13.5281 14.6275C12.1179 13.8039 11.4308 12.6869 11.4308 11.2083C11.4308 9.72171 12.0415 8.48823 13.1987 7.63242C14.3397 6.78867 15.9629 6.34269 17.8915 6.34269C20.0933 6.34269 21.7929 6.92126 22.946 8.06233C23.5326 8.6409 23.9625 9.35207 24.2237 10.1757C24.2759 10.3405 24.3362 10.5775 24.3964 10.8909C24.4326 11.0838 24.6054 11.2204 24.7942 11.2204H27.7192C27.9442 11.2204 28.125 11.0355 28.125 10.8146V10.7744C28.0969 10.5012 28.0728 10.2882 28.0446 10.1315C27.7513 8.38376 26.9196 6.84894 25.646 5.69983C23.8621 4.0726 21.2384 3.2168 18.0643 3.2168C15.1594 3.2168 12.5437 3.94403 10.6996 5.26189C9.67098 6.00117 8.87545 6.91724 8.34509 7.98198C7.80268 9.07082 7.52946 10.3284 7.52946 11.7146C7.52946 12.8998 7.75848 13.9043 8.22455 14.7882C8.55804 15.419 9.01205 15.9735 9.59464 16.4757H0.321429C0.144643 16.4757 0 16.6204 0 16.7972V19.2079C0 19.3847 0.144643 19.5293 0.321429 19.5293H17.7268C17.8112 19.5454 17.8835 19.5614 17.9638 19.5775C19.2054 19.8266 19.9527 19.9954 20.6397 20.1882C21.5638 20.4494 22.271 20.7226 22.8576 21.0521C24.296 21.8637 24.9991 23.0289 24.9991 24.628C24.9991 26.0463 24.3763 27.3119 23.2473 28.1958C22.0219 29.1561 20.2098 29.6583 18.004 29.6583C16.2482 29.6583 14.7616 29.3168 13.5763 28.6539C12.4071 27.9989 11.6036 27.0547 11.1777 25.8614C11.1455 25.773 11.1094 25.6525 11.0692 25.4998C11.021 25.323 10.8562 25.1985 10.6795 25.1985H7.47723C7.25223 25.1985 7.07143 25.3833 7.07143 25.6043V25.6445C7.07946 25.7369 7.0875 25.8132 7.09554 25.8735C7.3567 27.8342 8.31295 29.4414 9.93616 30.6467C11.8286 32.0449 14.4924 32.7842 17.6424 32.7842C21.0254 32.7842 23.8621 31.9887 25.8469 30.482C26.8513 29.7226 27.6228 28.7864 28.1411 27.7097C28.6634 26.6208 28.9326 25.3833 28.9326 24.0333C28.9326 22.7556 28.6996 21.6869 28.2174 20.7628C27.9844 20.3128 27.6911 19.8989 27.3415 19.5253H35.6786C35.8554 19.5253 36 19.3806 36 19.2039V16.7931C35.9989 16.7086 35.9646 16.6279 35.9044 16.5684C35.8443 16.509 35.7631 16.4757 35.6786 16.4757Z" fill="black" fill-opacity="0.45"/>
</svg>
