<svg width="36" height="36" viewBox="0 0 36 36" fill="none" xmlns="http://www.w3.org/2000/svg">
<path d="M25.0714 7.06641C19.5268 7.06641 14.9464 11.1968 14.2393 16.5485H7.43304C7.14526 15.836 6.65104 15.2258 6.01385 14.7962C5.37667 14.3666 4.62561 14.1374 3.85714 14.1378C1.72768 14.1378 0 15.8655 0 17.995C0 20.1244 1.72768 21.8521 3.85714 21.8521C5.47634 21.8521 6.8625 20.8557 7.43304 19.4414H14.2353C14.9464 24.7932 19.5268 28.9235 25.0714 28.9235C31.1062 28.9235 36 24.0298 36 17.995C36 11.9602 31.1062 7.06641 25.0714 7.06641ZM30.2143 19.0396C30.2143 19.2164 30.0696 19.361 29.8929 19.361H26.4375V22.8164C26.4375 22.9932 26.2929 23.1378 26.1161 23.1378H24.0268C23.85 23.1378 23.7054 22.9932 23.7054 22.8164V19.361H20.25C20.0732 19.361 19.9286 19.2164 19.9286 19.0396V16.9503C19.9286 16.7735 20.0732 16.6289 20.25 16.6289H23.7054V13.1735C23.7054 12.9968 23.85 12.8521 24.0268 12.8521H26.1161C26.2929 12.8521 26.4375 12.9968 26.4375 13.1735V16.6289H29.8929C30.0696 16.6289 30.2143 16.7735 30.2143 16.9503V19.0396Z" fill="black" fill-opacity="0.45"/>
</svg>
