<svg width="36" height="36" viewBox="0 0 36 36" fill="none" xmlns="http://www.w3.org/2000/svg">
<path d="M27.6435 7.07645H3.21488C2.50372 7.07645 1.92917 7.651 1.92917 8.36217V32.7907C1.92917 33.5019 2.50372 34.0765 3.21488 34.0765H27.6435C28.3546 34.0765 28.9292 33.5019 28.9292 32.7907V8.36217C28.9292 7.651 28.3546 7.07645 27.6435 7.07645ZM26.0363 31.1836H4.82203V9.96931H26.0363V31.1836ZM32.7863 1.93359H8.03631C7.85953 1.93359 7.71488 2.07824 7.71488 2.25502V4.50502C7.71488 4.68181 7.85953 4.82645 8.03631 4.82645H31.1792V27.9693C31.1792 28.1461 31.3238 28.2907 31.5006 28.2907H33.7506C33.9274 28.2907 34.072 28.1461 34.072 27.9693V3.21931C34.072 2.50815 33.4975 1.93359 32.7863 1.93359ZM9.48274 19.5318H21.3756V22.1032H9.48274V19.5318Z" fill="black" fill-opacity="0.45"/>
</svg>
