<svg width="36" height="36" viewBox="0 0 36 36" fill="none" xmlns="http://www.w3.org/2000/svg">
<path d="M34.7143 3.84961H1.28571C0.574554 3.84961 0 4.42416 0 5.13532V30.8496C0 31.5608 0.574554 32.1353 1.28571 32.1353H34.7143C35.4254 32.1353 36 31.5608 36 30.8496V5.13532C36 4.42416 35.4254 3.84961 34.7143 3.84961ZM33.1071 12.2068H24.5893V6.74247H33.1071V12.2068ZM33.1071 21.2068H24.5893V14.7782H33.1071V21.2068ZM13.9821 14.7782H22.0179V21.2068H13.9821V14.7782ZM22.0179 12.2068H13.9821V6.74247H22.0179V12.2068ZM2.89286 14.7782H11.4107V21.2068H2.89286V14.7782ZM2.89286 6.74247H11.4107V12.2068H2.89286V6.74247ZM2.89286 23.7782H11.4107V29.2425H2.89286V23.7782ZM13.9821 23.7782H22.0179V29.2425H13.9821V23.7782ZM33.1071 29.2425H24.5893V23.7782H33.1071V29.2425Z" fill="black" fill-opacity="0.45"/>
</svg>
