<svg width="36" height="36" viewBox="0 0 36 36" fill="none" xmlns="http://www.w3.org/2000/svg">
<path d="M29.5726 0H6.42977C5.01146 0 3.85834 1.15313 3.85834 2.57143V33.4286C3.85834 34.8469 5.01146 36 6.42977 36H29.5726C30.9909 36 32.1441 34.8469 32.1441 33.4286V2.57143C32.1441 1.15313 30.9909 0 29.5726 0ZM29.2512 33.1071H6.75119V2.89286H29.2512V33.1071ZM16.3941 28.9286C16.3941 29.3548 16.5634 29.7636 16.8648 30.065C17.1662 30.3664 17.575 30.5357 18.0012 30.5357C18.4274 30.5357 18.8362 30.3664 19.1376 30.065C19.439 29.7636 19.6083 29.3548 19.6083 28.9286C19.6083 28.5023 19.439 28.0935 19.1376 27.7921C18.8362 27.4908 18.4274 27.3214 18.0012 27.3214C17.575 27.3214 17.1662 27.4908 16.8648 27.7921C16.5634 28.0935 16.3941 28.5023 16.3941 28.9286Z" fill="black" fill-opacity="0.45"/>
</svg>
