<svg width="36" height="36" viewBox="0 0 36 36" fill="none" xmlns="http://www.w3.org/2000/svg">
<path d="M32.6476 7.04478C32.6275 7.00862 32.5994 6.97246 32.5672 6.94433C32.3663 6.74344 32.0409 6.74344 31.84 6.94433L24.9172 13.8671L22.1891 11.139L29.1159 4.21219C29.148 4.18004 29.1721 4.1479 29.1962 4.11174C29.3409 3.86665 29.2605 3.55326 29.0154 3.40862C25.0699 1.07826 19.9029 1.61263 16.5078 5.00371C13.8159 7.69567 12.9239 11.5126 13.836 14.9439L2.06364 26.7162C1.9431 26.8367 1.95114 27.0336 2.07569 27.1582L8.89399 33.9765C9.01855 34.101 9.21944 34.1091 9.33596 33.9885L21.1043 22.2202C24.5395 23.1363 28.3565 22.2484 31.0525 19.5524C34.4436 16.1573 34.9779 10.9903 32.6476 7.04478ZM29.0074 17.5033C26.673 19.8376 23.1694 20.2876 20.3851 18.8533L20.0315 19.2068L20.0275 19.2028L9.01855 30.2158L5.8364 27.0336L15.0815 17.7885C15.0815 17.7885 15.0815 17.7925 15.0855 17.7925L17.2069 15.6711C15.7726 12.8867 16.2226 9.38317 18.5569 7.0488C19.3098 6.29524 20.2165 5.71308 21.215 5.3421C22.2135 4.97112 23.2804 4.82006 24.3427 4.89924L19.0029 10.235C18.7617 10.4764 18.6263 10.8037 18.6263 11.145C18.6263 11.4863 18.7617 11.8136 19.0029 12.055L24.0052 17.0573C24.2466 17.2985 24.5739 17.4339 24.9152 17.4339C25.2565 17.4339 25.5838 17.2985 25.8252 17.0573L31.161 11.7216C31.3096 13.8028 30.5824 15.9323 29.0074 17.5033Z" fill="black" fill-opacity="0.45"/>
</svg>
