<svg width="36" height="36" viewBox="0 0 36 36" fill="none" xmlns="http://www.w3.org/2000/svg">
<path d="M32.9854 28.7757H4.05684C3.88006 28.7757 3.73541 28.9203 3.73541 29.0971V31.5078C3.73541 31.6846 3.88006 31.8292 4.05684 31.8292H32.9854C33.1622 31.8292 33.3068 31.6846 33.3068 31.5078V29.0971C33.3068 28.9203 33.1622 28.7757 32.9854 28.7757ZM13.4988 10.5225H16.468V24.115C16.468 24.2917 16.6126 24.4364 16.7894 24.4364H19.2001C19.3769 24.4364 19.5216 24.2917 19.5216 24.115V10.5225H22.4988C22.768 10.5225 22.9167 10.2132 22.7519 10.0042L18.2519 4.30692C18.2219 4.2685 18.1834 4.23743 18.1396 4.21607C18.0957 4.1947 18.0476 4.18359 17.9988 4.18359C17.95 4.18359 17.9019 4.1947 17.858 4.21607C17.8142 4.23743 17.7757 4.2685 17.7457 4.30692L13.2457 10.0002C13.0809 10.2132 13.2296 10.5225 13.4988 10.5225Z" fill="black" fill-opacity="0.45"/>
</svg>
