<svg width="36" height="36" viewBox="0 0 36 36" fill="none" xmlns="http://www.w3.org/2000/svg">
<g clip-path="url(#clip0_636_5630)">
<path d="M18 0C8.05982 0 0 8.05982 0 18C0 27.9402 8.05982 36 18 36C27.9402 36 36 27.9402 36 18C36 8.05982 27.9402 0 18 0ZM18 32.9464C9.74732 32.9464 3.05357 26.2527 3.05357 18C3.05357 9.74732 9.74732 3.05357 18 3.05357C26.2527 3.05357 32.9464 9.74732 32.9464 18C32.9464 26.2527 26.2527 32.9464 18 32.9464ZM21.5156 19.4987C22.9138 18.9844 24.6656 17.5299 24.6656 14.7094C24.6656 11.8487 22.8375 9.44196 18.8719 9.44196H12.6161C12.4393 9.44196 12.2946 9.58661 12.2946 9.76339V26.2366C12.2946 26.4134 12.4393 26.558 12.6161 26.558H14.8058C14.9826 26.558 15.1272 26.4134 15.1272 26.2366V19.9768H18.6911L21.6884 26.3732C21.7406 26.4857 21.8531 26.558 21.9777 26.558H24.4688C24.5233 26.5585 24.5771 26.5449 24.6249 26.5185C24.6727 26.4921 24.7129 26.4538 24.7416 26.4074C24.7702 26.3609 24.7865 26.3079 24.7886 26.2533C24.7908 26.1988 24.7789 26.1446 24.754 26.096L21.5156 19.4987ZM18.4018 17.7188H15.1272V11.7723H18.4781C20.4067 11.7723 21.7286 12.7888 21.7286 14.8058C21.7286 16.6902 20.5312 17.7188 18.4018 17.7188Z" fill="black" fill-opacity="0.45"/>
</g>
<defs>
<clipPath id="clip0_636_5630">
<rect width="36" height="36" fill="white"/>
</clipPath>
</defs>
</svg>
