<svg width="36" height="36" viewBox="0 0 36 36" fill="none" xmlns="http://www.w3.org/2000/svg">
<g clip-path="url(#clip0_636_5628)">
<path d="M3.05357 4.98717H26.5179V11.5765H29.5714V3.21931C29.5714 2.50815 28.9969 1.93359 28.2857 1.93359H1.28571C0.574554 1.93359 0 2.50815 0 3.21931V32.7907C0 33.5019 0.574554 34.0765 1.28571 34.0765H23.1429V31.0229H3.05357V4.98717Z" fill="black" fill-opacity="0.45"/>
<path d="M14.0746 7.69978H11.6398C11.5032 7.69978 11.3827 7.78817 11.3344 7.91674L6.22774 22.7025C6.21569 22.7346 6.21167 22.7708 6.21167 22.8069C6.21167 22.9837 6.35631 23.1283 6.5331 23.1283H8.74694C8.88354 23.1283 9.00408 23.04 9.05229 22.9114L10.3661 19.1105H18.2492L14.384 7.91674C14.3599 7.8539 14.3175 7.79969 14.2624 7.76104C14.2073 7.72239 14.1419 7.70106 14.0746 7.69978ZM14.5728 16.8605H11.1376L12.8572 11.8864L14.5728 16.8605ZM35.0358 18.6283H29.5715V14.8917C29.5715 14.715 29.4268 14.5703 29.2501 14.5703H27.0001C26.8233 14.5703 26.6786 14.715 26.6786 14.8917V18.6283H21.2143C20.68 18.6283 20.2501 19.0583 20.2501 19.5926V26.6641C20.2501 27.1984 20.68 27.6283 21.2143 27.6283H26.6786V33.7355C26.6786 33.9123 26.8233 34.0569 27.0001 34.0569H29.2501C29.4268 34.0569 29.5715 33.9123 29.5715 33.7355V27.6283H35.0358C35.5702 27.6283 36.0001 27.1984 36.0001 26.6641V19.5926C36.0001 19.0583 35.5702 18.6283 35.0358 18.6283ZM26.6786 24.7355H23.1429V21.5212H26.6786V24.7355ZM33.1072 24.7355H29.5715V21.5212H33.1072V24.7355Z" fill="black" fill-opacity="0.45"/>
</g>
<defs>
<clipPath id="clip0_636_5628">
<rect width="36" height="36" fill="white"/>
</clipPath>
</defs>
</svg>
