<svg width="24" height="24" viewBox="0 0 24 24" fill="none" xmlns="http://www.w3.org/2000/svg">
<path d="M8 10L6 14V17C6 17.2652 5.89464 17.5196 5.70711 17.7071C5.51957 17.8946 5.26522 18 5 18H3C2.73478 18 2.48043 17.8946 2.29289 17.7071C2.10536 17.5196 2 17.2652 2 17V14C2 11.8783 2.84285 9.84344 4.34315 8.34315C5.84344 6.84285 7.87827 6 10 6C12.1217 6 14.1566 6.84285 15.6569 8.34315C17.1571 9.84344 18 11.8783 18 14V17C18 17.2652 17.8946 17.5196 17.7071 17.7071C17.5196 17.8946 17.2652 18 17 18H15C14.7348 18 14.4804 17.8946 14.2929 17.7071C14.1054 17.5196 14 17.2652 14 17V14L12 10M12 10H8M12 10L15.18 7.9M2 14H20C20.5304 14 21.0391 13.7893 21.4142 13.4142C21.7893 13.0391 22 12.5304 22 12C22 11.4696 21.7893 10.9609 21.4142 10.5858C21.0391 10.2107 20.5304 10 20 10H16.93M8 10L4.82 7.9" stroke="black" stroke-width="2" stroke-linecap="round" stroke-linejoin="round"/>
</svg>
