<svg width="36" height="36" viewBox="0 0 36 36" fill="none" xmlns="http://www.w3.org/2000/svg">
<path d="M30.5366 29.7347H5.4652C5.28841 29.7347 5.14377 29.8713 5.14377 30.04V32.4829C5.14377 32.6516 5.28841 32.7882 5.4652 32.7882H30.5366C30.7134 32.7882 30.8581 32.6516 30.8581 32.4829V30.04C30.8581 29.8713 30.7134 29.7347 30.5366 29.7347ZM18.0009 26.6811C20.7893 26.6811 23.4089 25.5922 25.3857 23.6195C27.3625 21.6467 28.4473 19.023 28.4473 16.2347V3.69894C28.4473 3.43376 28.2304 3.2168 27.9652 3.2168H25.5545C25.2893 3.2168 25.0723 3.43376 25.0723 3.69894V16.2347C25.0723 20.132 21.8982 23.3061 18.0009 23.3061C14.1036 23.3061 10.9295 20.132 10.9295 16.2347V3.69894C10.9295 3.43376 10.7125 3.2168 10.4473 3.2168H8.03663C7.77145 3.2168 7.55448 3.43376 7.55448 3.69894V16.2347C7.55448 19.023 8.64332 21.6427 10.6161 23.6195C12.5889 25.5963 15.2125 26.6811 18.0009 26.6811Z" fill="black" fill-opacity="0.45"/>
</svg>
