<svg width="36" height="36" viewBox="0 0 36 36" fill="none" xmlns="http://www.w3.org/2000/svg">
<path d="M17.9765 2.40822C9.10107 2.42027 1.9292 9.60018 1.9292 18.4756C1.9292 23.6185 4.34795 28.1988 8.10866 31.1399L6.60197 33.0685C6.43724 33.2814 6.58991 33.5908 6.85509 33.5868L13.5649 33.5546C13.7738 33.5546 13.9265 33.3578 13.8743 33.1569L12.2872 26.6359C12.2729 26.5771 12.2423 26.5236 12.1989 26.4814C12.1555 26.4393 12.101 26.4102 12.0418 26.3976C11.9827 26.3851 11.9211 26.3894 11.8643 26.4102C11.8075 26.4311 11.7577 26.4675 11.7207 26.5154L10.0855 28.6087C9.67563 28.2872 9.28188 27.9377 8.90822 27.564C7.73348 26.3934 6.79738 25.0056 6.15197 23.4779C5.48099 21.8948 5.14349 20.2113 5.14349 18.4756C5.14349 16.7399 5.48099 15.0564 6.15197 13.4734C6.79884 11.9426 7.72697 10.5685 8.90822 9.38724C10.0895 8.20599 11.4636 7.27786 12.9944 6.63099C14.5814 5.96 16.2649 5.6225 18.0006 5.6225C19.7363 5.6225 21.4198 5.96 23.0029 6.63099C24.5337 7.27786 25.9078 8.20599 27.089 9.38724C28.2703 10.5685 29.1984 11.9426 29.8453 13.4734C30.5163 15.0564 30.8538 16.7399 30.8538 18.4756C30.8538 20.2113 30.5163 21.8948 29.8453 23.4779C29.1999 25.0056 28.2638 26.3934 27.089 27.564C26.7877 27.8654 26.4743 28.1466 26.1488 28.4158C26.0836 28.4688 26.042 28.5454 26.033 28.6289C26.0239 28.7124 26.0482 28.7961 26.1006 28.8618L27.6837 30.8908C27.7962 31.0314 28.0011 31.0555 28.1417 30.943C31.7618 27.9939 34.0721 23.506 34.0721 18.4756C34.0721 9.59215 26.864 2.39616 17.9765 2.40822Z" fill="black" fill-opacity="0.45"/>
</svg>
