<svg width="36" height="36" viewBox="0 0 36 36" fill="none" xmlns="http://www.w3.org/2000/svg">
<g clip-path="url(#clip0_636_5626)">
<path d="M27 19.5268H9C8.64643 19.5268 8.35714 19.8161 8.35714 20.1696V27.2411C8.35714 27.5946 8.64643 27.8839 9 27.8839H27C27.3536 27.8839 27.6429 27.5946 27.6429 27.2411V20.1696C27.6429 19.8161 27.3536 19.5268 27 19.5268ZM24.75 24.9911H11.25V22.4196H24.75V24.9911ZM33.1071 30.2143C31.508 30.2143 30.2143 31.508 30.2143 33.1071C30.2143 34.7062 31.508 36 33.1071 36C34.7062 36 36 34.7062 36 33.1071C36 31.508 34.7062 30.2143 33.1071 30.2143ZM33.1071 34.0714C32.5728 34.0714 32.1429 33.6415 32.1429 33.1071C32.1429 32.5728 32.5728 32.1429 33.1071 32.1429C33.6415 32.1429 34.0714 32.5728 34.0714 33.1071C34.0714 33.6415 33.6415 34.0714 33.1071 34.0714ZM27 8.11607H9C8.64643 8.11607 8.35714 8.40536 8.35714 8.75893V15.8304C8.35714 16.1839 8.64643 16.4732 9 16.4732H27C27.3536 16.4732 27.6429 16.1839 27.6429 15.8304V8.75893C27.6429 8.40536 27.3536 8.11607 27 8.11607ZM24.75 13.5804H11.25V11.0089H24.75V13.5804ZM33.1071 5.78571C34.7062 5.78571 36 4.49196 36 2.89286C36 1.29375 34.7062 0 33.1071 0C31.508 0 30.2143 1.29375 30.2143 2.89286C30.2143 4.49196 31.508 5.78571 33.1071 5.78571ZM33.1071 1.92857C33.6415 1.92857 34.0714 2.35848 34.0714 2.89286C34.0714 3.42723 33.6415 3.85714 33.1071 3.85714C32.5728 3.85714 32.1429 3.42723 32.1429 2.89286C32.1429 2.35848 32.5728 1.92857 33.1071 1.92857ZM2.89286 0C1.29375 0 0 1.29375 0 2.89286C0 4.49196 1.29375 5.78571 2.89286 5.78571C4.49196 5.78571 5.78571 4.49196 5.78571 2.89286C5.78571 1.29375 4.49196 0 2.89286 0ZM2.89286 3.85714C2.35848 3.85714 1.92857 3.42723 1.92857 2.89286C1.92857 2.35848 2.35848 1.92857 2.89286 1.92857C3.42723 1.92857 3.85714 2.35848 3.85714 2.89286C3.85714 3.42723 3.42723 3.85714 2.89286 3.85714ZM2.89286 30.2143C1.29375 30.2143 0 31.508 0 33.1071C0 34.7062 1.29375 36 2.89286 36C4.49196 36 5.78571 34.7062 5.78571 33.1071C5.78571 31.508 4.49196 30.2143 2.89286 30.2143ZM2.89286 34.0714C2.35848 34.0714 1.92857 33.6415 1.92857 33.1071C1.92857 32.5728 2.35848 32.1429 2.89286 32.1429C3.42723 32.1429 3.85714 32.5728 3.85714 33.1071C3.85714 33.6415 3.42723 34.0714 2.89286 34.0714Z" fill="black" fill-opacity="0.45"/>
</g>
<defs>
<clipPath id="clip0_636_5626">
<rect width="36" height="36" fill="white"/>
</clipPath>
</defs>
</svg>
