<svg width="36" height="36" viewBox="0 0 36 36" fill="none" xmlns="http://www.w3.org/2000/svg">
<path d="M27.9646 14.7907V3.21931C27.9646 2.50815 27.39 1.93359 26.6789 1.93359H9.32174C8.61058 1.93359 8.03603 2.50815 8.03603 3.21931V14.7907C5.37621 14.7907 3.2146 16.884 3.2146 19.4515V33.755C3.2146 33.9318 3.35924 34.0765 3.53603 34.0765H5.78603C5.96281 34.0765 6.10746 33.9318 6.10746 33.755V19.4515C6.10746 18.4751 6.97531 17.6836 8.04005 17.6836H27.9606C29.0253 17.6836 29.8932 18.4751 29.8932 19.4515V33.755C29.8932 33.9318 30.0378 34.0765 30.2146 34.0765H32.4646C32.6414 34.0765 32.786 33.9318 32.786 33.755V19.4515C32.786 16.884 30.6244 14.7907 27.9646 14.7907ZM10.9289 14.7907V4.82645H25.0717V14.7907H10.9289ZM15.7503 7.39788H13.8217C13.645 7.39788 13.5003 7.54252 13.5003 7.71931V9.64788C13.5003 9.82467 13.645 9.96931 13.8217 9.96931H15.7503C15.9271 9.96931 16.0717 9.82467 16.0717 9.64788V7.71931C16.0717 7.54252 15.9271 7.39788 15.7503 7.39788ZM22.1789 7.39788H20.2503C20.0735 7.39788 19.9289 7.54252 19.9289 7.71931V9.64788C19.9289 9.82467 20.0735 9.96931 20.2503 9.96931H22.1789C22.3557 9.96931 22.5003 9.82467 22.5003 9.64788V7.71931C22.5003 7.54252 22.3557 7.39788 22.1789 7.39788Z" fill="black" fill-opacity="0.45"/>
</svg>
