<svg width="36" height="36" viewBox="0 0 36 36" fill="none" xmlns="http://www.w3.org/2000/svg">
<path d="M24.68 23.7566C25.6523 23.2343 26.7652 22.9369 27.9505 22.9369H27.9545C28.0751 22.9369 28.1313 22.7923 28.0429 22.7119C26.8103 21.6057 25.4022 20.7123 23.8764 20.0682C23.8603 20.0602 23.8443 20.0561 23.8282 20.0481C26.3233 18.2361 27.9465 15.291 27.9465 11.9682C27.9465 6.46373 23.4947 2.00391 18.0023 2.00391C12.5099 2.00391 8.06212 6.46373 8.06212 11.9682C8.06212 15.291 9.68533 18.2361 12.1844 20.0481C12.1684 20.0561 12.1523 20.0602 12.1362 20.0682C10.3402 20.8276 8.72908 21.9164 7.34292 23.3066C5.96477 24.6822 4.86757 26.313 4.11256 28.1079C3.36971 29.8656 2.96881 31.7488 2.93131 33.6566C2.93024 33.6995 2.93776 33.7421 2.95344 33.7821C2.96911 33.822 2.99261 33.8584 3.02257 33.8891C3.05252 33.9198 3.08832 33.9442 3.12785 33.9608C3.16738 33.9775 3.20985 33.9861 3.25274 33.9861H5.65944C5.83221 33.9861 5.97685 33.8454 5.98087 33.6727C6.06122 30.5709 7.30274 27.666 9.50051 25.4642C11.7706 23.1861 14.792 21.9325 18.0063 21.9325C20.2844 21.9325 22.4702 22.5633 24.3545 23.7445C24.4029 23.775 24.4585 23.7921 24.5156 23.7942C24.5728 23.7963 24.6294 23.7833 24.68 23.7566ZM18.0063 18.8789C16.1661 18.8789 14.4344 18.1597 13.1286 16.8539C12.4862 16.2131 11.9768 15.4515 11.63 14.613C11.2831 13.7745 11.1056 12.8756 11.1077 11.9682C11.1077 10.124 11.8268 8.38828 13.1286 7.08248C14.4304 5.77667 16.1621 5.05748 18.0063 5.05748C19.8505 5.05748 21.5782 5.77667 22.884 7.08248C23.5265 7.72329 24.0358 8.48489 24.3827 9.3234C24.7295 10.1619 24.907 11.0608 24.905 11.9682C24.905 13.8124 24.1858 15.5481 22.884 16.8539C21.5782 18.1597 19.8465 18.8789 18.0063 18.8789ZM32.784 28.4414H23.1411C22.9644 28.4414 22.8197 28.5861 22.8197 28.7628V31.0128C22.8197 31.1896 22.9644 31.3343 23.1411 31.3343H32.784C32.9608 31.3343 33.1054 31.1896 33.1054 31.0128V28.7628C33.1054 28.5861 32.9608 28.4414 32.784 28.4414Z" fill="black" fill-opacity="0.45"/>
</svg>
