<svg width="36" height="36" viewBox="0 0 36 36" fill="none" xmlns="http://www.w3.org/2000/svg">
<path d="M27.924 10.8788C27.924 5.37437 23.4642 0.914551 17.9598 0.914551C12.4553 0.914551 7.99548 5.37437 7.99548 10.8788C7.99548 14.2056 9.62673 17.1547 12.1339 18.9628C12.1178 18.9708 12.1057 18.9748 12.0977 18.9788C10.3017 19.7382 8.69057 20.8271 7.30441 22.2172C5.92625 23.5929 4.82906 25.2237 4.07405 27.0186C3.3312 28.7762 2.93029 30.6594 2.8928 32.5672C2.89173 32.6101 2.89925 32.6528 2.91492 32.6927C2.93059 32.7326 2.9541 32.769 2.98406 32.7997C3.01401 32.8304 3.04981 32.8548 3.08934 32.8715C3.12887 32.8881 3.17133 32.8967 3.21423 32.8967H5.62093C5.79369 32.8967 5.93834 32.7561 5.94235 32.5833C6.02271 29.4815 7.26423 26.5766 9.462 24.3748C11.7321 22.0967 14.7455 20.8431 17.9598 20.8431C23.4642 20.8431 27.924 16.3833 27.924 10.8788ZM17.9598 17.7896C14.1428 17.7896 11.0491 14.6958 11.0491 10.8788C11.0491 7.06187 14.1428 3.96812 17.9598 3.96812C21.7767 3.96812 24.8705 7.06187 24.8705 10.8788C24.8705 14.6958 21.7767 17.7896 17.9598 17.7896ZM22.1785 26.669H32.7857C32.9624 26.669 33.1071 26.5244 33.1071 26.3476V24.0976C33.1071 23.9208 32.9624 23.7762 32.7857 23.7762H25.6941L27.5906 21.3614C27.6343 21.3051 27.6583 21.2359 27.6589 21.1646C27.6589 20.9878 27.5142 20.8431 27.3374 20.8431H24.4205C24.2236 20.8431 24.0388 20.9355 23.9142 21.0882L21.162 24.5878C20.9852 24.8128 20.8888 25.094 20.8888 25.3833C20.8928 26.0945 21.4674 26.669 22.1785 26.669ZM31.8214 29.2404H21.2142C21.0374 29.2404 20.8928 29.3851 20.8928 29.5619V31.8119C20.8928 31.9887 21.0374 32.1333 21.2142 32.1333H28.3057L26.4093 34.548C26.3656 34.6044 26.3416 34.6736 26.341 34.7449C26.341 34.9217 26.4857 35.0663 26.6624 35.0663H29.5794C29.7763 35.0663 29.9611 34.9739 30.0857 34.8212L32.8379 31.3217C33.0147 31.0967 33.1111 30.8154 33.1111 30.5262C33.1071 29.815 32.5325 29.2404 31.8214 29.2404Z" fill="black" fill-opacity="0.45"/>
</svg>
