<svg width="36" height="36" viewBox="0 0 36 36" fill="none" xmlns="http://www.w3.org/2000/svg">
<path d="M33.1069 28.9345H24.1069C23.9301 28.9345 23.7855 29.0792 23.7855 29.256V31.1845C23.7855 31.3613 23.9301 31.506 24.1069 31.506H33.1069C33.2837 31.506 33.4284 31.3613 33.4284 31.1845V29.256C33.4284 29.0792 33.2837 28.9345 33.1069 28.9345ZM12.4351 17.9417C12.3989 17.5921 12.3788 17.2386 12.3788 16.881C12.3788 16.2421 12.4391 15.6194 12.5516 15.0127C12.5797 14.868 12.5034 14.7194 12.3708 14.6591C11.8243 14.414 11.3221 14.0765 10.8882 13.6506C10.3769 13.1548 9.97451 12.5579 9.70679 11.898C9.43907 11.238 9.31185 10.5295 9.33327 9.81757C9.36943 8.52784 9.88773 7.30239 10.7918 6.37829C11.7842 5.36177 13.1181 4.8073 14.5364 4.82338C15.8181 4.83543 17.0556 5.32963 17.9918 6.20552C18.3092 6.50284 18.5824 6.8323 18.8114 7.18588C18.8918 7.31043 19.0484 7.36266 19.1851 7.31445C19.8922 7.06936 20.6395 6.89659 21.4069 6.81623C21.6319 6.79213 21.7605 6.55105 21.6601 6.35016C20.3543 3.76668 17.6864 1.98275 14.6007 1.93454C10.1449 1.86623 6.43238 5.51847 6.43238 9.96623C6.43238 12.4894 7.59354 14.7394 9.41363 16.214C8.13595 16.8046 6.95872 17.6203 5.93818 18.6408C3.73639 20.8386 2.49086 23.7394 2.4105 26.8372C2.40943 26.8801 2.41695 26.9228 2.43262 26.9627C2.44829 27.0026 2.4718 27.039 2.50176 27.0697C2.53171 27.1004 2.56751 27.1248 2.60704 27.1415C2.64657 27.1581 2.68903 27.1667 2.73193 27.1667H4.98595C5.15872 27.1667 5.30336 27.0301 5.30738 26.8573C5.38372 24.5269 6.32791 22.3453 7.98729 20.6899C9.16854 19.5086 10.615 18.689 12.194 18.2912C12.3507 18.2511 12.4551 18.1024 12.4351 17.9417ZM30.5355 16.881C30.5355 12.4854 27.0038 8.91356 22.6243 8.84525C18.1726 8.77695 14.4641 12.4292 14.4641 16.881C14.4641 19.4042 15.6293 21.6542 17.4453 23.1287C16.1544 23.7271 14.9792 24.5486 13.9739 25.5555C11.7721 27.7533 10.5266 30.6542 10.4462 33.7479C10.4451 33.7908 10.4527 33.8335 10.4683 33.8734C10.484 33.9133 10.5075 33.9497 10.5375 33.9804C10.5674 34.0111 10.6032 34.0355 10.6428 34.0522C10.6823 34.0688 10.7247 34.0774 10.7676 34.0774H13.0176C13.1904 34.0774 13.3351 33.9408 13.3391 33.768C13.4154 31.4377 14.3596 29.256 16.019 27.6006C17.7507 25.8689 20.0489 24.9167 22.4998 24.9167C26.9355 24.9167 30.5355 21.3207 30.5355 16.881ZM26.136 20.5171C25.1636 21.4894 23.8739 22.0238 22.4998 22.0238C21.1257 22.0238 19.8359 21.4894 18.8636 20.5171C18.3784 20.0345 17.9951 19.4593 17.7362 18.8257C17.4774 18.1922 17.3484 17.5131 17.3569 16.8287C17.369 15.5109 17.8953 14.2372 18.8154 13.293C19.7797 12.3046 21.0694 11.7542 22.4476 11.7381C23.8096 11.7261 25.1315 12.2564 26.1038 13.2086C27.1002 14.185 27.6467 15.4908 27.6467 16.881C27.6426 18.2551 27.1083 19.5448 26.136 20.5171Z" fill="black" fill-opacity="0.45"/>
</svg>
