<svg width="36" height="36" viewBox="0 0 36 36" fill="none" xmlns="http://www.w3.org/2000/svg">
<path d="M33.268 28.4423H30.0537V25.2281C30.0537 25.0513 29.9091 24.9066 29.7323 24.9066H27.8037C27.6269 24.9066 27.4823 25.0513 27.4823 25.2281V28.4423H24.268C24.0912 28.4423 23.9466 28.587 23.9466 28.7638V30.6923C23.9466 30.8691 24.0912 31.0138 24.268 31.0138H27.4823V34.2281C27.4823 34.4048 27.6269 34.5495 27.8037 34.5495H29.7323C29.9091 34.5495 30.0537 34.4048 30.0537 34.2281V31.0138H33.268C33.4448 31.0138 33.5894 30.8691 33.5894 30.6923V28.7638C33.5894 28.587 33.4448 28.4423 33.268 28.4423ZM12.4354 17.4495C12.3993 17.0999 12.3792 16.7464 12.3792 16.3888C12.3792 15.7499 12.4394 15.1272 12.5519 14.5205C12.5801 14.3758 12.5037 14.2272 12.3711 14.1669C11.8247 13.9218 11.3225 13.5843 10.8886 13.1584C10.3772 12.6626 9.97489 12.0657 9.70717 11.4058C9.43944 10.7458 9.31223 10.0373 9.33364 9.32539C9.36981 8.03565 9.88811 6.81021 10.7921 5.8861C11.7845 4.86958 13.1185 4.31512 14.5368 4.33119C15.8185 4.34324 17.056 4.83744 17.9921 5.71333C18.3095 6.01065 18.5828 6.34012 18.8118 6.69369C18.8921 6.81824 19.0488 6.87047 19.1854 6.82226C19.8926 6.57717 20.6399 6.4044 21.4073 6.32405C21.6323 6.29994 21.7609 6.05887 21.6604 5.85797C20.3546 3.27449 17.6868 1.49056 14.6011 1.44235C10.1493 1.37405 6.43677 5.02628 6.43677 9.47806C6.43677 12.0013 7.59793 14.2513 9.41802 15.7258C8.14034 16.3165 6.96311 17.1321 5.94257 18.1526C3.74079 20.3504 2.49525 23.2513 2.4149 26.349C2.41382 26.3919 2.42134 26.4346 2.43702 26.4745C2.45269 26.5145 2.4762 26.5508 2.50615 26.5815C2.53611 26.6122 2.5719 26.6366 2.61143 26.6533C2.65096 26.6699 2.69343 26.6785 2.73632 26.6785H4.99034C5.16311 26.6785 5.30775 26.5419 5.31177 26.3691C5.38811 24.0388 6.33231 21.8571 7.99168 20.2017C9.17293 19.0205 10.6194 18.2008 12.1984 17.8031C12.3511 17.7589 12.4555 17.6102 12.4354 17.4495ZM30.5359 16.3888C30.5359 11.9932 27.0042 8.42137 22.6247 8.35306C18.1729 8.28476 14.4644 11.937 14.4644 16.3888C14.4644 18.912 15.6296 21.162 17.4457 22.6365C16.1548 23.2349 14.9796 24.0565 13.9743 25.0633C11.7725 27.2611 10.5269 30.162 10.4466 33.2557C10.4455 33.2986 10.453 33.3413 10.4687 33.3812C10.4844 33.4211 10.5079 33.4575 10.5378 33.4882C10.5678 33.5189 10.6036 33.5433 10.6431 33.56C10.6827 33.5766 10.7251 33.5852 10.768 33.5852H13.018C13.1908 33.5852 13.3354 33.4486 13.3394 33.2758C13.4158 30.9455 14.36 28.7638 16.0194 27.1084C17.7511 25.3767 20.0493 24.4245 22.5002 24.4245C26.9359 24.4245 30.5359 20.8285 30.5359 16.3888ZM26.1363 20.0249C25.164 20.9973 23.8743 21.5316 22.5002 21.5316C21.1261 21.5316 19.8363 20.9973 18.864 20.0249C18.3788 19.5423 17.9954 18.9671 17.7366 18.3335C17.4778 17.7 17.3488 17.0209 17.3573 16.3365C17.3694 15.0187 17.8957 13.745 18.8158 12.8008C19.7801 11.8124 21.0698 11.262 22.4479 11.2459C23.81 11.2339 25.1319 11.7642 26.1042 12.7165C27.1006 13.6928 27.647 14.9986 27.647 16.3888C27.643 17.7629 27.1086 19.0526 26.1363 20.0249Z" fill="black" fill-opacity="0.45"/>
</svg>
