<svg width="36" height="36" viewBox="0 0 36 36" fill="none" xmlns="http://www.w3.org/2000/svg">
<g clip-path="url(#clip0_636_5617)">
<path d="M15.4211 21.0844L15.1278 19.7786C15.1198 19.7385 15.1037 19.7023 15.0836 19.6702C15.0604 19.6348 15.0303 19.6045 14.9952 19.5808C14.9601 19.5572 14.9207 19.5408 14.8791 19.5326C14.8376 19.5244 14.7949 19.5245 14.7535 19.5329C14.712 19.5414 14.6726 19.558 14.6376 19.5818L13.7015 20.2086V13.9407C13.7015 13.7639 13.5568 13.6193 13.3801 13.6193H10.1256C9.94881 13.6193 9.80416 13.7639 9.80416 13.9407V15.3871C9.80416 15.5639 9.94881 15.7086 10.1256 15.7086H11.6122V23.4389C11.612 23.4983 11.6283 23.5565 11.6591 23.6072C11.69 23.6579 11.7343 23.6991 11.7872 23.7261C11.84 23.7531 11.8993 23.765 11.9585 23.7604C12.0177 23.7558 12.0744 23.735 12.1225 23.7001L15.2966 21.4179C15.401 21.3416 15.4493 21.213 15.4211 21.0844ZM13.143 12.3818L13.151 12.3898C13.2796 12.5103 13.4845 12.5023 13.6051 12.3697L14.5734 11.317C14.6297 11.2549 14.6599 11.1735 14.6577 11.0896C14.6554 11.0058 14.6209 10.926 14.5613 10.867L12.4037 8.77374C12.3431 8.71537 12.262 8.68311 12.1779 8.68386C12.0938 8.68461 12.0133 8.71832 11.9537 8.77775L10.9613 9.77017C10.8368 9.89472 10.8368 10.0996 10.9653 10.2242L13.143 12.3818Z" fill="black" fill-opacity="0.45"/>
<path d="M32.2588 4.24535L18.6061 -0.407324C18.4413 -0.463574 18.2204 -0.491699 17.9994 -0.491699C17.7784 -0.491699 17.5574 -0.463574 17.3927 -0.407324L3.74 4.24535C3.40652 4.35785 3.1333 4.74357 3.1333 5.09714V24.4793C3.1333 24.8329 3.36232 25.2989 3.63955 25.5199L17.4891 36.3119C17.6297 36.4204 17.8105 36.4766 17.9954 36.4766C18.1802 36.4766 18.365 36.4204 18.5016 36.3119L32.3512 25.5199C32.6284 25.3029 32.8574 24.8369 32.8574 24.4793V5.09714C32.8654 4.74357 32.5922 4.36187 32.2588 4.24535ZM29.9726 23.7079L17.9994 33.0373L6.02616 23.7079V6.5275L17.9994 2.44535L29.9726 6.5275V23.7079Z" fill="black" fill-opacity="0.45"/>
<path d="M15.5884 9.35693V10.8034C15.5884 10.9801 15.733 11.1248 15.9098 11.1248H20.2491V22.1337H18.7223V13.6962C18.7223 13.5194 18.5776 13.3748 18.4009 13.3748H16.9946C16.8178 13.3748 16.6732 13.5194 16.6732 13.6962V22.1337H15.4276C15.2509 22.1337 15.1062 22.2784 15.1062 22.4551V23.9418C15.1062 24.1185 15.2509 24.2632 15.4276 24.2632H25.2312C25.408 24.2632 25.5526 24.1185 25.5526 23.9418V22.4551C25.5526 22.2784 25.408 22.1337 25.2312 22.1337H22.3384V17.2319H24.6687C24.8455 17.2319 24.9901 17.0873 24.9901 16.9105V15.5043C24.9901 15.3275 24.8455 15.1828 24.6687 15.1828H22.3384V11.1248H24.8696C25.0464 11.1248 25.191 10.9801 25.191 10.8034V9.35693C25.191 9.18015 25.0464 9.0355 24.8696 9.0355H15.9098C15.733 9.0355 15.5884 9.18015 15.5884 9.35693Z" fill="black" fill-opacity="0.45"/>
</g>
<defs>
<clipPath id="clip0_636_5617">
<rect width="36" height="36" fill="white"/>
</clipPath>
</defs>
</svg>
