<svg width="36" height="36" viewBox="0 0 36 36" fill="none" xmlns="http://www.w3.org/2000/svg">
<path d="M31.9786 28.7685H4.02233C3.84153 28.7685 3.69688 28.9131 3.69688 29.0899V31.5006C3.69688 31.6774 3.84153 31.8221 4.02233 31.8221H31.9786C32.1594 31.8221 32.304 31.6774 32.304 31.5006V29.0899C32.304 28.9131 32.1594 28.7685 31.9786 28.7685ZM17.7473 24.3087C17.7774 24.3471 17.8158 24.3782 17.8597 24.3995C17.9035 24.4209 17.9517 24.432 18.0005 24.432C18.0492 24.432 18.0974 24.4209 18.1412 24.3995C18.1851 24.3782 18.2235 24.3471 18.2536 24.3087L22.7536 18.6154C22.9183 18.4064 22.7697 18.0971 22.5005 18.0971H19.5232V4.50063C19.5232 4.32384 19.3786 4.1792 19.2018 4.1792H16.7911C16.6143 4.1792 16.4697 4.32384 16.4697 4.50063V18.093H13.5005C13.2313 18.093 13.0826 18.4024 13.2473 18.6113L17.7473 24.3087Z" fill="black" fill-opacity="0.45"/>
</svg>
