<svg width="36" height="36" viewBox="0 0 36 36" fill="none" xmlns="http://www.w3.org/2000/svg">
<path d="M28.0441 4.01698H25.4726C25.2958 4.01698 25.1512 4.16162 25.1512 4.3384V31.9813C25.1512 32.158 25.2958 32.3027 25.4726 32.3027H28.0441C28.2208 32.3027 28.3655 32.158 28.3655 31.9813V4.3384C28.3655 4.16162 28.2208 4.01698 28.0441 4.01698ZM7.63334 4.01698V6.9259C7.63334 7.3076 7.80209 7.66519 8.09137 7.91028L20.1128 17.9991L8.09137 28.088C7.80209 28.333 7.63334 28.6906 7.63334 29.0723V31.9813C7.63334 32.2545 7.95075 32.4031 8.15968 32.2264L25.111 17.9991L8.15968 3.77189C8.11311 3.73229 8.05615 3.70688 7.99557 3.69868C7.93499 3.69049 7.87333 3.69985 7.81792 3.72565C7.7625 3.75146 7.71565 3.79263 7.68293 3.84426C7.65021 3.8959 7.633 3.95585 7.63334 4.01698Z" fill="black" fill-opacity="0.45"/>
</svg>
