<svg width="36" height="36" viewBox="0 0 36 36" fill="none" xmlns="http://www.w3.org/2000/svg">
<path d="M34.0714 9.58411L28.9286 12.5453V6.43813C28.9286 5.01982 27.7754 3.8667 26.3571 3.8667H2.57143C1.15313 3.8667 0 5.01982 0 6.43813V29.581C0 30.9993 1.15313 32.1524 2.57143 32.1524H26.3571C27.7754 32.1524 28.9286 30.9993 28.9286 29.581V23.4738L34.0714 26.435C34.9272 26.9292 36 26.3104 36 25.3261V10.6971C36 9.70866 34.9272 9.08991 34.0714 9.58411ZM26.0357 29.2596H2.89286V6.75956H26.0357V29.2596ZM33.1071 22.5497L28.9286 20.1471V15.8761L33.1071 13.4694V22.5497ZM5.78571 11.9024H10.2857C10.4625 11.9024 10.6071 11.7578 10.6071 11.581V9.65241C10.6071 9.47563 10.4625 9.33099 10.2857 9.33099H5.78571C5.60893 9.33099 5.46429 9.47563 5.46429 9.65241V11.581C5.46429 11.7578 5.60893 11.9024 5.78571 11.9024Z" fill="black" fill-opacity="0.45"/>
</svg>
