<svg width="36" height="36" viewBox="0 0 36 36" fill="none" xmlns="http://www.w3.org/2000/svg">
<path d="M32.7853 1.93359H3.21383C2.50267 1.93359 1.92812 2.50815 1.92812 3.21931V32.7907C1.92812 33.5019 2.50267 34.0765 3.21383 34.0765H32.7853C33.4964 34.0765 34.071 33.5019 34.071 32.7907V3.21931C34.071 2.50815 33.4964 1.93359 32.7853 1.93359ZM31.1781 20.5765H18.6424V15.4336H31.1781V20.5765ZM31.1781 31.1836H4.82097V4.82645H31.1781V12.8622H17.3567C16.6455 12.8622 16.071 13.4367 16.071 14.1479V21.8622C16.071 22.5733 16.6455 23.1479 17.3567 23.1479H31.1781V31.1836ZM20.7317 18.005C20.7317 18.4313 20.901 18.84 21.2024 19.1414C21.5038 19.4428 21.9126 19.6122 22.3388 19.6122C22.7651 19.6122 23.1739 19.4428 23.4753 19.1414C23.7767 18.84 23.946 18.4313 23.946 18.005C23.946 17.5788 23.7767 17.17 23.4753 16.8686C23.1739 16.5672 22.7651 16.3979 22.3388 16.3979C21.9126 16.3979 21.5038 16.5672 21.2024 16.8686C20.901 17.17 20.7317 17.5788 20.7317 18.005Z" fill="black" fill-opacity="0.45"/>
</svg>
