<svg width="36" height="36" viewBox="0 0 36 36" fill="none" xmlns="http://www.w3.org/2000/svg">
<g clip-path="url(#clip0_636_5611)">
<path d="M26.4784 22.3644C24.2203 20.3997 21.2712 19.2104 18.0409 19.2104C14.8105 19.2104 11.8614 20.3997 9.59934 22.3684C9.53687 22.4247 9.49863 22.503 9.49264 22.5869C9.48665 22.6708 9.51337 22.7538 9.56719 22.8184L11.0136 24.5421C11.1301 24.6787 11.3351 24.6948 11.4717 24.5782C13.2234 23.0354 15.5217 22.1032 18.0409 22.1032C20.5601 22.1032 22.8583 23.0354 24.6101 24.5742C24.7467 24.6907 24.9516 24.6747 25.0681 24.5381L26.5145 22.8144C26.627 22.6818 26.6109 22.4809 26.4784 22.3644ZM31.1953 16.7354C27.6315 13.7662 23.0471 11.9782 18.0409 11.9782C13.0346 11.9782 8.45023 13.7662 4.88237 16.7354C4.8171 16.7904 4.77625 16.8691 4.76872 16.9541C4.7612 17.0392 4.78761 17.1237 4.84219 17.1894L6.28862 18.9131C6.40112 19.0497 6.60603 19.0657 6.73862 18.9532C9.80425 16.4059 13.7458 14.8711 18.0409 14.8711C22.3359 14.8711 26.2775 16.4059 29.3391 18.9532C29.4757 19.0657 29.6766 19.0497 29.7891 18.9131L31.2355 17.1894C31.348 17.0528 31.3319 16.8479 31.1953 16.7354ZM35.8842 11.1506C31.0065 7.14877 24.7627 4.74609 17.9605 4.74609C11.2025 4.74609 4.99889 7.11663 0.133265 11.0702C0.099837 11.0971 0.0721202 11.1303 0.0517474 11.1681C0.0313745 11.2058 0.0187575 11.2472 0.0146391 11.2899C0.0105206 11.3326 0.014984 11.3757 0.0277666 11.4166C0.0405491 11.4575 0.0613922 11.4955 0.0890687 11.5282L1.5355 13.2519C1.648 13.3845 1.84889 13.4046 1.98148 13.2961C6.34889 9.75636 11.9056 7.63895 17.9605 7.63895C24.0596 7.63895 29.6525 9.78851 34.0319 13.3724C34.1685 13.4849 34.3694 13.4648 34.4819 13.3282L35.9284 11.6046C36.0449 11.468 36.0248 11.2631 35.8842 11.1506ZM15.4292 28.6925C15.4292 29.3745 15.7002 30.0286 16.1824 30.5108C16.6646 30.993 17.3187 31.264 18.0007 31.264C18.6827 31.264 19.3367 30.993 19.8189 30.5108C20.3012 30.0286 20.5721 29.3745 20.5721 28.6925C20.5721 28.0105 20.3012 27.3565 19.8189 26.8743C19.3367 26.392 18.6827 26.1211 18.0007 26.1211C17.3187 26.1211 16.6646 26.392 16.1824 26.8743C15.7002 27.3565 15.4292 28.0105 15.4292 28.6925Z" fill="black" fill-opacity="0.45"/>
</g>
<defs>
<clipPath id="clip0_636_5611">
<rect width="36" height="36" fill="white"/>
</clipPath>
</defs>
</svg>
