<svg width="36" height="36" viewBox="0 0 36 36" fill="none" xmlns="http://www.w3.org/2000/svg">
<path d="M18 22.5C15.24 22.5 15 21.21 15 21H12C12 22.38 12.99 24.825 16.5 25.38V27H19.5V25.38C22.5 24.87 24 22.935 24 21C24 19.32 23.22 16.5 18 16.5C15 16.5 15 15.555 15 15C15 14.445 16.05 13.5 18 13.5C19.95 13.5 20.085 14.46 20.1 15H23.1C23.0797 13.9781 22.7122 12.9936 22.0579 12.2084C21.4036 11.4233 20.5015 10.8842 19.5 10.68V9H16.5V10.635C13.5 11.13 12 13.065 12 15C12 16.68 12.78 19.5 18 19.5C21 19.5 21 20.52 21 21C21 21.48 20.07 22.5 18 22.5Z" fill="black" fill-opacity="0.45"/>
<path d="M7.5 3H3V6H6V31.5C6 31.8978 6.15804 32.2794 6.43934 32.5607C6.72064 32.842 7.10218 33 7.5 33H28.5C28.8978 33 29.2794 32.842 29.5607 32.5607C29.842 32.2794 30 31.8978 30 31.5V6H33V3H7.5ZM27 30H9V6H27V30Z" fill="black" fill-opacity="0.45"/>
</svg>
