<svg width="36" height="36" viewBox="0 0 36 36" fill="none" xmlns="http://www.w3.org/2000/svg">
<path d="M26.0682 19.4786C28.2217 17.325 29.411 14.4563 29.411 11.4107C29.411 8.36116 28.2258 5.49643 26.0682 3.34286C23.9146 1.18929 21.0459 0 18.0003 0C14.9548 0 12.086 1.18527 9.93246 3.34286C7.77889 5.50045 6.5896 8.36116 6.5896 11.4107C6.5896 13.9741 7.42933 16.4089 8.97621 18.3978C9.26951 18.7754 9.58692 19.133 9.92844 19.4786C10.27 19.8201 10.6316 20.1375 11.0052 20.4308C12.5963 21.6683 14.4726 22.4558 16.4735 22.721V27H11.8932C11.7164 27 11.5717 27.1446 11.5717 27.3214V29.7321C11.5717 29.9089 11.7164 30.0536 11.8932 30.0536H16.4735V35.6786C16.4735 35.8554 16.6182 36 16.795 36H19.2057C19.3825 36 19.5271 35.8554 19.5271 35.6786V30.0536H24.1075C24.2842 30.0536 24.4289 29.9089 24.4289 29.7321V27.3214C24.4289 27.1446 24.2842 27 24.1075 27H19.5271V22.721C21.9981 22.3915 24.2762 21.2705 26.0682 19.4786ZM18.0003 19.7679C15.7664 19.7679 13.6731 18.9 12.09 17.321C10.511 15.742 9.64317 13.6446 9.64317 11.4107C9.64317 9.17679 10.511 7.08348 12.09 5.50045C13.6691 3.91741 15.7664 3.05357 18.0003 3.05357C20.2342 3.05357 22.3275 3.92143 23.9106 5.50045C25.4896 7.07946 26.3575 9.17679 26.3575 11.4107C26.3575 13.6446 25.4896 15.7379 23.9106 17.321C22.3275 18.9 20.2342 19.7679 18.0003 19.7679Z" fill="black" fill-opacity="0.45"/>
</svg>
